M48
; DRILL file KiCad 10.0.6 date 2026-09-21T05:57:00
; FORMAT={-:-/ absolute / metric / decimal}
; #@! TF.CreationDate,2026-09-21T05:57:00+06:00
; #@! TF.GenerationSoftware,Kicad,Pcbnew,10.0.6
; #@! TF.FileFunction,MixedPlating,1,4
FMAT,2
METRIC
; #@! TA.AperFunction,Plated,PTH,ComponentDrill
T1C0.200
; #@! TA.AperFunction,Plated,PTH,ViaDrill
T2C0.300
; #@! TA.AperFunction,Plated,PTH,ComponentDrill
T3C0.600
; #@! TA.AperFunction,NonPlated,NPTH,ComponentDrill
T4C0.650
; #@! TA.AperFunction,NonPlated,NPTH,ComponentDrill
T5C0.900
; #@! TA.AperFunction,NonPlated,NPTH,ComponentDrill
T6C2.200
%
G90
G05
T1
X9.1Y-14.76
X9.1Y-16.16
X9.8Y-14.06
X9.8Y-15.46
X9.8Y-16.86
X10.5Y-14.76
X10.5Y-16.16
X11.2Y-14.06
X11.2Y-15.46
X11.2Y-16.86
X11.9Y-14.76
X11.9Y-16.16
T2
X1.311Y-33.858
X2.541Y-37.023
X4.462Y-14.09
X4.472Y-11.55
X4.478Y-19.17
X5.392Y-29.886
X6.004Y-42.873
X6.014Y-38.75
X6.179Y-15.36
X6.407Y-23.723
X6.564Y-29.164
X6.641Y-16.63
X6.674Y-12.82
X6.7Y-34.8
X6.73Y-37.794
X7.175Y-36.5
X7.504Y-23.851
X8.091Y-43.622
X8.172Y-26.774
X8.882Y-9.636
X9.021Y-12.241
X9.101Y-18.306
X9.25Y-32.4
X10.047Y-29.325
X10.253Y-12.806
X10.372Y-20.44
X10.845Y-28.494
X11.33Y-23.835
X11.655Y-28.338
X13.025Y-26.772
X13.373Y-22.181
X13.651Y-24.278
X13.863Y-47.95
X14.8Y-26.758
X15.384Y-24.294
X15.493Y-21.114
X15.684Y-29.159
X17.144Y-24.289
X17.782Y-22.327
X17.91Y-41.514
X18.234Y-23.672
X18.688Y-43.313
X19.055Y-28.5
X19.522Y-15.36
X19.527Y-24.296
X19.528Y-17.9
X19.534Y-9.01
X19.545Y-22.693
X19.547Y-16.955
X19.548Y-14.09
X19.668Y-30.168
X21.014Y-40.157
X22.238Y-39.988
X22.305Y-11.689
X23.015Y-28.256
X23.775Y-42.238
X24.379Y-29.857
X24.432Y-7.75
X24.501Y-10.22
X24.977Y-24.159
X25.621Y-11.367
X26.229Y-10.319
X26.362Y-29.0
X27.378Y-20.123
X27.919Y-26.788
X28.176Y-13.019
X29.543Y-11.575
X29.994Y-22.693
X31.075Y-33.332
X31.208Y-8.79
X31.567Y-26.216
X32.175Y-31.218
X32.366Y-24.462
X32.828Y-8.262
X33.957Y-25.489
X34.029Y-33.336
X34.2Y-26.884
X35.125Y-29.02
X35.742Y-14.836
X36.055Y-10.179
X36.375Y-14.378
X36.794Y-28.969
X36.901Y-8.39
X37.006Y-14.863
X37.826Y-17.272
X37.976Y-33.35
X38.13Y-18.547
X38.775Y-25.253
X39.432Y-17.117
X40.043Y-8.835
X40.181Y-7.847
X40.854Y-3.11
X40.899Y-16.13
X41.061Y-21.056
X41.805Y-19.794
X42.125Y-4.392
X42.855Y-7.029
X42.876Y-26.966
X42.933Y-25.428
X43.813Y-43.225
X43.863Y-16.961
X43.888Y-7.201
X43.972Y-19.363
X44.629Y-42.21
X44.706Y-30.732
X44.783Y-13.638
X44.861Y-20.302
X44.885Y-8.766
X45.353Y-25.596
X45.704Y-22.772
X45.777Y-38.606
X45.797Y-42.274
X45.814Y-35.252
X46.046Y-33.126
X46.256Y-31.944
X46.438Y-27.84
X46.461Y-22.279
X47.343Y-20.923
X47.437Y-4.376
X47.462Y-24.15
X47.725Y-25.574
X47.89Y-31.553
X48.584Y-23.761
X48.664Y-24.975
X51.096Y-22.523
X51.398Y-25.179
X51.975Y-24.684
X51.99Y-35.95
X52.407Y-15.83
X52.454Y-31.05
X53.61Y-20.011
X53.78Y-34.95
X53.915Y-22.315
X53.934Y-17.372
X54.73Y-30.194
X55.111Y-37.816
X55.811Y-18.656
X56.595Y-33.0
X56.848Y-29.979
X57.013Y-10.525
X57.398Y-4.451
X57.75Y-11.292
X58.312Y-37.075
X59.305Y-7.653
X59.716Y-4.379
X62.053Y-15.35
X62.081Y-14.375
X62.542Y-34.528
X62.631Y-16.786
X64.04Y-18.5
X64.051Y-35.425
X64.281Y-31.856
X64.659Y-4.509
X64.688Y-29.027
X67.258Y-44.0
X67.811Y-27.952
X72.255Y-39.447
T4
X3.11Y-42.895
X8.89Y-42.895
T5
X17.35Y-34.0
X24.15Y-34.0
T6
X12.5Y-36.25
X63.25Y-40.5
X72.0Y-3.0
T3
X1.68Y-41.845G85X1.68Y-42.945
G05
X1.68Y-46.175G85X1.68Y-46.975
G05
X10.32Y-41.845G85X10.32Y-42.945
G05
X10.32Y-46.175G85X10.32Y-46.975
G05
M30
