%TF.GenerationSoftware,KiCad,Pcbnew,10.0.6*%
%TF.CreationDate,2026-09-27T12:07:04+06:00*%
%TF.ProjectId,afo_revb_main,61666f5f-7265-4766-925f-6d61696e2e6b,rev?*%
%TF.SameCoordinates,Original*%
%TF.FileFunction,Copper,L4,Bot*%
%TF.FilePolarity,Positive*%
%FSLAX46Y46*%
G04 Gerber Fmt 4.6, Leading zero omitted, Abs format (unit mm)*
G04 Created by KiCad (PCBNEW 10.0.6) date 2026-09-27 12:07:04*
%MOMM*%
%LPD*%
G01*
G04 APERTURE LIST*
%TA.AperFunction,ComponentPad*%
%ADD10O,1.000000X2.100000*%
%TD*%
%TA.AperFunction,ComponentPad*%
%ADD11O,1.000000X1.800000*%
%TD*%
%TA.AperFunction,HeatsinkPad*%
%ADD12C,0.600000*%
%TD*%
%TA.AperFunction,ViaPad*%
%ADD13C,0.600000*%
%TD*%
%TA.AperFunction,Conductor*%
%ADD14C,0.200000*%
%TD*%
%TA.AperFunction,Conductor*%
%ADD15C,0.150000*%
%TD*%
G04 APERTURE END LIST*
D10*
%TO.P,J1,SH*%
%TO.N,GND*%
X1680000Y-42395000D03*
D11*
X1680000Y-46575000D03*
D10*
X10320000Y-42395000D03*
D11*
X10320000Y-46575000D03*
%TD*%
D12*
%TO.P,U1,41*%
%TO.N,GND*%
X9100000Y-14760000D03*
X9100000Y-16160000D03*
X9800000Y-14060000D03*
X9800000Y-15460000D03*
X9800000Y-16860000D03*
X10500000Y-14760000D03*
X10500000Y-16160000D03*
X11200000Y-14060000D03*
X11200000Y-15460000D03*
X11200000Y-16860000D03*
X11900000Y-14760000D03*
X11900000Y-16160000D03*
%TD*%
D13*
%TO.N,3V3D*%
X11911600Y-28236600D03*
X55812700Y-6512300D03*
X4239800Y-28866400D03*
X38807400Y-5601300D03*
X46528100Y-38061100D03*
X25612200Y-11232100D03*
X24562500Y-25690000D03*
X40495600Y-25928900D03*
X54364900Y-27200500D03*
X33069600Y-15144600D03*
X8183900Y-37700100D03*
X43175400Y-13749600D03*
X4501900Y-9010000D03*
%TO.N,SD_CMD*%
X35098800Y-28982100D03*
X30542600Y-20099300D03*
%TO.N,RC0B*%
X56388600Y-32950600D03*
X57028000Y-10525000D03*
%TO.N,LED_LOW*%
X41682200Y-10242800D03*
X19495900Y-10370200D03*
%TO.N,VBAT*%
X21741500Y-27943800D03*
X30156900Y-12242900D03*
X25328300Y-7427000D03*
X22009500Y-7216700D03*
X18248400Y-29470700D03*
%TO.N,BAT_SENSE*%
X24323400Y-7216700D03*
X19497500Y-9568400D03*
X19368100Y-16115900D03*
X19523900Y-28770000D03*
%TO.N,SD_D3*%
X40696500Y-25123100D03*
X37879800Y-33381500D03*
%TO.N,SD_CLK*%
X21575000Y-38247600D03*
X34158500Y-33393200D03*
%TO.N,GND*%
X69821100Y-13589900D03*
X44200800Y-44024200D03*
X49190500Y-6515500D03*
X69636600Y-43778100D03*
X4529000Y-7554000D03*
X47451300Y-37725000D03*
X65280100Y-37755100D03*
X70250000Y-33571000D03*
X4869100Y-29926500D03*
X63692800Y-7602500D03*
X28167600Y-36780700D03*
X40875000Y-7086800D03*
X38210400Y-25423100D03*
X9846100Y-28646100D03*
%TO.N,SD_D0*%
X31934600Y-31166300D03*
X32648500Y-17869600D03*
X33545700Y-27395600D03*
%TO.N,SD_D1*%
X35470900Y-27261200D03*
X31288100Y-33389800D03*
%TO.N,BUF0B*%
X43925000Y-16988800D03*
X46199700Y-32607300D03*
%TO.N,AIN0P*%
X53750000Y-17033300D03*
X44824200Y-15249200D03*
%TO.N,EXP_SDA*%
X35500000Y-19214800D03*
X16466600Y-24239000D03*
%TO.N,EXP_SCL*%
X17534900Y-23289700D03*
X37625000Y-17307600D03*
%TO.N,UART_TX*%
X38875000Y-14565200D03*
X28067400Y-12815100D03*
X17571400Y-13933600D03*
X19495900Y-11817400D03*
%TO.N,UART_RX*%
X22011000Y-16061200D03*
X40125000Y-14595600D03*
%TO.N,3V0A*%
X53895100Y-33600600D03*
X48487200Y-35487800D03*
X68174800Y-24999500D03*
X53796600Y-42534400D03*
X68157600Y-34205400D03*
X68191300Y-15453400D03*
X59749400Y-17271800D03*
X53892800Y-14284100D03*
X59519300Y-37048700D03*
%TO.N,IMU_SCL*%
X59125000Y-4338600D03*
X4506600Y-13885100D03*
X42125000Y-7077900D03*
%TO.N,IMU_SDA*%
X60375000Y-4337500D03*
X4504100Y-11777400D03*
X43375000Y-4336600D03*
%TO.N,IMU_RESERVED*%
X44625000Y-4325600D03*
X4503300Y-12820000D03*
%TO.N,FOOT_AD0*%
X45819800Y-8292500D03*
X29795300Y-8817900D03*
X2000000Y-15360000D03*
%TO.N,FOOT_INT*%
X46594900Y-6947500D03*
X4504100Y-17672600D03*
%TO.N,VMID*%
X65226500Y-43009800D03*
X71825000Y-37507900D03*
X71825000Y-17518600D03*
X71839700Y-9235300D03*
%TO.N,USB_VBUS*%
X8400000Y-40547200D03*
X1768800Y-40479300D03*
X20877700Y-40057300D03*
%TO.N,USB_GATE*%
X32250000Y-20922700D03*
X25757100Y-41000000D03*
X16877100Y-38985400D03*
%TO.N,RAW0*%
X71500000Y-16306400D03*
X68507200Y-7832200D03*
%TO.N,USB_DP*%
X4769900Y-43759400D03*
X19016000Y-41566700D03*
X3424900Y-36987600D03*
%TO.N,USB_DM*%
X3964000Y-40367700D03*
X22436700Y-38511700D03*
%TO.N,5V_ADC*%
X28463800Y-26238800D03*
X60219000Y-25744000D03*
X54396700Y-25799500D03*
X58428400Y-19053300D03*
X39761700Y-20114000D03*
X30893900Y-24247600D03*
%TO.N,RC1B*%
X56388100Y-34250600D03*
X64854000Y-25624700D03*
%TO.N,EN*%
X22498400Y-12821600D03*
X25555600Y-12786400D03*
X4504900Y-10280000D03*
X27190800Y-21100000D03*
%TO.N,USB_PRESENT_N*%
X38837100Y-21512100D03*
X14851700Y-39918300D03*
X15173400Y-26751800D03*
X17937500Y-39936700D03*
%TO.N,USB_CC1*%
X6668800Y-37743800D03*
X4750000Y-42924800D03*
%TO.N,SHANK_AD0*%
X33315200Y-10240200D03*
X61812300Y-7066100D03*
X4515900Y-16415800D03*
%TO.N,SHANK_INT*%
X62876500Y-7679500D03*
X4504100Y-18942600D03*
%TO.N,SD_CLK_MCU*%
X19497500Y-17900000D03*
X19925000Y-38263500D03*
X18916700Y-37195900D03*
%TO.N,RC1A*%
X60987000Y-17140300D03*
X56380200Y-15051000D03*
%TO.N,BUF1A*%
X60925000Y-23768300D03*
X56381300Y-16200000D03*
%TO.N,LED_ERR*%
X37425000Y-9240900D03*
X19497500Y-14090000D03*
X26489400Y-12910600D03*
%TO.N,LED_ERR_A*%
X39075000Y-9246000D03*
X37236700Y-18500000D03*
%TO.N,AIN1P*%
X42250000Y-25122400D03*
X45581900Y-30506900D03*
X52750000Y-17044300D03*
%TO.N,BUTTON*%
X22169600Y-43100000D03*
X4504100Y-20212600D03*
X32686800Y-27235000D03*
%TO.N,USB_CC2*%
X7750000Y-42897400D03*
X11120200Y-43580400D03*
%TO.N,POWER_GOOD*%
X26833200Y-27741800D03*
X5698300Y-30016100D03*
%TO.N,POWER_EN*%
X20750000Y-29475600D03*
X6748000Y-28998200D03*
%TO.N,BOOT*%
X19482500Y-24034200D03*
X13703600Y-26901900D03*
X24485400Y-14100000D03*
%TO.N,LED_REC*%
X32117100Y-15158500D03*
X19486300Y-15360000D03*
%TO.N,USB_DM_MCU*%
X23440100Y-38259600D03*
X4502500Y-22980000D03*
X22094000Y-36913500D03*
%TO.N,ADC_CONVST*%
X46558000Y-23965800D03*
X10349500Y-23247600D03*
%TO.N,ADC_RESET*%
X9974400Y-27157800D03*
X43047600Y-24786100D03*
%TO.N,ADC_SCK*%
X11580200Y-24233100D03*
X42805900Y-26487400D03*
X16948300Y-27237100D03*
%TO.N,ADC_CS*%
X44827400Y-13749200D03*
X9029700Y-24243600D03*
X46084400Y-25318000D03*
%TO.N,ADC_DRDY*%
X46748700Y-24808700D03*
X4504100Y-21482600D03*
%TO.N,ADC_MISO*%
X18174400Y-27648300D03*
X13386200Y-24231100D03*
X50516600Y-28390100D03*
%TO.N,ADC_REF*%
X54346100Y-23200600D03*
X58500000Y-25260200D03*
%TO.N,RAW1*%
X65993000Y-18858000D03*
X71500000Y-23595400D03*
%TO.N,PACK_PLUS*%
X28937500Y-11821600D03*
X13289300Y-47950000D03*
%TO.N,USB_DP_MCU*%
X22312700Y-41737700D03*
X5327000Y-24236300D03*
%TD*%
%TO.N,3V3D*%
D14*
X41248200Y-15676800D02*
X43175400Y-13749600D01*
X4239800Y-28866400D02*
X4239800Y-33756000D01*
X39880200Y-10454400D02*
X43175400Y-13749600D01*
X46528100Y-38061100D02*
X40495600Y-32028600D01*
X41248200Y-25364600D02*
X41248200Y-15676800D01*
X40683900Y-25928900D02*
X41248200Y-25364600D01*
X38807400Y-5601300D02*
X39880200Y-6674100D01*
X50412700Y-6512300D02*
X43175400Y-13749600D01*
X40495600Y-25928900D02*
X40683900Y-25928900D01*
X55812700Y-6512300D02*
X50412700Y-6512300D01*
X4501900Y-9010000D02*
X1406700Y-12105200D01*
X1406700Y-26033300D02*
X4239800Y-28866400D01*
X4239800Y-33756000D02*
X8183900Y-37700100D01*
X39880200Y-6674100D02*
X39880200Y-10454400D01*
X40495600Y-32028600D02*
X40495600Y-25928900D01*
X1406700Y-12105200D02*
X1406700Y-26033300D01*
%TO.N,SD_CMD*%
X34919200Y-22757200D02*
X32261300Y-20099300D01*
X35098800Y-28982100D02*
X34919200Y-28802500D01*
X32261300Y-20099300D02*
X30542600Y-20099300D01*
X34919200Y-28802500D02*
X34919200Y-22757200D01*
%TO.N,RC0B*%
X57028000Y-32311200D02*
X57028000Y-10525000D01*
X56388600Y-32950600D02*
X57028000Y-32311200D01*
%TO.N,VBAT*%
X21741500Y-27943800D02*
X21741500Y-27684800D01*
X30156900Y-18381400D02*
X30156900Y-12242900D01*
X29607100Y-18931200D02*
X30156900Y-18381400D01*
X29607100Y-19819200D02*
X29607100Y-18931200D01*
X21741500Y-27684800D02*
X29607100Y-19819200D01*
%TO.N,BAT_SENSE*%
X20059200Y-16807000D02*
X20059200Y-21236300D01*
X18916700Y-24705100D02*
X19523900Y-25312300D01*
X19523900Y-25312300D02*
X19523900Y-28770000D01*
X18916700Y-22378800D02*
X18916700Y-24705100D01*
X19368100Y-16115900D02*
X20059200Y-16807000D01*
X19497500Y-9568400D02*
X21971700Y-9568400D01*
X21971700Y-9568400D02*
X24323400Y-7216700D01*
X20059200Y-21236300D02*
X18916700Y-22378800D01*
%TO.N,SD_D3*%
X40390100Y-25123100D02*
X40696500Y-25123100D01*
X37879800Y-33381500D02*
X37879800Y-27633400D01*
X37879800Y-27633400D02*
X40390100Y-25123100D01*
%TO.N,SD_D0*%
X29990800Y-19857900D02*
X31979000Y-17869700D01*
X31934600Y-31166300D02*
X31934600Y-29006700D01*
X31979000Y-17869700D02*
X32648500Y-17869700D01*
X31934600Y-29006700D02*
X33545700Y-27395600D01*
X32648500Y-17869700D02*
X32648500Y-17869600D01*
X33545700Y-27395600D02*
X33545700Y-24294400D01*
X29990800Y-20739500D02*
X29990800Y-19857900D01*
X33545700Y-24294400D02*
X29990800Y-20739500D01*
%TO.N,BUF0B*%
X46199700Y-32607300D02*
X41663200Y-28070800D01*
X41663200Y-28070800D02*
X41663200Y-19250600D01*
X41663200Y-19250600D02*
X43925000Y-16988800D01*
%TO.N,UART_TX*%
X28067400Y-12815100D02*
X27017600Y-13864900D01*
X22677200Y-14652600D02*
X18290400Y-14652600D01*
X25085100Y-13535000D02*
X23794800Y-13535000D01*
X25415000Y-13864900D02*
X25085100Y-13535000D01*
X27017600Y-13864900D02*
X25415000Y-13864900D01*
X23794800Y-13535000D02*
X22677200Y-14652600D01*
X18290400Y-14652600D02*
X17571400Y-13933600D01*
%TO.N,3V0A*%
X53796600Y-42534400D02*
X57281000Y-39050000D01*
X67974700Y-34022500D02*
X67974700Y-25199600D01*
X68157600Y-34205400D02*
X68176400Y-34224200D01*
X53796600Y-42534400D02*
X48487200Y-37225000D01*
X68191300Y-24983000D02*
X68174800Y-24999500D01*
X68191300Y-15453400D02*
X68191300Y-24983000D01*
X68157600Y-34205400D02*
X67974700Y-34022500D01*
X57281000Y-39050000D02*
X57518000Y-39050000D01*
X67974700Y-25199600D02*
X68174800Y-24999500D01*
X48487200Y-37225000D02*
X48487200Y-35487800D01*
X57518000Y-39050000D02*
X59519300Y-37048700D01*
%TO.N,FOOT_AD0*%
D15*
X29000000Y-9200000D02*
X29100000Y-9100000D01*
X29700000Y-8800000D02*
X29800000Y-8800000D01*
X29800000Y-8800000D02*
X29795300Y-8817900D01*
X22600000Y-13500000D02*
X22700000Y-13400000D01*
X22300000Y-13400000D02*
X22400000Y-13500000D01*
X24400000Y-11900000D02*
X25800000Y-11900000D01*
X22400000Y-13500000D02*
X22600000Y-13500000D01*
X25900000Y-11800000D02*
X26000000Y-11800000D01*
X29500000Y-8900000D02*
X29600000Y-8900000D01*
X22900000Y-13400000D02*
X24400000Y-11900000D01*
X28900000Y-9200000D02*
X29000000Y-9200000D01*
X7300000Y-15400000D02*
X9300000Y-13400000D01*
X29300000Y-9000000D02*
X29400000Y-9000000D01*
X29200000Y-9100000D02*
X29300000Y-9000000D01*
X28800000Y-9300000D02*
X28900000Y-9200000D01*
X9300000Y-13400000D02*
X22300000Y-13400000D01*
X22700000Y-13400000D02*
X22900000Y-13400000D01*
X25800000Y-11900000D02*
X25900000Y-11800000D01*
X29600000Y-8900000D02*
X29700000Y-8800000D01*
X29100000Y-9100000D02*
X29200000Y-9100000D01*
X28600000Y-9300000D02*
X28800000Y-9300000D01*
X2000000Y-15400000D02*
X7300000Y-15400000D01*
X28400000Y-9400000D02*
X28500000Y-9400000D01*
X28500000Y-9400000D02*
X28600000Y-9300000D01*
X2000000Y-15360000D02*
X2000000Y-15400000D01*
X26000000Y-11800000D02*
X28400000Y-9400000D01*
X29400000Y-9000000D02*
X29500000Y-8900000D01*
%TO.N,VMID*%
D14*
X71087700Y-36770600D02*
X71087700Y-29237300D01*
X71087700Y-29237300D02*
X72103000Y-28222000D01*
X72103000Y-17796600D02*
X71825000Y-17518600D01*
X72103000Y-28222000D02*
X72103000Y-17796600D01*
X72053400Y-9449000D02*
X71839700Y-9235300D01*
X71825000Y-17518600D02*
X72053400Y-17290200D01*
X71825000Y-37507900D02*
X71087700Y-36770600D01*
X72053400Y-17290200D02*
X72053400Y-9449000D01*
%TO.N,USB_GATE*%
X25757100Y-41000000D02*
X34098700Y-32658400D01*
X34098700Y-32658400D02*
X34098700Y-22771400D01*
X34098700Y-22771400D02*
X32250000Y-20922700D01*
%TO.N,RAW0*%
X68507200Y-13313600D02*
X71500000Y-16306400D01*
X68507200Y-7832200D02*
X68507200Y-13313600D01*
%TO.N,USB_DP*%
X3893600Y-41114600D02*
X3360200Y-40581200D01*
X3893600Y-42883100D02*
X3893600Y-41114600D01*
X4769900Y-43759400D02*
X3893600Y-42883100D01*
X3360200Y-37052300D02*
X3424900Y-36987600D01*
X3360200Y-40581200D02*
X3360200Y-37052300D01*
%TO.N,5V_ADC*%
X58428400Y-23953400D02*
X58428400Y-19053300D01*
X28902700Y-26238800D02*
X30893900Y-24247600D01*
X28463800Y-26238800D02*
X28902700Y-26238800D01*
X60219000Y-25744000D02*
X58428400Y-23953400D01*
%TO.N,EN*%
X25555600Y-12786400D02*
X26231600Y-13462400D01*
X29212600Y-11263400D02*
X29502900Y-11553700D01*
X7046500Y-12821600D02*
X22498400Y-12821600D01*
X28675600Y-11263400D02*
X29212600Y-11263400D01*
X26231600Y-13462400D02*
X26766400Y-13462400D01*
X27193100Y-13035700D02*
X27193100Y-12745900D01*
X26766400Y-13462400D02*
X27193100Y-13035700D01*
X27193100Y-12745900D02*
X28675600Y-11263400D01*
X27190800Y-20602700D02*
X27190800Y-21100000D01*
X4504900Y-10280000D02*
X7046500Y-12821600D01*
X29502900Y-18290600D02*
X27190800Y-20602700D01*
X29502900Y-11553700D02*
X29502900Y-18290600D01*
%TO.N,USB_PRESENT_N*%
X15173400Y-26751800D02*
X15173400Y-39596600D01*
X15173400Y-39596600D02*
X14851700Y-39918300D01*
%TO.N,USB_CC1*%
X6668800Y-37743800D02*
X6668800Y-41006000D01*
X6668800Y-41006000D02*
X4750000Y-42924800D01*
%TO.N,SD_CLK_MCU*%
X19497500Y-17900000D02*
X18565000Y-18832500D01*
X18565000Y-18832500D02*
X18565000Y-25025900D01*
X18565000Y-25025900D02*
X18916700Y-25377600D01*
X18916700Y-25377600D02*
X18916700Y-37195900D01*
%TO.N,LED_ERR*%
X37425000Y-9240900D02*
X30159100Y-9240900D01*
X30159100Y-9240900D02*
X26489400Y-12910600D01*
%TO.N,LED_ERR_A*%
X37034400Y-18297700D02*
X37034400Y-11286600D01*
X37236700Y-18500000D02*
X37034400Y-18297700D01*
X37034400Y-11286600D02*
X39075000Y-9246000D01*
%TO.N,AIN1P*%
X42359200Y-25122400D02*
X42250000Y-25122400D01*
X47507600Y-19412700D02*
X47507600Y-26419400D01*
X45581900Y-28345100D02*
X42359200Y-25122400D01*
X50480300Y-16440000D02*
X47507600Y-19412700D01*
X52145700Y-16440000D02*
X50480300Y-16440000D01*
X47507600Y-26419400D02*
X45581900Y-28345100D01*
X45581900Y-30506900D02*
X45581900Y-28345100D01*
X52750000Y-17044300D02*
X52145700Y-16440000D01*
%TO.N,BUTTON*%
X27316500Y-32605300D02*
X32686800Y-27235000D01*
X27316500Y-37953100D02*
X27316500Y-32605300D01*
X22169600Y-43100000D02*
X27316500Y-37953100D01*
%TO.N,BOOT*%
X24485400Y-19031300D02*
X19482500Y-24034200D01*
X24485400Y-14100000D02*
X24485400Y-19031300D01*
%TO.N,USB_DM_MCU*%
X22094000Y-36913500D02*
X23440100Y-38259600D01*
%TO.N,ADC_SCK*%
X13023400Y-25676300D02*
X11580200Y-24233100D01*
X16948300Y-27237100D02*
X15387500Y-25676300D01*
X15387500Y-25676300D02*
X13023400Y-25676300D01*
%TO.N,ADC_CS*%
X45777200Y-25010800D02*
X45777200Y-14699000D01*
X46084400Y-25318000D02*
X45777200Y-25010800D01*
X45777200Y-14699000D02*
X44827400Y-13749200D01*
%TO.N,ADC_MISO*%
X14757200Y-24231100D02*
X13386200Y-24231100D01*
X18174400Y-27648300D02*
X14757200Y-24231100D01*
%TO.N,PACK_PLUS*%
X13289300Y-43650400D02*
X13289300Y-47950000D01*
X28937500Y-11821600D02*
X28937500Y-16047600D01*
X20081500Y-24903600D02*
X20081500Y-36858200D01*
X28937500Y-16047600D02*
X20081500Y-24903600D01*
X20081500Y-36858200D02*
X13289300Y-43650400D01*
%TO.N,USB_DP_MCU*%
D15*
X20200000Y-42700000D02*
X20300000Y-42600000D01*
X21700000Y-42000000D02*
X21800000Y-41900000D01*
X19000000Y-43200000D02*
X19100000Y-43200000D01*
X20000000Y-42700000D02*
X20200000Y-42700000D01*
X21000000Y-42300000D02*
X21100000Y-42200000D01*
X12600000Y-39100000D02*
X12600000Y-46700000D01*
X22000000Y-41800000D02*
X22100000Y-41800000D01*
X20900000Y-42300000D02*
X21000000Y-42300000D01*
X21100000Y-42200000D02*
X21300000Y-42200000D01*
X19400000Y-43000000D02*
X19500000Y-43000000D01*
X20800000Y-42400000D02*
X20900000Y-42300000D01*
X21300000Y-42200000D02*
X21400000Y-42100000D01*
X12600000Y-46700000D02*
X12700000Y-46800000D01*
X12700000Y-48300000D02*
X13000000Y-48600000D01*
X13000000Y-48600000D02*
X13500000Y-48600000D01*
X13500000Y-48600000D02*
X13600000Y-48500000D01*
X21500000Y-42100000D02*
X21600000Y-42000000D01*
X19100000Y-43200000D02*
X19200000Y-43100000D01*
X20600000Y-42500000D02*
X20700000Y-42400000D01*
X19600000Y-42900000D02*
X19700000Y-42900000D01*
X20400000Y-42600000D02*
X20500000Y-42500000D01*
X22200000Y-41700000D02*
X22300000Y-41700000D01*
X21800000Y-41900000D02*
X21900000Y-41900000D01*
X13600000Y-48500000D02*
X13700000Y-48500000D01*
X19500000Y-43000000D02*
X19600000Y-42900000D01*
X13700000Y-48500000D02*
X19000000Y-43200000D01*
X21600000Y-42000000D02*
X21700000Y-42000000D01*
X12700000Y-46800000D02*
X12700000Y-48300000D01*
X6100000Y-28100000D02*
X6100000Y-29300000D01*
X19300000Y-43100000D02*
X19400000Y-43000000D01*
X19200000Y-43100000D02*
X19300000Y-43100000D01*
X22100000Y-41800000D02*
X22200000Y-41700000D01*
X5300000Y-24200000D02*
X5400000Y-24300000D01*
X20500000Y-42500000D02*
X20600000Y-42500000D01*
X19800000Y-42800000D02*
X19900000Y-42800000D01*
X19700000Y-42900000D02*
X19800000Y-42800000D01*
X11100000Y-34300000D02*
X11100000Y-37600000D01*
X6100000Y-29300000D02*
X11100000Y-34300000D01*
X21900000Y-41900000D02*
X22000000Y-41800000D01*
X21400000Y-42100000D02*
X21500000Y-42100000D01*
X5400000Y-24300000D02*
X5400000Y-27400000D01*
X5400000Y-27400000D02*
X6100000Y-28100000D01*
X5327000Y-24236300D02*
X5300000Y-24200000D01*
X22300000Y-41700000D02*
X22312700Y-41737700D01*
X20300000Y-42600000D02*
X20400000Y-42600000D01*
X11100000Y-37600000D02*
X12600000Y-39100000D01*
X20700000Y-42400000D02*
X20800000Y-42400000D01*
X19900000Y-42800000D02*
X20000000Y-42700000D01*
%TD*%
M02*
