%TF.GenerationSoftware,KiCad,Pcbnew,10.0.6*%
%TF.CreationDate,2026-09-27T12:07:04+06:00*%
%TF.ProjectId,afo_revb_main,61666f5f-7265-4766-925f-6d61696e2e6b,rev?*%
%TF.SameCoordinates,Original*%
%TF.FileFunction,Copper,L2,Inr*%
%TF.FilePolarity,Positive*%
%FSLAX46Y46*%
G04 Gerber Fmt 4.6, Leading zero omitted, Abs format (unit mm)*
G04 Created by KiCad (PCBNEW 10.0.6) date 2026-09-27 12:07:04*
%MOMM*%
%LPD*%
G01*
G04 APERTURE LIST*
%TA.AperFunction,ComponentPad*%
%ADD10O,1.000000X2.100000*%
%TD*%
%TA.AperFunction,ComponentPad*%
%ADD11O,1.000000X1.800000*%
%TD*%
%TA.AperFunction,HeatsinkPad*%
%ADD12C,0.600000*%
%TD*%
%TA.AperFunction,ViaPad*%
%ADD13C,0.600000*%
%TD*%
G04 APERTURE END LIST*
D10*
%TO.N,GND*%
%TO.C,J1*%
X1680000Y-42395000D03*
D11*
X1680000Y-46575000D03*
D10*
X10320000Y-42395000D03*
D11*
X10320000Y-46575000D03*
%TD*%
D12*
%TO.N,GND*%
%TO.C,U1*%
X9100000Y-14760000D03*
X9100000Y-16160000D03*
X9800000Y-14060000D03*
X9800000Y-15460000D03*
X9800000Y-16860000D03*
X10500000Y-14760000D03*
X10500000Y-16160000D03*
X11200000Y-14060000D03*
X11200000Y-15460000D03*
X11200000Y-16860000D03*
X11900000Y-14760000D03*
X11900000Y-16160000D03*
%TD*%
D13*
%TO.N,3V3D*%
X11911600Y-28236600D03*
X55812700Y-6512300D03*
X4239800Y-28866400D03*
X38807400Y-5601300D03*
X46528100Y-38061100D03*
X25612200Y-11232100D03*
X24562500Y-25690000D03*
X40495600Y-25928900D03*
X54364900Y-27200500D03*
X33069600Y-15144600D03*
X8183900Y-37700100D03*
X43175400Y-13749600D03*
X4501900Y-9010000D03*
%TO.N,SD_CMD*%
X35098800Y-28982100D03*
X30542600Y-20099300D03*
%TO.N,RC0B*%
X56388600Y-32950600D03*
X57028000Y-10525000D03*
%TO.N,LED_LOW*%
X41682200Y-10242800D03*
X19495900Y-10370200D03*
%TO.N,VBAT*%
X21741500Y-27943800D03*
X30156900Y-12242900D03*
X25328300Y-7427000D03*
X22009500Y-7216700D03*
X18248400Y-29470700D03*
%TO.N,BAT_SENSE*%
X24323400Y-7216700D03*
X19497500Y-9568400D03*
X19368100Y-16115900D03*
X19523900Y-28770000D03*
%TO.N,SD_D3*%
X40696500Y-25123100D03*
X37879800Y-33381500D03*
%TO.N,SD_CLK*%
X21575000Y-38247600D03*
X34158500Y-33393200D03*
%TO.N,GND*%
X69821100Y-13589900D03*
X44200800Y-44024200D03*
X49190500Y-6515500D03*
X69636600Y-43778100D03*
X4529000Y-7554000D03*
X47451300Y-37725000D03*
X65280100Y-37755100D03*
X70250000Y-33571000D03*
X4869100Y-29926500D03*
X63692800Y-7602500D03*
X28167600Y-36780700D03*
X40875000Y-7086800D03*
X38210400Y-25423100D03*
X9846100Y-28646100D03*
%TO.N,SD_D0*%
X31934600Y-31166300D03*
X32648500Y-17869600D03*
X33545700Y-27395600D03*
%TO.N,SD_D1*%
X35470900Y-27261200D03*
X31288100Y-33389800D03*
%TO.N,BUF0B*%
X43925000Y-16988800D03*
X46199700Y-32607300D03*
%TO.N,AIN0P*%
X53750000Y-17033300D03*
X44824200Y-15249200D03*
%TO.N,EXP_SDA*%
X35500000Y-19214800D03*
X16466600Y-24239000D03*
%TO.N,EXP_SCL*%
X17534900Y-23289700D03*
X37625000Y-17307600D03*
%TO.N,UART_TX*%
X38875000Y-14565200D03*
X28067400Y-12815100D03*
X17571400Y-13933600D03*
X19495900Y-11817400D03*
%TO.N,UART_RX*%
X22011000Y-16061200D03*
X40125000Y-14595600D03*
%TO.N,3V0A*%
X53895100Y-33600600D03*
X48487200Y-35487800D03*
X68174800Y-24999500D03*
X53796600Y-42534400D03*
X68157600Y-34205400D03*
X68191300Y-15453400D03*
X59749400Y-17271800D03*
X53892800Y-14284100D03*
X59519300Y-37048700D03*
%TO.N,IMU_SCL*%
X59125000Y-4338600D03*
X4506600Y-13885100D03*
X42125000Y-7077900D03*
%TO.N,IMU_SDA*%
X60375000Y-4337500D03*
X4504100Y-11777400D03*
X43375000Y-4336600D03*
%TO.N,IMU_RESERVED*%
X44625000Y-4325600D03*
X4503300Y-12820000D03*
%TO.N,FOOT_AD0*%
X45819800Y-8292500D03*
X29795300Y-8817900D03*
X2000000Y-15360000D03*
%TO.N,FOOT_INT*%
X46594900Y-6947500D03*
X4504100Y-17672600D03*
%TO.N,VMID*%
X65226500Y-43009800D03*
X71825000Y-37507900D03*
X71825000Y-17518600D03*
X71839700Y-9235300D03*
%TO.N,USB_VBUS*%
X8400000Y-40547200D03*
X1768800Y-40479300D03*
X20877700Y-40057300D03*
%TO.N,USB_GATE*%
X32250000Y-20922700D03*
X25757100Y-41000000D03*
X16877100Y-38985400D03*
%TO.N,RAW0*%
X71500000Y-16306400D03*
X68507200Y-7832200D03*
%TO.N,USB_DP*%
X4769900Y-43759400D03*
X19016000Y-41566700D03*
X3424900Y-36987600D03*
%TO.N,USB_DM*%
X3964000Y-40367700D03*
X22436700Y-38511700D03*
%TO.N,5V_ADC*%
X28463800Y-26238800D03*
X60219000Y-25744000D03*
X54396700Y-25799500D03*
X58428400Y-19053300D03*
X39761700Y-20114000D03*
X30893900Y-24247600D03*
%TO.N,RC1B*%
X56388100Y-34250600D03*
X64854000Y-25624700D03*
%TO.N,EN*%
X22498400Y-12821600D03*
X25555600Y-12786400D03*
X4504900Y-10280000D03*
X27190800Y-21100000D03*
%TO.N,USB_PRESENT_N*%
X38837100Y-21512100D03*
X14851700Y-39918300D03*
X15173400Y-26751800D03*
X17937500Y-39936700D03*
%TO.N,USB_CC1*%
X6668800Y-37743800D03*
X4750000Y-42924800D03*
%TO.N,SHANK_AD0*%
X33315200Y-10240200D03*
X61812300Y-7066100D03*
X4515900Y-16415800D03*
%TO.N,SHANK_INT*%
X62876500Y-7679500D03*
X4504100Y-18942600D03*
%TO.N,SD_CLK_MCU*%
X19497500Y-17900000D03*
X19925000Y-38263500D03*
X18916700Y-37195900D03*
%TO.N,RC1A*%
X60987000Y-17140300D03*
X56380200Y-15051000D03*
%TO.N,BUF1A*%
X60925000Y-23768300D03*
X56381300Y-16200000D03*
%TO.N,LED_ERR*%
X37425000Y-9240900D03*
X19497500Y-14090000D03*
X26489400Y-12910600D03*
%TO.N,LED_ERR_A*%
X39075000Y-9246000D03*
X37236700Y-18500000D03*
%TO.N,AIN1P*%
X42250000Y-25122400D03*
X45581900Y-30506900D03*
X52750000Y-17044300D03*
%TO.N,BUTTON*%
X22169600Y-43100000D03*
X4504100Y-20212600D03*
X32686800Y-27235000D03*
%TO.N,USB_CC2*%
X7750000Y-42897400D03*
X11120200Y-43580400D03*
%TO.N,POWER_GOOD*%
X26833200Y-27741800D03*
X5698300Y-30016100D03*
%TO.N,POWER_EN*%
X20750000Y-29475600D03*
X6748000Y-28998200D03*
%TO.N,BOOT*%
X19482500Y-24034200D03*
X13703600Y-26901900D03*
X24485400Y-14100000D03*
%TO.N,LED_REC*%
X32117100Y-15158500D03*
X19486300Y-15360000D03*
%TO.N,USB_DM_MCU*%
X23440100Y-38259600D03*
X4502500Y-22980000D03*
X22094000Y-36913500D03*
%TO.N,ADC_CONVST*%
X46558000Y-23965800D03*
X10349500Y-23247600D03*
%TO.N,ADC_RESET*%
X9974400Y-27157800D03*
X43047600Y-24786100D03*
%TO.N,ADC_SCK*%
X11580200Y-24233100D03*
X42805900Y-26487400D03*
X16948300Y-27237100D03*
%TO.N,ADC_CS*%
X44827400Y-13749200D03*
X9029700Y-24243600D03*
X46084400Y-25318000D03*
%TO.N,ADC_DRDY*%
X46748700Y-24808700D03*
X4504100Y-21482600D03*
%TO.N,ADC_MISO*%
X18174400Y-27648300D03*
X13386200Y-24231100D03*
X50516600Y-28390100D03*
%TO.N,ADC_REF*%
X54346100Y-23200600D03*
X58500000Y-25260200D03*
%TO.N,RAW1*%
X65993000Y-18858000D03*
X71500000Y-23595400D03*
%TO.N,PACK_PLUS*%
X28937500Y-11821600D03*
X13289300Y-47950000D03*
%TO.N,USB_DP_MCU*%
X22312700Y-41737700D03*
X5327000Y-24236300D03*
%TD*%
%TA.AperFunction,Conductor*%
%TO.N,GND*%
G36*
X74642539Y-320185D02*
G01*
X74688294Y-372989D01*
X74699500Y-424500D01*
X74699500Y-49575500D01*
X74679815Y-49642539D01*
X74627011Y-49688294D01*
X74575500Y-49699500D01*
X424500Y-49699500D01*
X357461Y-49679815D01*
X311706Y-49627011D01*
X300500Y-49575500D01*
X300500Y-47884108D01*
X12788800Y-47884108D01*
X12788800Y-48015891D01*
X12822908Y-48143187D01*
X12855854Y-48200250D01*
X12888800Y-48257314D01*
X12981986Y-48350500D01*
X13096114Y-48416392D01*
X13223408Y-48450500D01*
X13223410Y-48450500D01*
X13355190Y-48450500D01*
X13355192Y-48450500D01*
X13482486Y-48416392D01*
X13596614Y-48350500D01*
X13689800Y-48257314D01*
X13755692Y-48143186D01*
X13789800Y-48015892D01*
X13789800Y-47884108D01*
X13755692Y-47756814D01*
X13689800Y-47642686D01*
X13596614Y-47549500D01*
X13539550Y-47516554D01*
X13482487Y-47483608D01*
X13418839Y-47466554D01*
X13355192Y-47449500D01*
X13223408Y-47449500D01*
X13096112Y-47483608D01*
X12981986Y-47549500D01*
X12981983Y-47549502D01*
X12888802Y-47642683D01*
X12888800Y-47642686D01*
X12822908Y-47756812D01*
X12788800Y-47884108D01*
X300500Y-47884108D01*
X300500Y-42832399D01*
X2634500Y-42832399D01*
X2634500Y-42957601D01*
X2666905Y-43078536D01*
X2729505Y-43186964D01*
X2818036Y-43275495D01*
X2926464Y-43338095D01*
X3047399Y-43370500D01*
X3047401Y-43370500D01*
X3172599Y-43370500D01*
X3172601Y-43370500D01*
X3293536Y-43338095D01*
X3401964Y-43275495D01*
X3490495Y-43186964D01*
X3553095Y-43078536D01*
X3585500Y-42957601D01*
X3585500Y-42858908D01*
X4249500Y-42858908D01*
X4249500Y-42990691D01*
X4283608Y-43117987D01*
X4311265Y-43165890D01*
X4349500Y-43232114D01*
X4349502Y-43232116D01*
X4381755Y-43264369D01*
X4415240Y-43325692D01*
X4410256Y-43395384D01*
X4381755Y-43439731D01*
X4369402Y-43452083D01*
X4369400Y-43452086D01*
X4303508Y-43566212D01*
X4282051Y-43646292D01*
X4269400Y-43693508D01*
X4269400Y-43825292D01*
X4286126Y-43887714D01*
X4303508Y-43952587D01*
X4319855Y-43980900D01*
X4369400Y-44066714D01*
X4462586Y-44159900D01*
X4576714Y-44225792D01*
X4704008Y-44259900D01*
X4704010Y-44259900D01*
X4835790Y-44259900D01*
X4835792Y-44259900D01*
X4963086Y-44225792D01*
X5077214Y-44159900D01*
X5170400Y-44066714D01*
X5236292Y-43952586D01*
X5270400Y-43825292D01*
X5270400Y-43693508D01*
X5236292Y-43566214D01*
X5206439Y-43514508D01*
X10619700Y-43514508D01*
X10619700Y-43646291D01*
X10653808Y-43773587D01*
X10686754Y-43830650D01*
X10719700Y-43887714D01*
X10812886Y-43980900D01*
X10927014Y-44046792D01*
X11054308Y-44080900D01*
X11054310Y-44080900D01*
X11186090Y-44080900D01*
X11186092Y-44080900D01*
X11313386Y-44046792D01*
X11427514Y-43980900D01*
X11520700Y-43887714D01*
X11586592Y-43773586D01*
X11620700Y-43646292D01*
X11620700Y-43514508D01*
X11586592Y-43387214D01*
X11520700Y-43273086D01*
X11427514Y-43179900D01*
X11427512Y-43179899D01*
X11427510Y-43179897D01*
X11346919Y-43133368D01*
X11346918Y-43133368D01*
X11313387Y-43114008D01*
X11249739Y-43096954D01*
X11186092Y-43079900D01*
X11054308Y-43079900D01*
X10927012Y-43114008D01*
X10812886Y-43179900D01*
X10812883Y-43179902D01*
X10719702Y-43273083D01*
X10719700Y-43273086D01*
X10653808Y-43387212D01*
X10619700Y-43514508D01*
X5206439Y-43514508D01*
X5170400Y-43452086D01*
X5138145Y-43419831D01*
X5104660Y-43358508D01*
X5109644Y-43288816D01*
X5138145Y-43244469D01*
X5150500Y-43232114D01*
X5216392Y-43117986D01*
X5250500Y-42990692D01*
X5250500Y-42858908D01*
X5243158Y-42831508D01*
X7249500Y-42831508D01*
X7249500Y-42963292D01*
X7256842Y-42990692D01*
X7283608Y-43090587D01*
X7299427Y-43117986D01*
X7349500Y-43204714D01*
X7442686Y-43297900D01*
X7556814Y-43363792D01*
X7684108Y-43397900D01*
X7684110Y-43397900D01*
X7815890Y-43397900D01*
X7815892Y-43397900D01*
X7943186Y-43363792D01*
X8057314Y-43297900D01*
X8150500Y-43204714D01*
X8216392Y-43090586D01*
X8216392Y-43090583D01*
X8219500Y-43083082D01*
X8222798Y-43084448D01*
X8250439Y-43038791D01*
X8313193Y-43008072D01*
X8382593Y-43016156D01*
X8436606Y-43060478D01*
X8442627Y-43071621D01*
X8442842Y-43071498D01*
X8446904Y-43078534D01*
X8446905Y-43078536D01*
X8509505Y-43186964D01*
X8598036Y-43275495D01*
X8706464Y-43338095D01*
X8827399Y-43370500D01*
X8827401Y-43370500D01*
X8952599Y-43370500D01*
X8952601Y-43370500D01*
X9073536Y-43338095D01*
X9181964Y-43275495D01*
X9270495Y-43186964D01*
X9333095Y-43078536D01*
X9345000Y-43034108D01*
X21669100Y-43034108D01*
X21669100Y-43165892D01*
X21679502Y-43204713D01*
X21703208Y-43293187D01*
X21717022Y-43317113D01*
X21769100Y-43407314D01*
X21862286Y-43500500D01*
X21961121Y-43557563D01*
X21976105Y-43566214D01*
X21976414Y-43566392D01*
X22103708Y-43600500D01*
X22103710Y-43600500D01*
X22235490Y-43600500D01*
X22235492Y-43600500D01*
X22362786Y-43566392D01*
X22476914Y-43500500D01*
X22570100Y-43407314D01*
X22635992Y-43293186D01*
X22670100Y-43165892D01*
X22670100Y-43034108D01*
X22635992Y-42906814D01*
X22570100Y-42792686D01*
X22476914Y-42699500D01*
X22419850Y-42666554D01*
X22362787Y-42633608D01*
X22299139Y-42616554D01*
X22235492Y-42599500D01*
X22103708Y-42599500D01*
X21976412Y-42633608D01*
X21862286Y-42699500D01*
X21862283Y-42699502D01*
X21769102Y-42792683D01*
X21769100Y-42792686D01*
X21703208Y-42906812D01*
X21688075Y-42963291D01*
X21669100Y-43034108D01*
X9345000Y-43034108D01*
X9365500Y-42957601D01*
X9365500Y-42832399D01*
X9333095Y-42711464D01*
X9270495Y-42603036D01*
X9181964Y-42514505D01*
X9102294Y-42468508D01*
X53296100Y-42468508D01*
X53296100Y-42600292D01*
X53296836Y-42603037D01*
X53330208Y-42727587D01*
X53353943Y-42768696D01*
X53396100Y-42841714D01*
X53489286Y-42934900D01*
X53603414Y-43000792D01*
X53730708Y-43034900D01*
X53730710Y-43034900D01*
X53862490Y-43034900D01*
X53862492Y-43034900D01*
X53989786Y-43000792D01*
X54088312Y-42943908D01*
X64726000Y-42943908D01*
X64726000Y-43075691D01*
X64760108Y-43202987D01*
X64776925Y-43232114D01*
X64826000Y-43317114D01*
X64919186Y-43410300D01*
X65033314Y-43476192D01*
X65160608Y-43510300D01*
X65160610Y-43510300D01*
X65292390Y-43510300D01*
X65292392Y-43510300D01*
X65419686Y-43476192D01*
X65533814Y-43410300D01*
X65627000Y-43317114D01*
X65692892Y-43202986D01*
X65727000Y-43075692D01*
X65727000Y-42943908D01*
X65692892Y-42816614D01*
X65627000Y-42702486D01*
X65533814Y-42609300D01*
X65476750Y-42576354D01*
X65419687Y-42543408D01*
X65311821Y-42514506D01*
X65292392Y-42509300D01*
X65160608Y-42509300D01*
X65033312Y-42543408D01*
X64919186Y-42609300D01*
X64919183Y-42609302D01*
X64826002Y-42702483D01*
X64826000Y-42702486D01*
X64760108Y-42816612D01*
X64726000Y-42943908D01*
X54088312Y-42943908D01*
X54103914Y-42934900D01*
X54197100Y-42841714D01*
X54262992Y-42727586D01*
X54297100Y-42600292D01*
X54297100Y-42468508D01*
X54262992Y-42341214D01*
X54197100Y-42227086D01*
X54103914Y-42133900D01*
X54046850Y-42100954D01*
X53989787Y-42068008D01*
X53903970Y-42045014D01*
X53862492Y-42033900D01*
X53730708Y-42033900D01*
X53603412Y-42068008D01*
X53489286Y-42133900D01*
X53489283Y-42133902D01*
X53396102Y-42227083D01*
X53396100Y-42227086D01*
X53330208Y-42341212D01*
X53307945Y-42424300D01*
X53296100Y-42468508D01*
X9102294Y-42468508D01*
X9073536Y-42451905D01*
X9073537Y-42451905D01*
X9033224Y-42441103D01*
X8952601Y-42419500D01*
X8827399Y-42419500D01*
X8746775Y-42441103D01*
X8706463Y-42451905D01*
X8598037Y-42514504D01*
X8598034Y-42514506D01*
X8509506Y-42603034D01*
X8509504Y-42603037D01*
X8472094Y-42667833D01*
X8448035Y-42709508D01*
X8442842Y-42718502D01*
X8441227Y-42717569D01*
X8403851Y-42763934D01*
X8337553Y-42785987D01*
X8269857Y-42768696D01*
X8222255Y-42717550D01*
X8218584Y-42709508D01*
X8216394Y-42704222D01*
X8216392Y-42704214D01*
X8150500Y-42590086D01*
X8057314Y-42496900D01*
X7979381Y-42451905D01*
X7943187Y-42431008D01*
X7879539Y-42413954D01*
X7815892Y-42396900D01*
X7684108Y-42396900D01*
X7556812Y-42431008D01*
X7442686Y-42496900D01*
X7442683Y-42496902D01*
X7349502Y-42590083D01*
X7349500Y-42590086D01*
X7283608Y-42704212D01*
X7276266Y-42731614D01*
X7249500Y-42831508D01*
X5243158Y-42831508D01*
X5216392Y-42731614D01*
X5214066Y-42727586D01*
X5203629Y-42709508D01*
X5150500Y-42617486D01*
X5057314Y-42524300D01*
X5000250Y-42491354D01*
X4943187Y-42458408D01*
X4879539Y-42441354D01*
X4815892Y-42424300D01*
X4684108Y-42424300D01*
X4556812Y-42458408D01*
X4442686Y-42524300D01*
X4442683Y-42524302D01*
X4349502Y-42617483D01*
X4349500Y-42617486D01*
X4283608Y-42731612D01*
X4249500Y-42858908D01*
X3585500Y-42858908D01*
X3585500Y-42832399D01*
X3553095Y-42711464D01*
X3490495Y-42603036D01*
X3401964Y-42514505D01*
X3293536Y-42451905D01*
X3293537Y-42451905D01*
X3253224Y-42441103D01*
X3172601Y-42419500D01*
X3047399Y-42419500D01*
X2966775Y-42441103D01*
X2926463Y-42451905D01*
X2818037Y-42514504D01*
X2818034Y-42514506D01*
X2729506Y-42603034D01*
X2729504Y-42603037D01*
X2666905Y-42711463D01*
X2666905Y-42711464D01*
X2634500Y-42832399D01*
X300500Y-42832399D01*
X300500Y-41500808D01*
X18515500Y-41500808D01*
X18515500Y-41632591D01*
X18549608Y-41759887D01*
X18574841Y-41803591D01*
X18615500Y-41874014D01*
X18708686Y-41967200D01*
X18822814Y-42033092D01*
X18950108Y-42067200D01*
X18950110Y-42067200D01*
X19081890Y-42067200D01*
X19081892Y-42067200D01*
X19209186Y-42033092D01*
X19323314Y-41967200D01*
X19416500Y-41874014D01*
X19482392Y-41759886D01*
X19505992Y-41671808D01*
X21812200Y-41671808D01*
X21812200Y-41803591D01*
X21846308Y-41930887D01*
X21867272Y-41967197D01*
X21912200Y-42045014D01*
X22005386Y-42138200D01*
X22119514Y-42204092D01*
X22246808Y-42238200D01*
X22246810Y-42238200D01*
X22378590Y-42238200D01*
X22378592Y-42238200D01*
X22505886Y-42204092D01*
X22620014Y-42138200D01*
X22713200Y-42045014D01*
X22779092Y-41930886D01*
X22813200Y-41803592D01*
X22813200Y-41671808D01*
X22779092Y-41544514D01*
X22713200Y-41430386D01*
X22620014Y-41337200D01*
X22562950Y-41304254D01*
X22505887Y-41271308D01*
X22442239Y-41254254D01*
X22378592Y-41237200D01*
X22246808Y-41237200D01*
X22119512Y-41271308D01*
X22005386Y-41337200D01*
X22005383Y-41337202D01*
X21912202Y-41430383D01*
X21912200Y-41430386D01*
X21846308Y-41544512D01*
X21812200Y-41671808D01*
X19505992Y-41671808D01*
X19516500Y-41632592D01*
X19516500Y-41500808D01*
X19482392Y-41373514D01*
X19416500Y-41259386D01*
X19323314Y-41166200D01*
X19266250Y-41133254D01*
X19209187Y-41100308D01*
X19145539Y-41083254D01*
X19081892Y-41066200D01*
X18950108Y-41066200D01*
X18822812Y-41100308D01*
X18708686Y-41166200D01*
X18708683Y-41166202D01*
X18615502Y-41259383D01*
X18615500Y-41259386D01*
X18549608Y-41373512D01*
X18515500Y-41500808D01*
X300500Y-41500808D01*
X300500Y-40413408D01*
X1268300Y-40413408D01*
X1268300Y-40545192D01*
X1282563Y-40598422D01*
X1302408Y-40672487D01*
X1335354Y-40729550D01*
X1368300Y-40786614D01*
X1461486Y-40879800D01*
X1575614Y-40945692D01*
X1702908Y-40979800D01*
X1702910Y-40979800D01*
X1834690Y-40979800D01*
X1834692Y-40979800D01*
X1961986Y-40945692D01*
X2076114Y-40879800D01*
X2169300Y-40786614D01*
X2235192Y-40672486D01*
X2269300Y-40545192D01*
X2269300Y-40413408D01*
X2239397Y-40301808D01*
X3463500Y-40301808D01*
X3463500Y-40433592D01*
X3476285Y-40481308D01*
X3497608Y-40560887D01*
X3519279Y-40598422D01*
X3563500Y-40675014D01*
X3656686Y-40768200D01*
X3770814Y-40834092D01*
X3898108Y-40868200D01*
X3898110Y-40868200D01*
X4029890Y-40868200D01*
X4029892Y-40868200D01*
X4157186Y-40834092D01*
X4271314Y-40768200D01*
X4364500Y-40675014D01*
X4430392Y-40560886D01*
X4451715Y-40481308D01*
X7899500Y-40481308D01*
X7899500Y-40613091D01*
X7933608Y-40740387D01*
X7949666Y-40768199D01*
X7999500Y-40854514D01*
X8092686Y-40947700D01*
X8206814Y-41013592D01*
X8334108Y-41047700D01*
X8334110Y-41047700D01*
X8465890Y-41047700D01*
X8465892Y-41047700D01*
X8593186Y-41013592D01*
X8707314Y-40947700D01*
X8720906Y-40934108D01*
X25256600Y-40934108D01*
X25256600Y-41065891D01*
X25290708Y-41193187D01*
X25323654Y-41250250D01*
X25356600Y-41307314D01*
X25449786Y-41400500D01*
X25563914Y-41466392D01*
X25691208Y-41500500D01*
X25691210Y-41500500D01*
X25822990Y-41500500D01*
X25822992Y-41500500D01*
X25950286Y-41466392D01*
X26064414Y-41400500D01*
X26157600Y-41307314D01*
X26223492Y-41193186D01*
X26257600Y-41065892D01*
X26257600Y-40934108D01*
X26223492Y-40806814D01*
X26157600Y-40692686D01*
X26064414Y-40599500D01*
X26007350Y-40566554D01*
X25950287Y-40533608D01*
X25921477Y-40525888D01*
X25822992Y-40499500D01*
X25691208Y-40499500D01*
X25563912Y-40533608D01*
X25449786Y-40599500D01*
X25449783Y-40599502D01*
X25356602Y-40692683D01*
X25356600Y-40692686D01*
X25290708Y-40806812D01*
X25256600Y-40934108D01*
X8720906Y-40934108D01*
X8800500Y-40854514D01*
X8866392Y-40740386D01*
X8900500Y-40613092D01*
X8900500Y-40481308D01*
X8866392Y-40354014D01*
X8800500Y-40239886D01*
X8707314Y-40146700D01*
X8650250Y-40113754D01*
X8593187Y-40080808D01*
X8516958Y-40060383D01*
X8465892Y-40046700D01*
X8334108Y-40046700D01*
X8206812Y-40080808D01*
X8092686Y-40146700D01*
X8092683Y-40146702D01*
X7999502Y-40239883D01*
X7999500Y-40239886D01*
X7933608Y-40354012D01*
X7899500Y-40481308D01*
X4451715Y-40481308D01*
X4464500Y-40433592D01*
X4464500Y-40301808D01*
X4430392Y-40174514D01*
X4428932Y-40171986D01*
X4414335Y-40146702D01*
X4364500Y-40060386D01*
X4271314Y-39967200D01*
X4204191Y-39928446D01*
X4157187Y-39901308D01*
X4093539Y-39884254D01*
X4029892Y-39867200D01*
X3898108Y-39867200D01*
X3770812Y-39901308D01*
X3656686Y-39967200D01*
X3656683Y-39967202D01*
X3563502Y-40060383D01*
X3563500Y-40060386D01*
X3497608Y-40174512D01*
X3477251Y-40250487D01*
X3463500Y-40301808D01*
X2239397Y-40301808D01*
X2235192Y-40286114D01*
X2169300Y-40171986D01*
X2076114Y-40078800D01*
X2019050Y-40045854D01*
X1961987Y-40012908D01*
X1898339Y-39995854D01*
X1834692Y-39978800D01*
X1702908Y-39978800D01*
X1575612Y-40012908D01*
X1461486Y-40078800D01*
X1461483Y-40078802D01*
X1368302Y-40171983D01*
X1368300Y-40171986D01*
X1302408Y-40286112D01*
X1275995Y-40384691D01*
X1268300Y-40413408D01*
X300500Y-40413408D01*
X300500Y-39852408D01*
X14351200Y-39852408D01*
X14351200Y-39984192D01*
X14360787Y-40019970D01*
X14385308Y-40111487D01*
X14405639Y-40146700D01*
X14451200Y-40225614D01*
X14544386Y-40318800D01*
X14658514Y-40384692D01*
X14785808Y-40418800D01*
X14785810Y-40418800D01*
X14917590Y-40418800D01*
X14917592Y-40418800D01*
X15044886Y-40384692D01*
X15159014Y-40318800D01*
X15252200Y-40225614D01*
X15318092Y-40111486D01*
X15352200Y-39984192D01*
X15352200Y-39870808D01*
X17437000Y-39870808D01*
X17437000Y-40002592D01*
X17441658Y-40019975D01*
X17471108Y-40129887D01*
X17496873Y-40174512D01*
X17537000Y-40244014D01*
X17630186Y-40337200D01*
X17744314Y-40403092D01*
X17871608Y-40437200D01*
X17871610Y-40437200D01*
X18003390Y-40437200D01*
X18003392Y-40437200D01*
X18130686Y-40403092D01*
X18244814Y-40337200D01*
X18338000Y-40244014D01*
X18403892Y-40129886D01*
X18438000Y-40002592D01*
X18438000Y-39991408D01*
X20377200Y-39991408D01*
X20377200Y-40123192D01*
X20390273Y-40171983D01*
X20411308Y-40250487D01*
X20431877Y-40286112D01*
X20477200Y-40364614D01*
X20570386Y-40457800D01*
X20684514Y-40523692D01*
X20811808Y-40557800D01*
X20811810Y-40557800D01*
X20943590Y-40557800D01*
X20943592Y-40557800D01*
X21070886Y-40523692D01*
X21185014Y-40457800D01*
X21241237Y-40401577D01*
X61999500Y-40401577D01*
X61999500Y-40598422D01*
X62030290Y-40792826D01*
X62091117Y-40980029D01*
X62134867Y-41065892D01*
X62180476Y-41155405D01*
X62296172Y-41314646D01*
X62435354Y-41453828D01*
X62594595Y-41569524D01*
X62677455Y-41611743D01*
X62769970Y-41658882D01*
X62769972Y-41658882D01*
X62769975Y-41658884D01*
X62870317Y-41691487D01*
X62957173Y-41719709D01*
X63151578Y-41750500D01*
X63151583Y-41750500D01*
X63348422Y-41750500D01*
X63542826Y-41719709D01*
X63730025Y-41658884D01*
X63905405Y-41569524D01*
X64064646Y-41453828D01*
X64203828Y-41314646D01*
X64319524Y-41155405D01*
X64408884Y-40980025D01*
X64469709Y-40792826D01*
X64473609Y-40768200D01*
X64500500Y-40598422D01*
X64500500Y-40401577D01*
X64469709Y-40207173D01*
X64427998Y-40078802D01*
X64408884Y-40019975D01*
X64408882Y-40019972D01*
X64408882Y-40019970D01*
X64361743Y-39927455D01*
X64319524Y-39844595D01*
X64203828Y-39685354D01*
X64064646Y-39546172D01*
X63905405Y-39430476D01*
X63880527Y-39417800D01*
X63730029Y-39341117D01*
X63542826Y-39280290D01*
X63348422Y-39249500D01*
X63348417Y-39249500D01*
X63151583Y-39249500D01*
X63151578Y-39249500D01*
X62957173Y-39280290D01*
X62769970Y-39341117D01*
X62594594Y-39430476D01*
X62539771Y-39470308D01*
X62435354Y-39546172D01*
X62435352Y-39546174D01*
X62435351Y-39546174D01*
X62296174Y-39685351D01*
X62296174Y-39685352D01*
X62296172Y-39685354D01*
X62267286Y-39725112D01*
X62180476Y-39844594D01*
X62091117Y-40019970D01*
X62030290Y-40207173D01*
X61999500Y-40401577D01*
X21241237Y-40401577D01*
X21278200Y-40364614D01*
X21344092Y-40250486D01*
X21378200Y-40123192D01*
X21378200Y-39991408D01*
X21344092Y-39864114D01*
X21278200Y-39749986D01*
X21185014Y-39656800D01*
X21105657Y-39610983D01*
X21070887Y-39590908D01*
X21007239Y-39573854D01*
X20943592Y-39556800D01*
X20811808Y-39556800D01*
X20684512Y-39590908D01*
X20570386Y-39656800D01*
X20570383Y-39656802D01*
X20477202Y-39749983D01*
X20477200Y-39749986D01*
X20411308Y-39864112D01*
X20377200Y-39991408D01*
X18438000Y-39991408D01*
X18438000Y-39870808D01*
X18403892Y-39743514D01*
X18338000Y-39629386D01*
X18244814Y-39536200D01*
X18187750Y-39503254D01*
X18130687Y-39470308D01*
X18061579Y-39451791D01*
X18003392Y-39436200D01*
X17871608Y-39436200D01*
X17744312Y-39470308D01*
X17630186Y-39536200D01*
X17630183Y-39536202D01*
X17537002Y-39629383D01*
X17537000Y-39629386D01*
X17471108Y-39743512D01*
X17444024Y-39844594D01*
X17437000Y-39870808D01*
X15352200Y-39870808D01*
X15352200Y-39852408D01*
X15318092Y-39725114D01*
X15252200Y-39610986D01*
X15159014Y-39517800D01*
X15076756Y-39470308D01*
X15044887Y-39451908D01*
X14964900Y-39430476D01*
X14917592Y-39417800D01*
X14785808Y-39417800D01*
X14658512Y-39451908D01*
X14544386Y-39517800D01*
X14544383Y-39517802D01*
X14451202Y-39610983D01*
X14451200Y-39610986D01*
X14385308Y-39725112D01*
X14353294Y-39844594D01*
X14351200Y-39852408D01*
X300500Y-39852408D01*
X300500Y-38919508D01*
X16376600Y-38919508D01*
X16376600Y-39051291D01*
X16410708Y-39178587D01*
X16443654Y-39235650D01*
X16476600Y-39292714D01*
X16569786Y-39385900D01*
X16683914Y-39451792D01*
X16811208Y-39485900D01*
X16811210Y-39485900D01*
X16942990Y-39485900D01*
X16942992Y-39485900D01*
X17070286Y-39451792D01*
X17184414Y-39385900D01*
X17277600Y-39292714D01*
X17343492Y-39178586D01*
X17377600Y-39051292D01*
X17377600Y-38919508D01*
X17343492Y-38792214D01*
X17277600Y-38678086D01*
X17184414Y-38584900D01*
X17084981Y-38527492D01*
X17070287Y-38519008D01*
X17006639Y-38501954D01*
X16942992Y-38484900D01*
X16811208Y-38484900D01*
X16683912Y-38519008D01*
X16569786Y-38584900D01*
X16569783Y-38584902D01*
X16476602Y-38678083D01*
X16476600Y-38678086D01*
X16410708Y-38792212D01*
X16376600Y-38919508D01*
X300500Y-38919508D01*
X300500Y-37677908D01*
X6168300Y-37677908D01*
X6168300Y-37809692D01*
X6169780Y-37815214D01*
X6202408Y-37936987D01*
X6235354Y-37994050D01*
X6268300Y-38051114D01*
X6361486Y-38144300D01*
X6475614Y-38210192D01*
X6602908Y-38244300D01*
X6602910Y-38244300D01*
X6734690Y-38244300D01*
X6734692Y-38244300D01*
X6861986Y-38210192D01*
X6976114Y-38144300D01*
X7069300Y-38051114D01*
X7135192Y-37936986D01*
X7169300Y-37809692D01*
X7169300Y-37677908D01*
X7157591Y-37634208D01*
X7683400Y-37634208D01*
X7683400Y-37765992D01*
X7695109Y-37809690D01*
X7717508Y-37893287D01*
X7744645Y-37940289D01*
X7783400Y-38007414D01*
X7876586Y-38100600D01*
X7974838Y-38157326D01*
X7989210Y-38165624D01*
X7990714Y-38166492D01*
X8118008Y-38200600D01*
X8118010Y-38200600D01*
X8249790Y-38200600D01*
X8249792Y-38200600D01*
X8260958Y-38197608D01*
X19424500Y-38197608D01*
X19424500Y-38329391D01*
X19458608Y-38456687D01*
X19461445Y-38461600D01*
X19524500Y-38570814D01*
X19617686Y-38664000D01*
X19731814Y-38729892D01*
X19859108Y-38764000D01*
X19859110Y-38764000D01*
X19990890Y-38764000D01*
X19990892Y-38764000D01*
X20118186Y-38729892D01*
X20232314Y-38664000D01*
X20325500Y-38570814D01*
X20391392Y-38456686D01*
X20425500Y-38329392D01*
X20425500Y-38197608D01*
X20421240Y-38181708D01*
X21074500Y-38181708D01*
X21074500Y-38313492D01*
X21089216Y-38368413D01*
X21108608Y-38440787D01*
X21117788Y-38456687D01*
X21174500Y-38554914D01*
X21267686Y-38648100D01*
X21350424Y-38695869D01*
X21381810Y-38713990D01*
X21381814Y-38713992D01*
X21509108Y-38748100D01*
X21509110Y-38748100D01*
X21640890Y-38748100D01*
X21640892Y-38748100D01*
X21768186Y-38713992D01*
X21816332Y-38686195D01*
X21884232Y-38669721D01*
X21950259Y-38692573D01*
X21985720Y-38731581D01*
X22036197Y-38819010D01*
X22036199Y-38819012D01*
X22036200Y-38819014D01*
X22129386Y-38912200D01*
X22243514Y-38978092D01*
X22370808Y-39012200D01*
X22370810Y-39012200D01*
X22502590Y-39012200D01*
X22502592Y-39012200D01*
X22629886Y-38978092D01*
X22744014Y-38912200D01*
X22837200Y-38819014D01*
X22903092Y-38704886D01*
X22905508Y-38695865D01*
X22941870Y-38636208D01*
X23004716Y-38605677D01*
X23074092Y-38613969D01*
X23112964Y-38640278D01*
X23132786Y-38660100D01*
X23246914Y-38725992D01*
X23374208Y-38760100D01*
X23374210Y-38760100D01*
X23505990Y-38760100D01*
X23505992Y-38760100D01*
X23633286Y-38725992D01*
X23747414Y-38660100D01*
X23840600Y-38566914D01*
X23906492Y-38452786D01*
X23940600Y-38325492D01*
X23940600Y-38193708D01*
X23906492Y-38066414D01*
X23897659Y-38051114D01*
X23896486Y-38049082D01*
X23896485Y-38049081D01*
X23874614Y-38011200D01*
X23865381Y-37995208D01*
X46027600Y-37995208D01*
X46027600Y-38126992D01*
X46032238Y-38144300D01*
X46061708Y-38254287D01*
X46094654Y-38311350D01*
X46127600Y-38368414D01*
X46220786Y-38461600D01*
X46334914Y-38527492D01*
X46462208Y-38561600D01*
X46462210Y-38561600D01*
X46593990Y-38561600D01*
X46593992Y-38561600D01*
X46721286Y-38527492D01*
X46835414Y-38461600D01*
X46928600Y-38368414D01*
X46994492Y-38254286D01*
X47028600Y-38126992D01*
X47028600Y-37995208D01*
X46994492Y-37867914D01*
X46928600Y-37753786D01*
X46835414Y-37660600D01*
X46778350Y-37627654D01*
X46721287Y-37594708D01*
X46657639Y-37577654D01*
X46593992Y-37560600D01*
X46462208Y-37560600D01*
X46334912Y-37594708D01*
X46220786Y-37660600D01*
X46220783Y-37660602D01*
X46127602Y-37753783D01*
X46127600Y-37753786D01*
X46061708Y-37867912D01*
X46038056Y-37956186D01*
X46027600Y-37995208D01*
X23865381Y-37995208D01*
X23840600Y-37952286D01*
X23747414Y-37859100D01*
X23671405Y-37815216D01*
X23633287Y-37793208D01*
X23569639Y-37776154D01*
X23505992Y-37759100D01*
X23374208Y-37759100D01*
X23246912Y-37793208D01*
X23132786Y-37859100D01*
X23132783Y-37859102D01*
X23039602Y-37952283D01*
X23039600Y-37952286D01*
X22973708Y-38066412D01*
X22971290Y-38075438D01*
X22934922Y-38135097D01*
X22872074Y-38165624D01*
X22802699Y-38157326D01*
X22763835Y-38131021D01*
X22744016Y-38111202D01*
X22744014Y-38111200D01*
X22682073Y-38075438D01*
X22629887Y-38045308D01*
X22564239Y-38027718D01*
X22502592Y-38011200D01*
X22370808Y-38011200D01*
X22243511Y-38045308D01*
X22195365Y-38073106D01*
X22127465Y-38089577D01*
X22061438Y-38066725D01*
X22025979Y-38027718D01*
X22014825Y-38008399D01*
X21975500Y-37940286D01*
X21882314Y-37847100D01*
X21788971Y-37793208D01*
X21768187Y-37781208D01*
X21685677Y-37759100D01*
X21640892Y-37747100D01*
X21509108Y-37747100D01*
X21381812Y-37781208D01*
X21267686Y-37847100D01*
X21267683Y-37847102D01*
X21174502Y-37940283D01*
X21174500Y-37940286D01*
X21108608Y-38054412D01*
X21084523Y-38144300D01*
X21074500Y-38181708D01*
X20421240Y-38181708D01*
X20391392Y-38070314D01*
X20325500Y-37956186D01*
X20232314Y-37863000D01*
X20149550Y-37815216D01*
X20118187Y-37797108D01*
X20002058Y-37765992D01*
X19990892Y-37763000D01*
X19859108Y-37763000D01*
X19731812Y-37797108D01*
X19617686Y-37863000D01*
X19617683Y-37863002D01*
X19524502Y-37956183D01*
X19524500Y-37956186D01*
X19458608Y-38070312D01*
X19424500Y-38197608D01*
X8260958Y-38197608D01*
X8377086Y-38166492D01*
X8491214Y-38100600D01*
X8584400Y-38007414D01*
X8650292Y-37893286D01*
X8684400Y-37765992D01*
X8684400Y-37634208D01*
X8650292Y-37506914D01*
X8584400Y-37392786D01*
X8491214Y-37299600D01*
X8393700Y-37243300D01*
X8377087Y-37233708D01*
X8265571Y-37203828D01*
X8249792Y-37199600D01*
X8118008Y-37199600D01*
X7990712Y-37233708D01*
X7876586Y-37299600D01*
X7876583Y-37299602D01*
X7783402Y-37392783D01*
X7783400Y-37392786D01*
X7717508Y-37506912D01*
X7683400Y-37634208D01*
X7157591Y-37634208D01*
X7135192Y-37550614D01*
X7069300Y-37436486D01*
X6976114Y-37343300D01*
X6892311Y-37294916D01*
X6861987Y-37277408D01*
X6798339Y-37260354D01*
X6734692Y-37243300D01*
X6602908Y-37243300D01*
X6475612Y-37277408D01*
X6361486Y-37343300D01*
X6361483Y-37343302D01*
X6268302Y-37436483D01*
X6268300Y-37436486D01*
X6202408Y-37550612D01*
X6172484Y-37662292D01*
X6168300Y-37677908D01*
X300500Y-37677908D01*
X300500Y-36921708D01*
X2924400Y-36921708D01*
X2924400Y-37053492D01*
X2938845Y-37107402D01*
X2958508Y-37180787D01*
X2981618Y-37220814D01*
X3024400Y-37294914D01*
X3117586Y-37388100D01*
X3231714Y-37453992D01*
X3359008Y-37488100D01*
X3359010Y-37488100D01*
X3490790Y-37488100D01*
X3490792Y-37488100D01*
X3618086Y-37453992D01*
X3732214Y-37388100D01*
X3825400Y-37294914D01*
X3891292Y-37180786D01*
X3925400Y-37053492D01*
X3925400Y-36921708D01*
X3891292Y-36794414D01*
X3825400Y-36680286D01*
X3732214Y-36587100D01*
X3675150Y-36554154D01*
X3618087Y-36521208D01*
X3554439Y-36504154D01*
X3490792Y-36487100D01*
X3359008Y-36487100D01*
X3231712Y-36521208D01*
X3117586Y-36587100D01*
X3117583Y-36587102D01*
X3024402Y-36680283D01*
X3024400Y-36680286D01*
X2958508Y-36794412D01*
X2958243Y-36795402D01*
X2924400Y-36921708D01*
X300500Y-36921708D01*
X300500Y-36151577D01*
X11249500Y-36151577D01*
X11249500Y-36348422D01*
X11280290Y-36542826D01*
X11341117Y-36730029D01*
X11401027Y-36847608D01*
X11430476Y-36905405D01*
X11546172Y-37064646D01*
X11685354Y-37203828D01*
X11844595Y-37319524D01*
X11916209Y-37356013D01*
X12019970Y-37408882D01*
X12019972Y-37408882D01*
X12019975Y-37408884D01*
X12104925Y-37436486D01*
X12207173Y-37469709D01*
X12401578Y-37500500D01*
X12401583Y-37500500D01*
X12598422Y-37500500D01*
X12792826Y-37469709D01*
X12980025Y-37408884D01*
X13155405Y-37319524D01*
X13314646Y-37203828D01*
X13388466Y-37130008D01*
X18416200Y-37130008D01*
X18416200Y-37261792D01*
X18426331Y-37299600D01*
X18450308Y-37389087D01*
X18464692Y-37414000D01*
X18516200Y-37503214D01*
X18609386Y-37596400D01*
X18723514Y-37662292D01*
X18850808Y-37696400D01*
X18850810Y-37696400D01*
X18982590Y-37696400D01*
X18982592Y-37696400D01*
X19109886Y-37662292D01*
X19224014Y-37596400D01*
X19317200Y-37503214D01*
X19383092Y-37389086D01*
X19417200Y-37261792D01*
X19417200Y-37130008D01*
X19383092Y-37002714D01*
X19317200Y-36888586D01*
X19276222Y-36847608D01*
X21593500Y-36847608D01*
X21593500Y-36979392D01*
X21594416Y-36982810D01*
X21627608Y-37106687D01*
X21641073Y-37130008D01*
X21693500Y-37220814D01*
X21786686Y-37314000D01*
X21900814Y-37379892D01*
X22028108Y-37414000D01*
X22028110Y-37414000D01*
X22159890Y-37414000D01*
X22159892Y-37414000D01*
X22287186Y-37379892D01*
X22401314Y-37314000D01*
X22494500Y-37220814D01*
X22560392Y-37106686D01*
X22593585Y-36982808D01*
X59018800Y-36982808D01*
X59018800Y-37114591D01*
X59052908Y-37241887D01*
X59083523Y-37294913D01*
X59118800Y-37356014D01*
X59211986Y-37449200D01*
X59326114Y-37515092D01*
X59453408Y-37549200D01*
X59453410Y-37549200D01*
X59585190Y-37549200D01*
X59585192Y-37549200D01*
X59712486Y-37515092D01*
X59826614Y-37449200D01*
X59833806Y-37442008D01*
X71324500Y-37442008D01*
X71324500Y-37573792D01*
X71330558Y-37596400D01*
X71358608Y-37701087D01*
X71385174Y-37747100D01*
X71424500Y-37815214D01*
X71517686Y-37908400D01*
X71631814Y-37974292D01*
X71759108Y-38008400D01*
X71759110Y-38008400D01*
X71890890Y-38008400D01*
X71890892Y-38008400D01*
X72018186Y-37974292D01*
X72132314Y-37908400D01*
X72225500Y-37815214D01*
X72291392Y-37701086D01*
X72325500Y-37573792D01*
X72325500Y-37442008D01*
X72291392Y-37314714D01*
X72225500Y-37200586D01*
X72132314Y-37107400D01*
X72058262Y-37064646D01*
X72018187Y-37041508D01*
X71954539Y-37024454D01*
X71890892Y-37007400D01*
X71759108Y-37007400D01*
X71631812Y-37041508D01*
X71517686Y-37107400D01*
X71517683Y-37107402D01*
X71424502Y-37200583D01*
X71424500Y-37200586D01*
X71358608Y-37314712D01*
X71337689Y-37392786D01*
X71324500Y-37442008D01*
X59833806Y-37442008D01*
X59919800Y-37356014D01*
X59985692Y-37241886D01*
X60019800Y-37114592D01*
X60019800Y-36982808D01*
X59985692Y-36855514D01*
X59981127Y-36847608D01*
X59950985Y-36795400D01*
X59919800Y-36741386D01*
X59826614Y-36648200D01*
X59753839Y-36606183D01*
X59712487Y-36582308D01*
X59648839Y-36565254D01*
X59585192Y-36548200D01*
X59453408Y-36548200D01*
X59326112Y-36582308D01*
X59211986Y-36648200D01*
X59211983Y-36648202D01*
X59118802Y-36741383D01*
X59118800Y-36741386D01*
X59052908Y-36855512D01*
X59018800Y-36982808D01*
X22593585Y-36982808D01*
X22594500Y-36979392D01*
X22594500Y-36847608D01*
X22560392Y-36720314D01*
X22494500Y-36606186D01*
X22401314Y-36513000D01*
X22344250Y-36480054D01*
X22287187Y-36447108D01*
X22223539Y-36430054D01*
X22159892Y-36413000D01*
X22028108Y-36413000D01*
X21900812Y-36447108D01*
X21786686Y-36513000D01*
X21786683Y-36513002D01*
X21693502Y-36606183D01*
X21693500Y-36606186D01*
X21627608Y-36720312D01*
X21607753Y-36794414D01*
X21593500Y-36847608D01*
X19276222Y-36847608D01*
X19224014Y-36795400D01*
X19166950Y-36762454D01*
X19109887Y-36729508D01*
X19046239Y-36712454D01*
X18982592Y-36695400D01*
X18850808Y-36695400D01*
X18723512Y-36729508D01*
X18609386Y-36795400D01*
X18609383Y-36795402D01*
X18516202Y-36888583D01*
X18516200Y-36888586D01*
X18450308Y-37002712D01*
X18433713Y-37064647D01*
X18416200Y-37130008D01*
X13388466Y-37130008D01*
X13453828Y-37064646D01*
X13569524Y-36905405D01*
X13658884Y-36730025D01*
X13719709Y-36542826D01*
X13734869Y-36447108D01*
X13750500Y-36348422D01*
X13750500Y-36151577D01*
X13719709Y-35957173D01*
X13658882Y-35769970D01*
X13569523Y-35594594D01*
X13539805Y-35553691D01*
X13453828Y-35435354D01*
X13440382Y-35421908D01*
X47986700Y-35421908D01*
X47986700Y-35553691D01*
X48020808Y-35680987D01*
X48053754Y-35738050D01*
X48086700Y-35795114D01*
X48179886Y-35888300D01*
X48294014Y-35954192D01*
X48421308Y-35988300D01*
X48421310Y-35988300D01*
X48553090Y-35988300D01*
X48553092Y-35988300D01*
X48680386Y-35954192D01*
X48794514Y-35888300D01*
X48887700Y-35795114D01*
X48953592Y-35680986D01*
X48987700Y-35553692D01*
X48987700Y-35421908D01*
X48953592Y-35294614D01*
X48887700Y-35180486D01*
X48794514Y-35087300D01*
X48695772Y-35030291D01*
X48680387Y-35021408D01*
X48598623Y-34999500D01*
X48553092Y-34987300D01*
X48421308Y-34987300D01*
X48294012Y-35021408D01*
X48179886Y-35087300D01*
X48179883Y-35087302D01*
X48086702Y-35180483D01*
X48086700Y-35180486D01*
X48020808Y-35294612D01*
X47986700Y-35421908D01*
X13440382Y-35421908D01*
X13314646Y-35296172D01*
X13155405Y-35180476D01*
X12980029Y-35091117D01*
X12792826Y-35030290D01*
X12598422Y-34999500D01*
X12598417Y-34999500D01*
X12401583Y-34999500D01*
X12401578Y-34999500D01*
X12207173Y-35030290D01*
X12019970Y-35091117D01*
X11844594Y-35180476D01*
X11753741Y-35246485D01*
X11685354Y-35296172D01*
X11685352Y-35296174D01*
X11685351Y-35296174D01*
X11546174Y-35435351D01*
X11546174Y-35435352D01*
X11546172Y-35435354D01*
X11508891Y-35486667D01*
X11430476Y-35594594D01*
X11341117Y-35769970D01*
X11280290Y-35957173D01*
X11249500Y-36151577D01*
X300500Y-36151577D01*
X300500Y-33920943D01*
X16749500Y-33920943D01*
X16749500Y-34079057D01*
X16772120Y-34163474D01*
X16790423Y-34231783D01*
X16790426Y-34231790D01*
X16869475Y-34368709D01*
X16869479Y-34368714D01*
X16869480Y-34368716D01*
X16981284Y-34480520D01*
X16981286Y-34480521D01*
X16981290Y-34480524D01*
X17115339Y-34557916D01*
X17118216Y-34559577D01*
X17270943Y-34600500D01*
X17270945Y-34600500D01*
X17429055Y-34600500D01*
X17429057Y-34600500D01*
X17581784Y-34559577D01*
X17718716Y-34480520D01*
X17830520Y-34368716D01*
X17909577Y-34231784D01*
X17950500Y-34079057D01*
X17950500Y-33920943D01*
X23549500Y-33920943D01*
X23549500Y-34079057D01*
X23572120Y-34163474D01*
X23590423Y-34231783D01*
X23590426Y-34231790D01*
X23669475Y-34368709D01*
X23669479Y-34368714D01*
X23669480Y-34368716D01*
X23781284Y-34480520D01*
X23781286Y-34480521D01*
X23781290Y-34480524D01*
X23915339Y-34557916D01*
X23918216Y-34559577D01*
X24070943Y-34600500D01*
X24070945Y-34600500D01*
X24229055Y-34600500D01*
X24229057Y-34600500D01*
X24381784Y-34559577D01*
X24518716Y-34480520D01*
X24630520Y-34368716D01*
X24709577Y-34231784D01*
X24722191Y-34184708D01*
X55887600Y-34184708D01*
X55887600Y-34316491D01*
X55921708Y-34443787D01*
X55942915Y-34480518D01*
X55987600Y-34557914D01*
X56080786Y-34651100D01*
X56194914Y-34716992D01*
X56322208Y-34751100D01*
X56322210Y-34751100D01*
X56453990Y-34751100D01*
X56453992Y-34751100D01*
X56581286Y-34716992D01*
X56695414Y-34651100D01*
X56788600Y-34557914D01*
X56854492Y-34443786D01*
X56888600Y-34316492D01*
X56888600Y-34184708D01*
X56876489Y-34139508D01*
X67657100Y-34139508D01*
X67657100Y-34271291D01*
X67691208Y-34398587D01*
X67717304Y-34443786D01*
X67757100Y-34512714D01*
X67850286Y-34605900D01*
X67964414Y-34671792D01*
X68091708Y-34705900D01*
X68091710Y-34705900D01*
X68223490Y-34705900D01*
X68223492Y-34705900D01*
X68350786Y-34671792D01*
X68464914Y-34605900D01*
X68558100Y-34512714D01*
X68623992Y-34398586D01*
X68658100Y-34271292D01*
X68658100Y-34139508D01*
X68623992Y-34012214D01*
X68617576Y-34001102D01*
X68584196Y-33943286D01*
X68558100Y-33898086D01*
X68464914Y-33804900D01*
X68401376Y-33768216D01*
X68350787Y-33739008D01*
X68287139Y-33721954D01*
X68223492Y-33704900D01*
X68091708Y-33704900D01*
X67964412Y-33739008D01*
X67850286Y-33804900D01*
X67850283Y-33804902D01*
X67757102Y-33898083D01*
X67757100Y-33898086D01*
X67691208Y-34012212D01*
X67657100Y-34139508D01*
X56876489Y-34139508D01*
X56854492Y-34057414D01*
X56788600Y-33943286D01*
X56695414Y-33850100D01*
X56617126Y-33804900D01*
X56581287Y-33784208D01*
X56517639Y-33767154D01*
X56453992Y-33750100D01*
X56322208Y-33750100D01*
X56194912Y-33784208D01*
X56080786Y-33850100D01*
X56080783Y-33850102D01*
X55987602Y-33943283D01*
X55987600Y-33943286D01*
X55921708Y-34057412D01*
X55887600Y-34184708D01*
X24722191Y-34184708D01*
X24750500Y-34079057D01*
X24750500Y-33920943D01*
X24709577Y-33768216D01*
X24663734Y-33688813D01*
X24630524Y-33631290D01*
X24630518Y-33631282D01*
X24518717Y-33519481D01*
X24518709Y-33519475D01*
X24381790Y-33440426D01*
X24381785Y-33440423D01*
X24375876Y-33438840D01*
X24363617Y-33435555D01*
X24294334Y-33416991D01*
X24229057Y-33399500D01*
X24070943Y-33399500D01*
X23918216Y-33440423D01*
X23918209Y-33440426D01*
X23781290Y-33519475D01*
X23781282Y-33519481D01*
X23669481Y-33631282D01*
X23669475Y-33631290D01*
X23590426Y-33768209D01*
X23590423Y-33768216D01*
X23549500Y-33920943D01*
X17950500Y-33920943D01*
X17909577Y-33768216D01*
X17863734Y-33688813D01*
X17830524Y-33631290D01*
X17830518Y-33631282D01*
X17718717Y-33519481D01*
X17718709Y-33519475D01*
X17581790Y-33440426D01*
X17581786Y-33440424D01*
X17581784Y-33440423D01*
X17429057Y-33399500D01*
X17270943Y-33399500D01*
X17118216Y-33440423D01*
X17118209Y-33440426D01*
X16981290Y-33519475D01*
X16981282Y-33519481D01*
X16869481Y-33631282D01*
X16869475Y-33631290D01*
X16790426Y-33768209D01*
X16790423Y-33768216D01*
X16749500Y-33920943D01*
X300500Y-33920943D01*
X300500Y-33323908D01*
X30787600Y-33323908D01*
X30787600Y-33455692D01*
X30788511Y-33459091D01*
X30821708Y-33582987D01*
X30849592Y-33631282D01*
X30887600Y-33697114D01*
X30980786Y-33790300D01*
X31094914Y-33856192D01*
X31222208Y-33890300D01*
X31222210Y-33890300D01*
X31353990Y-33890300D01*
X31353992Y-33890300D01*
X31481286Y-33856192D01*
X31595414Y-33790300D01*
X31688600Y-33697114D01*
X31754492Y-33582986D01*
X31788600Y-33455692D01*
X31788600Y-33327308D01*
X33658000Y-33327308D01*
X33658000Y-33459091D01*
X33692108Y-33586387D01*
X33718029Y-33631282D01*
X33758000Y-33700514D01*
X33851186Y-33793700D01*
X33965314Y-33859592D01*
X34092608Y-33893700D01*
X34092610Y-33893700D01*
X34224390Y-33893700D01*
X34224392Y-33893700D01*
X34351686Y-33859592D01*
X34465814Y-33793700D01*
X34559000Y-33700514D01*
X34624892Y-33586386D01*
X34659000Y-33459092D01*
X34659000Y-33327308D01*
X34655865Y-33315608D01*
X37379300Y-33315608D01*
X37379300Y-33447392D01*
X37382435Y-33459091D01*
X37413408Y-33574687D01*
X37446084Y-33631282D01*
X37479300Y-33688814D01*
X37572486Y-33782000D01*
X37686614Y-33847892D01*
X37813908Y-33882000D01*
X37813910Y-33882000D01*
X37945690Y-33882000D01*
X37945692Y-33882000D01*
X38072986Y-33847892D01*
X38187114Y-33782000D01*
X38280300Y-33688814D01*
X38346192Y-33574686D01*
X38356904Y-33534708D01*
X53394600Y-33534708D01*
X53394600Y-33666491D01*
X53428708Y-33793787D01*
X53459946Y-33847891D01*
X53494600Y-33907914D01*
X53587786Y-34001100D01*
X53685321Y-34057412D01*
X53701910Y-34066990D01*
X53701914Y-34066992D01*
X53829208Y-34101100D01*
X53829210Y-34101100D01*
X53960990Y-34101100D01*
X53960992Y-34101100D01*
X54088286Y-34066992D01*
X54202414Y-34001100D01*
X54295600Y-33907914D01*
X54361492Y-33793786D01*
X54395600Y-33666492D01*
X54395600Y-33534708D01*
X54361492Y-33407414D01*
X54295600Y-33293286D01*
X54202414Y-33200100D01*
X54145350Y-33167154D01*
X54088287Y-33134208D01*
X53989725Y-33107799D01*
X53960992Y-33100100D01*
X53829208Y-33100100D01*
X53701912Y-33134208D01*
X53587786Y-33200100D01*
X53587783Y-33200102D01*
X53494602Y-33293283D01*
X53494600Y-33293286D01*
X53428708Y-33407412D01*
X53394600Y-33534708D01*
X38356904Y-33534708D01*
X38380300Y-33447392D01*
X38380300Y-33315608D01*
X38346192Y-33188314D01*
X38280300Y-33074186D01*
X38187114Y-32981000D01*
X38130050Y-32948054D01*
X38072987Y-32915108D01*
X37976668Y-32889300D01*
X37945692Y-32881000D01*
X37813908Y-32881000D01*
X37686612Y-32915108D01*
X37572486Y-32981000D01*
X37572483Y-32981002D01*
X37479302Y-33074183D01*
X37479300Y-33074186D01*
X37413408Y-33188312D01*
X37410249Y-33200102D01*
X37379300Y-33315608D01*
X34655865Y-33315608D01*
X34624892Y-33200014D01*
X34559000Y-33085886D01*
X34465814Y-32992700D01*
X34408750Y-32959754D01*
X34351687Y-32926808D01*
X34288039Y-32909754D01*
X34224392Y-32892700D01*
X34092608Y-32892700D01*
X33965312Y-32926808D01*
X33851186Y-32992700D01*
X33851183Y-32992702D01*
X33758002Y-33085883D01*
X33758000Y-33085886D01*
X33692108Y-33200012D01*
X33658000Y-33327308D01*
X31788600Y-33327308D01*
X31788600Y-33323908D01*
X31754492Y-33196614D01*
X31688600Y-33082486D01*
X31595414Y-32989300D01*
X31538350Y-32956354D01*
X31481287Y-32923408D01*
X31417639Y-32906354D01*
X31353992Y-32889300D01*
X31222208Y-32889300D01*
X31094912Y-32923408D01*
X30980786Y-32989300D01*
X30980783Y-32989302D01*
X30887602Y-33082483D01*
X30887600Y-33082486D01*
X30821708Y-33196612D01*
X30820773Y-33200102D01*
X30787600Y-33323908D01*
X300500Y-33323908D01*
X300500Y-32541408D01*
X45699200Y-32541408D01*
X45699200Y-32673191D01*
X45733308Y-32800487D01*
X45741443Y-32814577D01*
X45799200Y-32914614D01*
X45892386Y-33007800D01*
X46006514Y-33073692D01*
X46133808Y-33107800D01*
X46133810Y-33107800D01*
X46265590Y-33107800D01*
X46265592Y-33107800D01*
X46392886Y-33073692D01*
X46507014Y-33007800D01*
X46600200Y-32914614D01*
X46617466Y-32884708D01*
X55888100Y-32884708D01*
X55888100Y-33016491D01*
X55922208Y-33143787D01*
X55947915Y-33188312D01*
X55988100Y-33257914D01*
X56081286Y-33351100D01*
X56195414Y-33416992D01*
X56322708Y-33451100D01*
X56322710Y-33451100D01*
X56454490Y-33451100D01*
X56454492Y-33451100D01*
X56581786Y-33416992D01*
X56695914Y-33351100D01*
X56789100Y-33257914D01*
X56854992Y-33143786D01*
X56889100Y-33016492D01*
X56889100Y-32884708D01*
X56854992Y-32757414D01*
X56789100Y-32643286D01*
X56695914Y-32550100D01*
X56638850Y-32517154D01*
X56581787Y-32484208D01*
X56518139Y-32467154D01*
X56454492Y-32450100D01*
X56322708Y-32450100D01*
X56195412Y-32484208D01*
X56081286Y-32550100D01*
X56081283Y-32550102D01*
X55988102Y-32643283D01*
X55988100Y-32643286D01*
X55922208Y-32757412D01*
X55888100Y-32884708D01*
X46617466Y-32884708D01*
X46657957Y-32814577D01*
X46666089Y-32800493D01*
X46666089Y-32800490D01*
X46666092Y-32800486D01*
X46700200Y-32673192D01*
X46700200Y-32541408D01*
X46666092Y-32414114D01*
X46600200Y-32299986D01*
X46507014Y-32206800D01*
X46449950Y-32173854D01*
X46392887Y-32140908D01*
X46329239Y-32123854D01*
X46265592Y-32106800D01*
X46133808Y-32106800D01*
X46006512Y-32140908D01*
X45892386Y-32206800D01*
X45892383Y-32206802D01*
X45799202Y-32299983D01*
X45799200Y-32299986D01*
X45733308Y-32414112D01*
X45699200Y-32541408D01*
X300500Y-32541408D01*
X300500Y-31100408D01*
X31434100Y-31100408D01*
X31434100Y-31232191D01*
X31468208Y-31359487D01*
X31501154Y-31416550D01*
X31534100Y-31473614D01*
X31627286Y-31566800D01*
X31741414Y-31632692D01*
X31868708Y-31666800D01*
X31868710Y-31666800D01*
X32000490Y-31666800D01*
X32000492Y-31666800D01*
X32127786Y-31632692D01*
X32241914Y-31566800D01*
X32335100Y-31473614D01*
X32400992Y-31359486D01*
X32435100Y-31232192D01*
X32435100Y-31100408D01*
X32400992Y-30973114D01*
X32335100Y-30858986D01*
X32241914Y-30765800D01*
X32184850Y-30732854D01*
X32127787Y-30699908D01*
X32064139Y-30682854D01*
X32000492Y-30665800D01*
X31868708Y-30665800D01*
X31741412Y-30699908D01*
X31627286Y-30765800D01*
X31627283Y-30765802D01*
X31534102Y-30858983D01*
X31534100Y-30858986D01*
X31468208Y-30973112D01*
X31434100Y-31100408D01*
X300500Y-31100408D01*
X300500Y-29950208D01*
X5197800Y-29950208D01*
X5197800Y-30081991D01*
X5231908Y-30209287D01*
X5264854Y-30266350D01*
X5297800Y-30323414D01*
X5390986Y-30416600D01*
X5505114Y-30482492D01*
X5632408Y-30516600D01*
X5632410Y-30516600D01*
X5764190Y-30516600D01*
X5764192Y-30516600D01*
X5891486Y-30482492D01*
X5963338Y-30441008D01*
X45081400Y-30441008D01*
X45081400Y-30572791D01*
X45115508Y-30700087D01*
X45148454Y-30757150D01*
X45181400Y-30814214D01*
X45274586Y-30907400D01*
X45373421Y-30964463D01*
X45388405Y-30973114D01*
X45388714Y-30973292D01*
X45516008Y-31007400D01*
X45516010Y-31007400D01*
X45647790Y-31007400D01*
X45647792Y-31007400D01*
X45775086Y-30973292D01*
X45889214Y-30907400D01*
X45982400Y-30814214D01*
X46048292Y-30700086D01*
X46082400Y-30572792D01*
X46082400Y-30441008D01*
X46048292Y-30313714D01*
X45982400Y-30199586D01*
X45889214Y-30106400D01*
X45832150Y-30073454D01*
X45775087Y-30040508D01*
X45711439Y-30023454D01*
X45647792Y-30006400D01*
X45516008Y-30006400D01*
X45388712Y-30040508D01*
X45274586Y-30106400D01*
X45274583Y-30106402D01*
X45181402Y-30199583D01*
X45181400Y-30199586D01*
X45115508Y-30313712D01*
X45081400Y-30441008D01*
X5963338Y-30441008D01*
X6005614Y-30416600D01*
X6098800Y-30323414D01*
X6164692Y-30209286D01*
X6198800Y-30081992D01*
X6198800Y-29950208D01*
X6164692Y-29822914D01*
X6098800Y-29708786D01*
X6005614Y-29615600D01*
X5948550Y-29582654D01*
X5891487Y-29549708D01*
X5827839Y-29532654D01*
X5764192Y-29515600D01*
X5632408Y-29515600D01*
X5505112Y-29549708D01*
X5390986Y-29615600D01*
X5390983Y-29615602D01*
X5297802Y-29708783D01*
X5297800Y-29708786D01*
X5231908Y-29822912D01*
X5197800Y-29950208D01*
X300500Y-29950208D01*
X300500Y-28800508D01*
X3739300Y-28800508D01*
X3739300Y-28932292D01*
X3739305Y-28932310D01*
X3773408Y-29059587D01*
X3783643Y-29077314D01*
X3839300Y-29173714D01*
X3932486Y-29266900D01*
X4046614Y-29332792D01*
X4173908Y-29366900D01*
X4173910Y-29366900D01*
X4305690Y-29366900D01*
X4305692Y-29366900D01*
X4432986Y-29332792D01*
X4547114Y-29266900D01*
X4640300Y-29173714D01*
X4706192Y-29059586D01*
X4740296Y-28932308D01*
X6247500Y-28932308D01*
X6247500Y-29064092D01*
X6264554Y-29127739D01*
X6281608Y-29191387D01*
X6307592Y-29236391D01*
X6347500Y-29305514D01*
X6440686Y-29398700D01*
X6554814Y-29464592D01*
X6682108Y-29498700D01*
X6682110Y-29498700D01*
X6813890Y-29498700D01*
X6813892Y-29498700D01*
X6941186Y-29464592D01*
X7044735Y-29404808D01*
X17747900Y-29404808D01*
X17747900Y-29536592D01*
X17764954Y-29600239D01*
X17782008Y-29663887D01*
X17807929Y-29708783D01*
X17847900Y-29778014D01*
X17941086Y-29871200D01*
X18055214Y-29937092D01*
X18182508Y-29971200D01*
X18182510Y-29971200D01*
X18314290Y-29971200D01*
X18314292Y-29971200D01*
X18441586Y-29937092D01*
X18555714Y-29871200D01*
X18648900Y-29778014D01*
X18714792Y-29663886D01*
X18748900Y-29536592D01*
X18748900Y-29409708D01*
X20249500Y-29409708D01*
X20249500Y-29541492D01*
X20266554Y-29605139D01*
X20283608Y-29668787D01*
X20306700Y-29708783D01*
X20349500Y-29782914D01*
X20442686Y-29876100D01*
X20556814Y-29941992D01*
X20684108Y-29976100D01*
X20684110Y-29976100D01*
X20815890Y-29976100D01*
X20815892Y-29976100D01*
X20943186Y-29941992D01*
X21057314Y-29876100D01*
X21150500Y-29782914D01*
X21216392Y-29668786D01*
X21250500Y-29541492D01*
X21250500Y-29409708D01*
X21216392Y-29282414D01*
X21150500Y-29168286D01*
X21057314Y-29075100D01*
X20954029Y-29015468D01*
X20954028Y-29015467D01*
X20954027Y-29015467D01*
X20943188Y-29009208D01*
X20858323Y-28986469D01*
X20815892Y-28975100D01*
X20684108Y-28975100D01*
X20556812Y-29009208D01*
X20442686Y-29075100D01*
X20442683Y-29075102D01*
X20349502Y-29168283D01*
X20349500Y-29168286D01*
X20283608Y-29282412D01*
X20260970Y-29366900D01*
X20249500Y-29409708D01*
X18748900Y-29409708D01*
X18748900Y-29404808D01*
X18714792Y-29277514D01*
X18710742Y-29270500D01*
X18691050Y-29236392D01*
X18648900Y-29163386D01*
X18555714Y-29070200D01*
X18460916Y-29015468D01*
X18441587Y-29004308D01*
X18332579Y-28975100D01*
X18314292Y-28970200D01*
X18182508Y-28970200D01*
X18055212Y-29004308D01*
X17941086Y-29070200D01*
X17941083Y-29070202D01*
X17847902Y-29163383D01*
X17847900Y-29163386D01*
X17782008Y-29277512D01*
X17749537Y-29398697D01*
X17747900Y-29404808D01*
X7044735Y-29404808D01*
X7055314Y-29398700D01*
X7148500Y-29305514D01*
X7214392Y-29191386D01*
X7248500Y-29064092D01*
X7248500Y-28932308D01*
X7214392Y-28805014D01*
X7211790Y-28800508D01*
X7205095Y-28788912D01*
X7148500Y-28690886D01*
X7055314Y-28597700D01*
X6962158Y-28543916D01*
X6941187Y-28531808D01*
X6877539Y-28514754D01*
X6813892Y-28497700D01*
X6682108Y-28497700D01*
X6554812Y-28531808D01*
X6440686Y-28597700D01*
X6440683Y-28597702D01*
X6347502Y-28690883D01*
X6347500Y-28690886D01*
X6281608Y-28805012D01*
X6251814Y-28916208D01*
X6247500Y-28932308D01*
X4740296Y-28932308D01*
X4740300Y-28932292D01*
X4740300Y-28800508D01*
X4706192Y-28673214D01*
X4640300Y-28559086D01*
X4547114Y-28465900D01*
X4484563Y-28429786D01*
X4432987Y-28400008D01*
X4369339Y-28382954D01*
X4305692Y-28365900D01*
X4173908Y-28365900D01*
X4046612Y-28400008D01*
X3932486Y-28465900D01*
X3932483Y-28465902D01*
X3839302Y-28559083D01*
X3839300Y-28559086D01*
X3773408Y-28673212D01*
X3756290Y-28737099D01*
X3739300Y-28800508D01*
X300500Y-28800508D01*
X300500Y-28170708D01*
X11411100Y-28170708D01*
X11411100Y-28302491D01*
X11445208Y-28429787D01*
X11475123Y-28481600D01*
X11511100Y-28543914D01*
X11604286Y-28637100D01*
X11718414Y-28702992D01*
X11845708Y-28737100D01*
X11845710Y-28737100D01*
X11977490Y-28737100D01*
X11977492Y-28737100D01*
X12100621Y-28704108D01*
X19023400Y-28704108D01*
X19023400Y-28835892D01*
X19028920Y-28856492D01*
X19057508Y-28963187D01*
X19087693Y-29015468D01*
X19123400Y-29077314D01*
X19216586Y-29170500D01*
X19330714Y-29236392D01*
X19458008Y-29270500D01*
X19458010Y-29270500D01*
X19589790Y-29270500D01*
X19589792Y-29270500D01*
X19717086Y-29236392D01*
X19831214Y-29170500D01*
X19924400Y-29077314D01*
X19990292Y-28963186D01*
X20002880Y-28916208D01*
X34598300Y-28916208D01*
X34598300Y-29047992D01*
X34606157Y-29077314D01*
X34632408Y-29175287D01*
X34641703Y-29191386D01*
X34698300Y-29289414D01*
X34791486Y-29382600D01*
X34905614Y-29448492D01*
X35032908Y-29482600D01*
X35032910Y-29482600D01*
X35164690Y-29482600D01*
X35164692Y-29482600D01*
X35291986Y-29448492D01*
X35406114Y-29382600D01*
X35499300Y-29289414D01*
X35565192Y-29175286D01*
X35599300Y-29047992D01*
X35599300Y-28916208D01*
X35565192Y-28788914D01*
X35499300Y-28674786D01*
X35406114Y-28581600D01*
X35340840Y-28543914D01*
X35291987Y-28515708D01*
X35224779Y-28497700D01*
X35164692Y-28481600D01*
X35032908Y-28481600D01*
X34905612Y-28515708D01*
X34791486Y-28581600D01*
X34791483Y-28581602D01*
X34698302Y-28674783D01*
X34698300Y-28674786D01*
X34632408Y-28788912D01*
X34598300Y-28916208D01*
X20002880Y-28916208D01*
X20024400Y-28835892D01*
X20024400Y-28704108D01*
X19990292Y-28576814D01*
X19924400Y-28462686D01*
X19831214Y-28369500D01*
X19752770Y-28324210D01*
X19717087Y-28303608D01*
X19653439Y-28286554D01*
X19589792Y-28269500D01*
X19458008Y-28269500D01*
X19330712Y-28303608D01*
X19216586Y-28369500D01*
X19216583Y-28369502D01*
X19123402Y-28462683D01*
X19123400Y-28462686D01*
X19057508Y-28576812D01*
X19031257Y-28674786D01*
X19023400Y-28704108D01*
X12100621Y-28704108D01*
X12104786Y-28702992D01*
X12218914Y-28637100D01*
X12312100Y-28543914D01*
X12377992Y-28429786D01*
X12412100Y-28302492D01*
X12412100Y-28170708D01*
X12377992Y-28043414D01*
X12312100Y-27929286D01*
X12218914Y-27836100D01*
X12149632Y-27796100D01*
X12104787Y-27770208D01*
X12041139Y-27753154D01*
X11977492Y-27736100D01*
X11845708Y-27736100D01*
X11718412Y-27770208D01*
X11604286Y-27836100D01*
X11604283Y-27836102D01*
X11511102Y-27929283D01*
X11511100Y-27929286D01*
X11445208Y-28043412D01*
X11411100Y-28170708D01*
X300500Y-28170708D01*
X300500Y-27091908D01*
X9473900Y-27091908D01*
X9473900Y-27223692D01*
X9485341Y-27266390D01*
X9508008Y-27350987D01*
X9532661Y-27393686D01*
X9573900Y-27465114D01*
X9667086Y-27558300D01*
X9781214Y-27624192D01*
X9908508Y-27658300D01*
X9908510Y-27658300D01*
X10040290Y-27658300D01*
X10040292Y-27658300D01*
X10167586Y-27624192D01*
X10281714Y-27558300D01*
X10374900Y-27465114D01*
X10440792Y-27350986D01*
X10474900Y-27223692D01*
X10474900Y-27091908D01*
X10440792Y-26964614D01*
X10434596Y-26953883D01*
X10397646Y-26889883D01*
X10397645Y-26889882D01*
X10396499Y-26887897D01*
X10374900Y-26850486D01*
X10360422Y-26836008D01*
X13203100Y-26836008D01*
X13203100Y-26967791D01*
X13237208Y-27095087D01*
X13270154Y-27152150D01*
X13303100Y-27209214D01*
X13396286Y-27302400D01*
X13510414Y-27368292D01*
X13637708Y-27402400D01*
X13637710Y-27402400D01*
X13769490Y-27402400D01*
X13769492Y-27402400D01*
X13896786Y-27368292D01*
X14010914Y-27302400D01*
X14104100Y-27209214D01*
X14169992Y-27095086D01*
X14204100Y-26967792D01*
X14204100Y-26836008D01*
X14169992Y-26708714D01*
X14156825Y-26685908D01*
X14672900Y-26685908D01*
X14672900Y-26817692D01*
X14677967Y-26836602D01*
X14707008Y-26944987D01*
X14737697Y-26998141D01*
X14772900Y-27059114D01*
X14866086Y-27152300D01*
X14980214Y-27218192D01*
X15107508Y-27252300D01*
X15107510Y-27252300D01*
X15239290Y-27252300D01*
X15239292Y-27252300D01*
X15366586Y-27218192D01*
X15447964Y-27171208D01*
X16447800Y-27171208D01*
X16447800Y-27302992D01*
X16454959Y-27329710D01*
X16481908Y-27430287D01*
X16499924Y-27461491D01*
X16547800Y-27544414D01*
X16640986Y-27637600D01*
X16707341Y-27675910D01*
X16751476Y-27701392D01*
X16755114Y-27703492D01*
X16882408Y-27737600D01*
X16882410Y-27737600D01*
X17014190Y-27737600D01*
X17014192Y-27737600D01*
X17141486Y-27703492D01*
X17255614Y-27637600D01*
X17310806Y-27582408D01*
X17673900Y-27582408D01*
X17673900Y-27714192D01*
X17679770Y-27736100D01*
X17708008Y-27841487D01*
X17719847Y-27861992D01*
X17773900Y-27955614D01*
X17867086Y-28048800D01*
X17981214Y-28114692D01*
X18108508Y-28148800D01*
X18108510Y-28148800D01*
X18240290Y-28148800D01*
X18240292Y-28148800D01*
X18367586Y-28114692D01*
X18481714Y-28048800D01*
X18574900Y-27955614D01*
X18619764Y-27877908D01*
X21241000Y-27877908D01*
X21241000Y-28009691D01*
X21275108Y-28136987D01*
X21308054Y-28194050D01*
X21341000Y-28251114D01*
X21434186Y-28344300D01*
X21548314Y-28410192D01*
X21675608Y-28444300D01*
X21675610Y-28444300D01*
X21807390Y-28444300D01*
X21807392Y-28444300D01*
X21934686Y-28410192D01*
X22048814Y-28344300D01*
X22068906Y-28324208D01*
X50016100Y-28324208D01*
X50016100Y-28455992D01*
X50022962Y-28481600D01*
X50050208Y-28583287D01*
X50058530Y-28597700D01*
X50116100Y-28697414D01*
X50209286Y-28790600D01*
X50323414Y-28856492D01*
X50450708Y-28890600D01*
X50450710Y-28890600D01*
X50582490Y-28890600D01*
X50582492Y-28890600D01*
X50709786Y-28856492D01*
X50823914Y-28790600D01*
X50917100Y-28697414D01*
X50982992Y-28583286D01*
X51017100Y-28455992D01*
X51017100Y-28324208D01*
X50982992Y-28196914D01*
X50917100Y-28082786D01*
X50823914Y-27989600D01*
X50729322Y-27934987D01*
X50709787Y-27923708D01*
X50646139Y-27906654D01*
X50582492Y-27889600D01*
X50450708Y-27889600D01*
X50323412Y-27923708D01*
X50209286Y-27989600D01*
X50209283Y-27989602D01*
X50116102Y-28082783D01*
X50116100Y-28082786D01*
X50050208Y-28196912D01*
X50030759Y-28269500D01*
X50016100Y-28324208D01*
X22068906Y-28324208D01*
X22142000Y-28251114D01*
X22207892Y-28136986D01*
X22242000Y-28009692D01*
X22242000Y-27877908D01*
X22207892Y-27750614D01*
X22207891Y-27750612D01*
X22207891Y-27750611D01*
X22195865Y-27729783D01*
X22195864Y-27729781D01*
X22180352Y-27702913D01*
X22164761Y-27675908D01*
X26332700Y-27675908D01*
X26332700Y-27807692D01*
X26340737Y-27837687D01*
X26366808Y-27934987D01*
X26398339Y-27989600D01*
X26432700Y-28049114D01*
X26525886Y-28142300D01*
X26640014Y-28208192D01*
X26767308Y-28242300D01*
X26767310Y-28242300D01*
X26899090Y-28242300D01*
X26899092Y-28242300D01*
X27026386Y-28208192D01*
X27140514Y-28142300D01*
X27233700Y-28049114D01*
X27299592Y-27934986D01*
X27333700Y-27807692D01*
X27333700Y-27675908D01*
X27299592Y-27548614D01*
X27233700Y-27434486D01*
X27140514Y-27341300D01*
X27074159Y-27302990D01*
X27026387Y-27275408D01*
X26940141Y-27252299D01*
X26899092Y-27241300D01*
X26767308Y-27241300D01*
X26640012Y-27275408D01*
X26525886Y-27341300D01*
X26525883Y-27341302D01*
X26432702Y-27434483D01*
X26432700Y-27434486D01*
X26366808Y-27548612D01*
X26339928Y-27648931D01*
X26332700Y-27675908D01*
X22164761Y-27675908D01*
X22142000Y-27636486D01*
X22048814Y-27543300D01*
X21987349Y-27507813D01*
X21934687Y-27477408D01*
X21851475Y-27455112D01*
X21807392Y-27443300D01*
X21675608Y-27443300D01*
X21548312Y-27477408D01*
X21434186Y-27543300D01*
X21434183Y-27543302D01*
X21341002Y-27636483D01*
X21341000Y-27636486D01*
X21275108Y-27750612D01*
X21241000Y-27877908D01*
X18619764Y-27877908D01*
X18640792Y-27841486D01*
X18674900Y-27714192D01*
X18674900Y-27582408D01*
X18640792Y-27455114D01*
X18574900Y-27340986D01*
X18481714Y-27247800D01*
X18414880Y-27209213D01*
X18367587Y-27181908D01*
X18319816Y-27169108D01*
X32186300Y-27169108D01*
X32186300Y-27300892D01*
X32186863Y-27302992D01*
X32220408Y-27428187D01*
X32248826Y-27477408D01*
X32286300Y-27542314D01*
X32379486Y-27635500D01*
X32493614Y-27701392D01*
X32620908Y-27735500D01*
X32620910Y-27735500D01*
X32752690Y-27735500D01*
X32752692Y-27735500D01*
X32879986Y-27701392D01*
X32970852Y-27648930D01*
X33038749Y-27632458D01*
X33104776Y-27655310D01*
X33140235Y-27694315D01*
X33145200Y-27702914D01*
X33238386Y-27796100D01*
X33352514Y-27861992D01*
X33479808Y-27896100D01*
X33479810Y-27896100D01*
X33611590Y-27896100D01*
X33611592Y-27896100D01*
X33738886Y-27861992D01*
X33853014Y-27796100D01*
X33946200Y-27702914D01*
X34012092Y-27588786D01*
X34046200Y-27461492D01*
X34046200Y-27329708D01*
X34012092Y-27202414D01*
X34007989Y-27195308D01*
X34970400Y-27195308D01*
X34970400Y-27327092D01*
X34974122Y-27340983D01*
X35004508Y-27454387D01*
X35035354Y-27507813D01*
X35070400Y-27568514D01*
X35163586Y-27661700D01*
X35277714Y-27727592D01*
X35405008Y-27761700D01*
X35405010Y-27761700D01*
X35536790Y-27761700D01*
X35536792Y-27761700D01*
X35664086Y-27727592D01*
X35778214Y-27661700D01*
X35871400Y-27568514D01*
X35937292Y-27454386D01*
X35971400Y-27327092D01*
X35971400Y-27195308D01*
X35955136Y-27134608D01*
X53864400Y-27134608D01*
X53864400Y-27266392D01*
X53874048Y-27302399D01*
X53898508Y-27393687D01*
X53922062Y-27434483D01*
X53964400Y-27507814D01*
X54057586Y-27601000D01*
X54171714Y-27666892D01*
X54299008Y-27701000D01*
X54299010Y-27701000D01*
X54430790Y-27701000D01*
X54430792Y-27701000D01*
X54558086Y-27666892D01*
X54672214Y-27601000D01*
X54765400Y-27507814D01*
X54831292Y-27393686D01*
X54865400Y-27266392D01*
X54865400Y-27134608D01*
X54831292Y-27007314D01*
X54765400Y-26893186D01*
X54672214Y-26800000D01*
X54598256Y-26757300D01*
X54558087Y-26734108D01*
X54463313Y-26708714D01*
X54430792Y-26700000D01*
X54299008Y-26700000D01*
X54171712Y-26734108D01*
X54057586Y-26800000D01*
X54057583Y-26800002D01*
X53964402Y-26893183D01*
X53964400Y-26893186D01*
X53898508Y-27007312D01*
X53864400Y-27134608D01*
X35955136Y-27134608D01*
X35937292Y-27068014D01*
X35871400Y-26953886D01*
X35778214Y-26860700D01*
X35703722Y-26817692D01*
X35664087Y-26794808D01*
X35600439Y-26777754D01*
X35536792Y-26760700D01*
X35405008Y-26760700D01*
X35277712Y-26794808D01*
X35163586Y-26860700D01*
X35163583Y-26860702D01*
X35070402Y-26953883D01*
X35070400Y-26953886D01*
X35004508Y-27068012D01*
X34976857Y-27171210D01*
X34970400Y-27195308D01*
X34007989Y-27195308D01*
X33946200Y-27088286D01*
X33853014Y-26995100D01*
X33795950Y-26962154D01*
X33738887Y-26929208D01*
X33675239Y-26912154D01*
X33611592Y-26895100D01*
X33479808Y-26895100D01*
X33352514Y-26929208D01*
X33352513Y-26929208D01*
X33352511Y-26929209D01*
X33352510Y-26929209D01*
X33261649Y-26981668D01*
X33193749Y-26998141D01*
X33127722Y-26975288D01*
X33092261Y-26936279D01*
X33088512Y-26929786D01*
X33087300Y-26927686D01*
X32994114Y-26834500D01*
X32925201Y-26794713D01*
X32879987Y-26768608D01*
X32816339Y-26751554D01*
X32752692Y-26734500D01*
X32620908Y-26734500D01*
X32493612Y-26768608D01*
X32379486Y-26834500D01*
X32379483Y-26834502D01*
X32286302Y-26927683D01*
X32286300Y-26927686D01*
X32220408Y-27041812D01*
X32192009Y-27147800D01*
X32186300Y-27169108D01*
X18319816Y-27169108D01*
X18257086Y-27152300D01*
X18240292Y-27147800D01*
X18108508Y-27147800D01*
X17981212Y-27181908D01*
X17867086Y-27247800D01*
X17867083Y-27247802D01*
X17773902Y-27340983D01*
X17773900Y-27340986D01*
X17708008Y-27455112D01*
X17682955Y-27548614D01*
X17673900Y-27582408D01*
X17310806Y-27582408D01*
X17348800Y-27544414D01*
X17414692Y-27430286D01*
X17448800Y-27302992D01*
X17448800Y-27171208D01*
X17414692Y-27043914D01*
X17413478Y-27041812D01*
X17382352Y-26987900D01*
X17348800Y-26929786D01*
X17255614Y-26836600D01*
X17192221Y-26800000D01*
X17141487Y-26770708D01*
X17077839Y-26753654D01*
X17014192Y-26736600D01*
X16882408Y-26736600D01*
X16755112Y-26770708D01*
X16640986Y-26836600D01*
X16640983Y-26836602D01*
X16547802Y-26929783D01*
X16547800Y-26929786D01*
X16481908Y-27043912D01*
X16468196Y-27095087D01*
X16447800Y-27171208D01*
X15447964Y-27171208D01*
X15480714Y-27152300D01*
X15573900Y-27059114D01*
X15639792Y-26944986D01*
X15673900Y-26817692D01*
X15673900Y-26685908D01*
X15639792Y-26558614D01*
X15573900Y-26444486D01*
X15480714Y-26351300D01*
X15399985Y-26304691D01*
X15366587Y-26285408D01*
X15302939Y-26268354D01*
X15239292Y-26251300D01*
X15107508Y-26251300D01*
X14980212Y-26285408D01*
X14866086Y-26351300D01*
X14866083Y-26351302D01*
X14772902Y-26444483D01*
X14772900Y-26444486D01*
X14707008Y-26558612D01*
X14697370Y-26594583D01*
X14672900Y-26685908D01*
X14156825Y-26685908D01*
X14104100Y-26594586D01*
X14010914Y-26501400D01*
X13953850Y-26468454D01*
X13896787Y-26435508D01*
X13833139Y-26418454D01*
X13769492Y-26401400D01*
X13637708Y-26401400D01*
X13510412Y-26435508D01*
X13396286Y-26501400D01*
X13396283Y-26501402D01*
X13303102Y-26594583D01*
X13303100Y-26594586D01*
X13237208Y-26708712D01*
X13203100Y-26836008D01*
X10360422Y-26836008D01*
X10281714Y-26757300D01*
X10197561Y-26708714D01*
X10167587Y-26691408D01*
X10103939Y-26674354D01*
X10040292Y-26657300D01*
X9908508Y-26657300D01*
X9781212Y-26691408D01*
X9667086Y-26757300D01*
X9667083Y-26757302D01*
X9573902Y-26850483D01*
X9573900Y-26850486D01*
X9508008Y-26964612D01*
X9473900Y-27091908D01*
X300500Y-27091908D01*
X300500Y-25624108D01*
X24062000Y-25624108D01*
X24062000Y-25755892D01*
X24076469Y-25809890D01*
X24096108Y-25883187D01*
X24123992Y-25931483D01*
X24162000Y-25997314D01*
X24255186Y-26090500D01*
X24369314Y-26156392D01*
X24496608Y-26190500D01*
X24496610Y-26190500D01*
X24628390Y-26190500D01*
X24628392Y-26190500D01*
X24694047Y-26172908D01*
X27963300Y-26172908D01*
X27963300Y-26304692D01*
X27975789Y-26351302D01*
X27997408Y-26431987D01*
X28030354Y-26489050D01*
X28063300Y-26546114D01*
X28156486Y-26639300D01*
X28270614Y-26705192D01*
X28397908Y-26739300D01*
X28397910Y-26739300D01*
X28529690Y-26739300D01*
X28529692Y-26739300D01*
X28656986Y-26705192D01*
X28771114Y-26639300D01*
X28864300Y-26546114D01*
X28930192Y-26431986D01*
X28964300Y-26304692D01*
X28964300Y-26172908D01*
X28930192Y-26045614D01*
X28864300Y-25931486D01*
X28795822Y-25863008D01*
X39995100Y-25863008D01*
X39995100Y-25994792D01*
X40003248Y-26025200D01*
X40029208Y-26122087D01*
X40058550Y-26172908D01*
X40095100Y-26236214D01*
X40188286Y-26329400D01*
X40302414Y-26395292D01*
X40429708Y-26429400D01*
X40429710Y-26429400D01*
X40561490Y-26429400D01*
X40561492Y-26429400D01*
X40590946Y-26421508D01*
X42305400Y-26421508D01*
X42305400Y-26553292D01*
X42306826Y-26558614D01*
X42339508Y-26680587D01*
X42356418Y-26709875D01*
X42405400Y-26794714D01*
X42498586Y-26887900D01*
X42612714Y-26953792D01*
X42740008Y-26987900D01*
X42740010Y-26987900D01*
X42871790Y-26987900D01*
X42871792Y-26987900D01*
X42999086Y-26953792D01*
X43113214Y-26887900D01*
X43206400Y-26794714D01*
X43272292Y-26680586D01*
X43306400Y-26553292D01*
X43306400Y-26421508D01*
X43272292Y-26294214D01*
X43206400Y-26180086D01*
X43113214Y-26086900D01*
X43041705Y-26045614D01*
X42999087Y-26021008D01*
X42910654Y-25997313D01*
X42871792Y-25986900D01*
X42740008Y-25986900D01*
X42612712Y-26021008D01*
X42498586Y-26086900D01*
X42498583Y-26086902D01*
X42405402Y-26180083D01*
X42405400Y-26180086D01*
X42339508Y-26294212D01*
X42330080Y-26329399D01*
X42305400Y-26421508D01*
X40590946Y-26421508D01*
X40688786Y-26395292D01*
X40802914Y-26329400D01*
X40896100Y-26236214D01*
X40961992Y-26122086D01*
X40996100Y-25994792D01*
X40996100Y-25863008D01*
X40961992Y-25735714D01*
X40942598Y-25702124D01*
X40926126Y-25634225D01*
X40948978Y-25568198D01*
X40987983Y-25532739D01*
X41003814Y-25523600D01*
X41097000Y-25430414D01*
X41162892Y-25316286D01*
X41197000Y-25188992D01*
X41197000Y-25057208D01*
X41196812Y-25056508D01*
X41749500Y-25056508D01*
X41749500Y-25188292D01*
X41759122Y-25224202D01*
X41783608Y-25315587D01*
X41793724Y-25333108D01*
X41849500Y-25429714D01*
X41942686Y-25522900D01*
X42041521Y-25579963D01*
X42046390Y-25582774D01*
X42056814Y-25588792D01*
X42184108Y-25622900D01*
X42184110Y-25622900D01*
X42315890Y-25622900D01*
X42315892Y-25622900D01*
X42443186Y-25588792D01*
X42557314Y-25522900D01*
X42650500Y-25429714D01*
X42716392Y-25315586D01*
X42716392Y-25315583D01*
X42718856Y-25311317D01*
X42769423Y-25263102D01*
X42838030Y-25249878D01*
X42858323Y-25253539D01*
X42981708Y-25286600D01*
X42981711Y-25286600D01*
X43113490Y-25286600D01*
X43113492Y-25286600D01*
X43240786Y-25252492D01*
X43241451Y-25252108D01*
X45583900Y-25252108D01*
X45583900Y-25383891D01*
X45618008Y-25511187D01*
X45640886Y-25550812D01*
X45683900Y-25625314D01*
X45777086Y-25718500D01*
X45891214Y-25784392D01*
X46018508Y-25818500D01*
X46018510Y-25818500D01*
X46150290Y-25818500D01*
X46150292Y-25818500D01*
X46277586Y-25784392D01*
X46365546Y-25733608D01*
X53896200Y-25733608D01*
X53896200Y-25865391D01*
X53930308Y-25992687D01*
X53949078Y-26025197D01*
X53996200Y-26106814D01*
X54089386Y-26200000D01*
X54203514Y-26265892D01*
X54330808Y-26300000D01*
X54330810Y-26300000D01*
X54462590Y-26300000D01*
X54462592Y-26300000D01*
X54589886Y-26265892D01*
X54704014Y-26200000D01*
X54797200Y-26106814D01*
X54863092Y-25992686D01*
X54897200Y-25865392D01*
X54897200Y-25733608D01*
X54863092Y-25606314D01*
X54856512Y-25594918D01*
X54849227Y-25582300D01*
X54797200Y-25492186D01*
X54704014Y-25399000D01*
X54646950Y-25366054D01*
X54589887Y-25333108D01*
X54527112Y-25316288D01*
X54462592Y-25299000D01*
X54330808Y-25299000D01*
X54203512Y-25333108D01*
X54089386Y-25399000D01*
X54089383Y-25399002D01*
X53996202Y-25492183D01*
X53996200Y-25492186D01*
X53930308Y-25606312D01*
X53896200Y-25733608D01*
X46365546Y-25733608D01*
X46391714Y-25718500D01*
X46484900Y-25625314D01*
X46550792Y-25511186D01*
X46580287Y-25401106D01*
X46616652Y-25341446D01*
X46679499Y-25310917D01*
X46700062Y-25309200D01*
X46814590Y-25309200D01*
X46814592Y-25309200D01*
X46941886Y-25275092D01*
X47056014Y-25209200D01*
X47070906Y-25194308D01*
X57999500Y-25194308D01*
X57999500Y-25326092D01*
X58004165Y-25343502D01*
X58033608Y-25453387D01*
X58056009Y-25492186D01*
X58099500Y-25567514D01*
X58192686Y-25660700D01*
X58306814Y-25726592D01*
X58434108Y-25760700D01*
X58434110Y-25760700D01*
X58565890Y-25760700D01*
X58565892Y-25760700D01*
X58693186Y-25726592D01*
X58777163Y-25678108D01*
X59718500Y-25678108D01*
X59718500Y-25809892D01*
X59732732Y-25863008D01*
X59752608Y-25937187D01*
X59781310Y-25986900D01*
X59818500Y-26051314D01*
X59911686Y-26144500D01*
X60025814Y-26210392D01*
X60153108Y-26244500D01*
X60153110Y-26244500D01*
X60284890Y-26244500D01*
X60284892Y-26244500D01*
X60412186Y-26210392D01*
X60526314Y-26144500D01*
X60619500Y-26051314D01*
X60685392Y-25937186D01*
X60719500Y-25809892D01*
X60719500Y-25678108D01*
X60687534Y-25558808D01*
X64353500Y-25558808D01*
X64353500Y-25690591D01*
X64387608Y-25817887D01*
X64415035Y-25865391D01*
X64453500Y-25932014D01*
X64546686Y-26025200D01*
X64636579Y-26077100D01*
X64659788Y-26090500D01*
X64660814Y-26091092D01*
X64788108Y-26125200D01*
X64788110Y-26125200D01*
X64919890Y-26125200D01*
X64919892Y-26125200D01*
X65047186Y-26091092D01*
X65161314Y-26025200D01*
X65254500Y-25932014D01*
X65320392Y-25817886D01*
X65354500Y-25690592D01*
X65354500Y-25558808D01*
X65320392Y-25431514D01*
X65319350Y-25429710D01*
X65302197Y-25399999D01*
X65254500Y-25317386D01*
X65161314Y-25224200D01*
X65096184Y-25186597D01*
X65047187Y-25158308D01*
X64983539Y-25141254D01*
X64919892Y-25124200D01*
X64788108Y-25124200D01*
X64660812Y-25158308D01*
X64546686Y-25224200D01*
X64546683Y-25224202D01*
X64453502Y-25317383D01*
X64453500Y-25317386D01*
X64387608Y-25431512D01*
X64353500Y-25558808D01*
X60687534Y-25558808D01*
X60685392Y-25550814D01*
X60619500Y-25436686D01*
X60526314Y-25343500D01*
X60462772Y-25306814D01*
X60412187Y-25277608D01*
X60348539Y-25260554D01*
X60284892Y-25243500D01*
X60153108Y-25243500D01*
X60025812Y-25277608D01*
X59911686Y-25343500D01*
X59911683Y-25343502D01*
X59818502Y-25436683D01*
X59818500Y-25436686D01*
X59752608Y-25550812D01*
X59732646Y-25625313D01*
X59718500Y-25678108D01*
X58777163Y-25678108D01*
X58807314Y-25660700D01*
X58900500Y-25567514D01*
X58966392Y-25453386D01*
X59000500Y-25326092D01*
X59000500Y-25194308D01*
X58966392Y-25067014D01*
X58965455Y-25065391D01*
X58920474Y-24987481D01*
X58920473Y-24987479D01*
X58900503Y-24952892D01*
X58900500Y-24952886D01*
X58881222Y-24933608D01*
X67674300Y-24933608D01*
X67674300Y-25065392D01*
X67681809Y-25093416D01*
X67708408Y-25192687D01*
X67741354Y-25249750D01*
X67774300Y-25306814D01*
X67867486Y-25400000D01*
X67981614Y-25465892D01*
X68108908Y-25500000D01*
X68108910Y-25500000D01*
X68240690Y-25500000D01*
X68240692Y-25500000D01*
X68367986Y-25465892D01*
X68482114Y-25400000D01*
X68575300Y-25306814D01*
X68641192Y-25192686D01*
X68675300Y-25065392D01*
X68675300Y-24933608D01*
X68641192Y-24806314D01*
X68575300Y-24692186D01*
X68482114Y-24599000D01*
X68425050Y-24566054D01*
X68367987Y-24533108D01*
X68304339Y-24516054D01*
X68240692Y-24499000D01*
X68108908Y-24499000D01*
X67981612Y-24533108D01*
X67867486Y-24599000D01*
X67867483Y-24599002D01*
X67774302Y-24692183D01*
X67774300Y-24692186D01*
X67708408Y-24806312D01*
X67675478Y-24929212D01*
X67674300Y-24933608D01*
X58881222Y-24933608D01*
X58807314Y-24859700D01*
X58731248Y-24815783D01*
X58693187Y-24793808D01*
X58629539Y-24776754D01*
X58565892Y-24759700D01*
X58434108Y-24759700D01*
X58306812Y-24793808D01*
X58192686Y-24859700D01*
X58192683Y-24859702D01*
X58099502Y-24952883D01*
X58099500Y-24952886D01*
X58033608Y-25067012D01*
X58009684Y-25156300D01*
X57999500Y-25194308D01*
X47070906Y-25194308D01*
X47149200Y-25116014D01*
X47215092Y-25001886D01*
X47249200Y-24874592D01*
X47249200Y-24742808D01*
X47215092Y-24615514D01*
X47149200Y-24501386D01*
X47056014Y-24408200D01*
X47031769Y-24394202D01*
X46983555Y-24343635D01*
X46970333Y-24275028D01*
X46986383Y-24224818D01*
X47024392Y-24158986D01*
X47058500Y-24031692D01*
X47058500Y-23899908D01*
X47024392Y-23772614D01*
X47019827Y-23764708D01*
X46990546Y-23713992D01*
X46983858Y-23702408D01*
X60424500Y-23702408D01*
X60424500Y-23834192D01*
X60427959Y-23847100D01*
X60458608Y-23961487D01*
X60478475Y-23995897D01*
X60524500Y-24075614D01*
X60617686Y-24168800D01*
X60731814Y-24234692D01*
X60859108Y-24268800D01*
X60859110Y-24268800D01*
X60990890Y-24268800D01*
X60990892Y-24268800D01*
X61118186Y-24234692D01*
X61232314Y-24168800D01*
X61325500Y-24075614D01*
X61391392Y-23961486D01*
X61425500Y-23834192D01*
X61425500Y-23702408D01*
X61391392Y-23575114D01*
X61365061Y-23529508D01*
X70999500Y-23529508D01*
X70999500Y-23661292D01*
X71013621Y-23713991D01*
X71033608Y-23788587D01*
X71059938Y-23834191D01*
X71099500Y-23902714D01*
X71192686Y-23995900D01*
X71306814Y-24061792D01*
X71434108Y-24095900D01*
X71434110Y-24095900D01*
X71565890Y-24095900D01*
X71565892Y-24095900D01*
X71693186Y-24061792D01*
X71807314Y-23995900D01*
X71900500Y-23902714D01*
X71966392Y-23788586D01*
X72000500Y-23661292D01*
X72000500Y-23529508D01*
X71966392Y-23402214D01*
X71900500Y-23288086D01*
X71807314Y-23194900D01*
X71744569Y-23158674D01*
X71693187Y-23129008D01*
X71629539Y-23111954D01*
X71565892Y-23094900D01*
X71434108Y-23094900D01*
X71306812Y-23129008D01*
X71192686Y-23194900D01*
X71192683Y-23194902D01*
X71099502Y-23288083D01*
X71099500Y-23288086D01*
X71033608Y-23402212D01*
X70999500Y-23529508D01*
X61365061Y-23529508D01*
X61325500Y-23460986D01*
X61232314Y-23367800D01*
X61175250Y-23334854D01*
X61118187Y-23301908D01*
X61054539Y-23284854D01*
X60990892Y-23267800D01*
X60859108Y-23267800D01*
X60731812Y-23301908D01*
X60617686Y-23367800D01*
X60617683Y-23367802D01*
X60524502Y-23460983D01*
X60524500Y-23460986D01*
X60458608Y-23575112D01*
X60427772Y-23690197D01*
X60424500Y-23702408D01*
X46983858Y-23702408D01*
X46958500Y-23658486D01*
X46865314Y-23565300D01*
X46803321Y-23529508D01*
X46751187Y-23499408D01*
X46680616Y-23480499D01*
X46623892Y-23465300D01*
X46492108Y-23465300D01*
X46364812Y-23499408D01*
X46250686Y-23565300D01*
X46250683Y-23565302D01*
X46157502Y-23658483D01*
X46157500Y-23658486D01*
X46091608Y-23772612D01*
X46072721Y-23843102D01*
X46057500Y-23899908D01*
X46057500Y-24031692D01*
X46069269Y-24075614D01*
X46091608Y-24158987D01*
X46124554Y-24216050D01*
X46157500Y-24273114D01*
X46250686Y-24366300D01*
X46274928Y-24380296D01*
X46323143Y-24430863D01*
X46336367Y-24499470D01*
X46320315Y-24549683D01*
X46282309Y-24615510D01*
X46282309Y-24615511D01*
X46282309Y-24615512D01*
X46282308Y-24615514D01*
X46253803Y-24721900D01*
X46252813Y-24725593D01*
X46216448Y-24785254D01*
X46153601Y-24815783D01*
X46133038Y-24817500D01*
X46018508Y-24817500D01*
X45891212Y-24851608D01*
X45777086Y-24917500D01*
X45777083Y-24917502D01*
X45683902Y-25010683D01*
X45683900Y-25010686D01*
X45618008Y-25124812D01*
X45583900Y-25252108D01*
X43241451Y-25252108D01*
X43354914Y-25186600D01*
X43448100Y-25093414D01*
X43513992Y-24979286D01*
X43548100Y-24851992D01*
X43548100Y-24720208D01*
X43513992Y-24592914D01*
X43448100Y-24478786D01*
X43354914Y-24385600D01*
X43282229Y-24343635D01*
X43240787Y-24319708D01*
X43163468Y-24298991D01*
X43113492Y-24285600D01*
X42981708Y-24285600D01*
X42854412Y-24319708D01*
X42740286Y-24385600D01*
X42740283Y-24385602D01*
X42647102Y-24478783D01*
X42647100Y-24478786D01*
X42578743Y-24597183D01*
X42528175Y-24645398D01*
X42459568Y-24658620D01*
X42439264Y-24654957D01*
X42315892Y-24621900D01*
X42184108Y-24621900D01*
X42056812Y-24656008D01*
X41942686Y-24721900D01*
X41942683Y-24721902D01*
X41849502Y-24815083D01*
X41849500Y-24815086D01*
X41783608Y-24929212D01*
X41761778Y-25010686D01*
X41749500Y-25056508D01*
X41196812Y-25056508D01*
X41162892Y-24929914D01*
X41097000Y-24815786D01*
X41003814Y-24722600D01*
X40946750Y-24689654D01*
X40889687Y-24656708D01*
X40825453Y-24639497D01*
X40762392Y-24622600D01*
X40630608Y-24622600D01*
X40503312Y-24656708D01*
X40389186Y-24722600D01*
X40389183Y-24722602D01*
X40296002Y-24815783D01*
X40296000Y-24815786D01*
X40230108Y-24929912D01*
X40214683Y-24987481D01*
X40196000Y-25057208D01*
X40196000Y-25188992D01*
X40229920Y-25315586D01*
X40230109Y-25316288D01*
X40230109Y-25316289D01*
X40249500Y-25349875D01*
X40265973Y-25417775D01*
X40243120Y-25483802D01*
X40204114Y-25519261D01*
X40196605Y-25523597D01*
X40188286Y-25528400D01*
X40188283Y-25528402D01*
X40095102Y-25621583D01*
X40095100Y-25621586D01*
X40029208Y-25735712D01*
X40009332Y-25809892D01*
X39995100Y-25863008D01*
X28795822Y-25863008D01*
X28771114Y-25838300D01*
X28677743Y-25784392D01*
X28656987Y-25772408D01*
X28593339Y-25755354D01*
X28529692Y-25738300D01*
X28397908Y-25738300D01*
X28270612Y-25772408D01*
X28156486Y-25838300D01*
X28156483Y-25838302D01*
X28063302Y-25931483D01*
X28063300Y-25931486D01*
X27997408Y-26045612D01*
X27976917Y-26122087D01*
X27963300Y-26172908D01*
X24694047Y-26172908D01*
X24755686Y-26156392D01*
X24869814Y-26090500D01*
X24963000Y-25997314D01*
X25028892Y-25883186D01*
X25063000Y-25755892D01*
X25063000Y-25624108D01*
X25028892Y-25496814D01*
X25021379Y-25483802D01*
X25011039Y-25465892D01*
X24963000Y-25382686D01*
X24869814Y-25289500D01*
X24807533Y-25253542D01*
X24755687Y-25223608D01*
X24646343Y-25194310D01*
X24628392Y-25189500D01*
X24496608Y-25189500D01*
X24369312Y-25223608D01*
X24255186Y-25289500D01*
X24255183Y-25289502D01*
X24162002Y-25382683D01*
X24162000Y-25382686D01*
X24096108Y-25496812D01*
X24076981Y-25568198D01*
X24062000Y-25624108D01*
X300500Y-25624108D01*
X300500Y-24170408D01*
X4826500Y-24170408D01*
X4826500Y-24302192D01*
X4834272Y-24331196D01*
X4860608Y-24429487D01*
X4868585Y-24443303D01*
X4926500Y-24543614D01*
X5019686Y-24636800D01*
X5133814Y-24702692D01*
X5261108Y-24736800D01*
X5261110Y-24736800D01*
X5392890Y-24736800D01*
X5392892Y-24736800D01*
X5520186Y-24702692D01*
X5634314Y-24636800D01*
X5727500Y-24543614D01*
X5793392Y-24429486D01*
X5827500Y-24302192D01*
X5827500Y-24177708D01*
X8529200Y-24177708D01*
X8529200Y-24309492D01*
X8535016Y-24331196D01*
X8563308Y-24436787D01*
X8587555Y-24478783D01*
X8629200Y-24550914D01*
X8722386Y-24644100D01*
X8818326Y-24699491D01*
X8828546Y-24705392D01*
X8836514Y-24709992D01*
X8963808Y-24744100D01*
X8963810Y-24744100D01*
X9095590Y-24744100D01*
X9095592Y-24744100D01*
X9222886Y-24709992D01*
X9337014Y-24644100D01*
X9430200Y-24550914D01*
X9496092Y-24436786D01*
X9530200Y-24309492D01*
X9530200Y-24177708D01*
X9527387Y-24167208D01*
X11079700Y-24167208D01*
X11079700Y-24298992D01*
X11083585Y-24313490D01*
X11113808Y-24426287D01*
X11144117Y-24478783D01*
X11179700Y-24540414D01*
X11272886Y-24633600D01*
X11387014Y-24699492D01*
X11514308Y-24733600D01*
X11514310Y-24733600D01*
X11646090Y-24733600D01*
X11646092Y-24733600D01*
X11773386Y-24699492D01*
X11887514Y-24633600D01*
X11980700Y-24540414D01*
X12046592Y-24426286D01*
X12080700Y-24298992D01*
X12080700Y-24167208D01*
X12080164Y-24165208D01*
X12885700Y-24165208D01*
X12885700Y-24296992D01*
X12890121Y-24313490D01*
X12919808Y-24424287D01*
X12930787Y-24443303D01*
X12985700Y-24538414D01*
X13078886Y-24631600D01*
X13177721Y-24688663D01*
X13183818Y-24692183D01*
X13193014Y-24697492D01*
X13320308Y-24731600D01*
X13320310Y-24731600D01*
X13452090Y-24731600D01*
X13452092Y-24731600D01*
X13579386Y-24697492D01*
X13693514Y-24631600D01*
X13786700Y-24538414D01*
X13852592Y-24424286D01*
X13886700Y-24296992D01*
X13886700Y-24173108D01*
X15966100Y-24173108D01*
X15966100Y-24304892D01*
X15976481Y-24343635D01*
X16000208Y-24432187D01*
X16033154Y-24489250D01*
X16066100Y-24546314D01*
X16159286Y-24639500D01*
X16273414Y-24705392D01*
X16400708Y-24739500D01*
X16400710Y-24739500D01*
X16532490Y-24739500D01*
X16532492Y-24739500D01*
X16659786Y-24705392D01*
X16773914Y-24639500D01*
X16867100Y-24546314D01*
X16932992Y-24432186D01*
X16967100Y-24304892D01*
X16967100Y-24173108D01*
X16932992Y-24045814D01*
X16929586Y-24039914D01*
X16919349Y-24022183D01*
X16919348Y-24022182D01*
X16904172Y-23995897D01*
X16888244Y-23968308D01*
X18982000Y-23968308D01*
X18982000Y-24100091D01*
X19016108Y-24227387D01*
X19042509Y-24273114D01*
X19082000Y-24341514D01*
X19175186Y-24434700D01*
X19251540Y-24478783D01*
X19287370Y-24499470D01*
X19289314Y-24500592D01*
X19416608Y-24534700D01*
X19416610Y-24534700D01*
X19548390Y-24534700D01*
X19548392Y-24534700D01*
X19675686Y-24500592D01*
X19789814Y-24434700D01*
X19883000Y-24341514D01*
X19948892Y-24227386D01*
X19961131Y-24181708D01*
X30393400Y-24181708D01*
X30393400Y-24313492D01*
X30400909Y-24341516D01*
X30427508Y-24440787D01*
X30449447Y-24478786D01*
X30493400Y-24554914D01*
X30586586Y-24648100D01*
X30700714Y-24713992D01*
X30828008Y-24748100D01*
X30828010Y-24748100D01*
X30959790Y-24748100D01*
X30959792Y-24748100D01*
X31087086Y-24713992D01*
X31201214Y-24648100D01*
X31294400Y-24554914D01*
X31360292Y-24440786D01*
X31394400Y-24313492D01*
X31394400Y-24181708D01*
X31360292Y-24054414D01*
X31357981Y-24050412D01*
X31341683Y-24022182D01*
X31294400Y-23940286D01*
X31201214Y-23847100D01*
X31102661Y-23790200D01*
X31087087Y-23781208D01*
X31023439Y-23764154D01*
X30959792Y-23747100D01*
X30828008Y-23747100D01*
X30700712Y-23781208D01*
X30586586Y-23847100D01*
X30586583Y-23847102D01*
X30493402Y-23940283D01*
X30493400Y-23940286D01*
X30427508Y-24054412D01*
X30404177Y-24141486D01*
X30393400Y-24181708D01*
X19961131Y-24181708D01*
X19983000Y-24100092D01*
X19983000Y-23968308D01*
X19948892Y-23841014D01*
X19942879Y-23830600D01*
X19918623Y-23788587D01*
X19883000Y-23726886D01*
X19789814Y-23633700D01*
X19726272Y-23597014D01*
X19675687Y-23567808D01*
X19612039Y-23550754D01*
X19548392Y-23533700D01*
X19416608Y-23533700D01*
X19289312Y-23567808D01*
X19175186Y-23633700D01*
X19175183Y-23633702D01*
X19082002Y-23726883D01*
X19082000Y-23726886D01*
X19016108Y-23841012D01*
X18982000Y-23968308D01*
X16888244Y-23968308D01*
X16867100Y-23931686D01*
X16773914Y-23838500D01*
X16716850Y-23805554D01*
X16659787Y-23772608D01*
X16568316Y-23748099D01*
X16532492Y-23738500D01*
X16400708Y-23738500D01*
X16273412Y-23772608D01*
X16159286Y-23838500D01*
X16159283Y-23838502D01*
X16066102Y-23931683D01*
X16066100Y-23931686D01*
X16000208Y-24045812D01*
X15985664Y-24100092D01*
X15966100Y-24173108D01*
X13886700Y-24173108D01*
X13886700Y-24165208D01*
X13852592Y-24037914D01*
X13786700Y-23923786D01*
X13693514Y-23830600D01*
X13636450Y-23797654D01*
X13579387Y-23764708D01*
X13481575Y-23738500D01*
X13452092Y-23730600D01*
X13320308Y-23730600D01*
X13193012Y-23764708D01*
X13078886Y-23830600D01*
X13078883Y-23830602D01*
X12985702Y-23923783D01*
X12985700Y-23923786D01*
X12919808Y-24037912D01*
X12892056Y-24141486D01*
X12885700Y-24165208D01*
X12080164Y-24165208D01*
X12046592Y-24039914D01*
X12041844Y-24031691D01*
X12021180Y-23995899D01*
X11980700Y-23925786D01*
X11887514Y-23832600D01*
X11830450Y-23799654D01*
X11773387Y-23766708D01*
X11668111Y-23738500D01*
X11646092Y-23732600D01*
X11514308Y-23732600D01*
X11387012Y-23766708D01*
X11272886Y-23832600D01*
X11272883Y-23832602D01*
X11179702Y-23925783D01*
X11179700Y-23925786D01*
X11113808Y-24039912D01*
X11080236Y-24165208D01*
X11079700Y-24167208D01*
X9527387Y-24167208D01*
X9496092Y-24050414D01*
X9493434Y-24045811D01*
X9464618Y-23995900D01*
X9430200Y-23936286D01*
X9337014Y-23843100D01*
X9245389Y-23790200D01*
X9222887Y-23777208D01*
X9144079Y-23756092D01*
X9095592Y-23743100D01*
X8963808Y-23743100D01*
X8836512Y-23777208D01*
X8722386Y-23843100D01*
X8722383Y-23843102D01*
X8629202Y-23936283D01*
X8629200Y-23936286D01*
X8563308Y-24050412D01*
X8538905Y-24141487D01*
X8529200Y-24177708D01*
X5827500Y-24177708D01*
X5827500Y-24170408D01*
X5793392Y-24043114D01*
X5791544Y-24039914D01*
X5766131Y-23995897D01*
X5727500Y-23928986D01*
X5634314Y-23835800D01*
X5552539Y-23788587D01*
X5520187Y-23769908D01*
X5456539Y-23752854D01*
X5392892Y-23735800D01*
X5261108Y-23735800D01*
X5133812Y-23769908D01*
X5019686Y-23835800D01*
X5019683Y-23835802D01*
X4926502Y-23928983D01*
X4926500Y-23928986D01*
X4860608Y-24043112D01*
X4834249Y-24141487D01*
X4826500Y-24170408D01*
X300500Y-24170408D01*
X300500Y-22914108D01*
X4002000Y-22914108D01*
X4002000Y-23045892D01*
X4015564Y-23096514D01*
X4036108Y-23173187D01*
X4065335Y-23223808D01*
X4102000Y-23287314D01*
X4195186Y-23380500D01*
X4309314Y-23446392D01*
X4436608Y-23480500D01*
X4436610Y-23480500D01*
X4568390Y-23480500D01*
X4568392Y-23480500D01*
X4695686Y-23446392D01*
X4809814Y-23380500D01*
X4903000Y-23287314D01*
X4963972Y-23181708D01*
X9849000Y-23181708D01*
X9849000Y-23313491D01*
X9883108Y-23440787D01*
X9907415Y-23482887D01*
X9949000Y-23554914D01*
X10042186Y-23648100D01*
X10156314Y-23713992D01*
X10283608Y-23748100D01*
X10283610Y-23748100D01*
X10415390Y-23748100D01*
X10415392Y-23748100D01*
X10542686Y-23713992D01*
X10656814Y-23648100D01*
X10750000Y-23554914D01*
X10815892Y-23440786D01*
X10850000Y-23313492D01*
X10850000Y-23223808D01*
X17034400Y-23223808D01*
X17034400Y-23355591D01*
X17068508Y-23482887D01*
X17101454Y-23539950D01*
X17134400Y-23597014D01*
X17227586Y-23690200D01*
X17341714Y-23756092D01*
X17469008Y-23790200D01*
X17469010Y-23790200D01*
X17600790Y-23790200D01*
X17600792Y-23790200D01*
X17728086Y-23756092D01*
X17842214Y-23690200D01*
X17935400Y-23597014D01*
X18001292Y-23482886D01*
X18035400Y-23355592D01*
X18035400Y-23223808D01*
X18011526Y-23134708D01*
X53845600Y-23134708D01*
X53845600Y-23266492D01*
X53862654Y-23330139D01*
X53879708Y-23393787D01*
X53906844Y-23440787D01*
X53945600Y-23507914D01*
X54038786Y-23601100D01*
X54152914Y-23666992D01*
X54280208Y-23701100D01*
X54280210Y-23701100D01*
X54411990Y-23701100D01*
X54411992Y-23701100D01*
X54539286Y-23666992D01*
X54653414Y-23601100D01*
X54746600Y-23507914D01*
X54812492Y-23393786D01*
X54846600Y-23266492D01*
X54846600Y-23134708D01*
X54812492Y-23007414D01*
X54746600Y-22893286D01*
X54653414Y-22800100D01*
X54561616Y-22747100D01*
X54539287Y-22734208D01*
X54475639Y-22717154D01*
X54411992Y-22700100D01*
X54280208Y-22700100D01*
X54152912Y-22734208D01*
X54038786Y-22800100D01*
X54038783Y-22800102D01*
X53945602Y-22893283D01*
X53945600Y-22893286D01*
X53879708Y-23007412D01*
X53856266Y-23094900D01*
X53845600Y-23134708D01*
X18011526Y-23134708D01*
X18001292Y-23096514D01*
X17935400Y-22982386D01*
X17842214Y-22889200D01*
X17785150Y-22856254D01*
X17728087Y-22823308D01*
X17641479Y-22800102D01*
X17600792Y-22789200D01*
X17469008Y-22789200D01*
X17341712Y-22823308D01*
X17227586Y-22889200D01*
X17227583Y-22889202D01*
X17134402Y-22982383D01*
X17134400Y-22982386D01*
X17068508Y-23096512D01*
X17034400Y-23223808D01*
X10850000Y-23223808D01*
X10850000Y-23181708D01*
X10815892Y-23054414D01*
X10750000Y-22940286D01*
X10656814Y-22847100D01*
X10599750Y-22814154D01*
X10542687Y-22781208D01*
X10479039Y-22764154D01*
X10415392Y-22747100D01*
X10283608Y-22747100D01*
X10156312Y-22781208D01*
X10042186Y-22847100D01*
X10042183Y-22847102D01*
X9949002Y-22940283D01*
X9949000Y-22940286D01*
X9883108Y-23054412D01*
X9849000Y-23181708D01*
X4963972Y-23181708D01*
X4968892Y-23173186D01*
X5003000Y-23045892D01*
X5003000Y-22914108D01*
X4968892Y-22786814D01*
X4903000Y-22672686D01*
X4809814Y-22579500D01*
X4752750Y-22546554D01*
X4695687Y-22513608D01*
X4632039Y-22496554D01*
X4568392Y-22479500D01*
X4436608Y-22479500D01*
X4309312Y-22513608D01*
X4195186Y-22579500D01*
X4195183Y-22579502D01*
X4102002Y-22672683D01*
X4102000Y-22672686D01*
X4036108Y-22786812D01*
X4019954Y-22847102D01*
X4002000Y-22914108D01*
X300500Y-22914108D01*
X300500Y-21416708D01*
X4003600Y-21416708D01*
X4003600Y-21548492D01*
X4017535Y-21600499D01*
X4037708Y-21675787D01*
X4054740Y-21705286D01*
X4103600Y-21789914D01*
X4196786Y-21883100D01*
X4310914Y-21948992D01*
X4438208Y-21983100D01*
X4438210Y-21983100D01*
X4569990Y-21983100D01*
X4569992Y-21983100D01*
X4697286Y-21948992D01*
X4811414Y-21883100D01*
X4904600Y-21789914D01*
X4970492Y-21675786D01*
X5004600Y-21548492D01*
X5004600Y-21416708D01*
X4970492Y-21289414D01*
X4904600Y-21175286D01*
X4811414Y-21082100D01*
X4748381Y-21045708D01*
X4728290Y-21034108D01*
X26690300Y-21034108D01*
X26690300Y-21165892D01*
X26692817Y-21175286D01*
X26724408Y-21293187D01*
X26741737Y-21323201D01*
X26790300Y-21407314D01*
X26883486Y-21500500D01*
X26997614Y-21566392D01*
X27124908Y-21600500D01*
X27124910Y-21600500D01*
X27256690Y-21600500D01*
X27256692Y-21600500D01*
X27383986Y-21566392D01*
X27498114Y-21500500D01*
X27552406Y-21446208D01*
X38336600Y-21446208D01*
X38336600Y-21577991D01*
X38370708Y-21705287D01*
X38403654Y-21762350D01*
X38436600Y-21819414D01*
X38529786Y-21912600D01*
X38643914Y-21978492D01*
X38771208Y-22012600D01*
X38771210Y-22012600D01*
X38902990Y-22012600D01*
X38902992Y-22012600D01*
X39030286Y-21978492D01*
X39144414Y-21912600D01*
X39237600Y-21819414D01*
X39303492Y-21705286D01*
X39337600Y-21577992D01*
X39337600Y-21446208D01*
X39303492Y-21318914D01*
X39237600Y-21204786D01*
X39144414Y-21111600D01*
X39087350Y-21078654D01*
X39030287Y-21045708D01*
X38920189Y-21016208D01*
X38902992Y-21011600D01*
X38771208Y-21011600D01*
X38643912Y-21045708D01*
X38529786Y-21111600D01*
X38529783Y-21111602D01*
X38436602Y-21204783D01*
X38436600Y-21204786D01*
X38370708Y-21318912D01*
X38336600Y-21446208D01*
X27552406Y-21446208D01*
X27591300Y-21407314D01*
X27657192Y-21293186D01*
X27691300Y-21165892D01*
X27691300Y-21034108D01*
X27657192Y-20906814D01*
X27657191Y-20906812D01*
X27657191Y-20906811D01*
X27628321Y-20856808D01*
X31749500Y-20856808D01*
X31749500Y-20988591D01*
X31783608Y-21115887D01*
X31812478Y-21165890D01*
X31849500Y-21230014D01*
X31942686Y-21323200D01*
X32056814Y-21389092D01*
X32184108Y-21423200D01*
X32184110Y-21423200D01*
X32315890Y-21423200D01*
X32315892Y-21423200D01*
X32443186Y-21389092D01*
X32557314Y-21323200D01*
X32650500Y-21230014D01*
X32716392Y-21115886D01*
X32750500Y-20988592D01*
X32750500Y-20856808D01*
X32716392Y-20729514D01*
X32650500Y-20615386D01*
X32557314Y-20522200D01*
X32500250Y-20489254D01*
X32443187Y-20456308D01*
X32379539Y-20439254D01*
X32315892Y-20422200D01*
X32184108Y-20422200D01*
X32056812Y-20456308D01*
X31942686Y-20522200D01*
X31942683Y-20522202D01*
X31849502Y-20615383D01*
X31849500Y-20615386D01*
X31783608Y-20729512D01*
X31749500Y-20856808D01*
X27628321Y-20856808D01*
X27624246Y-20849750D01*
X27591300Y-20792686D01*
X27498114Y-20699500D01*
X27441050Y-20666554D01*
X27383987Y-20633608D01*
X27312673Y-20614500D01*
X27256692Y-20599500D01*
X27124908Y-20599500D01*
X26997612Y-20633608D01*
X26883486Y-20699500D01*
X26883483Y-20699502D01*
X26790302Y-20792683D01*
X26790300Y-20792686D01*
X26724408Y-20906812D01*
X26704235Y-20982100D01*
X26690300Y-21034108D01*
X4728290Y-21034108D01*
X4697287Y-21016208D01*
X4633639Y-20999154D01*
X4569992Y-20982100D01*
X4438208Y-20982100D01*
X4310912Y-21016208D01*
X4196786Y-21082100D01*
X4196783Y-21082102D01*
X4103602Y-21175283D01*
X4103600Y-21175286D01*
X4037708Y-21289412D01*
X4006117Y-21407313D01*
X4003600Y-21416708D01*
X300500Y-21416708D01*
X300500Y-20146708D01*
X4003600Y-20146708D01*
X4003600Y-20278492D01*
X4011289Y-20307187D01*
X4037708Y-20405787D01*
X4066877Y-20456308D01*
X4103600Y-20519914D01*
X4196786Y-20613100D01*
X4310914Y-20678992D01*
X4438208Y-20713100D01*
X4438210Y-20713100D01*
X4569990Y-20713100D01*
X4569992Y-20713100D01*
X4697286Y-20678992D01*
X4811414Y-20613100D01*
X4904600Y-20519914D01*
X4970492Y-20405786D01*
X5004600Y-20278492D01*
X5004600Y-20146708D01*
X4974242Y-20033408D01*
X30042100Y-20033408D01*
X30042100Y-20165191D01*
X30076208Y-20292487D01*
X30109154Y-20349550D01*
X30142100Y-20406614D01*
X30235286Y-20499800D01*
X30349414Y-20565692D01*
X30476708Y-20599800D01*
X30476710Y-20599800D01*
X30608490Y-20599800D01*
X30608492Y-20599800D01*
X30735786Y-20565692D01*
X30849914Y-20499800D01*
X30943100Y-20406614D01*
X31008992Y-20292486D01*
X31043100Y-20165192D01*
X31043100Y-20048108D01*
X39261200Y-20048108D01*
X39261200Y-20179891D01*
X39295308Y-20307187D01*
X39328254Y-20364250D01*
X39361200Y-20421314D01*
X39454386Y-20514500D01*
X39568514Y-20580392D01*
X39695808Y-20614500D01*
X39695810Y-20614500D01*
X39827590Y-20614500D01*
X39827592Y-20614500D01*
X39954886Y-20580392D01*
X40069014Y-20514500D01*
X40162200Y-20421314D01*
X40228092Y-20307186D01*
X40262200Y-20179892D01*
X40262200Y-20048108D01*
X40228092Y-19920814D01*
X40162200Y-19806686D01*
X40069014Y-19713500D01*
X40011950Y-19680554D01*
X39954887Y-19647608D01*
X39891239Y-19630554D01*
X39827592Y-19613500D01*
X39695808Y-19613500D01*
X39568512Y-19647608D01*
X39454386Y-19713500D01*
X39454383Y-19713502D01*
X39361202Y-19806683D01*
X39361200Y-19806686D01*
X39295308Y-19920812D01*
X39261200Y-20048108D01*
X31043100Y-20048108D01*
X31043100Y-20033408D01*
X31008992Y-19906114D01*
X30943100Y-19791986D01*
X30849914Y-19698800D01*
X30792850Y-19665854D01*
X30735787Y-19632908D01*
X30663354Y-19613500D01*
X30608492Y-19598800D01*
X30476708Y-19598800D01*
X30349412Y-19632908D01*
X30235286Y-19698800D01*
X30235283Y-19698802D01*
X30142102Y-19791983D01*
X30142100Y-19791986D01*
X30076208Y-19906112D01*
X30042100Y-20033408D01*
X4974242Y-20033408D01*
X4970492Y-20019414D01*
X4904600Y-19905286D01*
X4811414Y-19812100D01*
X4754350Y-19779154D01*
X4697287Y-19746208D01*
X4633639Y-19729154D01*
X4569992Y-19712100D01*
X4438208Y-19712100D01*
X4310912Y-19746208D01*
X4196786Y-19812100D01*
X4196783Y-19812102D01*
X4103602Y-19905283D01*
X4103600Y-19905286D01*
X4037708Y-20019412D01*
X4003600Y-20146708D01*
X300500Y-20146708D01*
X300500Y-18876708D01*
X4003600Y-18876708D01*
X4003600Y-19008492D01*
X4007116Y-19021614D01*
X4037708Y-19135787D01*
X4045284Y-19148908D01*
X4103600Y-19249914D01*
X4196786Y-19343100D01*
X4295621Y-19400163D01*
X4309171Y-19407986D01*
X4310914Y-19408992D01*
X4438208Y-19443100D01*
X4438210Y-19443100D01*
X4569990Y-19443100D01*
X4569992Y-19443100D01*
X4697286Y-19408992D01*
X4811414Y-19343100D01*
X4904600Y-19249914D01*
X4962916Y-19148908D01*
X34999500Y-19148908D01*
X34999500Y-19280691D01*
X35033608Y-19407987D01*
X35053881Y-19443100D01*
X35099500Y-19522114D01*
X35192686Y-19615300D01*
X35306814Y-19681192D01*
X35434108Y-19715300D01*
X35434110Y-19715300D01*
X35565890Y-19715300D01*
X35565892Y-19715300D01*
X35693186Y-19681192D01*
X35807314Y-19615300D01*
X35900500Y-19522114D01*
X35966392Y-19407986D01*
X36000500Y-19280692D01*
X36000500Y-19148908D01*
X35966392Y-19021614D01*
X35900500Y-18907486D01*
X35807314Y-18814300D01*
X35750250Y-18781354D01*
X35693187Y-18748408D01*
X35629539Y-18731354D01*
X35565892Y-18714300D01*
X35434108Y-18714300D01*
X35306812Y-18748408D01*
X35192686Y-18814300D01*
X35192683Y-18814302D01*
X35099502Y-18907483D01*
X35099500Y-18907486D01*
X35033608Y-19021612D01*
X34999500Y-19148908D01*
X4962916Y-19148908D01*
X4970492Y-19135786D01*
X5004600Y-19008492D01*
X5004600Y-18876708D01*
X4970492Y-18749414D01*
X4904600Y-18635286D01*
X4811414Y-18542100D01*
X4754350Y-18509154D01*
X4697287Y-18476208D01*
X4633639Y-18459154D01*
X4569992Y-18442100D01*
X4438208Y-18442100D01*
X4310912Y-18476208D01*
X4196786Y-18542100D01*
X4196783Y-18542102D01*
X4103602Y-18635283D01*
X4103600Y-18635286D01*
X4037708Y-18749412D01*
X4022194Y-18807313D01*
X4003600Y-18876708D01*
X300500Y-18876708D01*
X300500Y-18434108D01*
X36736200Y-18434108D01*
X36736200Y-18565891D01*
X36770308Y-18693187D01*
X36802770Y-18749412D01*
X36836200Y-18807314D01*
X36929386Y-18900500D01*
X37043514Y-18966392D01*
X37170808Y-19000500D01*
X37170810Y-19000500D01*
X37302590Y-19000500D01*
X37302592Y-19000500D01*
X37351452Y-18987408D01*
X57927900Y-18987408D01*
X57927900Y-19119192D01*
X57932347Y-19135787D01*
X57962008Y-19246487D01*
X57968944Y-19258500D01*
X58027900Y-19360614D01*
X58121086Y-19453800D01*
X58235214Y-19519692D01*
X58362508Y-19553800D01*
X58362510Y-19553800D01*
X58494290Y-19553800D01*
X58494292Y-19553800D01*
X58621586Y-19519692D01*
X58735714Y-19453800D01*
X58828900Y-19360614D01*
X58894792Y-19246486D01*
X58928900Y-19119192D01*
X58928900Y-18987408D01*
X58894792Y-18860114D01*
X58894790Y-18860110D01*
X58886634Y-18845983D01*
X58886633Y-18845982D01*
X58864307Y-18807313D01*
X58855528Y-18792108D01*
X65492500Y-18792108D01*
X65492500Y-18923892D01*
X65503888Y-18966392D01*
X65526608Y-19051187D01*
X65559554Y-19108250D01*
X65592500Y-19165314D01*
X65685686Y-19258500D01*
X65799814Y-19324392D01*
X65927108Y-19358500D01*
X65927110Y-19358500D01*
X66058890Y-19358500D01*
X66058892Y-19358500D01*
X66186186Y-19324392D01*
X66300314Y-19258500D01*
X66393500Y-19165314D01*
X66459392Y-19051186D01*
X66493500Y-18923892D01*
X66493500Y-18792108D01*
X66459392Y-18664814D01*
X66393500Y-18550686D01*
X66300314Y-18457500D01*
X66243250Y-18424554D01*
X66186187Y-18391608D01*
X66105916Y-18370100D01*
X66058892Y-18357500D01*
X65927108Y-18357500D01*
X65799812Y-18391608D01*
X65685686Y-18457500D01*
X65685683Y-18457502D01*
X65592502Y-18550683D01*
X65592500Y-18550686D01*
X65526608Y-18664812D01*
X65513348Y-18714300D01*
X65492500Y-18792108D01*
X58855528Y-18792108D01*
X58828900Y-18745986D01*
X58735714Y-18652800D01*
X58678650Y-18619854D01*
X58621587Y-18586908D01*
X58543145Y-18565890D01*
X58494292Y-18552800D01*
X58362508Y-18552800D01*
X58235212Y-18586908D01*
X58121086Y-18652800D01*
X58121083Y-18652802D01*
X58027902Y-18745983D01*
X58027900Y-18745986D01*
X57962008Y-18860112D01*
X57944919Y-18923890D01*
X57927900Y-18987408D01*
X37351452Y-18987408D01*
X37429886Y-18966392D01*
X37544014Y-18900500D01*
X37637200Y-18807314D01*
X37703092Y-18693186D01*
X37737200Y-18565892D01*
X37737200Y-18434108D01*
X37703092Y-18306814D01*
X37637200Y-18192686D01*
X37544014Y-18099500D01*
X37480424Y-18062786D01*
X37429887Y-18033608D01*
X37366239Y-18016554D01*
X37302592Y-17999500D01*
X37170808Y-17999500D01*
X37043512Y-18033608D01*
X36929386Y-18099500D01*
X36929383Y-18099502D01*
X36836202Y-18192683D01*
X36836200Y-18192686D01*
X36770308Y-18306812D01*
X36736200Y-18434108D01*
X300500Y-18434108D01*
X300500Y-17606708D01*
X4003600Y-17606708D01*
X4003600Y-17738492D01*
X4012659Y-17772300D01*
X4037708Y-17865787D01*
X4068487Y-17919097D01*
X4103600Y-17979914D01*
X4196786Y-18073100D01*
X4310914Y-18138992D01*
X4438208Y-18173100D01*
X4438210Y-18173100D01*
X4569990Y-18173100D01*
X4569992Y-18173100D01*
X4697286Y-18138992D01*
X4811414Y-18073100D01*
X4904600Y-17979914D01*
X4970492Y-17865786D01*
X4978980Y-17834108D01*
X18997000Y-17834108D01*
X18997000Y-17965891D01*
X19031108Y-18093187D01*
X19057554Y-18138992D01*
X19097000Y-18207314D01*
X19190186Y-18300500D01*
X19304314Y-18366392D01*
X19431608Y-18400500D01*
X19431610Y-18400500D01*
X19563390Y-18400500D01*
X19563392Y-18400500D01*
X19690686Y-18366392D01*
X19804814Y-18300500D01*
X19898000Y-18207314D01*
X19963892Y-18093186D01*
X19998000Y-17965892D01*
X19998000Y-17834108D01*
X19989854Y-17803708D01*
X32148000Y-17803708D01*
X32148000Y-17935492D01*
X32159903Y-17979914D01*
X32182108Y-18062787D01*
X32199659Y-18093186D01*
X32248000Y-18176914D01*
X32341186Y-18270100D01*
X32425180Y-18318594D01*
X32455310Y-18335990D01*
X32455314Y-18335992D01*
X32582608Y-18370100D01*
X32582610Y-18370100D01*
X32714390Y-18370100D01*
X32714392Y-18370100D01*
X32841686Y-18335992D01*
X32955814Y-18270100D01*
X33049000Y-18176914D01*
X33114892Y-18062786D01*
X33149000Y-17935492D01*
X33149000Y-17803708D01*
X33114892Y-17676414D01*
X33049000Y-17562286D01*
X32955814Y-17469100D01*
X32894340Y-17433608D01*
X32841687Y-17403208D01*
X32764704Y-17382581D01*
X32714392Y-17369100D01*
X32582608Y-17369100D01*
X32455312Y-17403208D01*
X32341186Y-17469100D01*
X32341183Y-17469102D01*
X32248002Y-17562283D01*
X32248000Y-17562286D01*
X32182108Y-17676412D01*
X32150631Y-17793888D01*
X32148000Y-17803708D01*
X19989854Y-17803708D01*
X19963892Y-17706814D01*
X19898000Y-17592686D01*
X19804814Y-17499500D01*
X19745034Y-17464986D01*
X19690687Y-17433608D01*
X19627039Y-17416554D01*
X19563392Y-17399500D01*
X19431608Y-17399500D01*
X19304312Y-17433608D01*
X19190186Y-17499500D01*
X19190183Y-17499502D01*
X19097002Y-17592683D01*
X19097000Y-17592686D01*
X19031108Y-17706812D01*
X18997000Y-17834108D01*
X4978980Y-17834108D01*
X5004600Y-17738492D01*
X5004600Y-17606708D01*
X4970492Y-17479414D01*
X4904600Y-17365286D01*
X4811414Y-17272100D01*
X4758774Y-17241708D01*
X37124500Y-17241708D01*
X37124500Y-17373492D01*
X37128736Y-17389300D01*
X37158608Y-17500787D01*
X37191554Y-17557850D01*
X37224500Y-17614914D01*
X37317686Y-17708100D01*
X37416521Y-17765163D01*
X37428881Y-17772299D01*
X37431814Y-17773992D01*
X37559108Y-17808100D01*
X37559110Y-17808100D01*
X37690890Y-17808100D01*
X37690892Y-17808100D01*
X37818186Y-17773992D01*
X37932314Y-17708100D01*
X38025500Y-17614914D01*
X38091392Y-17500786D01*
X38125500Y-17373492D01*
X38125500Y-17241708D01*
X38091392Y-17114414D01*
X38088954Y-17110192D01*
X38070723Y-17078614D01*
X38025500Y-17000286D01*
X37948122Y-16922908D01*
X43424500Y-16922908D01*
X43424500Y-17054692D01*
X43430909Y-17078612D01*
X43458608Y-17181987D01*
X43475524Y-17211286D01*
X43524500Y-17296114D01*
X43617686Y-17389300D01*
X43694762Y-17433800D01*
X43727511Y-17452708D01*
X43731814Y-17455192D01*
X43859108Y-17489300D01*
X43859110Y-17489300D01*
X43990890Y-17489300D01*
X43990892Y-17489300D01*
X44118186Y-17455192D01*
X44232314Y-17389300D01*
X44325500Y-17296114D01*
X44391392Y-17181986D01*
X44425500Y-17054692D01*
X44425500Y-16978408D01*
X52249500Y-16978408D01*
X52249500Y-17110192D01*
X52264370Y-17165687D01*
X52283608Y-17237487D01*
X52316554Y-17294550D01*
X52349500Y-17351614D01*
X52442686Y-17444800D01*
X52556814Y-17510692D01*
X52684108Y-17544800D01*
X52684110Y-17544800D01*
X52815890Y-17544800D01*
X52815892Y-17544800D01*
X52943186Y-17510692D01*
X53057314Y-17444800D01*
X53150500Y-17351614D01*
X53150504Y-17351606D01*
X53155448Y-17345165D01*
X53158152Y-17347240D01*
X53197233Y-17309902D01*
X53265827Y-17296611D01*
X53330718Y-17322514D01*
X53343342Y-17335277D01*
X53343753Y-17334867D01*
X53349499Y-17340613D01*
X53349500Y-17340614D01*
X53442686Y-17433800D01*
X53556814Y-17499692D01*
X53684108Y-17533800D01*
X53684110Y-17533800D01*
X53815890Y-17533800D01*
X53815892Y-17533800D01*
X53943186Y-17499692D01*
X54057314Y-17433800D01*
X54150500Y-17340614D01*
X54216392Y-17226486D01*
X54221906Y-17205908D01*
X59248900Y-17205908D01*
X59248900Y-17337692D01*
X59260928Y-17382580D01*
X59283008Y-17464987D01*
X59303677Y-17500786D01*
X59348900Y-17579114D01*
X59442086Y-17672300D01*
X59556214Y-17738192D01*
X59683508Y-17772300D01*
X59683510Y-17772300D01*
X59815290Y-17772300D01*
X59815292Y-17772300D01*
X59942586Y-17738192D01*
X60056714Y-17672300D01*
X60149900Y-17579114D01*
X60215792Y-17464986D01*
X60249900Y-17337692D01*
X60249900Y-17205908D01*
X60215792Y-17078614D01*
X60213364Y-17074408D01*
X60486500Y-17074408D01*
X60486500Y-17206192D01*
X60496337Y-17242904D01*
X60520608Y-17333487D01*
X60548953Y-17382581D01*
X60586500Y-17447614D01*
X60679686Y-17540800D01*
X60793814Y-17606692D01*
X60921108Y-17640800D01*
X60921110Y-17640800D01*
X61052890Y-17640800D01*
X61052892Y-17640800D01*
X61180186Y-17606692D01*
X61294314Y-17540800D01*
X61382406Y-17452708D01*
X71324500Y-17452708D01*
X71324500Y-17584492D01*
X71332652Y-17614916D01*
X71358608Y-17711787D01*
X71391554Y-17768850D01*
X71424500Y-17825914D01*
X71517686Y-17919100D01*
X71631814Y-17984992D01*
X71759108Y-18019100D01*
X71759110Y-18019100D01*
X71890890Y-18019100D01*
X71890892Y-18019100D01*
X72018186Y-17984992D01*
X72132314Y-17919100D01*
X72225500Y-17825914D01*
X72291392Y-17711786D01*
X72325500Y-17584492D01*
X72325500Y-17452708D01*
X72291392Y-17325414D01*
X72225500Y-17211286D01*
X72132314Y-17118100D01*
X72075250Y-17085154D01*
X72018187Y-17052208D01*
X71954539Y-17035154D01*
X71890892Y-17018100D01*
X71759108Y-17018100D01*
X71631812Y-17052208D01*
X71517686Y-17118100D01*
X71517683Y-17118102D01*
X71424502Y-17211283D01*
X71424500Y-17211286D01*
X71358608Y-17325412D01*
X71341490Y-17389299D01*
X71324500Y-17452708D01*
X61382406Y-17452708D01*
X61387500Y-17447614D01*
X61453392Y-17333486D01*
X61487500Y-17206192D01*
X61487500Y-17074408D01*
X61453392Y-16947114D01*
X61387500Y-16832986D01*
X61294314Y-16739800D01*
X61226243Y-16700499D01*
X61180187Y-16673908D01*
X61116539Y-16656854D01*
X61052892Y-16639800D01*
X60921108Y-16639800D01*
X60793812Y-16673908D01*
X60679686Y-16739800D01*
X60679683Y-16739802D01*
X60586502Y-16832983D01*
X60586500Y-16832986D01*
X60520608Y-16947112D01*
X60492448Y-17052208D01*
X60486500Y-17074408D01*
X60213364Y-17074408D01*
X60149900Y-16964486D01*
X60056714Y-16871300D01*
X59999650Y-16838354D01*
X59942587Y-16805408D01*
X59878939Y-16788354D01*
X59815292Y-16771300D01*
X59683508Y-16771300D01*
X59556212Y-16805408D01*
X59442086Y-16871300D01*
X59442083Y-16871302D01*
X59348902Y-16964483D01*
X59348900Y-16964486D01*
X59283008Y-17078612D01*
X59248900Y-17205908D01*
X54221906Y-17205908D01*
X54250500Y-17099192D01*
X54250500Y-16967408D01*
X54216392Y-16840114D01*
X54150500Y-16725986D01*
X54057314Y-16632800D01*
X54000250Y-16599854D01*
X53943187Y-16566908D01*
X53856945Y-16543800D01*
X53815892Y-16532800D01*
X53684108Y-16532800D01*
X53556812Y-16566908D01*
X53442686Y-16632800D01*
X53442683Y-16632802D01*
X53349502Y-16725983D01*
X53344552Y-16732435D01*
X53341876Y-16730382D01*
X53302545Y-16767810D01*
X53233925Y-16780965D01*
X53169086Y-16754932D01*
X53156648Y-16742331D01*
X53156247Y-16742733D01*
X53057316Y-16643802D01*
X53057314Y-16643800D01*
X52997015Y-16608986D01*
X52943187Y-16577908D01*
X52879539Y-16560854D01*
X52815892Y-16543800D01*
X52684108Y-16543800D01*
X52556812Y-16577908D01*
X52442686Y-16643800D01*
X52442683Y-16643802D01*
X52349502Y-16736983D01*
X52349500Y-16736986D01*
X52283608Y-16851112D01*
X52257886Y-16947112D01*
X52249500Y-16978408D01*
X44425500Y-16978408D01*
X44425500Y-16922908D01*
X44391392Y-16795614D01*
X44325500Y-16681486D01*
X44232314Y-16588300D01*
X44155238Y-16543800D01*
X44118187Y-16522408D01*
X44033012Y-16499586D01*
X43990892Y-16488300D01*
X43859108Y-16488300D01*
X43731812Y-16522408D01*
X43617686Y-16588300D01*
X43617683Y-16588302D01*
X43524502Y-16681483D01*
X43524500Y-16681486D01*
X43458608Y-16795612D01*
X43435410Y-16882191D01*
X43424500Y-16922908D01*
X37948122Y-16922908D01*
X37932314Y-16907100D01*
X37835344Y-16851114D01*
X37818187Y-16841208D01*
X37725216Y-16816297D01*
X37690892Y-16807100D01*
X37559108Y-16807100D01*
X37431812Y-16841208D01*
X37317686Y-16907100D01*
X37317683Y-16907102D01*
X37224502Y-17000283D01*
X37224500Y-17000286D01*
X37158608Y-17114412D01*
X37144869Y-17165688D01*
X37124500Y-17241708D01*
X4758774Y-17241708D01*
X4751461Y-17237486D01*
X4697287Y-17206208D01*
X4606887Y-17181986D01*
X4569992Y-17172100D01*
X4438208Y-17172100D01*
X4310912Y-17206208D01*
X4196786Y-17272100D01*
X4196783Y-17272102D01*
X4103602Y-17365283D01*
X4103600Y-17365286D01*
X4037708Y-17479412D01*
X4015503Y-17562286D01*
X4003600Y-17606708D01*
X300500Y-17606708D01*
X300500Y-16349908D01*
X4015400Y-16349908D01*
X4015400Y-16481692D01*
X4027699Y-16527592D01*
X4049508Y-16608987D01*
X4069608Y-16643800D01*
X4115400Y-16723114D01*
X4208586Y-16816300D01*
X4322714Y-16882192D01*
X4450008Y-16916300D01*
X4450010Y-16916300D01*
X4581790Y-16916300D01*
X4581792Y-16916300D01*
X4709086Y-16882192D01*
X4823214Y-16816300D01*
X4916400Y-16723114D01*
X4982292Y-16608986D01*
X5016400Y-16481692D01*
X5016400Y-16349908D01*
X4982292Y-16222614D01*
X4916400Y-16108486D01*
X4857922Y-16050008D01*
X18867600Y-16050008D01*
X18867600Y-16181791D01*
X18901708Y-16309087D01*
X18925278Y-16349910D01*
X18967600Y-16423214D01*
X19060786Y-16516400D01*
X19174914Y-16582292D01*
X19302208Y-16616400D01*
X19302210Y-16616400D01*
X19433990Y-16616400D01*
X19433992Y-16616400D01*
X19561286Y-16582292D01*
X19675414Y-16516400D01*
X19768600Y-16423214D01*
X19834492Y-16309086D01*
X19868600Y-16181792D01*
X19868600Y-16050008D01*
X19853943Y-15995308D01*
X21510500Y-15995308D01*
X21510500Y-16127092D01*
X21525156Y-16181790D01*
X21544608Y-16254387D01*
X21551250Y-16265891D01*
X21610500Y-16368514D01*
X21703686Y-16461700D01*
X21817814Y-16527592D01*
X21945108Y-16561700D01*
X21945110Y-16561700D01*
X22076890Y-16561700D01*
X22076892Y-16561700D01*
X22204186Y-16527592D01*
X22318314Y-16461700D01*
X22411500Y-16368514D01*
X22477392Y-16254386D01*
X22511500Y-16127092D01*
X22511500Y-15995308D01*
X22477392Y-15868014D01*
X22411500Y-15753886D01*
X22318314Y-15660700D01*
X22236378Y-15613394D01*
X22204187Y-15594808D01*
X22107857Y-15568997D01*
X22076892Y-15560700D01*
X21945108Y-15560700D01*
X21817812Y-15594808D01*
X21703686Y-15660700D01*
X21703683Y-15660702D01*
X21610502Y-15753883D01*
X21610500Y-15753886D01*
X21544608Y-15868012D01*
X21530734Y-15919792D01*
X21510500Y-15995308D01*
X19853943Y-15995308D01*
X19834492Y-15922714D01*
X19802642Y-15867549D01*
X19799059Y-15858025D01*
X19797191Y-15832926D01*
X19791256Y-15808460D01*
X19794643Y-15798673D01*
X19793875Y-15788348D01*
X19805874Y-15766221D01*
X19814108Y-15742433D01*
X19827116Y-15727053D01*
X19827182Y-15726931D01*
X19827186Y-15726927D01*
X19827254Y-15726890D01*
X19827423Y-15726690D01*
X19886800Y-15667314D01*
X19952692Y-15553186D01*
X19986800Y-15425892D01*
X19986800Y-15294108D01*
X19952692Y-15166814D01*
X19909849Y-15092608D01*
X31616600Y-15092608D01*
X31616600Y-15224392D01*
X31633654Y-15288039D01*
X31650708Y-15351687D01*
X31671390Y-15387508D01*
X31716600Y-15465814D01*
X31809786Y-15559000D01*
X31923914Y-15624892D01*
X32051208Y-15659000D01*
X32051210Y-15659000D01*
X32182990Y-15659000D01*
X32182992Y-15659000D01*
X32310286Y-15624892D01*
X32424414Y-15559000D01*
X32512619Y-15470795D01*
X32573942Y-15437310D01*
X32643634Y-15442294D01*
X32687981Y-15470795D01*
X32762286Y-15545100D01*
X32876414Y-15610992D01*
X33003708Y-15645100D01*
X33003710Y-15645100D01*
X33135490Y-15645100D01*
X33135492Y-15645100D01*
X33262786Y-15610992D01*
X33376914Y-15545100D01*
X33470100Y-15451914D01*
X33535992Y-15337786D01*
X33570100Y-15210492D01*
X33570100Y-15183308D01*
X44323700Y-15183308D01*
X44323700Y-15315091D01*
X44357808Y-15442387D01*
X44371334Y-15465814D01*
X44423700Y-15556514D01*
X44516886Y-15649700D01*
X44631014Y-15715592D01*
X44758308Y-15749700D01*
X44758310Y-15749700D01*
X44890090Y-15749700D01*
X44890092Y-15749700D01*
X45017386Y-15715592D01*
X45131514Y-15649700D01*
X45224700Y-15556514D01*
X45290592Y-15442386D01*
X45324700Y-15315092D01*
X45324700Y-15183308D01*
X45290592Y-15056014D01*
X45290591Y-15056012D01*
X45290591Y-15056011D01*
X45280759Y-15038983D01*
X45280758Y-15038981D01*
X45276491Y-15031591D01*
X45249654Y-14985108D01*
X55879700Y-14985108D01*
X55879700Y-15116892D01*
X55887628Y-15146480D01*
X55913808Y-15244187D01*
X55942632Y-15294110D01*
X55979700Y-15358314D01*
X56072886Y-15451500D01*
X56072887Y-15451501D01*
X56072889Y-15451502D01*
X56188811Y-15518430D01*
X56237027Y-15568997D01*
X56250249Y-15637604D01*
X56224281Y-15702469D01*
X56188812Y-15733203D01*
X56073992Y-15799496D01*
X56073983Y-15799502D01*
X55980802Y-15892683D01*
X55980800Y-15892686D01*
X55914908Y-16006812D01*
X55880800Y-16134108D01*
X55880800Y-16265891D01*
X55914908Y-16393187D01*
X55932246Y-16423216D01*
X55980800Y-16507314D01*
X56073986Y-16600500D01*
X56188114Y-16666392D01*
X56315408Y-16700500D01*
X56315410Y-16700500D01*
X56447190Y-16700500D01*
X56447192Y-16700500D01*
X56574486Y-16666392D01*
X56688614Y-16600500D01*
X56781800Y-16507314D01*
X56847692Y-16393186D01*
X56881800Y-16265892D01*
X56881800Y-16240508D01*
X70999500Y-16240508D01*
X70999500Y-16372292D01*
X71005099Y-16393187D01*
X71033608Y-16499587D01*
X71049777Y-16527592D01*
X71099500Y-16613714D01*
X71192686Y-16706900D01*
X71306814Y-16772792D01*
X71434108Y-16806900D01*
X71434110Y-16806900D01*
X71565890Y-16806900D01*
X71565892Y-16806900D01*
X71693186Y-16772792D01*
X71807314Y-16706900D01*
X71900500Y-16613714D01*
X71966392Y-16499586D01*
X72000500Y-16372292D01*
X72000500Y-16240508D01*
X71966392Y-16113214D01*
X71900500Y-15999086D01*
X71807314Y-15905900D01*
X71728679Y-15860500D01*
X71693187Y-15840008D01*
X71575916Y-15808586D01*
X71565892Y-15805900D01*
X71434108Y-15805900D01*
X71306812Y-15840008D01*
X71192686Y-15905900D01*
X71192683Y-15905902D01*
X71099502Y-15999083D01*
X71099500Y-15999086D01*
X71033608Y-16113212D01*
X71028009Y-16134110D01*
X70999500Y-16240508D01*
X56881800Y-16240508D01*
X56881800Y-16134108D01*
X56847692Y-16006814D01*
X56843228Y-15999083D01*
X56817141Y-15953899D01*
X56781800Y-15892686D01*
X56688614Y-15799500D01*
X56615986Y-15757568D01*
X56572687Y-15732569D01*
X56524472Y-15682001D01*
X56511250Y-15613394D01*
X56537218Y-15548530D01*
X56572688Y-15517795D01*
X56573426Y-15517368D01*
X56687514Y-15451500D01*
X56751506Y-15387508D01*
X67690800Y-15387508D01*
X67690800Y-15519292D01*
X67697715Y-15545099D01*
X67724908Y-15646587D01*
X67736948Y-15667440D01*
X67790800Y-15760714D01*
X67883986Y-15853900D01*
X67998114Y-15919792D01*
X68125408Y-15953900D01*
X68125410Y-15953900D01*
X68257190Y-15953900D01*
X68257192Y-15953900D01*
X68384486Y-15919792D01*
X68498614Y-15853900D01*
X68591800Y-15760714D01*
X68657692Y-15646586D01*
X68691800Y-15519292D01*
X68691800Y-15387508D01*
X68657692Y-15260214D01*
X68591800Y-15146086D01*
X68498614Y-15052900D01*
X68400234Y-14996100D01*
X68384487Y-14987008D01*
X68320839Y-14969954D01*
X68257192Y-14952900D01*
X68125408Y-14952900D01*
X67998112Y-14987008D01*
X67883986Y-15052900D01*
X67883983Y-15052902D01*
X67790802Y-15146083D01*
X67790800Y-15146086D01*
X67724908Y-15260212D01*
X67700398Y-15351686D01*
X67690800Y-15387508D01*
X56751506Y-15387508D01*
X56780700Y-15358314D01*
X56846592Y-15244186D01*
X56880700Y-15116892D01*
X56880700Y-14985108D01*
X56846592Y-14857814D01*
X56780700Y-14743686D01*
X56687514Y-14650500D01*
X56600910Y-14600499D01*
X56573387Y-14584608D01*
X56468081Y-14556392D01*
X56446092Y-14550500D01*
X56314308Y-14550500D01*
X56187012Y-14584608D01*
X56072886Y-14650500D01*
X56072883Y-14650502D01*
X55979702Y-14743683D01*
X55979700Y-14743686D01*
X55913808Y-14857812D01*
X55884900Y-14965700D01*
X55879700Y-14985108D01*
X45249654Y-14985108D01*
X45224700Y-14941886D01*
X45131514Y-14848700D01*
X45074450Y-14815754D01*
X45017387Y-14782808D01*
X44953739Y-14765754D01*
X44890092Y-14748700D01*
X44758308Y-14748700D01*
X44631012Y-14782808D01*
X44516886Y-14848700D01*
X44516883Y-14848702D01*
X44423702Y-14941883D01*
X44423700Y-14941886D01*
X44357808Y-15056012D01*
X44323700Y-15183308D01*
X33570100Y-15183308D01*
X33570100Y-15078708D01*
X33535992Y-14951414D01*
X33470100Y-14837286D01*
X33376914Y-14744100D01*
X33319850Y-14711154D01*
X33262787Y-14678208D01*
X33187368Y-14658000D01*
X33135492Y-14644100D01*
X33003708Y-14644100D01*
X32876412Y-14678208D01*
X32762286Y-14744100D01*
X32762283Y-14744102D01*
X32674081Y-14832305D01*
X32612758Y-14865790D01*
X32543066Y-14860806D01*
X32498719Y-14832305D01*
X32424416Y-14758002D01*
X32424414Y-14758000D01*
X32367350Y-14725054D01*
X32310287Y-14692108D01*
X32196024Y-14661492D01*
X32182992Y-14658000D01*
X32051208Y-14658000D01*
X31923912Y-14692108D01*
X31809786Y-14758000D01*
X31809783Y-14758002D01*
X31716602Y-14851183D01*
X31716600Y-14851186D01*
X31650708Y-14965312D01*
X31627239Y-15052902D01*
X31616600Y-15092608D01*
X19909849Y-15092608D01*
X19886800Y-15052686D01*
X19793614Y-14959500D01*
X19736550Y-14926554D01*
X19679487Y-14893608D01*
X19600761Y-14872514D01*
X19552192Y-14859500D01*
X19420408Y-14859500D01*
X19293112Y-14893608D01*
X19178986Y-14959500D01*
X19178983Y-14959502D01*
X19085802Y-15052683D01*
X19085800Y-15052686D01*
X19019908Y-15166812D01*
X18994882Y-15260212D01*
X18985800Y-15294108D01*
X18985800Y-15425892D01*
X19019456Y-15551500D01*
X19019909Y-15553188D01*
X19019909Y-15553189D01*
X19046670Y-15599540D01*
X19063143Y-15667440D01*
X19040291Y-15733467D01*
X19026965Y-15749221D01*
X18967600Y-15808586D01*
X18901708Y-15922712D01*
X18867600Y-16050008D01*
X4857922Y-16050008D01*
X4823214Y-16015300D01*
X4766150Y-15982354D01*
X4709087Y-15949408D01*
X4645439Y-15932354D01*
X4581792Y-15915300D01*
X4450008Y-15915300D01*
X4322712Y-15949408D01*
X4208586Y-16015300D01*
X4208583Y-16015302D01*
X4115402Y-16108483D01*
X4115400Y-16108486D01*
X4049508Y-16222612D01*
X4026338Y-16309086D01*
X4015400Y-16349908D01*
X300500Y-16349908D01*
X300500Y-15294108D01*
X1499500Y-15294108D01*
X1499500Y-15425892D01*
X1503895Y-15442294D01*
X1533608Y-15553187D01*
X1566554Y-15610250D01*
X1599500Y-15667314D01*
X1692686Y-15760500D01*
X1806814Y-15826392D01*
X1934108Y-15860500D01*
X1934110Y-15860500D01*
X2065890Y-15860500D01*
X2065892Y-15860500D01*
X2193186Y-15826392D01*
X2307314Y-15760500D01*
X2400500Y-15667314D01*
X2466392Y-15553186D01*
X2500500Y-15425892D01*
X2500500Y-15294108D01*
X2466392Y-15166814D01*
X2400500Y-15052686D01*
X2307314Y-14959500D01*
X2250250Y-14926554D01*
X2193187Y-14893608D01*
X2114461Y-14872514D01*
X2065892Y-14859500D01*
X1934108Y-14859500D01*
X1806812Y-14893608D01*
X1692686Y-14959500D01*
X1692683Y-14959502D01*
X1599502Y-15052683D01*
X1599500Y-15052686D01*
X1533608Y-15166812D01*
X1508582Y-15260212D01*
X1499500Y-15294108D01*
X300500Y-15294108D01*
X300500Y-12754108D01*
X4002800Y-12754108D01*
X4002800Y-12885892D01*
X4003229Y-12887492D01*
X4036908Y-13013187D01*
X4069854Y-13070250D01*
X4102800Y-13127314D01*
X4195986Y-13220500D01*
X4240353Y-13246115D01*
X4288568Y-13296681D01*
X4301792Y-13365288D01*
X4275824Y-13430153D01*
X4240355Y-13460888D01*
X4199289Y-13484598D01*
X4199283Y-13484602D01*
X4106102Y-13577783D01*
X4106100Y-13577786D01*
X4040208Y-13691912D01*
X4015887Y-13782683D01*
X4006100Y-13819208D01*
X4006100Y-13950992D01*
X4019095Y-13999490D01*
X4040208Y-14078287D01*
X4068210Y-14126787D01*
X4106100Y-14192414D01*
X4199286Y-14285600D01*
X4313414Y-14351492D01*
X4440708Y-14385600D01*
X4440710Y-14385600D01*
X4572490Y-14385600D01*
X4572492Y-14385600D01*
X4699786Y-14351492D01*
X4813914Y-14285600D01*
X4907100Y-14192414D01*
X4972992Y-14078286D01*
X5007100Y-13950992D01*
X5007100Y-13867708D01*
X17070900Y-13867708D01*
X17070900Y-13999491D01*
X17105008Y-14126787D01*
X17118468Y-14150100D01*
X17170900Y-14240914D01*
X17264086Y-14334100D01*
X17362921Y-14391163D01*
X17373575Y-14397314D01*
X17378214Y-14399992D01*
X17505508Y-14434100D01*
X17505510Y-14434100D01*
X17637290Y-14434100D01*
X17637292Y-14434100D01*
X17764586Y-14399992D01*
X17878714Y-14334100D01*
X17971900Y-14240914D01*
X18037792Y-14126786D01*
X18065304Y-14024108D01*
X18997000Y-14024108D01*
X18997000Y-14155892D01*
X19007506Y-14195100D01*
X19031108Y-14283187D01*
X19060503Y-14334099D01*
X19097000Y-14397314D01*
X19190186Y-14490500D01*
X19304314Y-14556392D01*
X19431608Y-14590500D01*
X19431610Y-14590500D01*
X19563390Y-14590500D01*
X19563392Y-14590500D01*
X19690686Y-14556392D01*
X19804814Y-14490500D01*
X19898000Y-14397314D01*
X19963892Y-14283186D01*
X19998000Y-14155892D01*
X19998000Y-14034108D01*
X23984900Y-14034108D01*
X23984900Y-14165892D01*
X23992007Y-14192416D01*
X24019008Y-14293187D01*
X24042628Y-14334097D01*
X24084900Y-14407314D01*
X24178086Y-14500500D01*
X24292214Y-14566392D01*
X24419508Y-14600500D01*
X24419510Y-14600500D01*
X24551290Y-14600500D01*
X24551292Y-14600500D01*
X24678586Y-14566392D01*
X24792714Y-14500500D01*
X24793906Y-14499308D01*
X38374500Y-14499308D01*
X38374500Y-14631092D01*
X38388837Y-14684599D01*
X38408608Y-14758387D01*
X38426159Y-14788786D01*
X38474500Y-14872514D01*
X38567686Y-14965700D01*
X38681814Y-15031592D01*
X38809108Y-15065700D01*
X38809110Y-15065700D01*
X38940890Y-15065700D01*
X38940892Y-15065700D01*
X39068186Y-15031592D01*
X39182314Y-14965700D01*
X39275500Y-14872514D01*
X39341392Y-14758386D01*
X39375500Y-14631092D01*
X39375500Y-14529708D01*
X39624500Y-14529708D01*
X39624500Y-14661492D01*
X39641554Y-14725139D01*
X39658608Y-14788787D01*
X39691554Y-14845850D01*
X39724500Y-14902914D01*
X39817686Y-14996100D01*
X39931814Y-15061992D01*
X40059108Y-15096100D01*
X40059110Y-15096100D01*
X40190890Y-15096100D01*
X40190892Y-15096100D01*
X40318186Y-15061992D01*
X40432314Y-14996100D01*
X40525500Y-14902914D01*
X40591392Y-14788786D01*
X40625500Y-14661492D01*
X40625500Y-14529708D01*
X40591392Y-14402414D01*
X40525500Y-14288286D01*
X40432314Y-14195100D01*
X40364402Y-14155891D01*
X40318187Y-14129208D01*
X40254539Y-14112154D01*
X40190892Y-14095100D01*
X40059108Y-14095100D01*
X39931812Y-14129208D01*
X39817686Y-14195100D01*
X39817683Y-14195102D01*
X39724502Y-14288283D01*
X39724500Y-14288286D01*
X39658608Y-14402412D01*
X39632645Y-14499310D01*
X39624500Y-14529708D01*
X39375500Y-14529708D01*
X39375500Y-14499308D01*
X39341392Y-14372014D01*
X39275500Y-14257886D01*
X39182314Y-14164700D01*
X39116645Y-14126786D01*
X39068187Y-14098808D01*
X38991596Y-14078286D01*
X38940892Y-14064700D01*
X38809108Y-14064700D01*
X38681812Y-14098808D01*
X38567686Y-14164700D01*
X38567683Y-14164702D01*
X38474502Y-14257883D01*
X38474500Y-14257886D01*
X38408608Y-14372012D01*
X38391972Y-14434100D01*
X38374500Y-14499308D01*
X24793906Y-14499308D01*
X24885900Y-14407314D01*
X24951792Y-14293186D01*
X24985900Y-14165892D01*
X24985900Y-14034108D01*
X24951792Y-13906814D01*
X24946018Y-13896814D01*
X24942963Y-13891521D01*
X24885900Y-13792686D01*
X24792714Y-13699500D01*
X24765362Y-13683708D01*
X42674900Y-13683708D01*
X42674900Y-13815491D01*
X42709008Y-13942787D01*
X42728636Y-13976783D01*
X42774900Y-14056914D01*
X42868086Y-14150100D01*
X42982214Y-14215992D01*
X43109508Y-14250100D01*
X43109510Y-14250100D01*
X43241290Y-14250100D01*
X43241292Y-14250100D01*
X43368586Y-14215992D01*
X43482714Y-14150100D01*
X43575900Y-14056914D01*
X43641792Y-13942786D01*
X43675900Y-13815492D01*
X43675900Y-13683708D01*
X43675793Y-13683308D01*
X44326900Y-13683308D01*
X44326900Y-13815092D01*
X44340998Y-13867708D01*
X44361008Y-13942387D01*
X44380867Y-13976783D01*
X44426900Y-14056514D01*
X44520086Y-14149700D01*
X44634214Y-14215592D01*
X44761508Y-14249700D01*
X44761510Y-14249700D01*
X44893290Y-14249700D01*
X44893292Y-14249700D01*
X45010823Y-14218208D01*
X53392300Y-14218208D01*
X53392300Y-14349991D01*
X53426408Y-14477287D01*
X53456674Y-14529708D01*
X53492300Y-14591414D01*
X53585486Y-14684600D01*
X53699614Y-14750492D01*
X53826908Y-14784600D01*
X53826910Y-14784600D01*
X53958690Y-14784600D01*
X53958692Y-14784600D01*
X54085986Y-14750492D01*
X54200114Y-14684600D01*
X54293300Y-14591414D01*
X54359192Y-14477286D01*
X54393300Y-14349992D01*
X54393300Y-14218208D01*
X54359192Y-14090914D01*
X54293300Y-13976786D01*
X54200114Y-13883600D01*
X54088588Y-13819210D01*
X54085987Y-13817708D01*
X54022339Y-13800654D01*
X53958692Y-13783600D01*
X53826908Y-13783600D01*
X53699612Y-13817708D01*
X53585486Y-13883600D01*
X53585483Y-13883602D01*
X53492302Y-13976783D01*
X53492300Y-13976786D01*
X53426408Y-14090912D01*
X53392300Y-14218208D01*
X45010823Y-14218208D01*
X45020586Y-14215592D01*
X45134714Y-14149700D01*
X45227900Y-14056514D01*
X45293792Y-13942386D01*
X45327900Y-13815092D01*
X45327900Y-13683308D01*
X45293792Y-13556014D01*
X45227900Y-13441886D01*
X45134714Y-13348700D01*
X45044615Y-13296681D01*
X45020587Y-13282808D01*
X44956939Y-13265754D01*
X44893292Y-13248700D01*
X44761508Y-13248700D01*
X44634212Y-13282808D01*
X44520086Y-13348700D01*
X44520083Y-13348702D01*
X44426902Y-13441883D01*
X44426900Y-13441886D01*
X44361008Y-13556012D01*
X44342179Y-13626286D01*
X44326900Y-13683308D01*
X43675793Y-13683308D01*
X43641792Y-13556414D01*
X43575900Y-13442286D01*
X43482714Y-13349100D01*
X43391922Y-13296681D01*
X43368587Y-13283208D01*
X43304939Y-13266154D01*
X43241292Y-13249100D01*
X43109508Y-13249100D01*
X42982212Y-13283208D01*
X42868086Y-13349100D01*
X42868083Y-13349102D01*
X42774902Y-13442283D01*
X42774900Y-13442286D01*
X42709008Y-13556412D01*
X42674900Y-13683708D01*
X24765362Y-13683708D01*
X24735650Y-13666554D01*
X24678587Y-13633608D01*
X24614939Y-13616554D01*
X24551292Y-13599500D01*
X24419508Y-13599500D01*
X24292212Y-13633608D01*
X24178086Y-13699500D01*
X24178083Y-13699502D01*
X24084902Y-13792683D01*
X24084900Y-13792686D01*
X24019008Y-13906812D01*
X23994175Y-13999492D01*
X23984900Y-14034108D01*
X19998000Y-14034108D01*
X19998000Y-14024108D01*
X19963892Y-13896814D01*
X19898000Y-13782686D01*
X19804814Y-13689500D01*
X19747750Y-13656554D01*
X19690687Y-13623608D01*
X19627039Y-13606554D01*
X19563392Y-13589500D01*
X19431608Y-13589500D01*
X19304312Y-13623608D01*
X19190186Y-13689500D01*
X19190183Y-13689502D01*
X19097002Y-13782683D01*
X19097000Y-13782686D01*
X19031108Y-13896812D01*
X19009680Y-13976786D01*
X18997000Y-14024108D01*
X18065304Y-14024108D01*
X18071900Y-13999492D01*
X18071900Y-13867708D01*
X18037792Y-13740414D01*
X17971900Y-13626286D01*
X17878714Y-13533100D01*
X17821650Y-13500154D01*
X17764587Y-13467208D01*
X17700939Y-13450154D01*
X17637292Y-13433100D01*
X17505508Y-13433100D01*
X17378212Y-13467208D01*
X17264086Y-13533100D01*
X17264083Y-13533102D01*
X17170902Y-13626283D01*
X17170900Y-13626286D01*
X17105008Y-13740412D01*
X17070900Y-13867708D01*
X5007100Y-13867708D01*
X5007100Y-13819208D01*
X4972992Y-13691914D01*
X4971599Y-13689502D01*
X4964163Y-13676621D01*
X4907100Y-13577786D01*
X4813914Y-13484600D01*
X4769546Y-13458984D01*
X4721330Y-13408417D01*
X4708108Y-13339810D01*
X4734076Y-13274945D01*
X4769543Y-13244212D01*
X4810614Y-13220500D01*
X4903800Y-13127314D01*
X4969692Y-13013186D01*
X5003800Y-12885892D01*
X5003800Y-12755708D01*
X21997900Y-12755708D01*
X21997900Y-12887491D01*
X22032008Y-13014787D01*
X22064954Y-13071850D01*
X22097900Y-13128914D01*
X22191086Y-13222100D01*
X22282616Y-13274945D01*
X22303322Y-13286900D01*
X22305214Y-13287992D01*
X22432508Y-13322100D01*
X22432510Y-13322100D01*
X22564290Y-13322100D01*
X22564292Y-13322100D01*
X22691586Y-13287992D01*
X22805714Y-13222100D01*
X22898900Y-13128914D01*
X22964792Y-13014786D01*
X22998900Y-12887492D01*
X22998900Y-12755708D01*
X22989468Y-12720508D01*
X25055100Y-12720508D01*
X25055100Y-12852292D01*
X25064532Y-12887492D01*
X25089208Y-12979587D01*
X25109531Y-13014786D01*
X25155100Y-13093714D01*
X25248286Y-13186900D01*
X25362414Y-13252792D01*
X25489708Y-13286900D01*
X25489710Y-13286900D01*
X25621490Y-13286900D01*
X25621492Y-13286900D01*
X25748786Y-13252792D01*
X25862914Y-13186900D01*
X25880563Y-13169250D01*
X25941883Y-13135765D01*
X26011575Y-13140748D01*
X26067510Y-13182618D01*
X26075631Y-13194932D01*
X26088900Y-13217914D01*
X26182086Y-13311100D01*
X26296214Y-13376992D01*
X26423508Y-13411100D01*
X26423510Y-13411100D01*
X26555290Y-13411100D01*
X26555292Y-13411100D01*
X26682586Y-13376992D01*
X26796714Y-13311100D01*
X26889900Y-13217914D01*
X26955792Y-13103786D01*
X26989900Y-12976492D01*
X26989900Y-12844708D01*
X26964311Y-12749208D01*
X27566900Y-12749208D01*
X27566900Y-12880992D01*
X27568642Y-12887492D01*
X27601008Y-13008287D01*
X27633954Y-13065350D01*
X27666900Y-13122414D01*
X27760086Y-13215600D01*
X27874214Y-13281492D01*
X28001508Y-13315600D01*
X28001510Y-13315600D01*
X28133290Y-13315600D01*
X28133292Y-13315600D01*
X28260586Y-13281492D01*
X28374714Y-13215600D01*
X28467900Y-13122414D01*
X28533792Y-13008286D01*
X28567900Y-12880992D01*
X28567900Y-12749208D01*
X28533792Y-12621914D01*
X28467900Y-12507786D01*
X28374714Y-12414600D01*
X28306336Y-12375122D01*
X28260587Y-12348708D01*
X28196939Y-12331654D01*
X28133292Y-12314600D01*
X28001508Y-12314600D01*
X27874212Y-12348708D01*
X27760086Y-12414600D01*
X27760083Y-12414602D01*
X27666902Y-12507783D01*
X27666900Y-12507786D01*
X27601008Y-12621912D01*
X27568456Y-12743400D01*
X27566900Y-12749208D01*
X26964311Y-12749208D01*
X26955792Y-12717414D01*
X26889900Y-12603286D01*
X26796714Y-12510100D01*
X26739650Y-12477154D01*
X26682587Y-12444208D01*
X26590381Y-12419502D01*
X26555292Y-12410100D01*
X26423508Y-12410100D01*
X26296212Y-12444208D01*
X26182086Y-12510100D01*
X26182082Y-12510103D01*
X26164434Y-12527751D01*
X26103111Y-12561235D01*
X26033419Y-12556249D01*
X25977486Y-12514376D01*
X25969371Y-12502072D01*
X25956100Y-12479086D01*
X25862914Y-12385900D01*
X25798496Y-12348708D01*
X25748787Y-12320008D01*
X25685139Y-12302954D01*
X25621492Y-12285900D01*
X25489708Y-12285900D01*
X25362412Y-12320008D01*
X25248286Y-12385900D01*
X25248283Y-12385902D01*
X25155102Y-12479083D01*
X25155100Y-12479086D01*
X25089208Y-12593212D01*
X25075761Y-12643399D01*
X25055100Y-12720508D01*
X22989468Y-12720508D01*
X22964792Y-12628414D01*
X22898900Y-12514286D01*
X22805714Y-12421100D01*
X22726078Y-12375122D01*
X22691587Y-12355208D01*
X22627939Y-12338154D01*
X22564292Y-12321100D01*
X22432508Y-12321100D01*
X22305212Y-12355208D01*
X22191086Y-12421100D01*
X22191083Y-12421102D01*
X22097902Y-12514283D01*
X22097900Y-12514286D01*
X22032008Y-12628412D01*
X21997900Y-12755708D01*
X5003800Y-12755708D01*
X5003800Y-12754108D01*
X4969692Y-12626814D01*
X4903800Y-12512686D01*
X4810614Y-12419500D01*
X4787779Y-12406316D01*
X4739565Y-12355747D01*
X4726344Y-12287140D01*
X4752313Y-12222276D01*
X4787777Y-12191546D01*
X4811414Y-12177900D01*
X4904600Y-12084714D01*
X4970492Y-11970586D01*
X5004600Y-11843292D01*
X5004600Y-11751508D01*
X18995400Y-11751508D01*
X18995400Y-11883292D01*
X19009411Y-11935583D01*
X19029508Y-12010587D01*
X19062454Y-12067650D01*
X19095400Y-12124714D01*
X19188586Y-12217900D01*
X19302714Y-12283792D01*
X19430008Y-12317900D01*
X19430010Y-12317900D01*
X19561790Y-12317900D01*
X19561792Y-12317900D01*
X19689086Y-12283792D01*
X19803214Y-12217900D01*
X19896400Y-12124714D01*
X19962292Y-12010586D01*
X19996400Y-11883292D01*
X19996400Y-11755708D01*
X28437000Y-11755708D01*
X28437000Y-11887491D01*
X28471108Y-12014787D01*
X28491274Y-12049714D01*
X28537000Y-12128914D01*
X28630186Y-12222100D01*
X28726834Y-12277900D01*
X28740690Y-12285900D01*
X28744314Y-12287992D01*
X28871608Y-12322100D01*
X28871610Y-12322100D01*
X29003390Y-12322100D01*
X29003392Y-12322100D01*
X29130686Y-12287992D01*
X29244814Y-12222100D01*
X29289906Y-12177008D01*
X29656400Y-12177008D01*
X29656400Y-12308792D01*
X29673454Y-12372439D01*
X29690508Y-12436087D01*
X29695197Y-12444208D01*
X29756400Y-12550214D01*
X29849586Y-12643400D01*
X29963714Y-12709292D01*
X30091008Y-12743400D01*
X30091010Y-12743400D01*
X30222790Y-12743400D01*
X30222792Y-12743400D01*
X30350086Y-12709292D01*
X30464214Y-12643400D01*
X30557400Y-12550214D01*
X30623292Y-12436086D01*
X30657400Y-12308792D01*
X30657400Y-12177008D01*
X30623292Y-12049714D01*
X30557400Y-11935586D01*
X30464214Y-11842400D01*
X30407150Y-11809454D01*
X30350087Y-11776508D01*
X30272466Y-11755710D01*
X30222792Y-11742400D01*
X30091008Y-11742400D01*
X29963712Y-11776508D01*
X29849586Y-11842400D01*
X29849583Y-11842402D01*
X29756402Y-11935583D01*
X29756400Y-11935586D01*
X29690508Y-12049712D01*
X29669286Y-12128916D01*
X29656400Y-12177008D01*
X29289906Y-12177008D01*
X29338000Y-12128914D01*
X29403892Y-12014786D01*
X29438000Y-11887492D01*
X29438000Y-11755708D01*
X29403892Y-11628414D01*
X29338000Y-11514286D01*
X29244814Y-11421100D01*
X29168258Y-11376900D01*
X29130687Y-11355208D01*
X29067039Y-11338154D01*
X29003392Y-11321100D01*
X28871608Y-11321100D01*
X28744312Y-11355208D01*
X28630186Y-11421100D01*
X28630183Y-11421102D01*
X28537002Y-11514283D01*
X28537000Y-11514286D01*
X28471108Y-11628412D01*
X28437000Y-11755708D01*
X19996400Y-11755708D01*
X19996400Y-11751508D01*
X19962292Y-11624214D01*
X19896400Y-11510086D01*
X19803214Y-11416900D01*
X19696361Y-11355208D01*
X19689087Y-11351008D01*
X19625439Y-11333954D01*
X19561792Y-11316900D01*
X19430008Y-11316900D01*
X19302712Y-11351008D01*
X19188586Y-11416900D01*
X19188583Y-11416902D01*
X19095402Y-11510083D01*
X19095400Y-11510086D01*
X19029508Y-11624212D01*
X19009606Y-11698490D01*
X18995400Y-11751508D01*
X5004600Y-11751508D01*
X5004600Y-11711508D01*
X4970492Y-11584214D01*
X4904600Y-11470086D01*
X4811414Y-11376900D01*
X4754350Y-11343954D01*
X4697287Y-11311008D01*
X4648702Y-11297990D01*
X4569992Y-11276900D01*
X4438208Y-11276900D01*
X4310912Y-11311008D01*
X4196786Y-11376900D01*
X4196783Y-11376902D01*
X4103602Y-11470083D01*
X4103600Y-11470086D01*
X4037708Y-11584212D01*
X4003600Y-11711508D01*
X4003600Y-11843291D01*
X4037708Y-11970587D01*
X4063228Y-12014788D01*
X4103600Y-12084714D01*
X4196786Y-12177900D01*
X4196789Y-12177901D01*
X4196792Y-12177904D01*
X4219618Y-12191083D01*
X4267833Y-12241650D01*
X4281055Y-12310258D01*
X4255087Y-12375122D01*
X4219619Y-12405855D01*
X4195989Y-12419498D01*
X4195983Y-12419502D01*
X4102802Y-12512683D01*
X4102800Y-12512686D01*
X4036908Y-12626812D01*
X4012632Y-12717414D01*
X4002800Y-12754108D01*
X300500Y-12754108D01*
X300500Y-11166208D01*
X25111700Y-11166208D01*
X25111700Y-11297992D01*
X25127031Y-11355208D01*
X25145808Y-11425287D01*
X25171672Y-11470083D01*
X25211700Y-11539414D01*
X25304886Y-11632600D01*
X25403721Y-11689663D01*
X25419010Y-11698490D01*
X25419014Y-11698492D01*
X25546308Y-11732600D01*
X25546310Y-11732600D01*
X25678090Y-11732600D01*
X25678092Y-11732600D01*
X25805386Y-11698492D01*
X25919514Y-11632600D01*
X26012700Y-11539414D01*
X26078592Y-11425286D01*
X26112700Y-11297992D01*
X26112700Y-11166208D01*
X26078592Y-11038914D01*
X26012700Y-10924786D01*
X25919514Y-10831600D01*
X25862450Y-10798654D01*
X25805387Y-10765708D01*
X25721757Y-10743300D01*
X25678092Y-10731600D01*
X25546308Y-10731600D01*
X25419012Y-10765708D01*
X25304886Y-10831600D01*
X25304883Y-10831602D01*
X25211702Y-10924783D01*
X25211700Y-10924786D01*
X25145808Y-11038912D01*
X25111700Y-11166208D01*
X300500Y-11166208D01*
X300500Y-10214108D01*
X4004400Y-10214108D01*
X4004400Y-10345891D01*
X4038508Y-10473187D01*
X4071454Y-10530250D01*
X4104400Y-10587314D01*
X4197586Y-10680500D01*
X4262860Y-10718186D01*
X4306358Y-10743300D01*
X4311714Y-10746392D01*
X4439008Y-10780500D01*
X4439010Y-10780500D01*
X4570790Y-10780500D01*
X4570792Y-10780500D01*
X4698086Y-10746392D01*
X4812214Y-10680500D01*
X4905400Y-10587314D01*
X4971292Y-10473186D01*
X5005400Y-10345892D01*
X5005400Y-10304308D01*
X18995400Y-10304308D01*
X18995400Y-10436092D01*
X19012454Y-10499739D01*
X19029508Y-10563387D01*
X19062454Y-10620450D01*
X19095400Y-10677514D01*
X19188586Y-10770700D01*
X19287421Y-10827763D01*
X19295302Y-10832313D01*
X19302714Y-10836592D01*
X19430008Y-10870700D01*
X19430010Y-10870700D01*
X19561790Y-10870700D01*
X19561792Y-10870700D01*
X19689086Y-10836592D01*
X19803214Y-10770700D01*
X19896400Y-10677514D01*
X19962292Y-10563386D01*
X19996400Y-10436092D01*
X19996400Y-10304308D01*
X19962292Y-10177014D01*
X19960730Y-10174308D01*
X32814700Y-10174308D01*
X32814700Y-10306092D01*
X32815397Y-10308692D01*
X32848808Y-10433387D01*
X32871787Y-10473187D01*
X32914700Y-10547514D01*
X33007886Y-10640700D01*
X33122014Y-10706592D01*
X33249308Y-10740700D01*
X33249310Y-10740700D01*
X33381090Y-10740700D01*
X33381092Y-10740700D01*
X33508386Y-10706592D01*
X33622514Y-10640700D01*
X33715700Y-10547514D01*
X33781592Y-10433386D01*
X33815700Y-10306092D01*
X33815700Y-10176908D01*
X41181700Y-10176908D01*
X41181700Y-10308692D01*
X41191667Y-10345890D01*
X41215808Y-10435987D01*
X41237285Y-10473186D01*
X41281700Y-10550114D01*
X41374886Y-10643300D01*
X41473721Y-10700363D01*
X41484510Y-10706592D01*
X41489014Y-10709192D01*
X41616308Y-10743300D01*
X41616310Y-10743300D01*
X41748090Y-10743300D01*
X41748092Y-10743300D01*
X41875386Y-10709192D01*
X41989514Y-10643300D01*
X42082700Y-10550114D01*
X42135242Y-10459108D01*
X56527500Y-10459108D01*
X56527500Y-10590891D01*
X56561608Y-10718187D01*
X56589045Y-10765708D01*
X56627500Y-10832314D01*
X56720686Y-10925500D01*
X56834814Y-10991392D01*
X56962108Y-11025500D01*
X56962110Y-11025500D01*
X57093890Y-11025500D01*
X57093892Y-11025500D01*
X57221186Y-10991392D01*
X57335314Y-10925500D01*
X57428500Y-10832314D01*
X57494392Y-10718186D01*
X57528500Y-10590892D01*
X57528500Y-10459108D01*
X57494392Y-10331814D01*
X57428500Y-10217686D01*
X57335314Y-10124500D01*
X57270037Y-10086812D01*
X57221187Y-10058608D01*
X57115381Y-10030258D01*
X57093892Y-10024500D01*
X56962108Y-10024500D01*
X56834812Y-10058608D01*
X56720686Y-10124500D01*
X56720683Y-10124502D01*
X56627502Y-10217683D01*
X56627500Y-10217686D01*
X56561608Y-10331812D01*
X56527500Y-10459108D01*
X42135242Y-10459108D01*
X42148592Y-10435986D01*
X42182700Y-10308692D01*
X42182700Y-10176908D01*
X42148592Y-10049614D01*
X42082700Y-9935486D01*
X41989514Y-9842300D01*
X41932450Y-9809354D01*
X41875387Y-9776408D01*
X41811739Y-9759354D01*
X41748092Y-9742300D01*
X41616308Y-9742300D01*
X41489012Y-9776408D01*
X41374886Y-9842300D01*
X41374883Y-9842302D01*
X41281702Y-9935483D01*
X41281700Y-9935486D01*
X41215808Y-10049612D01*
X41195742Y-10124502D01*
X41181700Y-10176908D01*
X33815700Y-10176908D01*
X33815700Y-10174308D01*
X33781592Y-10047014D01*
X33715700Y-9932886D01*
X33622514Y-9839700D01*
X33565450Y-9806754D01*
X33508387Y-9773808D01*
X33390795Y-9742300D01*
X33381092Y-9739700D01*
X33249308Y-9739700D01*
X33122012Y-9773808D01*
X33007886Y-9839700D01*
X33007883Y-9839702D01*
X32914702Y-9932883D01*
X32914700Y-9932886D01*
X32848808Y-10047012D01*
X32828046Y-10124500D01*
X32814700Y-10174308D01*
X19960730Y-10174308D01*
X19896400Y-10062886D01*
X19878987Y-10045473D01*
X19870546Y-10030258D01*
X19866549Y-10012462D01*
X19857810Y-9996458D01*
X19859052Y-9979083D01*
X19855235Y-9962086D01*
X19861493Y-9944956D01*
X19862794Y-9926766D01*
X19875179Y-9907494D01*
X19879211Y-9896459D01*
X19885187Y-9891921D01*
X19891295Y-9882419D01*
X19894214Y-9879500D01*
X19898000Y-9875714D01*
X19963892Y-9761586D01*
X19998000Y-9634292D01*
X19998000Y-9502508D01*
X19963892Y-9375214D01*
X19898000Y-9261086D01*
X19804814Y-9167900D01*
X19747750Y-9134954D01*
X19690687Y-9102008D01*
X19627039Y-9084954D01*
X19563392Y-9067900D01*
X19431608Y-9067900D01*
X19304312Y-9102008D01*
X19190186Y-9167900D01*
X19190183Y-9167902D01*
X19097002Y-9261083D01*
X19097000Y-9261086D01*
X19031108Y-9375212D01*
X19003998Y-9476391D01*
X18997000Y-9502508D01*
X18997000Y-9634292D01*
X19000271Y-9646499D01*
X19031108Y-9761587D01*
X19061143Y-9813608D01*
X19097000Y-9875714D01*
X19097002Y-9875716D01*
X19102104Y-9880818D01*
X19135589Y-9942141D01*
X19130605Y-10011833D01*
X19102111Y-10056173D01*
X19095405Y-10062879D01*
X19095400Y-10062886D01*
X19029508Y-10177012D01*
X19019568Y-10214110D01*
X18995400Y-10304308D01*
X5005400Y-10304308D01*
X5005400Y-10214108D01*
X4971292Y-10086814D01*
X4905400Y-9972686D01*
X4812214Y-9879500D01*
X4743279Y-9839700D01*
X4698087Y-9813608D01*
X4634439Y-9796554D01*
X4570792Y-9779500D01*
X4439008Y-9779500D01*
X4311712Y-9813608D01*
X4197586Y-9879500D01*
X4197583Y-9879502D01*
X4104402Y-9972683D01*
X4104400Y-9972686D01*
X4038508Y-10086812D01*
X4004400Y-10214108D01*
X300500Y-10214108D01*
X300500Y-8944108D01*
X4001400Y-8944108D01*
X4001400Y-9075891D01*
X4035508Y-9203187D01*
X4068454Y-9260250D01*
X4101400Y-9317314D01*
X4194586Y-9410500D01*
X4308714Y-9476392D01*
X4436008Y-9510500D01*
X4436010Y-9510500D01*
X4567790Y-9510500D01*
X4567792Y-9510500D01*
X4695086Y-9476392D01*
X4809214Y-9410500D01*
X4902400Y-9317314D01*
X4968292Y-9203186D01*
X5002400Y-9075892D01*
X5002400Y-8944108D01*
X4968292Y-8816814D01*
X4968291Y-8816812D01*
X4968291Y-8816811D01*
X4961981Y-8805883D01*
X4961980Y-8805881D01*
X4946811Y-8779608D01*
X4930876Y-8752008D01*
X29294800Y-8752008D01*
X29294800Y-8883791D01*
X29328908Y-9011087D01*
X29353000Y-9052814D01*
X29394800Y-9125214D01*
X29487986Y-9218400D01*
X29602114Y-9284292D01*
X29729408Y-9318400D01*
X29729410Y-9318400D01*
X29861190Y-9318400D01*
X29861192Y-9318400D01*
X29988486Y-9284292D01*
X30102614Y-9218400D01*
X30146006Y-9175008D01*
X36924500Y-9175008D01*
X36924500Y-9306792D01*
X36941554Y-9370439D01*
X36958608Y-9434087D01*
X36961552Y-9439186D01*
X37024500Y-9548214D01*
X37117686Y-9641400D01*
X37216521Y-9698463D01*
X37222114Y-9701692D01*
X37231814Y-9707292D01*
X37359108Y-9741400D01*
X37359110Y-9741400D01*
X37490890Y-9741400D01*
X37490892Y-9741400D01*
X37618186Y-9707292D01*
X37732314Y-9641400D01*
X37825500Y-9548214D01*
X37891392Y-9434086D01*
X37925500Y-9306792D01*
X37925500Y-9180108D01*
X38574500Y-9180108D01*
X38574500Y-9311892D01*
X38576244Y-9318399D01*
X38608608Y-9439187D01*
X38630088Y-9476391D01*
X38674500Y-9553314D01*
X38767686Y-9646500D01*
X38863279Y-9701691D01*
X38872980Y-9707292D01*
X38881814Y-9712392D01*
X39009108Y-9746500D01*
X39009110Y-9746500D01*
X39140890Y-9746500D01*
X39140892Y-9746500D01*
X39268186Y-9712392D01*
X39382314Y-9646500D01*
X39475500Y-9553314D01*
X39541392Y-9439186D01*
X39575500Y-9311892D01*
X39575500Y-9180108D01*
X39572633Y-9169408D01*
X71339200Y-9169408D01*
X71339200Y-9301192D01*
X71343811Y-9318399D01*
X71373308Y-9428487D01*
X71379486Y-9439187D01*
X71439200Y-9542614D01*
X71532386Y-9635800D01*
X71646514Y-9701692D01*
X71773808Y-9735800D01*
X71773810Y-9735800D01*
X71905590Y-9735800D01*
X71905592Y-9735800D01*
X72032886Y-9701692D01*
X72147014Y-9635800D01*
X72240200Y-9542614D01*
X72306092Y-9428486D01*
X72340200Y-9301192D01*
X72340200Y-9169408D01*
X72306092Y-9042114D01*
X72240200Y-8927986D01*
X72147014Y-8834800D01*
X72089950Y-8801854D01*
X72032887Y-8768908D01*
X71945525Y-8745500D01*
X71905592Y-8734800D01*
X71773808Y-8734800D01*
X71646512Y-8768908D01*
X71532386Y-8834800D01*
X71532383Y-8834802D01*
X71439202Y-8927983D01*
X71439200Y-8927986D01*
X71373308Y-9042112D01*
X71351041Y-9125216D01*
X71339200Y-9169408D01*
X39572633Y-9169408D01*
X39541392Y-9052814D01*
X39475500Y-8938686D01*
X39382314Y-8845500D01*
X39291380Y-8792999D01*
X39268187Y-8779608D01*
X39190868Y-8758891D01*
X39140892Y-8745500D01*
X39009108Y-8745500D01*
X38881812Y-8779608D01*
X38767686Y-8845500D01*
X38767683Y-8845502D01*
X38674502Y-8938683D01*
X38674500Y-8938686D01*
X38608608Y-9052812D01*
X38589208Y-9125216D01*
X38574500Y-9180108D01*
X37925500Y-9180108D01*
X37925500Y-9175008D01*
X37891392Y-9047714D01*
X37825500Y-8933586D01*
X37732314Y-8840400D01*
X37672529Y-8805883D01*
X37618187Y-8774508D01*
X37554539Y-8757454D01*
X37490892Y-8740400D01*
X37359108Y-8740400D01*
X37231812Y-8774508D01*
X37117686Y-8840400D01*
X37117683Y-8840402D01*
X37024502Y-8933583D01*
X37024500Y-8933586D01*
X36958608Y-9047712D01*
X36926000Y-9169410D01*
X36924500Y-9175008D01*
X30146006Y-9175008D01*
X30195800Y-9125214D01*
X30261692Y-9011086D01*
X30295800Y-8883792D01*
X30295800Y-8752008D01*
X30261692Y-8624714D01*
X30195800Y-8510586D01*
X30102614Y-8417400D01*
X30045550Y-8384454D01*
X29988487Y-8351508D01*
X29967811Y-8345968D01*
X29861192Y-8317400D01*
X29729408Y-8317400D01*
X29602112Y-8351508D01*
X29487986Y-8417400D01*
X29487983Y-8417402D01*
X29394802Y-8510583D01*
X29394800Y-8510586D01*
X29328908Y-8624712D01*
X29294800Y-8752008D01*
X4930876Y-8752008D01*
X4902400Y-8702686D01*
X4809214Y-8609500D01*
X4752150Y-8576554D01*
X4695087Y-8543608D01*
X4631439Y-8526554D01*
X4567792Y-8509500D01*
X4436008Y-8509500D01*
X4308712Y-8543608D01*
X4194586Y-8609500D01*
X4194583Y-8609502D01*
X4101402Y-8702683D01*
X4101400Y-8702686D01*
X4035508Y-8816812D01*
X4001400Y-8944108D01*
X300500Y-8944108D01*
X300500Y-8226608D01*
X45319300Y-8226608D01*
X45319300Y-8358391D01*
X45353408Y-8485687D01*
X45367157Y-8509500D01*
X45419300Y-8599814D01*
X45512486Y-8693000D01*
X45626614Y-8758892D01*
X45753908Y-8793000D01*
X45753910Y-8793000D01*
X45885690Y-8793000D01*
X45885692Y-8793000D01*
X46012986Y-8758892D01*
X46127114Y-8693000D01*
X46220300Y-8599814D01*
X46286192Y-8485686D01*
X46320300Y-8358392D01*
X46320300Y-8226608D01*
X46286192Y-8099314D01*
X46220300Y-7985186D01*
X46127114Y-7892000D01*
X46070050Y-7859054D01*
X46012987Y-7826108D01*
X45949339Y-7809054D01*
X45885692Y-7792000D01*
X45753908Y-7792000D01*
X45626612Y-7826108D01*
X45512486Y-7892000D01*
X45512483Y-7892002D01*
X45419302Y-7985183D01*
X45419300Y-7985186D01*
X45353408Y-8099312D01*
X45319300Y-8226608D01*
X300500Y-8226608D01*
X300500Y-7150808D01*
X21509000Y-7150808D01*
X21509000Y-7282591D01*
X21543108Y-7409887D01*
X21565113Y-7448000D01*
X21609000Y-7524014D01*
X21702186Y-7617200D01*
X21816314Y-7683092D01*
X21943608Y-7717200D01*
X21943610Y-7717200D01*
X22075390Y-7717200D01*
X22075392Y-7717200D01*
X22202686Y-7683092D01*
X22316814Y-7617200D01*
X22410000Y-7524014D01*
X22475892Y-7409886D01*
X22510000Y-7282592D01*
X22510000Y-7150808D01*
X23822900Y-7150808D01*
X23822900Y-7282591D01*
X23857008Y-7409887D01*
X23879013Y-7448000D01*
X23922900Y-7524014D01*
X24016086Y-7617200D01*
X24130214Y-7683092D01*
X24257508Y-7717200D01*
X24257510Y-7717200D01*
X24389290Y-7717200D01*
X24389292Y-7717200D01*
X24516586Y-7683092D01*
X24630714Y-7617200D01*
X24662094Y-7585819D01*
X24723414Y-7552335D01*
X24793106Y-7557319D01*
X24849040Y-7599189D01*
X24857203Y-7613516D01*
X24857844Y-7613147D01*
X24861907Y-7620185D01*
X24861908Y-7620186D01*
X24927800Y-7734314D01*
X25020986Y-7827500D01*
X25135114Y-7893392D01*
X25262408Y-7927500D01*
X25262410Y-7927500D01*
X25394190Y-7927500D01*
X25394192Y-7927500D01*
X25521486Y-7893392D01*
X25635614Y-7827500D01*
X25728800Y-7734314D01*
X25794692Y-7620186D01*
X25796455Y-7613608D01*
X62376000Y-7613608D01*
X62376000Y-7745392D01*
X62393054Y-7809039D01*
X62410108Y-7872687D01*
X62424776Y-7898092D01*
X62476000Y-7986814D01*
X62569186Y-8080000D01*
X62683314Y-8145892D01*
X62810608Y-8180000D01*
X62810610Y-8180000D01*
X62942390Y-8180000D01*
X62942392Y-8180000D01*
X63069686Y-8145892D01*
X63183814Y-8080000D01*
X63277000Y-7986814D01*
X63342892Y-7872686D01*
X63371396Y-7766308D01*
X68006700Y-7766308D01*
X68006700Y-7898091D01*
X68040808Y-8025387D01*
X68072338Y-8079997D01*
X68106700Y-8139514D01*
X68199886Y-8232700D01*
X68314014Y-8298592D01*
X68441308Y-8332700D01*
X68441310Y-8332700D01*
X68573090Y-8332700D01*
X68573092Y-8332700D01*
X68700386Y-8298592D01*
X68814514Y-8232700D01*
X68907700Y-8139514D01*
X68973592Y-8025386D01*
X69007700Y-7898092D01*
X69007700Y-7766308D01*
X68973592Y-7639014D01*
X68907700Y-7524886D01*
X68814514Y-7431700D01*
X68734002Y-7385216D01*
X68700387Y-7365808D01*
X68619825Y-7344222D01*
X68573092Y-7331700D01*
X68441308Y-7331700D01*
X68314012Y-7365808D01*
X68199886Y-7431700D01*
X68199883Y-7431702D01*
X68106702Y-7524883D01*
X68106700Y-7524886D01*
X68040808Y-7639012D01*
X68006700Y-7766308D01*
X63371396Y-7766308D01*
X63377000Y-7745392D01*
X63377000Y-7613608D01*
X63342892Y-7486314D01*
X63277000Y-7372186D01*
X63183814Y-7279000D01*
X63105550Y-7233814D01*
X63069687Y-7213108D01*
X63006039Y-7196054D01*
X62942392Y-7179000D01*
X62810608Y-7179000D01*
X62683312Y-7213108D01*
X62569186Y-7279000D01*
X62476000Y-7372186D01*
X62410108Y-7486314D01*
X62399668Y-7525273D01*
X62399668Y-7525275D01*
X62376124Y-7613147D01*
X62376000Y-7613608D01*
X25796455Y-7613608D01*
X25828800Y-7492892D01*
X25828800Y-7361108D01*
X25794692Y-7233814D01*
X25728800Y-7119686D01*
X25635614Y-7026500D01*
X25610513Y-7012008D01*
X41624500Y-7012008D01*
X41624500Y-7143792D01*
X41633934Y-7179000D01*
X41658608Y-7271087D01*
X41665250Y-7282591D01*
X41724500Y-7385214D01*
X41817686Y-7478400D01*
X41931814Y-7544292D01*
X42059108Y-7578400D01*
X42059110Y-7578400D01*
X42190890Y-7578400D01*
X42190892Y-7578400D01*
X42318186Y-7544292D01*
X42432314Y-7478400D01*
X42525500Y-7385214D01*
X42591392Y-7271086D01*
X42625500Y-7143792D01*
X42625500Y-7012008D01*
X42591392Y-6884714D01*
X42589599Y-6881608D01*
X46094400Y-6881608D01*
X46094400Y-7013391D01*
X46128508Y-7140687D01*
X46161454Y-7197750D01*
X46194400Y-7254814D01*
X46287586Y-7348000D01*
X46401714Y-7413892D01*
X46529008Y-7448000D01*
X46529010Y-7448000D01*
X46660790Y-7448000D01*
X46660792Y-7448000D01*
X46788086Y-7413892D01*
X46902214Y-7348000D01*
X46995400Y-7254814D01*
X47061292Y-7140686D01*
X47095400Y-7013392D01*
X47095400Y-6881608D01*
X47061292Y-6754314D01*
X46995400Y-6640186D01*
X46902214Y-6547000D01*
X46899904Y-6545666D01*
X46788088Y-6481109D01*
X46788087Y-6481108D01*
X46788086Y-6481108D01*
X46660792Y-6447000D01*
X46529008Y-6447000D01*
X46401712Y-6481108D01*
X46287586Y-6547000D01*
X46287583Y-6547002D01*
X46194402Y-6640183D01*
X46194400Y-6640186D01*
X46128508Y-6754312D01*
X46094400Y-6881608D01*
X42589599Y-6881608D01*
X42525500Y-6770586D01*
X42432314Y-6677400D01*
X42367858Y-6640186D01*
X42318187Y-6611508D01*
X42254539Y-6594454D01*
X42190892Y-6577400D01*
X42059108Y-6577400D01*
X41931812Y-6611508D01*
X41817686Y-6677400D01*
X41817683Y-6677402D01*
X41724502Y-6770583D01*
X41724500Y-6770586D01*
X41658608Y-6884712D01*
X41638272Y-6960608D01*
X41624500Y-7012008D01*
X25610513Y-7012008D01*
X25578550Y-6993554D01*
X25521487Y-6960608D01*
X25457839Y-6943554D01*
X25394192Y-6926500D01*
X25262408Y-6926500D01*
X25135112Y-6960608D01*
X25020986Y-7026500D01*
X25020982Y-7026503D01*
X24989605Y-7057880D01*
X24928281Y-7091365D01*
X24858590Y-7086379D01*
X24802657Y-7044507D01*
X24794498Y-7030181D01*
X24793856Y-7030553D01*
X24753473Y-6960608D01*
X24723900Y-6909386D01*
X24630714Y-6816200D01*
X24573650Y-6783254D01*
X24516587Y-6750308D01*
X24452939Y-6733254D01*
X24389292Y-6716200D01*
X24257508Y-6716200D01*
X24130212Y-6750308D01*
X24016086Y-6816200D01*
X24016083Y-6816202D01*
X23922902Y-6909383D01*
X23922900Y-6909386D01*
X23857008Y-7023512D01*
X23822900Y-7150808D01*
X22510000Y-7150808D01*
X22475892Y-7023514D01*
X22470047Y-7013391D01*
X22439573Y-6960608D01*
X22410000Y-6909386D01*
X22316814Y-6816200D01*
X22259750Y-6783254D01*
X22202687Y-6750308D01*
X22139039Y-6733254D01*
X22075392Y-6716200D01*
X21943608Y-6716200D01*
X21816312Y-6750308D01*
X21702186Y-6816200D01*
X21702183Y-6816202D01*
X21609002Y-6909383D01*
X21609000Y-6909386D01*
X21543108Y-7023512D01*
X21509000Y-7150808D01*
X300500Y-7150808D01*
X300500Y-6446408D01*
X55312200Y-6446408D01*
X55312200Y-6578191D01*
X55346308Y-6705487D01*
X55372186Y-6750308D01*
X55412200Y-6819614D01*
X55505386Y-6912800D01*
X55619514Y-6978692D01*
X55746808Y-7012800D01*
X55746810Y-7012800D01*
X55878590Y-7012800D01*
X55878592Y-7012800D01*
X55925586Y-7000208D01*
X61311800Y-7000208D01*
X61311800Y-7131991D01*
X61345908Y-7259287D01*
X61378854Y-7316350D01*
X61411800Y-7373414D01*
X61504986Y-7466600D01*
X61619114Y-7532492D01*
X61746408Y-7566600D01*
X61746410Y-7566600D01*
X61878190Y-7566600D01*
X61878192Y-7566600D01*
X62005486Y-7532492D01*
X62119614Y-7466600D01*
X62212800Y-7373414D01*
X62278692Y-7259286D01*
X62312800Y-7131992D01*
X62312800Y-7000208D01*
X62278692Y-6872914D01*
X62212800Y-6758786D01*
X62119614Y-6665600D01*
X62062550Y-6632654D01*
X62005487Y-6599708D01*
X61925186Y-6578192D01*
X61878192Y-6565600D01*
X61746408Y-6565600D01*
X61619112Y-6599708D01*
X61504986Y-6665600D01*
X61504983Y-6665602D01*
X61411802Y-6758783D01*
X61411800Y-6758786D01*
X61345908Y-6872912D01*
X61311800Y-7000208D01*
X55925586Y-7000208D01*
X56005886Y-6978692D01*
X56120014Y-6912800D01*
X56213200Y-6819614D01*
X56279092Y-6705486D01*
X56313200Y-6578192D01*
X56313200Y-6446408D01*
X56279092Y-6319114D01*
X56213200Y-6204986D01*
X56120014Y-6111800D01*
X56043617Y-6067692D01*
X56005887Y-6045908D01*
X55942239Y-6028854D01*
X55878592Y-6011800D01*
X55746808Y-6011800D01*
X55619512Y-6045908D01*
X55505386Y-6111800D01*
X55505383Y-6111802D01*
X55412202Y-6204983D01*
X55412200Y-6204986D01*
X55346308Y-6319112D01*
X55312200Y-6446408D01*
X300500Y-6446408D01*
X300500Y-6374000D01*
X320185Y-6306961D01*
X372989Y-6261206D01*
X424500Y-6250000D01*
X36000000Y-6250000D01*
X36000000Y-5535408D01*
X38306900Y-5535408D01*
X38306900Y-5667191D01*
X38341008Y-5794487D01*
X38373954Y-5851550D01*
X38406900Y-5908614D01*
X38500086Y-6001800D01*
X38614214Y-6067692D01*
X38741508Y-6101800D01*
X38741510Y-6101800D01*
X38873290Y-6101800D01*
X38873292Y-6101800D01*
X39000586Y-6067692D01*
X39114714Y-6001800D01*
X39207900Y-5908614D01*
X39273792Y-5794486D01*
X39307900Y-5667192D01*
X39307900Y-5535408D01*
X39273792Y-5408114D01*
X39207900Y-5293986D01*
X39114714Y-5200800D01*
X39057650Y-5167854D01*
X39000587Y-5134908D01*
X38936939Y-5117854D01*
X38873292Y-5100800D01*
X38741508Y-5100800D01*
X38614212Y-5134908D01*
X38500086Y-5200800D01*
X38500083Y-5200802D01*
X38406902Y-5293983D01*
X38406900Y-5293986D01*
X38341008Y-5408112D01*
X38306900Y-5535408D01*
X36000000Y-5535408D01*
X36000000Y-4270708D01*
X42874500Y-4270708D01*
X42874500Y-4402492D01*
X42875036Y-4404491D01*
X42908608Y-4529787D01*
X42909763Y-4531787D01*
X42974500Y-4643914D01*
X43067686Y-4737100D01*
X43181814Y-4802992D01*
X43309108Y-4837100D01*
X43309110Y-4837100D01*
X43440890Y-4837100D01*
X43440892Y-4837100D01*
X43568186Y-4802992D01*
X43682314Y-4737100D01*
X43775500Y-4643914D01*
X43841392Y-4529786D01*
X43875500Y-4402492D01*
X43875500Y-4270708D01*
X43872553Y-4259708D01*
X44124500Y-4259708D01*
X44124500Y-4391492D01*
X44141554Y-4455139D01*
X44158608Y-4518787D01*
X44166114Y-4531787D01*
X44224500Y-4632914D01*
X44317686Y-4726100D01*
X44431814Y-4791992D01*
X44559108Y-4826100D01*
X44559110Y-4826100D01*
X44690890Y-4826100D01*
X44690892Y-4826100D01*
X44818186Y-4791992D01*
X44932314Y-4726100D01*
X45025500Y-4632914D01*
X45091392Y-4518786D01*
X45125500Y-4391492D01*
X45125500Y-4272708D01*
X58624500Y-4272708D01*
X58624500Y-4404491D01*
X58658608Y-4531787D01*
X58691554Y-4588850D01*
X58724500Y-4645914D01*
X58817686Y-4739100D01*
X58931814Y-4804992D01*
X59059108Y-4839100D01*
X59059110Y-4839100D01*
X59190890Y-4839100D01*
X59190892Y-4839100D01*
X59318186Y-4804992D01*
X59432314Y-4739100D01*
X59525500Y-4645914D01*
X59591392Y-4531786D01*
X59625500Y-4404492D01*
X59625500Y-4272708D01*
X59625205Y-4271608D01*
X59874500Y-4271608D01*
X59874500Y-4403392D01*
X59874795Y-4404492D01*
X59908608Y-4530687D01*
X59941554Y-4587750D01*
X59974500Y-4644814D01*
X60067686Y-4738000D01*
X60181814Y-4803892D01*
X60309108Y-4838000D01*
X60309110Y-4838000D01*
X60440890Y-4838000D01*
X60440892Y-4838000D01*
X60568186Y-4803892D01*
X60682314Y-4738000D01*
X60775500Y-4644814D01*
X60841392Y-4530686D01*
X60875500Y-4403392D01*
X60875500Y-4271608D01*
X60841392Y-4144314D01*
X60840872Y-4143414D01*
X60832563Y-4129021D01*
X60775500Y-4030186D01*
X60682314Y-3937000D01*
X60625250Y-3904054D01*
X60568187Y-3871108D01*
X60504539Y-3854054D01*
X60440892Y-3837000D01*
X60309108Y-3837000D01*
X60181812Y-3871108D01*
X60067686Y-3937000D01*
X60067683Y-3937002D01*
X59974502Y-4030183D01*
X59974500Y-4030186D01*
X59908608Y-4144312D01*
X59904704Y-4158884D01*
X59874500Y-4271608D01*
X59625205Y-4271608D01*
X59591392Y-4145414D01*
X59525500Y-4031286D01*
X59432314Y-3938100D01*
X59375250Y-3905154D01*
X59318187Y-3872208D01*
X59254539Y-3855154D01*
X59190892Y-3838100D01*
X59059108Y-3838100D01*
X58931812Y-3872208D01*
X58817686Y-3938100D01*
X58817683Y-3938102D01*
X58724502Y-4031283D01*
X58724500Y-4031286D01*
X58658608Y-4145412D01*
X58624500Y-4272708D01*
X45125500Y-4272708D01*
X45125500Y-4259708D01*
X45091392Y-4132414D01*
X45025500Y-4018286D01*
X44932314Y-3925100D01*
X44840703Y-3872208D01*
X44818187Y-3859208D01*
X44731945Y-3836100D01*
X44690892Y-3825100D01*
X44559108Y-3825100D01*
X44431812Y-3859208D01*
X44317686Y-3925100D01*
X44317683Y-3925102D01*
X44224502Y-4018283D01*
X44224500Y-4018286D01*
X44158608Y-4132412D01*
X44126967Y-4250500D01*
X44124500Y-4259708D01*
X43872553Y-4259708D01*
X43841392Y-4143414D01*
X43775500Y-4029286D01*
X43682314Y-3936100D01*
X43625250Y-3903154D01*
X43568187Y-3870208D01*
X43504539Y-3853154D01*
X43440892Y-3836100D01*
X43309108Y-3836100D01*
X43181812Y-3870208D01*
X43067686Y-3936100D01*
X43067683Y-3936102D01*
X42974502Y-4029283D01*
X42974500Y-4029286D01*
X42908608Y-4143412D01*
X42888165Y-4219709D01*
X42874500Y-4270708D01*
X36000000Y-4270708D01*
X36000000Y-2901577D01*
X70749500Y-2901577D01*
X70749500Y-3098422D01*
X70780290Y-3292826D01*
X70841117Y-3480029D01*
X70930476Y-3655405D01*
X71046172Y-3814646D01*
X71185354Y-3953828D01*
X71344595Y-4069524D01*
X71427455Y-4111743D01*
X71519970Y-4158882D01*
X71519972Y-4158882D01*
X71519975Y-4158884D01*
X71620317Y-4191487D01*
X71707173Y-4219709D01*
X71901578Y-4250500D01*
X71901583Y-4250500D01*
X72098422Y-4250500D01*
X72292826Y-4219709D01*
X72480025Y-4158884D01*
X72655405Y-4069524D01*
X72814646Y-3953828D01*
X72953828Y-3814646D01*
X73069524Y-3655405D01*
X73158884Y-3480025D01*
X73219709Y-3292826D01*
X73250500Y-3098422D01*
X73250500Y-2901577D01*
X73219709Y-2707173D01*
X73158882Y-2519970D01*
X73069523Y-2344594D01*
X72953828Y-2185354D01*
X72814646Y-2046172D01*
X72655405Y-1930476D01*
X72480029Y-1841117D01*
X72292826Y-1780290D01*
X72098422Y-1749500D01*
X72098417Y-1749500D01*
X71901583Y-1749500D01*
X71901578Y-1749500D01*
X71707173Y-1780290D01*
X71519970Y-1841117D01*
X71344594Y-1930476D01*
X71253741Y-1996485D01*
X71185354Y-2046172D01*
X71185352Y-2046174D01*
X71185351Y-2046174D01*
X71046174Y-2185351D01*
X71046174Y-2185352D01*
X71046172Y-2185354D01*
X70996485Y-2253741D01*
X70930476Y-2344594D01*
X70841117Y-2519970D01*
X70780290Y-2707173D01*
X70749500Y-2901577D01*
X36000000Y-2901577D01*
X36000000Y-424500D01*
X36019685Y-357461D01*
X36072489Y-311706D01*
X36124000Y-300500D01*
X74575500Y-300500D01*
X74642539Y-320185D01*
G37*
%TD.AperFunction*%
%TD*%
M02*
