%TF.GenerationSoftware,KiCad,Pcbnew,10.0.6*%
%TF.CreationDate,2026-09-27T12:06:44+06:00*%
%TF.ProjectId,afo_revb_main,61666f5f-7265-4766-925f-6d61696e2e6b,rev?*%
%TF.SameCoordinates,Original*%
%TF.FileFunction,Soldermask,Top*%
%TF.FilePolarity,Negative*%
%FSLAX46Y46*%
G04 Gerber Fmt 4.6, Leading zero omitted, Abs format (unit mm)*
G04 Created by KiCad (PCBNEW 10.0.6) date 2026-09-27 12:06:44*
%MOMM*%
%LPD*%
G01*
G04 APERTURE LIST*
G04 Aperture macros list*
%AMRoundRect*
0 Rectangle with rounded corners*
0 $1 Rounding radius*
0 $2 $3 $4 $5 $6 $7 $8 $9 X,Y pos of 4 corners*
0 Add a 4 corners polygon primitive as box body*
4,1,4,$2,$3,$4,$5,$6,$7,$8,$9,$2,$3,0*
0 Add four circle primitives for the rounded corners*
1,1,$1+$1,$2,$3*
1,1,$1+$1,$4,$5*
1,1,$1+$1,$6,$7*
1,1,$1+$1,$8,$9*
0 Add four rect primitives between the rounded corners*
20,1,$1+$1,$2,$3,$4,$5,0*
20,1,$1+$1,$4,$5,$6,$7,0*
20,1,$1+$1,$6,$7,$8,$9,0*
20,1,$1+$1,$8,$9,$2,$3,0*%
G04 Aperture macros list end*
%ADD10RoundRect,0.200000X0.275000X-0.200000X0.275000X0.200000X-0.275000X0.200000X-0.275000X-0.200000X0*%
%ADD11RoundRect,0.200000X-0.200000X-0.275000X0.200000X-0.275000X0.200000X0.275000X-0.200000X0.275000X0*%
%ADD12R,0.700000X1.200000*%
%ADD13R,1.000000X0.800000*%
%ADD14R,1.000000X1.200000*%
%ADD15R,1.000000X2.800000*%
%ADD16R,1.300000X1.900000*%
%ADD17RoundRect,0.225000X-0.225000X-0.250000X0.225000X-0.250000X0.225000X0.250000X-0.225000X0.250000X0*%
%ADD18RoundRect,0.150000X-0.150000X-0.700000X0.150000X-0.700000X0.150000X0.700000X-0.150000X0.700000X0*%
%ADD19RoundRect,0.250000X-0.250000X-1.150000X0.250000X-1.150000X0.250000X1.150000X-0.250000X1.150000X0*%
%ADD20RoundRect,0.225000X0.250000X-0.225000X0.250000X0.225000X-0.250000X0.225000X-0.250000X-0.225000X0*%
%ADD21RoundRect,0.150000X-0.512500X-0.150000X0.512500X-0.150000X0.512500X0.150000X-0.512500X0.150000X0*%
%ADD22RoundRect,0.100000X-0.637500X-0.100000X0.637500X-0.100000X0.637500X0.100000X-0.637500X0.100000X0*%
%ADD23R,1.700000X1.000000*%
%ADD24RoundRect,0.250000X-0.250000X-0.475000X0.250000X-0.475000X0.250000X0.475000X-0.250000X0.475000X0*%
%ADD25RoundRect,0.150000X-0.587500X-0.150000X0.587500X-0.150000X0.587500X0.150000X-0.587500X0.150000X0*%
%ADD26R,0.450000X0.300000*%
%ADD27R,1.000000X1.600000*%
%ADD28C,2.200000*%
%ADD29RoundRect,0.245000X-0.245000X-1.455000X0.245000X-1.455000X0.245000X1.455000X-0.245000X1.455000X0*%
%ADD30C,0.650000*%
%ADD31RoundRect,0.150000X-0.150000X-0.425000X0.150000X-0.425000X0.150000X0.425000X-0.150000X0.425000X0*%
%ADD32RoundRect,0.075000X-0.075000X-0.500000X0.075000X-0.500000X0.075000X0.500000X-0.075000X0.500000X0*%
%ADD33O,1.000000X2.100000*%
%ADD34O,1.000000X1.800000*%
%ADD35C,0.900000*%
%ADD36RoundRect,0.250000X-0.375000X-1.000000X0.375000X-1.000000X0.375000X1.000000X-0.375000X1.000000X0*%
%ADD37RoundRect,0.218750X-0.218750X-0.256250X0.218750X-0.256250X0.218750X0.256250X-0.218750X0.256250X0*%
%ADD38RoundRect,0.075000X-0.700000X-0.075000X0.700000X-0.075000X0.700000X0.075000X-0.700000X0.075000X0*%
%ADD39RoundRect,0.075000X-0.075000X-0.700000X0.075000X-0.700000X0.075000X0.700000X-0.075000X0.700000X0*%
%ADD40R,1.500000X0.900000*%
%ADD41R,0.900000X1.500000*%
%ADD42C,0.600000*%
%ADD43R,3.900000X3.900000*%
%ADD44RoundRect,0.075000X-0.275000X-0.100000X0.275000X-0.100000X0.275000X0.100000X-0.275000X0.100000X0*%
%ADD45RoundRect,0.075000X-0.100000X-0.275000X0.100000X-0.275000X0.100000X0.275000X-0.100000X0.275000X0*%
%ADD46RoundRect,0.000000X-0.125000X-0.300000X0.125000X-0.300000X0.125000X0.300000X-0.125000X0.300000X0*%
%ADD47RoundRect,0.000000X-0.675000X-0.125000X0.675000X-0.125000X0.675000X0.125000X-0.675000X0.125000X0*%
%ADD48RoundRect,0.000000X-0.850000X-0.125000X0.850000X-0.125000X0.850000X0.125000X-0.850000X0.125000X0*%
G04 APERTURE END LIST*
D10*
%TO.C,R10*%
X34250000Y-29825000D03*
X34250000Y-28175000D03*
%TD*%
D11*
%TO.C,R102*%
X54175000Y-10250000D03*
X55825000Y-10250000D03*
%TD*%
%TO.C,R62*%
X42425000Y-9500000D03*
X44075000Y-9500000D03*
%TD*%
%TO.C,R53*%
X22675000Y-8500000D03*
X24325000Y-8500000D03*
%TD*%
D12*
%TO.C,J2*%
X38775000Y-32275000D03*
X37675000Y-32275000D03*
X36575000Y-32275000D03*
X35475000Y-32275000D03*
X34375000Y-32275000D03*
X33275000Y-32275000D03*
X32175000Y-32275000D03*
X31075000Y-32275000D03*
X30125000Y-32275000D03*
D13*
X29175000Y-42775000D03*
D14*
X29175000Y-36575000D03*
D15*
X29175000Y-46925000D03*
D14*
X40325000Y-32275000D03*
D16*
X42675000Y-47375000D03*
%TD*%
D17*
%TO.C,C44*%
X30475000Y-7750000D03*
X32025000Y-7750000D03*
%TD*%
D11*
%TO.C,R104*%
X43925000Y-16000000D03*
X45575000Y-16000000D03*
%TD*%
D18*
%TO.C,J10*%
X33875000Y-15950000D03*
X35125000Y-15950000D03*
X36375000Y-15950000D03*
X37625000Y-15950000D03*
X38875000Y-15950000D03*
X40125000Y-15950000D03*
D19*
X32025000Y-12600000D03*
X41975000Y-12600000D03*
%TD*%
D18*
%TO.C,J7*%
X69000000Y-34950000D03*
X70250000Y-34950000D03*
X71500000Y-34950000D03*
D19*
X67150000Y-31600000D03*
X73350000Y-31600000D03*
%TD*%
D20*
%TO.C,C102*%
X47250000Y-16275000D03*
X47250000Y-14725000D03*
%TD*%
D21*
%TO.C,U7*%
X47862500Y-43050000D03*
X47862500Y-44000000D03*
X47862500Y-44950000D03*
X50137500Y-44950000D03*
X50137500Y-43050000D03*
%TD*%
D18*
%TO.C,J3*%
X39625000Y-5700000D03*
X40875000Y-5700000D03*
X42125000Y-5700000D03*
X43375000Y-5700000D03*
X44625000Y-5700000D03*
X45875000Y-5700000D03*
X47125000Y-5700000D03*
X48375000Y-5700000D03*
D19*
X37775000Y-2350000D03*
X50225000Y-2350000D03*
%TD*%
D17*
%TO.C,C31*%
X63475000Y-45750000D03*
X65025000Y-45750000D03*
%TD*%
D11*
%TO.C,R24*%
X23175000Y-41000000D03*
X24825000Y-41000000D03*
%TD*%
%TO.C,R101*%
X70925000Y-8500000D03*
X72575000Y-8500000D03*
%TD*%
D20*
%TO.C,C120*%
X64250000Y-28775000D03*
X64250000Y-27225000D03*
%TD*%
D11*
%TO.C,R134*%
X44925000Y-41250000D03*
X46575000Y-41250000D03*
%TD*%
D10*
%TO.C,R12*%
X37750000Y-29825000D03*
X37750000Y-28175000D03*
%TD*%
D21*
%TO.C,D1*%
X2612500Y-37800000D03*
X2612500Y-38750000D03*
X2612500Y-39700000D03*
X4887500Y-39700000D03*
X4887500Y-38750000D03*
X4887500Y-37800000D03*
%TD*%
D17*
%TO.C,C211*%
X29225000Y-27000000D03*
X30775000Y-27000000D03*
%TD*%
D11*
%TO.C,R54*%
X27675000Y-28750000D03*
X29325000Y-28750000D03*
%TD*%
D10*
%TO.C,R11*%
X36000000Y-29825000D03*
X36000000Y-28175000D03*
%TD*%
%TO.C,R13*%
X39500000Y-27825000D03*
X39500000Y-26175000D03*
%TD*%
D22*
%TO.C,U4*%
X55137500Y-31800000D03*
X55137500Y-32450000D03*
X55137500Y-33100000D03*
X55137500Y-33750000D03*
X55137500Y-34400000D03*
X55137500Y-35050000D03*
X55137500Y-35700000D03*
X60862500Y-35700000D03*
X60862500Y-35050000D03*
X60862500Y-34400000D03*
X60862500Y-33750000D03*
X60862500Y-33100000D03*
X60862500Y-32450000D03*
X60862500Y-31800000D03*
%TD*%
D11*
%TO.C,R30*%
X27175000Y-8250000D03*
X28825000Y-8250000D03*
%TD*%
D23*
%TO.C,SW3*%
X23100000Y-21100000D03*
X29400000Y-21100000D03*
X23100000Y-24900000D03*
X29400000Y-24900000D03*
%TD*%
D17*
%TO.C,C206*%
X57725000Y-24500000D03*
X59275000Y-24500000D03*
%TD*%
D24*
%TO.C,C203*%
X60050000Y-28500000D03*
X61950000Y-28500000D03*
%TD*%
%TO.C,C41*%
X7050000Y-34250000D03*
X8950000Y-34250000D03*
%TD*%
D25*
%TO.C,Q2*%
X16062500Y-39800000D03*
X16062500Y-41700000D03*
X17937500Y-40750000D03*
%TD*%
D11*
%TO.C,R20*%
X7425000Y-38500000D03*
X9075000Y-38500000D03*
%TD*%
D21*
%TO.C,U5*%
X58862500Y-44050000D03*
X58862500Y-45000000D03*
X58862500Y-45950000D03*
X61137500Y-45950000D03*
X61137500Y-44050000D03*
%TD*%
D18*
%TO.C,J4*%
X56625000Y-5700000D03*
X57875000Y-5700000D03*
X59125000Y-5700000D03*
X60375000Y-5700000D03*
X61625000Y-5700000D03*
X62875000Y-5700000D03*
X64125000Y-5700000D03*
X65375000Y-5700000D03*
D19*
X54775000Y-2350000D03*
X67225000Y-2350000D03*
%TD*%
D20*
%TO.C,C100*%
X60750000Y-10525000D03*
X60750000Y-8975000D03*
%TD*%
%TO.C,C130*%
X55500000Y-39025000D03*
X55500000Y-37475000D03*
%TD*%
D11*
%TO.C,R15*%
X19925000Y-39250000D03*
X21575000Y-39250000D03*
%TD*%
D22*
%TO.C,U3*%
X55137500Y-12300000D03*
X55137500Y-12950000D03*
X55137500Y-13600000D03*
X55137500Y-14250000D03*
X55137500Y-14900000D03*
X55137500Y-15550000D03*
X55137500Y-16200000D03*
X60862500Y-16200000D03*
X60862500Y-15550000D03*
X60862500Y-14900000D03*
X60862500Y-14250000D03*
X60862500Y-13600000D03*
X60862500Y-12950000D03*
X60862500Y-12300000D03*
%TD*%
D26*
%TO.C,U8*%
X32025000Y-23350000D03*
X32025000Y-24000000D03*
X32025000Y-24650000D03*
X33975000Y-24650000D03*
X33975000Y-24000000D03*
X33975000Y-23350000D03*
D27*
X33000000Y-24000000D03*
%TD*%
D17*
%TO.C,C3*%
X23475000Y-10250000D03*
X25025000Y-10250000D03*
%TD*%
D20*
%TO.C,C131*%
X52750000Y-44275000D03*
X52750000Y-42725000D03*
%TD*%
D17*
%TO.C,C204*%
X48475000Y-32000000D03*
X50025000Y-32000000D03*
%TD*%
D28*
%TO.C,H1*%
X12500000Y-36250000D03*
%TD*%
D29*
%TO.C,L1*%
X11815000Y-31000000D03*
X14185000Y-31000000D03*
%TD*%
D20*
%TO.C,C121*%
X63000000Y-32025000D03*
X63000000Y-30475000D03*
%TD*%
D17*
%TO.C,C46*%
X51225000Y-46750000D03*
X52775000Y-46750000D03*
%TD*%
%TO.C,C210*%
X31475000Y-21750000D03*
X33025000Y-21750000D03*
%TD*%
D20*
%TO.C,C101*%
X59000000Y-10525000D03*
X59000000Y-8975000D03*
%TD*%
D25*
%TO.C,D10*%
X62812500Y-8550000D03*
X62812500Y-10450000D03*
X64687500Y-9500000D03*
%TD*%
%TO.C,D13*%
X54812500Y-41300000D03*
X54812500Y-43200000D03*
X56687500Y-42250000D03*
%TD*%
D17*
%TO.C,C45*%
X48225000Y-41250000D03*
X49775000Y-41250000D03*
%TD*%
%TO.C,C212*%
X35725000Y-24000000D03*
X37275000Y-24000000D03*
%TD*%
D11*
%TO.C,R121*%
X70175000Y-28500000D03*
X71825000Y-28500000D03*
%TD*%
D17*
%TO.C,C34*%
X47725000Y-36250000D03*
X49275000Y-36250000D03*
%TD*%
%TO.C,C43*%
X3725000Y-31000000D03*
X5275000Y-31000000D03*
%TD*%
D11*
%TO.C,R61*%
X37425000Y-8250000D03*
X39075000Y-8250000D03*
%TD*%
D25*
%TO.C,D11*%
X62812500Y-21050000D03*
X62812500Y-22950000D03*
X64687500Y-22000000D03*
%TD*%
D10*
%TO.C,R130*%
X63250000Y-35325000D03*
X63250000Y-33675000D03*
%TD*%
D24*
%TO.C,C40*%
X7050000Y-27750000D03*
X8950000Y-27750000D03*
%TD*%
D11*
%TO.C,R1*%
X23175000Y-12000000D03*
X24825000Y-12000000D03*
%TD*%
%TO.C,R114*%
X45175000Y-31750000D03*
X46825000Y-31750000D03*
%TD*%
D10*
%TO.C,R14*%
X41750000Y-27825000D03*
X41750000Y-26175000D03*
%TD*%
D11*
%TO.C,R25*%
X34675000Y-21750000D03*
X36325000Y-21750000D03*
%TD*%
%TO.C,R132*%
X52175000Y-39000000D03*
X53825000Y-39000000D03*
%TD*%
D17*
%TO.C,C32*%
X62975000Y-37000000D03*
X64525000Y-37000000D03*
%TD*%
D11*
%TO.C,R112*%
X60925000Y-24750000D03*
X62575000Y-24750000D03*
%TD*%
%TO.C,R131*%
X70175000Y-38500000D03*
X71825000Y-38500000D03*
%TD*%
D17*
%TO.C,C205*%
X57725000Y-26500000D03*
X59275000Y-26500000D03*
%TD*%
D28*
%TO.C,H3*%
X63250000Y-40500000D03*
%TD*%
D11*
%TO.C,R31*%
X30925000Y-9500000D03*
X32575000Y-9500000D03*
%TD*%
D23*
%TO.C,SW4*%
X20350000Y-43100000D03*
X26650000Y-43100000D03*
X20350000Y-46900000D03*
X26650000Y-46900000D03*
%TD*%
D30*
%TO.C,J1*%
X3110000Y-42895000D03*
X8890000Y-42895000D03*
D31*
X2800000Y-41820000D03*
X3600000Y-41820000D03*
D32*
X4750000Y-41820000D03*
X5750000Y-41820000D03*
X6250000Y-41820000D03*
X7250000Y-41820000D03*
D31*
X8400000Y-41820000D03*
X9200000Y-41820000D03*
X9200000Y-41820000D03*
X8400000Y-41820000D03*
D32*
X7750000Y-41820000D03*
X6750000Y-41820000D03*
X5250000Y-41820000D03*
X4250000Y-41820000D03*
D31*
X3600000Y-41820000D03*
X2800000Y-41820000D03*
D33*
X1680000Y-42395000D03*
D34*
X1680000Y-46575000D03*
D33*
X10320000Y-42395000D03*
D34*
X10320000Y-46575000D03*
%TD*%
D24*
%TO.C,C11*%
X40300000Y-29750000D03*
X42200000Y-29750000D03*
%TD*%
D11*
%TO.C,R52*%
X25925000Y-27000000D03*
X27575000Y-27000000D03*
%TD*%
D17*
%TO.C,C201*%
X60975000Y-26500000D03*
X62525000Y-26500000D03*
%TD*%
D35*
%TO.C,SW1*%
X17350000Y-34000000D03*
X24150000Y-34000000D03*
D36*
X18250000Y-31250000D03*
X20750000Y-31250000D03*
X23250000Y-31250000D03*
%TD*%
D11*
%TO.C,R21*%
X12425000Y-41500000D03*
X14075000Y-41500000D03*
%TD*%
D24*
%TO.C,C2*%
X3300000Y-28000000D03*
X5200000Y-28000000D03*
%TD*%
D17*
%TO.C,C10*%
X36225000Y-26500000D03*
X37775000Y-26500000D03*
%TD*%
D23*
%TO.C,SW2*%
X23100000Y-14100000D03*
X29400000Y-14100000D03*
X23100000Y-17900000D03*
X29400000Y-17900000D03*
%TD*%
D24*
%TO.C,C42*%
X7050000Y-36500000D03*
X8950000Y-36500000D03*
%TD*%
D17*
%TO.C,C1*%
X10725000Y-39750000D03*
X12275000Y-39750000D03*
%TD*%
D11*
%TO.C,R60*%
X33675000Y-7750000D03*
X35325000Y-7750000D03*
%TD*%
%TO.C,R23*%
X23175000Y-39250000D03*
X24825000Y-39250000D03*
%TD*%
D10*
%TO.C,R120*%
X65000000Y-32575000D03*
X65000000Y-30925000D03*
%TD*%
D37*
%TO.C,D21*%
X34712500Y-18500000D03*
X36287500Y-18500000D03*
%TD*%
%TO.C,D20*%
X34212500Y-9500000D03*
X35787500Y-9500000D03*
%TD*%
D11*
%TO.C,R3*%
X32425000Y-26250000D03*
X34075000Y-26250000D03*
%TD*%
D20*
%TO.C,C110*%
X63000000Y-16525000D03*
X63000000Y-14975000D03*
%TD*%
D38*
%TO.C,U2*%
X44325000Y-20250000D03*
X44325000Y-20750000D03*
X44325000Y-21250000D03*
X44325000Y-21750000D03*
X44325000Y-22250000D03*
X44325000Y-22750000D03*
X44325000Y-23250000D03*
X44325000Y-23750000D03*
X44325000Y-24250000D03*
X44325000Y-24750000D03*
X44325000Y-25250000D03*
X44325000Y-25750000D03*
X44325000Y-26250000D03*
X44325000Y-26750000D03*
X44325000Y-27250000D03*
X44325000Y-27750000D03*
D39*
X46250000Y-29675000D03*
X46750000Y-29675000D03*
X47250000Y-29675000D03*
X47750000Y-29675000D03*
X48250000Y-29675000D03*
X48750000Y-29675000D03*
X49250000Y-29675000D03*
X49750000Y-29675000D03*
X50250000Y-29675000D03*
X50750000Y-29675000D03*
X51250000Y-29675000D03*
X51750000Y-29675000D03*
X52250000Y-29675000D03*
X52750000Y-29675000D03*
X53250000Y-29675000D03*
X53750000Y-29675000D03*
D38*
X55675000Y-27750000D03*
X55675000Y-27250000D03*
X55675000Y-26750000D03*
X55675000Y-26250000D03*
X55675000Y-25750000D03*
X55675000Y-25250000D03*
X55675000Y-24750000D03*
X55675000Y-24250000D03*
X55675000Y-23750000D03*
X55675000Y-23250000D03*
X55675000Y-22750000D03*
X55675000Y-22250000D03*
X55675000Y-21750000D03*
X55675000Y-21250000D03*
X55675000Y-20750000D03*
X55675000Y-20250000D03*
D39*
X53750000Y-18325000D03*
X53250000Y-18325000D03*
X52750000Y-18325000D03*
X52250000Y-18325000D03*
X51750000Y-18325000D03*
X51250000Y-18325000D03*
X50750000Y-18325000D03*
X50250000Y-18325000D03*
X49750000Y-18325000D03*
X49250000Y-18325000D03*
X48750000Y-18325000D03*
X48250000Y-18325000D03*
X47750000Y-18325000D03*
X47250000Y-18325000D03*
X46750000Y-18325000D03*
X46250000Y-18325000D03*
%TD*%
D11*
%TO.C,R50*%
X3675000Y-34000000D03*
X5325000Y-34000000D03*
%TD*%
D10*
%TO.C,R110*%
X65000000Y-19325000D03*
X65000000Y-17675000D03*
%TD*%
D18*
%TO.C,J5*%
X69000000Y-14950000D03*
X70250000Y-14950000D03*
X71500000Y-14950000D03*
D19*
X67150000Y-11600000D03*
X73350000Y-11600000D03*
%TD*%
D11*
%TO.C,R41*%
X55175000Y-46750000D03*
X56825000Y-46750000D03*
%TD*%
D10*
%TO.C,R100*%
X69250000Y-8575000D03*
X69250000Y-6925000D03*
%TD*%
D11*
%TO.C,R111*%
X70175000Y-18500000D03*
X71825000Y-18500000D03*
%TD*%
%TO.C,R40*%
X55175000Y-45000000D03*
X56825000Y-45000000D03*
%TD*%
%TO.C,R122*%
X65925000Y-27500000D03*
X67575000Y-27500000D03*
%TD*%
%TO.C,R26*%
X37925000Y-22250000D03*
X39575000Y-22250000D03*
%TD*%
D17*
%TO.C,C33*%
X60975000Y-18250000D03*
X62525000Y-18250000D03*
%TD*%
D25*
%TO.C,D12*%
X57562500Y-37550000D03*
X57562500Y-39450000D03*
X59437500Y-38500000D03*
%TD*%
D11*
%TO.C,R2*%
X11175000Y-27500000D03*
X12825000Y-27500000D03*
%TD*%
D18*
%TO.C,J6*%
X69000000Y-24950000D03*
X70250000Y-24950000D03*
X71500000Y-24950000D03*
D19*
X67150000Y-21600000D03*
X73350000Y-21600000D03*
%TD*%
D24*
%TO.C,C207*%
X57800000Y-22500000D03*
X59700000Y-22500000D03*
%TD*%
D20*
%TO.C,C122*%
X45000000Y-39275000D03*
X45000000Y-37725000D03*
%TD*%
D25*
%TO.C,Q1*%
X27062500Y-10050000D03*
X27062500Y-11950000D03*
X28937500Y-11000000D03*
%TD*%
D11*
%TO.C,R51*%
X3675000Y-36000000D03*
X5325000Y-36000000D03*
%TD*%
D20*
%TO.C,C111*%
X58250000Y-29775000D03*
X58250000Y-28225000D03*
%TD*%
D18*
%TO.C,J9*%
X14625000Y-47950000D03*
X15875000Y-47950000D03*
D19*
X12775000Y-44600000D03*
X17725000Y-44600000D03*
%TD*%
D11*
%TO.C,R22*%
X19925000Y-41000000D03*
X21575000Y-41000000D03*
%TD*%
D17*
%TO.C,C30*%
X59225000Y-47750000D03*
X60775000Y-47750000D03*
%TD*%
D11*
%TO.C,R124*%
X44925000Y-34000000D03*
X46575000Y-34000000D03*
%TD*%
D24*
%TO.C,C208*%
X57800000Y-20250000D03*
X59700000Y-20250000D03*
%TD*%
D11*
%TO.C,R33*%
X43925000Y-13000000D03*
X45575000Y-13000000D03*
%TD*%
D18*
%TO.C,J8*%
X69000000Y-44950000D03*
X70250000Y-44950000D03*
X71500000Y-44950000D03*
D19*
X67150000Y-41600000D03*
X73350000Y-41600000D03*
%TD*%
D28*
%TO.C,H2*%
X72000000Y-3000000D03*
%TD*%
D20*
%TO.C,C132*%
X45000000Y-44775000D03*
X45000000Y-43225000D03*
%TD*%
D40*
%TO.C,U1*%
X3250000Y-7740000D03*
X3250000Y-9010000D03*
X3250000Y-10280000D03*
X3250000Y-11550000D03*
X3250000Y-12820000D03*
X3250000Y-14090000D03*
X3250000Y-15360000D03*
X3250000Y-16630000D03*
X3250000Y-17900000D03*
X3250000Y-19170000D03*
X3250000Y-20440000D03*
X3250000Y-21710000D03*
X3250000Y-22980000D03*
X3250000Y-24250000D03*
D41*
X5015000Y-25500000D03*
X6285000Y-25500000D03*
X7555000Y-25500000D03*
X8825000Y-25500000D03*
X10095000Y-25500000D03*
X11365000Y-25500000D03*
X12635000Y-25500000D03*
X13905000Y-25500000D03*
X15175000Y-25500000D03*
X16445000Y-25500000D03*
X17715000Y-25500000D03*
X18985000Y-25500000D03*
D40*
X20750000Y-24250000D03*
X20750000Y-22980000D03*
X20750000Y-21710000D03*
X20750000Y-20440000D03*
X20750000Y-19170000D03*
X20750000Y-17900000D03*
X20750000Y-16630000D03*
X20750000Y-15360000D03*
X20750000Y-14090000D03*
X20750000Y-12820000D03*
X20750000Y-11550000D03*
X20750000Y-10280000D03*
X20750000Y-9010000D03*
X20750000Y-7740000D03*
D42*
X9100000Y-14760000D03*
X9100000Y-16160000D03*
X9800000Y-14060000D03*
X9800000Y-15460000D03*
X9800000Y-16860000D03*
X10500000Y-14760000D03*
D43*
X10500000Y-15460000D03*
D42*
X10500000Y-16160000D03*
X11200000Y-14060000D03*
X11200000Y-15460000D03*
X11200000Y-16860000D03*
X11900000Y-14760000D03*
X11900000Y-16160000D03*
%TD*%
D17*
%TO.C,C12*%
X31475000Y-20000000D03*
X33025000Y-20000000D03*
%TD*%
%TO.C,C202*%
X57725000Y-18250000D03*
X59275000Y-18250000D03*
%TD*%
D44*
%TO.C,U6*%
X6850000Y-30250000D03*
X6850000Y-30750000D03*
X6850000Y-31250000D03*
X6850000Y-31750000D03*
D45*
X7275000Y-32400000D03*
X7775000Y-32400000D03*
D46*
X8275000Y-32400000D03*
X8775000Y-32400000D03*
D47*
X8775000Y-31500000D03*
D48*
X8600000Y-31000000D03*
D47*
X8775000Y-30500000D03*
D46*
X8775000Y-29600000D03*
X8275000Y-29600000D03*
D45*
X7775000Y-29600000D03*
X7275000Y-29600000D03*
%TD*%
D11*
%TO.C,R42*%
X63175000Y-44000000D03*
X64825000Y-44000000D03*
%TD*%
D17*
%TO.C,C200*%
X40725000Y-20250000D03*
X42275000Y-20250000D03*
%TD*%
D20*
%TO.C,C112*%
X42250000Y-23525000D03*
X42250000Y-21975000D03*
%TD*%
D37*
%TO.C,D22*%
X43962500Y-11250000D03*
X45537500Y-11250000D03*
%TD*%
M02*
