%TF.GenerationSoftware,KiCad,Pcbnew,10.0.6*%
%TF.CreationDate,2026-09-27T12:07:22+06:00*%
%TF.ProjectId,afo_revb_main,61666f5f-7265-4766-925f-6d61696e2e6b,rev?*%
%TF.SameCoordinates,Original*%
%TF.FileFunction,Legend,Bot*%
%TF.FilePolarity,Positive*%
%FSLAX46Y46*%
G04 Gerber Fmt 4.6, Leading zero omitted, Abs format (unit mm)*
G04 Created by KiCad (PCBNEW 10.0.6) date 2026-09-27 12:07:22*
%MOMM*%
%LPD*%
G01*
G04 APERTURE LIST*
%ADD10C,0.130000*%
G04 APERTURE END LIST*
D10*
X43628570Y-48152454D02*
X43199999Y-48152454D01*
X43714284Y-48409597D02*
X43414284Y-47509597D01*
X43414284Y-47509597D02*
X43114284Y-48409597D01*
X42514284Y-47938168D02*
X42814284Y-47938168D01*
X42814284Y-48409597D02*
X42814284Y-47509597D01*
X42814284Y-47509597D02*
X42385712Y-47509597D01*
X41871426Y-47509597D02*
X41699998Y-47509597D01*
X41699998Y-47509597D02*
X41614283Y-47552454D01*
X41614283Y-47552454D02*
X41528569Y-47638168D01*
X41528569Y-47638168D02*
X41485712Y-47809597D01*
X41485712Y-47809597D02*
X41485712Y-48109597D01*
X41485712Y-48109597D02*
X41528569Y-48281025D01*
X41528569Y-48281025D02*
X41614283Y-48366740D01*
X41614283Y-48366740D02*
X41699998Y-48409597D01*
X41699998Y-48409597D02*
X41871426Y-48409597D01*
X41871426Y-48409597D02*
X41957141Y-48366740D01*
X41957141Y-48366740D02*
X42042855Y-48281025D01*
X42042855Y-48281025D02*
X42085712Y-48109597D01*
X42085712Y-48109597D02*
X42085712Y-47809597D01*
X42085712Y-47809597D02*
X42042855Y-47638168D01*
X42042855Y-47638168D02*
X41957141Y-47552454D01*
X41957141Y-47552454D02*
X41871426Y-47509597D01*
X39899998Y-48409597D02*
X40199998Y-47981025D01*
X40414284Y-48409597D02*
X40414284Y-47509597D01*
X40414284Y-47509597D02*
X40071427Y-47509597D01*
X40071427Y-47509597D02*
X39985712Y-47552454D01*
X39985712Y-47552454D02*
X39942855Y-47595311D01*
X39942855Y-47595311D02*
X39899998Y-47681025D01*
X39899998Y-47681025D02*
X39899998Y-47809597D01*
X39899998Y-47809597D02*
X39942855Y-47895311D01*
X39942855Y-47895311D02*
X39985712Y-47938168D01*
X39985712Y-47938168D02*
X40071427Y-47981025D01*
X40071427Y-47981025D02*
X40414284Y-47981025D01*
X39171427Y-48366740D02*
X39257141Y-48409597D01*
X39257141Y-48409597D02*
X39428570Y-48409597D01*
X39428570Y-48409597D02*
X39514284Y-48366740D01*
X39514284Y-48366740D02*
X39557141Y-48281025D01*
X39557141Y-48281025D02*
X39557141Y-47938168D01*
X39557141Y-47938168D02*
X39514284Y-47852454D01*
X39514284Y-47852454D02*
X39428570Y-47809597D01*
X39428570Y-47809597D02*
X39257141Y-47809597D01*
X39257141Y-47809597D02*
X39171427Y-47852454D01*
X39171427Y-47852454D02*
X39128570Y-47938168D01*
X39128570Y-47938168D02*
X39128570Y-48023882D01*
X39128570Y-48023882D02*
X39557141Y-48109597D01*
X38828569Y-47809597D02*
X38614283Y-48409597D01*
X38614283Y-48409597D02*
X38399998Y-47809597D01*
X37071427Y-47938168D02*
X36942855Y-47981025D01*
X36942855Y-47981025D02*
X36899998Y-48023882D01*
X36899998Y-48023882D02*
X36857141Y-48109597D01*
X36857141Y-48109597D02*
X36857141Y-48238168D01*
X36857141Y-48238168D02*
X36899998Y-48323882D01*
X36899998Y-48323882D02*
X36942855Y-48366740D01*
X36942855Y-48366740D02*
X37028570Y-48409597D01*
X37028570Y-48409597D02*
X37371427Y-48409597D01*
X37371427Y-48409597D02*
X37371427Y-47509597D01*
X37371427Y-47509597D02*
X37071427Y-47509597D01*
X37071427Y-47509597D02*
X36985713Y-47552454D01*
X36985713Y-47552454D02*
X36942855Y-47595311D01*
X36942855Y-47595311D02*
X36899998Y-47681025D01*
X36899998Y-47681025D02*
X36899998Y-47766740D01*
X36899998Y-47766740D02*
X36942855Y-47852454D01*
X36942855Y-47852454D02*
X36985713Y-47895311D01*
X36985713Y-47895311D02*
X37071427Y-47938168D01*
X37071427Y-47938168D02*
X37371427Y-47938168D01*
X35142856Y-47466740D02*
X35914284Y-48623882D01*
X34157142Y-48409597D02*
X34157142Y-47509597D01*
X34157142Y-47509597D02*
X33857142Y-48152454D01*
X33857142Y-48152454D02*
X33557142Y-47509597D01*
X33557142Y-47509597D02*
X33557142Y-48409597D01*
X33171428Y-48152454D02*
X32742857Y-48152454D01*
X33257142Y-48409597D02*
X32957142Y-47509597D01*
X32957142Y-47509597D02*
X32657142Y-48409597D01*
X32357142Y-48409597D02*
X32357142Y-47509597D01*
X31928571Y-48409597D02*
X31928571Y-47509597D01*
X31928571Y-47509597D02*
X31414285Y-48409597D01*
X31414285Y-48409597D02*
X31414285Y-47509597D01*
M02*
