%TF.GenerationSoftware,KiCad,Pcbnew,10.0.6*%
%TF.CreationDate,2026-09-27T12:07:22+06:00*%
%TF.ProjectId,afo_revb_main,61666f5f-7265-4766-925f-6d61696e2e6b,rev?*%
%TF.SameCoordinates,Original*%
%TF.FileFunction,Copper,L1,Top*%
%TF.FilePolarity,Positive*%
%FSLAX46Y46*%
G04 Gerber Fmt 4.6, Leading zero omitted, Abs format (unit mm)*
G04 Created by KiCad (PCBNEW 10.0.6) date 2026-09-27 12:07:22*
%MOMM*%
%LPD*%
G01*
G04 APERTURE LIST*
G04 Aperture macros list*
%AMRoundRect*
0 Rectangle with rounded corners*
0 $1 Rounding radius*
0 $2 $3 $4 $5 $6 $7 $8 $9 X,Y pos of 4 corners*
0 Add a 4 corners polygon primitive as box body*
4,1,4,$2,$3,$4,$5,$6,$7,$8,$9,$2,$3,0*
0 Add four circle primitives for the rounded corners*
1,1,$1+$1,$2,$3*
1,1,$1+$1,$4,$5*
1,1,$1+$1,$6,$7*
1,1,$1+$1,$8,$9*
0 Add four rect primitives between the rounded corners*
20,1,$1+$1,$2,$3,$4,$5,0*
20,1,$1+$1,$4,$5,$6,$7,0*
20,1,$1+$1,$6,$7,$8,$9,0*
20,1,$1+$1,$8,$9,$2,$3,0*%
G04 Aperture macros list end*
%TA.AperFunction,SMDPad,CuDef*%
%ADD10RoundRect,0.150000X-0.150000X-0.700000X0.150000X-0.700000X0.150000X0.700000X-0.150000X0.700000X0*%
%TD*%
%TA.AperFunction,SMDPad,CuDef*%
%ADD11RoundRect,0.250000X-0.250000X-1.150000X0.250000X-1.150000X0.250000X1.150000X-0.250000X1.150000X0*%
%TD*%
%TA.AperFunction,SMDPad,CuDef*%
%ADD12RoundRect,0.200000X-0.200000X-0.275000X0.200000X-0.275000X0.200000X0.275000X-0.200000X0.275000X0*%
%TD*%
%TA.AperFunction,SMDPad,CuDef*%
%ADD13RoundRect,0.225000X-0.225000X-0.250000X0.225000X-0.250000X0.225000X0.250000X-0.225000X0.250000X0*%
%TD*%
%TA.AperFunction,SMDPad,CuDef*%
%ADD14RoundRect,0.025000X-0.275000X-0.100000X0.275000X-0.100000X0.275000X0.100000X-0.275000X0.100000X0*%
%TD*%
%TA.AperFunction,SMDPad,CuDef*%
%ADD15RoundRect,0.025000X-0.100000X-0.275000X0.100000X-0.275000X0.100000X0.275000X-0.100000X0.275000X0*%
%TD*%
%TA.AperFunction,SMDPad,CuDef*%
%ADD16RoundRect,0.035000X-0.140000X-0.315000X0.140000X-0.315000X0.140000X0.315000X-0.140000X0.315000X0*%
%TD*%
%TA.AperFunction,SMDPad,CuDef*%
%ADD17RoundRect,0.035000X-0.690000X-0.140000X0.690000X-0.140000X0.690000X0.140000X-0.690000X0.140000X0*%
%TD*%
%TA.AperFunction,SMDPad,CuDef*%
%ADD18RoundRect,0.035000X-0.865000X-0.140000X0.865000X-0.140000X0.865000X0.140000X-0.865000X0.140000X0*%
%TD*%
%TA.AperFunction,SMDPad,CuDef*%
%ADD19RoundRect,0.218750X-0.218750X-0.256250X0.218750X-0.256250X0.218750X0.256250X-0.218750X0.256250X0*%
%TD*%
%TA.AperFunction,SMDPad,CuDef*%
%ADD20R,0.700000X1.200000*%
%TD*%
%TA.AperFunction,SMDPad,CuDef*%
%ADD21R,1.000000X0.800000*%
%TD*%
%TA.AperFunction,SMDPad,CuDef*%
%ADD22R,1.000000X1.200000*%
%TD*%
%TA.AperFunction,SMDPad,CuDef*%
%ADD23R,1.000000X2.800000*%
%TD*%
%TA.AperFunction,SMDPad,CuDef*%
%ADD24R,1.300000X1.900000*%
%TD*%
%TA.AperFunction,SMDPad,CuDef*%
%ADD25RoundRect,0.225000X0.250000X-0.225000X0.250000X0.225000X-0.250000X0.225000X-0.250000X-0.225000X0*%
%TD*%
%TA.AperFunction,SMDPad,CuDef*%
%ADD26R,1.700000X1.000000*%
%TD*%
%TA.AperFunction,SMDPad,CuDef*%
%ADD27RoundRect,0.100000X-0.637500X-0.100000X0.637500X-0.100000X0.637500X0.100000X-0.637500X0.100000X0*%
%TD*%
%TA.AperFunction,SMDPad,CuDef*%
%ADD28RoundRect,0.150000X-0.587500X-0.150000X0.587500X-0.150000X0.587500X0.150000X-0.587500X0.150000X0*%
%TD*%
%TA.AperFunction,SMDPad,CuDef*%
%ADD29RoundRect,0.200000X0.275000X-0.200000X0.275000X0.200000X-0.275000X0.200000X-0.275000X-0.200000X0*%
%TD*%
%TA.AperFunction,SMDPad,CuDef*%
%ADD30RoundRect,0.250000X-0.250000X-0.475000X0.250000X-0.475000X0.250000X0.475000X-0.250000X0.475000X0*%
%TD*%
%TA.AperFunction,SMDPad,CuDef*%
%ADD31RoundRect,0.150000X-0.512500X-0.150000X0.512500X-0.150000X0.512500X0.150000X-0.512500X0.150000X0*%
%TD*%
%TA.AperFunction,SMDPad,CuDef*%
%ADD32RoundRect,0.245000X-0.245000X-1.455000X0.245000X-1.455000X0.245000X1.455000X-0.245000X1.455000X0*%
%TD*%
%TA.AperFunction,SMDPad,CuDef*%
%ADD33RoundRect,0.250000X-0.375000X-1.000000X0.375000X-1.000000X0.375000X1.000000X-0.375000X1.000000X0*%
%TD*%
%TA.AperFunction,SMDPad,CuDef*%
%ADD34R,1.500000X0.900000*%
%TD*%
%TA.AperFunction,SMDPad,CuDef*%
%ADD35R,0.900000X1.500000*%
%TD*%
%TA.AperFunction,HeatsinkPad*%
%ADD36C,0.600000*%
%TD*%
%TA.AperFunction,HeatsinkPad*%
%ADD37R,3.900000X3.900000*%
%TD*%
%TA.AperFunction,SMDPad,CuDef*%
%ADD38RoundRect,0.250000X-0.400000X-0.300000X0.400000X-0.300000X0.400000X0.300000X-0.400000X0.300000X0*%
%TD*%
%TA.AperFunction,SMDPad,CuDef*%
%ADD39RoundRect,0.150000X-0.150000X-0.425000X0.150000X-0.425000X0.150000X0.425000X-0.150000X0.425000X0*%
%TD*%
%TA.AperFunction,SMDPad,CuDef*%
%ADD40RoundRect,0.075000X-0.075000X-0.500000X0.075000X-0.500000X0.075000X0.500000X-0.075000X0.500000X0*%
%TD*%
%TA.AperFunction,ComponentPad*%
%ADD41O,1.000000X2.100000*%
%TD*%
%TA.AperFunction,ComponentPad*%
%ADD42O,1.000000X1.800000*%
%TD*%
%TA.AperFunction,ViaPad*%
%ADD43C,0.600000*%
%TD*%
%TA.AperFunction,Conductor*%
%ADD44C,0.200000*%
%TD*%
%TA.AperFunction,Conductor*%
%ADD45C,0.150000*%
%TD*%
%TA.AperFunction,Conductor*%
%ADD46C,0.300000*%
%TD*%
%TA.AperFunction,Conductor*%
%ADD47C,0.450000*%
%TD*%
%TA.AperFunction,Conductor*%
%ADD48C,0.350000*%
%TD*%
G04 APERTURE END LIST*
D10*
%TO.P,J5,1*%
%TO.N,3V0A*%
X69000000Y-14950000D03*
%TO.P,J5,2*%
%TO.N,GND*%
X70250000Y-14950000D03*
%TO.P,J5,3*%
%TO.N,RAW0*%
X71500000Y-14950000D03*
D11*
%TO.P,J5,MP*%
%TO.N,N/C*%
X67150000Y-11600000D03*
X73350000Y-11600000D03*
%TD*%
D12*
%TO.P,R41,1*%
%TO.N,VMID_DIV*%
X55175000Y-46000000D03*
%TO.P,R41,2*%
%TO.N,GND*%
X56825000Y-46000000D03*
%TD*%
D13*
%TO.P,C43,1*%
%TO.N,VAUX*%
X3725000Y-31000000D03*
%TO.P,C43,2*%
%TO.N,GND*%
X5275000Y-31000000D03*
%TD*%
%TO.P,C30,1*%
%TO.N,VMID_DIV*%
X59225000Y-47750000D03*
%TO.P,C30,2*%
%TO.N,GND*%
X60775000Y-47750000D03*
%TD*%
D14*
%TO.P,U6,1*%
%TO.N,GND*%
X6850000Y-30250000D03*
%TO.P,U6,2*%
%TO.N,POWER_GOOD*%
X6850000Y-30750000D03*
%TO.P,U6,3*%
%TO.N,VAUX*%
X6850000Y-31250000D03*
%TO.P,U6,4*%
%TO.N,GND*%
X6850000Y-31750000D03*
D15*
%TO.P,U6,5*%
%TO.N,FB*%
X7275000Y-32400000D03*
%TO.P,U6,6*%
%TO.N,GND*%
X7775000Y-32400000D03*
D16*
%TO.P,U6,7*%
%TO.N,3V3D*%
X8275000Y-32400000D03*
%TO.P,U6,8*%
X8775000Y-32400000D03*
D17*
%TO.P,U6,9*%
%TO.N,SW_L2*%
X8775000Y-31500000D03*
D18*
%TO.P,U6,10*%
%TO.N,GND*%
X8600000Y-31000000D03*
D17*
%TO.P,U6,11*%
%TO.N,SW_L1*%
X8775000Y-30500000D03*
D16*
%TO.P,U6,12*%
%TO.N,VBAT*%
X8775000Y-29600000D03*
%TO.P,U6,13*%
X8275000Y-29600000D03*
D15*
%TO.P,U6,14*%
%TO.N,POWER_EN*%
X7775000Y-29600000D03*
%TO.P,U6,15*%
%TO.N,GND*%
X7275000Y-29600000D03*
%TD*%
D19*
%TO.P,D22,1*%
%TO.N,GND*%
X43962500Y-11250000D03*
%TO.P,D22,2*%
%TO.N,LED_LOW_A*%
X45537500Y-11250000D03*
%TD*%
D20*
%TO.P,J2,1*%
%TO.N,SD_D2*%
X38775000Y-32275000D03*
%TO.P,J2,2*%
%TO.N,SD_D3*%
X37675000Y-32275000D03*
%TO.P,J2,3*%
%TO.N,SD_CMD*%
X36575000Y-32275000D03*
%TO.P,J2,4*%
%TO.N,3V3D*%
X35475000Y-32275000D03*
%TO.P,J2,5*%
%TO.N,SD_CLK*%
X34375000Y-32275000D03*
%TO.P,J2,6*%
%TO.N,GND*%
X33275000Y-32275000D03*
%TO.P,J2,7*%
%TO.N,SD_D0*%
X32175000Y-32275000D03*
%TO.P,J2,8*%
%TO.N,SD_D1*%
X31075000Y-32275000D03*
%TO.P,J2,9*%
%TO.N,N/C*%
X30125000Y-32275000D03*
D21*
%TO.P,J2,10*%
X29175000Y-42775000D03*
D22*
%TO.P,J2,SH*%
%TO.N,GND*%
X29175000Y-36575000D03*
D23*
X29175000Y-46925000D03*
D22*
X40325000Y-32275000D03*
D24*
X42675000Y-47375000D03*
%TD*%
D12*
%TO.P,R124,1*%
%TO.N,BUF2B*%
X44925000Y-34000000D03*
%TO.P,R124,2*%
%TO.N,AIN2P*%
X46575000Y-34000000D03*
%TD*%
D25*
%TO.P,C112,1*%
%TO.N,AIN1P*%
X42000000Y-22775000D03*
%TO.P,C112,2*%
%TO.N,AIN1N*%
X42000000Y-21225000D03*
%TD*%
D12*
%TO.P,R23,1*%
%TO.N,USB_DM*%
X13925000Y-27500000D03*
%TO.P,R23,2*%
%TO.N,USB_DM_MCU*%
X15575000Y-27500000D03*
%TD*%
%TO.P,R122,1*%
%TO.N,BUF2A*%
X54175000Y-29250000D03*
%TO.P,R122,2*%
%TO.N,RC2B*%
X55825000Y-29250000D03*
%TD*%
%TO.P,R115,1*%
%TO.N,VMID*%
X45675000Y-30250000D03*
%TO.P,R115,2*%
%TO.N,AIN1N*%
X47325000Y-30250000D03*
%TD*%
D26*
%TO.P,SW4,1*%
%TO.N,BUTTON*%
X20350000Y-43100000D03*
X26650000Y-43100000D03*
%TO.P,SW4,2*%
%TO.N,GND*%
X20350000Y-46900000D03*
X26650000Y-46900000D03*
%TD*%
D27*
%TO.P,U2,1*%
%TO.N,3V0A*%
X44137500Y-21075000D03*
%TO.P,U2,2*%
%TO.N,GND*%
X44137500Y-21725000D03*
%TO.P,U2,3*%
%TO.N,AIN0P*%
X44137500Y-22375000D03*
%TO.P,U2,4*%
%TO.N,AIN0N*%
X44137500Y-23025000D03*
%TO.P,U2,5*%
%TO.N,AIN1N*%
X44137500Y-23675000D03*
%TO.P,U2,6*%
%TO.N,AIN1P*%
X44137500Y-24325000D03*
%TO.P,U2,7*%
%TO.N,AIN2P*%
X44137500Y-24975000D03*
%TO.P,U2,8*%
%TO.N,AIN2N*%
X44137500Y-25625000D03*
%TO.P,U2,9*%
%TO.N,AIN3N*%
X44137500Y-26275000D03*
%TO.P,U2,10*%
%TO.N,AIN3P*%
X44137500Y-26925000D03*
%TO.P,U2,11*%
%TO.N,ADC_RESET*%
X49862500Y-26925000D03*
%TO.P,U2,12*%
%TO.N,ADC_CS*%
X49862500Y-26275000D03*
%TO.P,U2,13*%
%TO.N,ADC_DRDY*%
X49862500Y-25625000D03*
%TO.P,U2,14*%
%TO.N,ADC_SCK*%
X49862500Y-24975000D03*
%TO.P,U2,15*%
%TO.N,ADC_MISO*%
X49862500Y-24325000D03*
%TO.P,U2,16*%
%TO.N,ADC_MOSI*%
X49862500Y-23675000D03*
%TO.P,U2,17*%
%TO.N,ADC_CLK*%
X49862500Y-23025000D03*
%TO.P,U2,18*%
%TO.N,ADC_CAP*%
X49862500Y-22375000D03*
%TO.P,U2,19*%
%TO.N,GND*%
X49862500Y-21725000D03*
%TO.P,U2,20*%
%TO.N,3V3D*%
X49862500Y-21075000D03*
%TD*%
D12*
%TO.P,R21,1*%
%TO.N,USB_CC2*%
X12425000Y-41500000D03*
%TO.P,R21,2*%
%TO.N,GND*%
X14075000Y-41500000D03*
%TD*%
D13*
%TO.P,C1,1*%
%TO.N,3V3D*%
X10725000Y-39750000D03*
%TO.P,C1,2*%
%TO.N,GND*%
X12275000Y-39750000D03*
%TD*%
D28*
%TO.P,D12,1*%
%TO.N,GND*%
X62812500Y-27300000D03*
%TO.P,D12,2*%
%TO.N,3V0A*%
X62812500Y-29200000D03*
%TO.P,D12,3*%
%TO.N,RC2A*%
X64687500Y-28250000D03*
%TD*%
D13*
%TO.P,C21,1*%
%TO.N,3V3D*%
X51475000Y-18000000D03*
%TO.P,C21,2*%
%TO.N,GND*%
X53025000Y-18000000D03*
%TD*%
D12*
%TO.P,R60,1*%
%TO.N,LED_REC*%
X29175000Y-7750000D03*
%TO.P,R60,2*%
%TO.N,LED_REC_A*%
X30825000Y-7750000D03*
%TD*%
%TO.P,R121,1*%
%TO.N,RAW2*%
X70175000Y-28500000D03*
%TO.P,R121,2*%
%TO.N,VMID*%
X71825000Y-28500000D03*
%TD*%
%TO.P,R32,1*%
%TO.N,OSC_OUT*%
X50175000Y-15000000D03*
%TO.P,R32,2*%
%TO.N,ADC_CLK*%
X51825000Y-15000000D03*
%TD*%
D10*
%TO.P,J4,1*%
%TO.N,3V3D*%
X56625000Y-5700000D03*
%TO.P,J4,2*%
%TO.N,GND*%
X57875000Y-5700000D03*
%TO.P,J4,3*%
%TO.N,IMU_SCL*%
X59125000Y-5700000D03*
%TO.P,J4,4*%
%TO.N,IMU_SDA*%
X60375000Y-5700000D03*
%TO.P,J4,5*%
%TO.N,IMU_RESERVED*%
X61625000Y-5700000D03*
%TO.P,J4,6*%
%TO.N,SHANK_AD0*%
X62875000Y-5700000D03*
%TO.P,J4,7*%
%TO.N,SHANK_INT*%
X64125000Y-5700000D03*
%TO.P,J4,8*%
%TO.N,GND*%
X65375000Y-5700000D03*
D11*
%TO.P,J4,MP*%
%TO.N,N/C*%
X54775000Y-2350000D03*
X67225000Y-2350000D03*
%TD*%
D12*
%TO.P,R125,1*%
%TO.N,VMID*%
X44925000Y-36000000D03*
%TO.P,R125,2*%
%TO.N,AIN2N*%
X46575000Y-36000000D03*
%TD*%
%TO.P,R25,1*%
%TO.N,USB_GATE*%
X23175000Y-39250000D03*
%TO.P,R25,2*%
%TO.N,GND*%
X24825000Y-39250000D03*
%TD*%
%TO.P,R135,1*%
%TO.N,VMID*%
X44925000Y-46750000D03*
%TO.P,R135,2*%
%TO.N,AIN3N*%
X46575000Y-46750000D03*
%TD*%
D13*
%TO.P,C32,1*%
%TO.N,3V0A*%
X59225000Y-37000000D03*
%TO.P,C32,2*%
%TO.N,GND*%
X60775000Y-37000000D03*
%TD*%
%TO.P,C34,1*%
%TO.N,3V0A*%
X51475000Y-32000000D03*
%TO.P,C34,2*%
%TO.N,GND*%
X53025000Y-32000000D03*
%TD*%
D12*
%TO.P,R34,1*%
%TO.N,3V3D*%
X39175000Y-9500000D03*
%TO.P,R34,2*%
%TO.N,ADC_RESET*%
X40825000Y-9500000D03*
%TD*%
D13*
%TO.P,C44,1*%
%TO.N,BAT_SENSE*%
X31475000Y-21750000D03*
%TO.P,C44,2*%
%TO.N,GND*%
X33025000Y-21750000D03*
%TD*%
D12*
%TO.P,R131,1*%
%TO.N,RAW3*%
X70175000Y-38500000D03*
%TO.P,R131,2*%
%TO.N,VMID*%
X71825000Y-38500000D03*
%TD*%
%TO.P,R105,1*%
%TO.N,VMID*%
X43425000Y-18500000D03*
%TO.P,R105,2*%
%TO.N,AIN0N*%
X45075000Y-18500000D03*
%TD*%
%TO.P,R112,1*%
%TO.N,BUF1A*%
X55425000Y-21500000D03*
%TO.P,R112,2*%
%TO.N,RC1B*%
X57075000Y-21500000D03*
%TD*%
D29*
%TO.P,R110,1*%
%TO.N,RAW1*%
X65000000Y-19325000D03*
%TO.P,R110,2*%
%TO.N,RC1A*%
X65000000Y-17675000D03*
%TD*%
D12*
%TO.P,R104,1*%
%TO.N,BUF0B*%
X43925000Y-16000000D03*
%TO.P,R104,2*%
%TO.N,AIN0P*%
X45575000Y-16000000D03*
%TD*%
D30*
%TO.P,C11,1*%
%TO.N,3V3D*%
X42050000Y-29750000D03*
%TO.P,C11,2*%
%TO.N,GND*%
X43950000Y-29750000D03*
%TD*%
D25*
%TO.P,C100,1*%
%TO.N,RC0A*%
X60750000Y-10775000D03*
%TO.P,C100,2*%
%TO.N,GND*%
X60750000Y-9225000D03*
%TD*%
D12*
%TO.P,R42,1*%
%TO.N,VMID_BUF*%
X63175000Y-44000000D03*
%TO.P,R42,2*%
%TO.N,VMID*%
X64825000Y-44000000D03*
%TD*%
D25*
%TO.P,C102,1*%
%TO.N,AIN0P*%
X46750000Y-19275000D03*
%TO.P,C102,2*%
%TO.N,AIN0N*%
X46750000Y-17725000D03*
%TD*%
D10*
%TO.P,J7,1*%
%TO.N,3V0A*%
X69000000Y-34950000D03*
%TO.P,J7,2*%
%TO.N,GND*%
X70250000Y-34950000D03*
%TO.P,J7,3*%
%TO.N,RAW2*%
X71500000Y-34950000D03*
D11*
%TO.P,J7,MP*%
%TO.N,N/C*%
X67150000Y-31600000D03*
X73350000Y-31600000D03*
%TD*%
D26*
%TO.P,SW2,1*%
%TO.N,BOOT*%
X23100000Y-14100000D03*
X29400000Y-14100000D03*
%TO.P,SW2,2*%
%TO.N,GND*%
X23100000Y-17900000D03*
X29400000Y-17900000D03*
%TD*%
D12*
%TO.P,R111,1*%
%TO.N,RAW1*%
X70175000Y-18500000D03*
%TO.P,R111,2*%
%TO.N,VMID*%
X71825000Y-18500000D03*
%TD*%
D19*
%TO.P,D20,1*%
%TO.N,GND*%
X33712500Y-9500000D03*
%TO.P,D20,2*%
%TO.N,LED_REC_A*%
X35287500Y-9500000D03*
%TD*%
D12*
%TO.P,R15,1*%
%TO.N,SD_CLK_MCU*%
X19925000Y-28500000D03*
%TO.P,R15,2*%
%TO.N,SD_CLK*%
X21575000Y-28500000D03*
%TD*%
D29*
%TO.P,R11,1*%
%TO.N,3V3D*%
X36000000Y-29825000D03*
%TO.P,R11,2*%
%TO.N,SD_D0*%
X36000000Y-28175000D03*
%TD*%
D12*
%TO.P,R113,1*%
%TO.N,VMID*%
X54175000Y-23250000D03*
%TO.P,R113,2*%
%TO.N,RC1B*%
X55825000Y-23250000D03*
%TD*%
%TO.P,R62,1*%
%TO.N,LED_LOW*%
X42425000Y-9500000D03*
%TO.P,R62,2*%
%TO.N,LED_LOW_A*%
X44075000Y-9500000D03*
%TD*%
%TO.P,R22,1*%
%TO.N,USB_DP*%
X19925000Y-41000000D03*
%TO.P,R22,2*%
%TO.N,USB_DP_MCU*%
X21575000Y-41000000D03*
%TD*%
%TO.P,R2,1*%
%TO.N,3V3D*%
X23175000Y-27000000D03*
%TO.P,R2,2*%
%TO.N,BOOT*%
X24825000Y-27000000D03*
%TD*%
D10*
%TO.P,J8,1*%
%TO.N,3V0A*%
X69000000Y-44950000D03*
%TO.P,J8,2*%
%TO.N,GND*%
X70250000Y-44950000D03*
%TO.P,J8,3*%
%TO.N,RAW3*%
X71500000Y-44950000D03*
D11*
%TO.P,J8,MP*%
%TO.N,N/C*%
X67150000Y-41600000D03*
X73350000Y-41600000D03*
%TD*%
D13*
%TO.P,C3,1*%
%TO.N,EN*%
X26475000Y-12000000D03*
%TO.P,C3,2*%
%TO.N,GND*%
X28025000Y-12000000D03*
%TD*%
D12*
%TO.P,R133,1*%
%TO.N,VMID*%
X53925000Y-41000000D03*
%TO.P,R133,2*%
%TO.N,RC3B*%
X55575000Y-41000000D03*
%TD*%
D10*
%TO.P,J9,1*%
%TO.N,PACK_PLUS*%
X14625000Y-47950000D03*
%TO.P,J9,2*%
%TO.N,GND*%
X15875000Y-47950000D03*
D11*
%TO.P,J9,MP*%
%TO.N,N/C*%
X12775000Y-44600000D03*
X17725000Y-44600000D03*
%TD*%
D12*
%TO.P,R52,1*%
%TO.N,3V3D*%
X31425000Y-25250000D03*
%TO.P,R52,2*%
%TO.N,POWER_GOOD*%
X33075000Y-25250000D03*
%TD*%
D25*
%TO.P,C122,1*%
%TO.N,AIN2P*%
X45000000Y-39275000D03*
%TO.P,C122,2*%
%TO.N,AIN2N*%
X45000000Y-37725000D03*
%TD*%
D12*
%TO.P,R1,1*%
%TO.N,3V3D*%
X23175000Y-12000000D03*
%TO.P,R1,2*%
%TO.N,EN*%
X24825000Y-12000000D03*
%TD*%
%TO.P,R50,1*%
%TO.N,3V3D*%
X3675000Y-34000000D03*
%TO.P,R50,2*%
%TO.N,FB*%
X5325000Y-34000000D03*
%TD*%
D29*
%TO.P,R14,1*%
%TO.N,3V3D*%
X41750000Y-27825000D03*
%TO.P,R14,2*%
%TO.N,SD_D3*%
X41750000Y-26175000D03*
%TD*%
D30*
%TO.P,C40,1*%
%TO.N,VBAT*%
X7050000Y-27750000D03*
%TO.P,C40,2*%
%TO.N,GND*%
X8950000Y-27750000D03*
%TD*%
D12*
%TO.P,R20,1*%
%TO.N,USB_CC1*%
X7425000Y-38500000D03*
%TO.P,R20,2*%
%TO.N,GND*%
X9075000Y-38500000D03*
%TD*%
D30*
%TO.P,C42,1*%
%TO.N,3V3D*%
X7050000Y-36500000D03*
%TO.P,C42,2*%
%TO.N,GND*%
X8950000Y-36500000D03*
%TD*%
D12*
%TO.P,R51,1*%
%TO.N,FB*%
X3675000Y-36000000D03*
%TO.P,R51,2*%
%TO.N,GND*%
X5325000Y-36000000D03*
%TD*%
%TO.P,R103,1*%
%TO.N,VMID*%
X57425000Y-12250000D03*
%TO.P,R103,2*%
%TO.N,RC0B*%
X59075000Y-12250000D03*
%TD*%
D29*
%TO.P,R12,1*%
%TO.N,3V3D*%
X37750000Y-29825000D03*
%TO.P,R12,2*%
%TO.N,SD_D1*%
X37750000Y-28175000D03*
%TD*%
%TO.P,R10,1*%
%TO.N,3V3D*%
X34250000Y-29825000D03*
%TO.P,R10,2*%
%TO.N,SD_CMD*%
X34250000Y-28175000D03*
%TD*%
D13*
%TO.P,C20,1*%
%TO.N,3V0A*%
X40225000Y-18500000D03*
%TO.P,C20,2*%
%TO.N,GND*%
X41775000Y-18500000D03*
%TD*%
D28*
%TO.P,D13,1*%
%TO.N,GND*%
X57562500Y-39050000D03*
%TO.P,D13,2*%
%TO.N,3V0A*%
X57562500Y-40950000D03*
%TO.P,D13,3*%
%TO.N,RC3A*%
X59437500Y-40000000D03*
%TD*%
D12*
%TO.P,R134,1*%
%TO.N,BUF3B*%
X44925000Y-41250000D03*
%TO.P,R134,2*%
%TO.N,AIN3P*%
X46575000Y-41250000D03*
%TD*%
D28*
%TO.P,D11,1*%
%TO.N,GND*%
X62812500Y-21050000D03*
%TO.P,D11,2*%
%TO.N,3V0A*%
X62812500Y-22950000D03*
%TO.P,D11,3*%
%TO.N,RC1A*%
X64687500Y-22000000D03*
%TD*%
D12*
%TO.P,R31,1*%
%TO.N,3V3D*%
X30425000Y-9500000D03*
%TO.P,R31,2*%
%TO.N,SHANK_AD0*%
X32075000Y-9500000D03*
%TD*%
D13*
%TO.P,C12,1*%
%TO.N,USB_GATE*%
X30975000Y-30000000D03*
%TO.P,C12,2*%
%TO.N,GND*%
X32525000Y-30000000D03*
%TD*%
D12*
%TO.P,R132,1*%
%TO.N,BUF3A*%
X53925000Y-39000000D03*
%TO.P,R132,2*%
%TO.N,RC3B*%
X55575000Y-39000000D03*
%TD*%
D13*
%TO.P,C33,1*%
%TO.N,3V0A*%
X55475000Y-19750000D03*
%TO.P,C33,2*%
%TO.N,GND*%
X57025000Y-19750000D03*
%TD*%
D31*
%TO.P,U7,1*%
%TO.N,3V3D*%
X47862500Y-43050000D03*
%TO.P,U7,2*%
%TO.N,GND*%
X47862500Y-44000000D03*
%TO.P,U7,3*%
%TO.N,3V3D*%
X47862500Y-44950000D03*
%TO.P,U7,4*%
%TO.N,N/C*%
X50137500Y-44950000D03*
%TO.P,U7,5*%
%TO.N,3V0A*%
X50137500Y-43050000D03*
%TD*%
D32*
%TO.P,L1,1*%
%TO.N,SW_L1*%
X11815000Y-31000000D03*
%TO.P,L1,2*%
%TO.N,SW_L2*%
X14185000Y-31000000D03*
%TD*%
D12*
%TO.P,R33,1*%
%TO.N,3V3D*%
X43925000Y-13000000D03*
%TO.P,R33,2*%
%TO.N,ADC_CS*%
X45575000Y-13000000D03*
%TD*%
D29*
%TO.P,R100,1*%
%TO.N,RAW0*%
X69250000Y-8575000D03*
%TO.P,R100,2*%
%TO.N,RC0A*%
X69250000Y-6925000D03*
%TD*%
D13*
%TO.P,C22,1*%
%TO.N,ADC_CAP*%
X52225000Y-21000000D03*
%TO.P,C22,2*%
%TO.N,GND*%
X53775000Y-21000000D03*
%TD*%
D10*
%TO.P,J3,1*%
%TO.N,3V3D*%
X39625000Y-5700000D03*
%TO.P,J3,2*%
%TO.N,GND*%
X40875000Y-5700000D03*
%TO.P,J3,3*%
%TO.N,IMU_SCL*%
X42125000Y-5700000D03*
%TO.P,J3,4*%
%TO.N,IMU_SDA*%
X43375000Y-5700000D03*
%TO.P,J3,5*%
%TO.N,IMU_RESERVED*%
X44625000Y-5700000D03*
%TO.P,J3,6*%
%TO.N,FOOT_AD0*%
X45875000Y-5700000D03*
%TO.P,J3,7*%
%TO.N,FOOT_INT*%
X47125000Y-5700000D03*
%TO.P,J3,8*%
%TO.N,GND*%
X48375000Y-5700000D03*
D11*
%TO.P,J3,MP*%
%TO.N,N/C*%
X37775000Y-2350000D03*
X50225000Y-2350000D03*
%TD*%
D25*
%TO.P,C111,1*%
%TO.N,RC1B*%
X59000000Y-22775000D03*
%TO.P,C111,2*%
%TO.N,GND*%
X59000000Y-21225000D03*
%TD*%
D12*
%TO.P,R101,1*%
%TO.N,RAW0*%
X70925000Y-8500000D03*
%TO.P,R101,2*%
%TO.N,VMID*%
X72575000Y-8500000D03*
%TD*%
D30*
%TO.P,C2,1*%
%TO.N,3V3D*%
X3300000Y-28000000D03*
%TO.P,C2,2*%
%TO.N,GND*%
X5200000Y-28000000D03*
%TD*%
D12*
%TO.P,R30,1*%
%TO.N,3V3D*%
X27175000Y-10000000D03*
%TO.P,R30,2*%
%TO.N,FOOT_AD0*%
X28825000Y-10000000D03*
%TD*%
D25*
%TO.P,C121,1*%
%TO.N,RC2B*%
X59000000Y-29275000D03*
%TO.P,C121,2*%
%TO.N,GND*%
X59000000Y-27725000D03*
%TD*%
D12*
%TO.P,R114,1*%
%TO.N,BUF1B*%
X45675000Y-28500000D03*
%TO.P,R114,2*%
%TO.N,AIN1P*%
X47325000Y-28500000D03*
%TD*%
%TO.P,R24,1*%
%TO.N,USB_VBUS*%
X19925000Y-39250000D03*
%TO.P,R24,2*%
%TO.N,USB_GATE*%
X21575000Y-39250000D03*
%TD*%
D27*
%TO.P,U4,1*%
%TO.N,BUF0B*%
X55137500Y-31050000D03*
%TO.P,U4,2*%
X55137500Y-31700000D03*
%TO.P,U4,3*%
%TO.N,RC0B*%
X55137500Y-32350000D03*
%TO.P,U4,4*%
%TO.N,3V0A*%
X55137500Y-33000000D03*
%TO.P,U4,5*%
%TO.N,RC1B*%
X55137500Y-33650000D03*
%TO.P,U4,6*%
%TO.N,BUF1B*%
X55137500Y-34300000D03*
%TO.P,U4,7*%
X55137500Y-34950000D03*
%TO.P,U4,8*%
%TO.N,BUF2B*%
X60862500Y-34950000D03*
%TO.P,U4,9*%
X60862500Y-34300000D03*
%TO.P,U4,10*%
%TO.N,RC2B*%
X60862500Y-33650000D03*
%TO.P,U4,11*%
%TO.N,GND*%
X60862500Y-33000000D03*
%TO.P,U4,12*%
%TO.N,RC3B*%
X60862500Y-32350000D03*
%TO.P,U4,13*%
%TO.N,BUF3B*%
X60862500Y-31700000D03*
%TO.P,U4,14*%
X60862500Y-31050000D03*
%TD*%
D12*
%TO.P,R61,1*%
%TO.N,LED_ERR*%
X34175000Y-7750000D03*
%TO.P,R61,2*%
%TO.N,LED_ERR_A*%
X35825000Y-7750000D03*
%TD*%
D13*
%TO.P,C23,1*%
%TO.N,3V3D*%
X54225000Y-12000000D03*
%TO.P,C23,2*%
%TO.N,GND*%
X55775000Y-12000000D03*
%TD*%
%TO.P,C10,1*%
%TO.N,3V3D*%
X38225000Y-26500000D03*
%TO.P,C10,2*%
%TO.N,GND*%
X39775000Y-26500000D03*
%TD*%
D12*
%TO.P,R102,1*%
%TO.N,BUF0A*%
X54175000Y-10250000D03*
%TO.P,R102,2*%
%TO.N,RC0B*%
X55825000Y-10250000D03*
%TD*%
D13*
%TO.P,C31,1*%
%TO.N,VMID*%
X63475000Y-45750000D03*
%TO.P,C31,2*%
%TO.N,GND*%
X65025000Y-45750000D03*
%TD*%
%TO.P,C45,1*%
%TO.N,3V3D*%
X48225000Y-41250000D03*
%TO.P,C45,2*%
%TO.N,GND*%
X49775000Y-41250000D03*
%TD*%
D29*
%TO.P,R13,1*%
%TO.N,3V3D*%
X39500000Y-29825000D03*
%TO.P,R13,2*%
%TO.N,SD_D2*%
X39500000Y-28175000D03*
%TD*%
D28*
%TO.P,Q1,1*%
%TO.N,GND*%
X27062500Y-28050000D03*
%TO.P,Q1,2*%
%TO.N,VBAT*%
X27062500Y-29950000D03*
%TO.P,Q1,3*%
%TO.N,PACK_PLUS*%
X28937500Y-29000000D03*
%TD*%
D25*
%TO.P,C101,1*%
%TO.N,RC0B*%
X59000000Y-10525000D03*
%TO.P,C101,2*%
%TO.N,GND*%
X59000000Y-8975000D03*
%TD*%
%TO.P,C132,1*%
%TO.N,AIN3P*%
X45000000Y-44775000D03*
%TO.P,C132,2*%
%TO.N,AIN3N*%
X45000000Y-43225000D03*
%TD*%
D33*
%TO.P,SW1,1*%
%TO.N,VBAT*%
X18250000Y-31250000D03*
%TO.P,SW1,2*%
%TO.N,POWER_EN*%
X20750000Y-31250000D03*
%TO.P,SW1,3*%
%TO.N,GND*%
X23250000Y-31250000D03*
%TD*%
D12*
%TO.P,R54,1*%
%TO.N,BAT_SENSE*%
X31425000Y-23500000D03*
%TO.P,R54,2*%
%TO.N,GND*%
X33075000Y-23500000D03*
%TD*%
D34*
%TO.P,U1,1*%
%TO.N,GND*%
X3250000Y-7740000D03*
%TO.P,U1,2*%
%TO.N,3V3D*%
X3250000Y-9010000D03*
%TO.P,U1,3*%
%TO.N,EN*%
X3250000Y-10280000D03*
%TO.P,U1,4*%
%TO.N,IMU_SDA*%
X3250000Y-11550000D03*
%TO.P,U1,5*%
%TO.N,IMU_RESERVED*%
X3250000Y-12820000D03*
%TO.P,U1,6*%
%TO.N,IMU_SCL*%
X3250000Y-14090000D03*
%TO.P,U1,7*%
%TO.N,FOOT_AD0*%
X3250000Y-15360000D03*
%TO.P,U1,8*%
%TO.N,SHANK_AD0*%
X3250000Y-16630000D03*
%TO.P,U1,9*%
%TO.N,FOOT_INT*%
X3250000Y-17900000D03*
%TO.P,U1,10*%
%TO.N,SHANK_INT*%
X3250000Y-19170000D03*
%TO.P,U1,11*%
%TO.N,BUTTON*%
X3250000Y-20440000D03*
%TO.P,U1,12*%
%TO.N,ADC_DRDY*%
X3250000Y-21710000D03*
%TO.P,U1,13*%
%TO.N,USB_DM_MCU*%
X3250000Y-22980000D03*
%TO.P,U1,14*%
%TO.N,USB_DP_MCU*%
X3250000Y-24250000D03*
D35*
%TO.P,U1,15*%
%TO.N,N/C*%
X5015000Y-25500000D03*
%TO.P,U1,16*%
X6285000Y-25500000D03*
%TO.P,U1,17*%
%TO.N,ADC_RESET*%
X7555000Y-25500000D03*
%TO.P,U1,18*%
%TO.N,ADC_CS*%
X8825000Y-25500000D03*
%TO.P,U1,19*%
%TO.N,ADC_MOSI*%
X10095000Y-25500000D03*
%TO.P,U1,20*%
%TO.N,ADC_SCK*%
X11365000Y-25500000D03*
%TO.P,U1,21*%
%TO.N,ADC_MISO*%
X12635000Y-25500000D03*
%TO.P,U1,22*%
%TO.N,N/C*%
X13905000Y-25500000D03*
%TO.P,U1,23*%
%TO.N,USB_PRESENT_N*%
X15175000Y-25500000D03*
%TO.P,U1,24*%
%TO.N,EXP_SDA*%
X16445000Y-25500000D03*
%TO.P,U1,25*%
%TO.N,EXP_SCL*%
X17715000Y-25500000D03*
%TO.P,U1,26*%
%TO.N,N/C*%
X18985000Y-25500000D03*
D34*
%TO.P,U1,27*%
%TO.N,BOOT*%
X20750000Y-24250000D03*
%TO.P,U1,28*%
%TO.N,N/C*%
X20750000Y-22980000D03*
%TO.P,U1,29*%
X20750000Y-21710000D03*
%TO.P,U1,30*%
X20750000Y-20440000D03*
%TO.P,U1,31*%
%TO.N,SD_CMD*%
X20750000Y-19170000D03*
%TO.P,U1,32*%
%TO.N,SD_CLK_MCU*%
X20750000Y-17900000D03*
%TO.P,U1,33*%
%TO.N,SD_D0*%
X20750000Y-16630000D03*
%TO.P,U1,34*%
%TO.N,LED_REC*%
X20750000Y-15360000D03*
%TO.P,U1,35*%
%TO.N,LED_ERR*%
X20750000Y-14090000D03*
%TO.P,U1,36*%
%TO.N,UART_RX*%
X20750000Y-12820000D03*
%TO.P,U1,37*%
%TO.N,UART_TX*%
X20750000Y-11550000D03*
%TO.P,U1,38*%
%TO.N,LED_LOW*%
X20750000Y-10280000D03*
%TO.P,U1,39*%
%TO.N,BAT_SENSE*%
X20750000Y-9010000D03*
%TO.P,U1,40*%
%TO.N,GND*%
X20750000Y-7740000D03*
D36*
%TO.P,U1,41*%
X9100000Y-14760000D03*
X9100000Y-16160000D03*
X9800000Y-14060000D03*
X9800000Y-15460000D03*
X9800000Y-16860000D03*
X10500000Y-14760000D03*
D37*
X10500000Y-15460000D03*
D36*
X10500000Y-16160000D03*
X11200000Y-14060000D03*
X11200000Y-15460000D03*
X11200000Y-16860000D03*
X11900000Y-14760000D03*
X11900000Y-16160000D03*
%TD*%
D12*
%TO.P,R53,1*%
%TO.N,VBAT*%
X10675000Y-27500000D03*
%TO.P,R53,2*%
%TO.N,BAT_SENSE*%
X12325000Y-27500000D03*
%TD*%
D30*
%TO.P,C41,1*%
%TO.N,3V3D*%
X7050000Y-34250000D03*
%TO.P,C41,2*%
%TO.N,GND*%
X8950000Y-34250000D03*
%TD*%
D28*
%TO.P,Q2,1*%
%TO.N,USB_GATE*%
X16062500Y-39800000D03*
%TO.P,Q2,2*%
%TO.N,GND*%
X16062500Y-41700000D03*
%TO.P,Q2,3*%
%TO.N,USB_PRESENT_N*%
X17937500Y-40750000D03*
%TD*%
D12*
%TO.P,R26,1*%
%TO.N,3V3D*%
X23175000Y-41000000D03*
%TO.P,R26,2*%
%TO.N,USB_PRESENT_N*%
X24825000Y-41000000D03*
%TD*%
D25*
%TO.P,C130,1*%
%TO.N,RC3A*%
X63000000Y-37025000D03*
%TO.P,C130,2*%
%TO.N,GND*%
X63000000Y-35475000D03*
%TD*%
D13*
%TO.P,C46,1*%
%TO.N,3V0A*%
X51225000Y-46750000D03*
%TO.P,C46,2*%
%TO.N,GND*%
X52775000Y-46750000D03*
%TD*%
D38*
%TO.P,Y1,1*%
%TO.N,3V3D*%
X49950000Y-12825000D03*
%TO.P,Y1,2*%
%TO.N,GND*%
X52050000Y-12825000D03*
%TO.P,Y1,3*%
%TO.N,OSC_OUT*%
X52050000Y-11175000D03*
%TO.P,Y1,4*%
%TO.N,3V3D*%
X49950000Y-11175000D03*
%TD*%
D29*
%TO.P,R120,1*%
%TO.N,RAW2*%
X65000000Y-32575000D03*
%TO.P,R120,2*%
%TO.N,RC2A*%
X65000000Y-30925000D03*
%TD*%
D19*
%TO.P,D21,1*%
%TO.N,GND*%
X34212500Y-18500000D03*
%TO.P,D21,2*%
%TO.N,LED_ERR_A*%
X35787500Y-18500000D03*
%TD*%
D25*
%TO.P,C110,1*%
%TO.N,RC1A*%
X63000000Y-19275000D03*
%TO.P,C110,2*%
%TO.N,GND*%
X63000000Y-17725000D03*
%TD*%
D39*
%TO.P,J1,A1*%
%TO.N,GND*%
X2800000Y-41820000D03*
%TO.P,J1,A4*%
%TO.N,USB_VBUS*%
X3600000Y-41820000D03*
D40*
%TO.P,J1,A5*%
%TO.N,USB_CC1*%
X4750000Y-41820000D03*
%TO.P,J1,A6*%
%TO.N,USB_DP*%
X5750000Y-41820000D03*
%TO.P,J1,A7*%
%TO.N,USB_DM*%
X6250000Y-41820000D03*
%TO.P,J1,A8*%
%TO.N,N/C*%
X7250000Y-41820000D03*
D39*
%TO.P,J1,A9*%
%TO.N,USB_VBUS*%
X8400000Y-41820000D03*
%TO.P,J1,A12*%
%TO.N,GND*%
X9200000Y-41820000D03*
%TO.P,J1,B1*%
X9200000Y-41820000D03*
%TO.P,J1,B4*%
%TO.N,USB_VBUS*%
X8400000Y-41820000D03*
D40*
%TO.P,J1,B5*%
%TO.N,USB_CC2*%
X7750000Y-41820000D03*
%TO.P,J1,B6*%
%TO.N,USB_DP*%
X6750000Y-41820000D03*
%TO.P,J1,B7*%
%TO.N,USB_DM*%
X5250000Y-41820000D03*
%TO.P,J1,B8*%
%TO.N,N/C*%
X4250000Y-41820000D03*
D39*
%TO.P,J1,B9*%
%TO.N,USB_VBUS*%
X3600000Y-41820000D03*
%TO.P,J1,B12*%
%TO.N,GND*%
X2800000Y-41820000D03*
D41*
%TO.P,J1,SH*%
X1680000Y-42395000D03*
D42*
X1680000Y-46575000D03*
D41*
X10320000Y-42395000D03*
D42*
X10320000Y-46575000D03*
%TD*%
D29*
%TO.P,R130,1*%
%TO.N,RAW3*%
X65000000Y-37075000D03*
%TO.P,R130,2*%
%TO.N,RC3A*%
X65000000Y-35425000D03*
%TD*%
D27*
%TO.P,U3,1*%
%TO.N,BUF0A*%
X55137500Y-14050000D03*
%TO.P,U3,2*%
X55137500Y-14700000D03*
%TO.P,U3,3*%
%TO.N,RC0A*%
X55137500Y-15350000D03*
%TO.P,U3,4*%
%TO.N,3V0A*%
X55137500Y-16000000D03*
%TO.P,U3,5*%
%TO.N,RC1A*%
X55137500Y-16650000D03*
%TO.P,U3,6*%
%TO.N,BUF1A*%
X55137500Y-17300000D03*
%TO.P,U3,7*%
X55137500Y-17950000D03*
%TO.P,U3,8*%
%TO.N,BUF2A*%
X60862500Y-17950000D03*
%TO.P,U3,9*%
X60862500Y-17300000D03*
%TO.P,U3,10*%
%TO.N,RC2A*%
X60862500Y-16650000D03*
%TO.P,U3,11*%
%TO.N,GND*%
X60862500Y-16000000D03*
%TO.P,U3,12*%
%TO.N,RC3A*%
X60862500Y-15350000D03*
%TO.P,U3,13*%
%TO.N,BUF3A*%
X60862500Y-14700000D03*
%TO.P,U3,14*%
X60862500Y-14050000D03*
%TD*%
D25*
%TO.P,C120,1*%
%TO.N,RC2A*%
X60750000Y-28775000D03*
%TO.P,C120,2*%
%TO.N,GND*%
X60750000Y-27225000D03*
%TD*%
D31*
%TO.P,U5,1*%
%TO.N,VMID_BUF*%
X58862500Y-44050000D03*
%TO.P,U5,2*%
%TO.N,GND*%
X58862500Y-45000000D03*
%TO.P,U5,3*%
%TO.N,VMID_DIV*%
X58862500Y-45950000D03*
%TO.P,U5,4*%
%TO.N,VMID_BUF*%
X61137500Y-45950000D03*
%TO.P,U5,5*%
%TO.N,3V0A*%
X61137500Y-44050000D03*
%TD*%
D28*
%TO.P,D10,1*%
%TO.N,GND*%
X62812500Y-10300000D03*
%TO.P,D10,2*%
%TO.N,3V0A*%
X62812500Y-12200000D03*
%TO.P,D10,3*%
%TO.N,RC0A*%
X64687500Y-11250000D03*
%TD*%
D25*
%TO.P,C131,1*%
%TO.N,RC3B*%
X53500000Y-44275000D03*
%TO.P,C131,2*%
%TO.N,GND*%
X53500000Y-42725000D03*
%TD*%
D31*
%TO.P,D1,1*%
%TO.N,USB_DP*%
X2612500Y-37800000D03*
%TO.P,D1,2*%
%TO.N,GND*%
X2612500Y-38750000D03*
%TO.P,D1,3*%
%TO.N,USB_DM*%
X2612500Y-39700000D03*
%TO.P,D1,4*%
%TO.N,N/C*%
X4887500Y-39700000D03*
%TO.P,D1,5*%
%TO.N,USB_VBUS*%
X4887500Y-38750000D03*
%TO.P,D1,6*%
%TO.N,N/C*%
X4887500Y-37800000D03*
%TD*%
D12*
%TO.P,R40,1*%
%TO.N,3V0A*%
X55175000Y-43000000D03*
%TO.P,R40,2*%
%TO.N,VMID_DIV*%
X56825000Y-43000000D03*
%TD*%
%TO.P,R123,1*%
%TO.N,VMID*%
X51425000Y-33750000D03*
%TO.P,R123,2*%
%TO.N,RC2B*%
X53075000Y-33750000D03*
%TD*%
D10*
%TO.P,J6,1*%
%TO.N,3V0A*%
X69000000Y-24950000D03*
%TO.P,J6,2*%
%TO.N,GND*%
X70250000Y-24950000D03*
%TO.P,J6,3*%
%TO.N,RAW1*%
X71500000Y-24950000D03*
D11*
%TO.P,J6,MP*%
%TO.N,N/C*%
X67150000Y-21600000D03*
X73350000Y-21600000D03*
%TD*%
D26*
%TO.P,SW3,1*%
%TO.N,EN*%
X23100000Y-21100000D03*
X29400000Y-21100000D03*
%TO.P,SW3,2*%
%TO.N,GND*%
X23100000Y-24900000D03*
X29400000Y-24900000D03*
%TD*%
D10*
%TO.P,J10,1*%
%TO.N,3V3D*%
X33875000Y-15950000D03*
%TO.P,J10,2*%
%TO.N,GND*%
X35125000Y-15950000D03*
%TO.P,J10,3*%
%TO.N,EXP_SDA*%
X36375000Y-15950000D03*
%TO.P,J10,4*%
%TO.N,EXP_SCL*%
X37625000Y-15950000D03*
%TO.P,J10,5*%
%TO.N,UART_TX*%
X38875000Y-15950000D03*
%TO.P,J10,6*%
%TO.N,UART_RX*%
X40125000Y-15950000D03*
D11*
%TO.P,J10,MP*%
%TO.N,N/C*%
X32025000Y-12600000D03*
X41975000Y-12600000D03*
%TD*%
D12*
%TO.P,R3,1*%
%TO.N,3V3D*%
X30925000Y-27000000D03*
%TO.P,R3,2*%
%TO.N,BUTTON*%
X32575000Y-27000000D03*
%TD*%
D43*
%TO.N,3V0A*%
X55811500Y-18655600D03*
X41805300Y-19793900D03*
X47342700Y-20923400D03*
X56594600Y-33000000D03*
X58312300Y-37074500D03*
X52453800Y-31050400D03*
%TO.N,GND*%
X6730400Y-37794500D03*
X8172000Y-26773800D03*
%TO.N,POWER_GOOD*%
X33956600Y-25489200D03*
X5392400Y-29885800D03*
%TO.N,3V3D*%
X31208200Y-8789700D03*
X6700000Y-34800000D03*
X36901000Y-8390200D03*
X7175000Y-36500000D03*
X22238200Y-39988200D03*
X24379400Y-29857400D03*
X27919300Y-26788500D03*
X9250000Y-32400000D03*
%TO.N,VBAT*%
X10047400Y-29325300D03*
X11655100Y-28338300D03*
%TO.N,POWER_EN*%
X19667900Y-30167900D03*
X6564000Y-29163700D03*
%TO.N,SD_D3*%
X38775200Y-25252800D03*
X37976300Y-33350400D03*
%TO.N,SD_CMD*%
X29994500Y-22692900D03*
X19545300Y-22692900D03*
X35125000Y-29020000D03*
%TO.N,SD_CLK*%
X34029400Y-33336000D03*
X23014700Y-28255600D03*
%TO.N,SD_D0*%
X32175000Y-31218400D03*
X19547100Y-16954600D03*
X36794400Y-28969400D03*
%TO.N,SD_D1*%
X34200100Y-26884100D03*
X31075000Y-33332300D03*
%TO.N,BUF2B*%
X46256500Y-31944000D03*
X51989600Y-35950200D03*
%TO.N,AIN2P*%
X45353000Y-25595600D03*
X46046200Y-33126200D03*
X45776900Y-38606300D03*
%TO.N,USB_DM*%
X1311300Y-33858500D03*
X15683700Y-29158900D03*
%TO.N,USB_DM_MCU*%
X6406800Y-23723000D03*
X14800500Y-26757500D03*
%TO.N,VMID*%
X72255400Y-39446700D03*
X67257900Y-44000000D03*
X57749900Y-11292400D03*
X43971900Y-19362900D03*
X47890000Y-31552600D03*
X53914600Y-22314700D03*
%TO.N,BUTTON*%
X31567300Y-26216500D03*
X10372500Y-20440000D03*
X18688400Y-43313400D03*
%TO.N,AIN0N*%
X44860600Y-20302500D03*
X45703600Y-22772200D03*
%TO.N,AIN2N*%
X45813900Y-35251700D03*
X42932800Y-25428000D03*
%TO.N,AIN3N*%
X43813300Y-43225000D03*
X42876400Y-26965600D03*
%TO.N,AIN3P*%
X44706400Y-30732100D03*
X45797400Y-42273800D03*
%TO.N,ADC_RESET*%
X51975200Y-24684400D03*
X40043300Y-8835500D03*
X13373000Y-22181500D03*
%TO.N,ADC_CS*%
X38129800Y-18547300D03*
X11329800Y-23834600D03*
X51398400Y-25179000D03*
X44783400Y-13637900D03*
%TO.N,ADC_DRDY*%
X47724900Y-25573600D03*
X15493200Y-21113700D03*
X41060900Y-21055900D03*
%TO.N,ADC_SCK*%
X46461200Y-22278900D03*
X48664100Y-24975000D03*
X17782300Y-22326600D03*
%TO.N,ADC_MISO*%
X18233700Y-23672300D03*
X47461600Y-24150200D03*
%TO.N,ADC_MOSI*%
X48583800Y-23761000D03*
X10845300Y-28493800D03*
%TO.N,ADC_CLK*%
X52406600Y-15830500D03*
X53610400Y-20011500D03*
X51096400Y-22523300D03*
%TO.N,RC2A*%
X64687500Y-29027300D03*
X62631500Y-16785700D03*
%TO.N,LED_REC*%
X19522400Y-15360000D03*
X24431600Y-7750000D03*
%TO.N,RAW2*%
X64281000Y-31856000D03*
X67811200Y-27952500D03*
%TO.N,IMU_SCL*%
X42125000Y-4392300D03*
X4462300Y-14090000D03*
X57397800Y-4451400D03*
%TO.N,IMU_SDA*%
X59715800Y-4378900D03*
X42854800Y-7028700D03*
X4471600Y-11550000D03*
%TO.N,IMU_RESERVED*%
X43888100Y-7200900D03*
X59304800Y-7653300D03*
X6673700Y-12820000D03*
%TO.N,SHANK_AD0*%
X29542500Y-11575100D03*
X10252600Y-12806500D03*
X6641500Y-16630000D03*
X40854200Y-3109800D03*
%TO.N,SHANK_INT*%
X64658800Y-4508700D03*
X4478000Y-19170000D03*
%TO.N,BAT_SENSE*%
X19534300Y-9010000D03*
X24976700Y-24159100D03*
X13025500Y-26772300D03*
%TO.N,RC1A*%
X53933600Y-17372100D03*
X64040400Y-18500000D03*
%TO.N,BUF0B*%
X43863400Y-16961100D03*
X56848000Y-29978900D03*
%TO.N,SD_CLK_MCU*%
X19528100Y-17900000D03*
X19055000Y-28500000D03*
%TO.N,LED_LOW*%
X40181300Y-7847500D03*
X24500900Y-10219900D03*
%TO.N,USB_DP*%
X2541200Y-37023100D03*
X6003700Y-42872600D03*
%TO.N,USB_DP_MCU*%
X21014500Y-40156700D03*
X7503800Y-23850600D03*
X13651500Y-24277800D03*
%TO.N,EN*%
X26228900Y-10319200D03*
X8882000Y-9636100D03*
X27377800Y-20122700D03*
%TO.N,PACK_PLUS*%
X13862700Y-47950000D03*
X26361700Y-29000000D03*
%TO.N,RC0B*%
X54729700Y-30194300D03*
X57013200Y-10525000D03*
%TO.N,RC3A*%
X64050700Y-35425000D03*
X62053100Y-15350000D03*
%TO.N,BUF3B*%
X44629100Y-42210100D03*
X62542200Y-34528300D03*
%TO.N,BUF3A*%
X55111000Y-37816100D03*
X62080500Y-14375000D03*
%TO.N,FOOT_AD0*%
X25621100Y-11367400D03*
X44885200Y-8766300D03*
X9021500Y-12240800D03*
X6178600Y-15360000D03*
%TO.N,FOOT_INT*%
X37006200Y-14863000D03*
X47437300Y-4375800D03*
X9101100Y-18306000D03*
%TO.N,BUF1B*%
X53780200Y-34950000D03*
X46438300Y-27840000D03*
%TO.N,USB_VBUS*%
X8090700Y-43622400D03*
X6013800Y-38750000D03*
%TO.N,LED_ERR*%
X19547800Y-14090000D03*
X32827700Y-8261700D03*
%TO.N,LED_ERR_A*%
X36055000Y-10179100D03*
X35742100Y-14836300D03*
%TO.N,USB_PRESENT_N*%
X15384400Y-24294100D03*
X17910300Y-41513700D03*
X23775000Y-42237900D03*
%TO.N,EXP_SDA*%
X17143600Y-24289200D03*
X36375000Y-14378000D03*
%TO.N,EXP_SCL*%
X19527300Y-24296000D03*
X32366300Y-24462100D03*
X39431600Y-17117200D03*
%TO.N,UART_RX*%
X40898900Y-16129800D03*
X28176400Y-13018700D03*
%TO.N,UART_TX*%
X22305500Y-11689100D03*
X37826200Y-17271800D03*
%TD*%
%TO.N,3V0A*%
D44*
X55175000Y-43767700D02*
X53946600Y-44996100D01*
X57562500Y-40950000D02*
X56571100Y-39958600D01*
X63760900Y-37462500D02*
X59949200Y-41274200D01*
X62812500Y-22950000D02*
X65752100Y-25889500D01*
X58657400Y-41274200D02*
X57886700Y-41274200D01*
X64750100Y-26891500D02*
X65752100Y-25889500D01*
X56594600Y-33000000D02*
X55137500Y-33000000D01*
X55811500Y-19413500D02*
X55475000Y-19750000D01*
X59949200Y-41274200D02*
X58657400Y-41274200D01*
X70875000Y-33016400D02*
X70875000Y-35786300D01*
X57886700Y-41274200D02*
X57562500Y-40950000D01*
X52424600Y-31050400D02*
X52453800Y-31050400D01*
X65752100Y-25889500D02*
X67845800Y-23795800D01*
X55175000Y-43000000D02*
X55175000Y-43767700D01*
X64750100Y-26891500D02*
X70875000Y-33016400D01*
X55799300Y-16000000D02*
X56127200Y-16327900D01*
X66374200Y-43249400D02*
X61938100Y-43249400D01*
X62812500Y-29200000D02*
X62812500Y-28712500D01*
X56571100Y-38734900D02*
X58231500Y-37074500D01*
X60662500Y-44050000D02*
X61137500Y-44050000D01*
D45*
X67845800Y-23795800D02*
X69000000Y-24950000D01*
D44*
X64537500Y-36422500D02*
X63760900Y-37199100D01*
X58231500Y-37074500D02*
X58312300Y-37074500D01*
X51475000Y-32000000D02*
X52424600Y-31050400D01*
X67745500Y-36422500D02*
X64537500Y-36422500D01*
X69000000Y-44950000D02*
X67450000Y-43400000D01*
X67450000Y-43400000D02*
X66524800Y-43400000D01*
X51225000Y-44996100D02*
X51225000Y-44137500D01*
X41805300Y-19793900D02*
X41518900Y-19793900D01*
X55811500Y-18655600D02*
X55811500Y-19413500D01*
X66524800Y-43400000D02*
X66374200Y-43249400D01*
D45*
X65726000Y-13251100D02*
X67301100Y-13251100D01*
D44*
X61380000Y-12200000D02*
X62812500Y-12200000D01*
X56571100Y-39958600D02*
X56571100Y-38734900D01*
X63760900Y-37199100D02*
X63760900Y-37462500D01*
X44289100Y-20923400D02*
X47342700Y-20923400D01*
X58657400Y-41274200D02*
X58657400Y-42044900D01*
X51225000Y-44137500D02*
X50137500Y-43050000D01*
X51225000Y-46750000D02*
X51225000Y-44996100D01*
X56127200Y-18339900D02*
X55811500Y-18655600D01*
X58386800Y-37000000D02*
X58312300Y-37074500D01*
X70577000Y-36084300D02*
X69916300Y-36084300D01*
X53946600Y-44996100D02*
X51225000Y-44996100D01*
X55137500Y-16000000D02*
X55720900Y-16000000D01*
X69000000Y-35168000D02*
X67745500Y-36422500D01*
X55720900Y-16000000D02*
X55799300Y-16000000D01*
X56130100Y-42044900D02*
X58657400Y-42044900D01*
X55175000Y-43000000D02*
X56130100Y-42044900D01*
X63863600Y-13251100D02*
X65726000Y-13251100D01*
X57580000Y-16000000D02*
X61380000Y-12200000D01*
X62812500Y-12200000D02*
X63863600Y-13251100D01*
X64633500Y-26891500D02*
X64750100Y-26891500D01*
X69000000Y-35168000D02*
X69000000Y-34950000D01*
X44137500Y-21075000D02*
X44289100Y-20923400D01*
X62812500Y-28712500D02*
X64633500Y-26891500D01*
X56127200Y-16327900D02*
X56127200Y-18339900D01*
X41518900Y-19793900D02*
X40225000Y-18500000D01*
X58657400Y-42044900D02*
X60662500Y-44050000D01*
X70875000Y-35786300D02*
X70577000Y-36084300D01*
D45*
X67301100Y-13251100D02*
X69000000Y-14950000D01*
D44*
X69916300Y-36084300D02*
X69000000Y-35168000D01*
X59225000Y-37000000D02*
X58386800Y-37000000D01*
X55720900Y-16000000D02*
X57580000Y-16000000D01*
X61938100Y-43249400D02*
X61137500Y-44050000D01*
%TO.N,GND*%
X70250000Y-15135400D02*
X70250000Y-14950000D01*
X60500000Y-8975000D02*
X60750000Y-9225000D01*
D45*
X60224200Y-46150400D02*
X60000000Y-45926200D01*
D44*
X8007900Y-26609700D02*
X7150200Y-26609700D01*
D45*
X63000000Y-16199400D02*
X61061900Y-16199400D01*
X7400300Y-31735400D02*
X7400300Y-31000000D01*
D44*
X58687500Y-48464500D02*
X58699100Y-48476100D01*
X42492200Y-26569700D02*
X42324700Y-26737200D01*
X59963100Y-29136400D02*
X59963100Y-29887400D01*
X43403100Y-10690600D02*
X43962500Y-11250000D01*
X62060400Y-9225000D02*
X65375000Y-5910400D01*
X65338200Y-46063200D02*
X65025000Y-45750000D01*
X33075000Y-23500000D02*
X40224700Y-23500000D01*
X39721200Y-17770700D02*
X41045700Y-17770700D01*
X45312600Y-6635500D02*
X43603200Y-8344900D01*
X4781500Y-29617500D02*
X4781500Y-30506500D01*
X60075200Y-47699600D02*
X60199100Y-47575700D01*
X43403100Y-8344900D02*
X43403100Y-10690600D01*
X20350000Y-46900000D02*
X26650000Y-46900000D01*
X62060400Y-9225000D02*
X62060400Y-9547900D01*
X6850000Y-29715400D02*
X6283800Y-29715400D01*
X29400000Y-17900000D02*
X30413400Y-17900000D01*
X52250000Y-34898900D02*
X52250000Y-32775000D01*
X12275000Y-39750000D02*
X12325000Y-39750000D01*
X42675000Y-47375000D02*
X43576700Y-47375000D01*
X65402600Y-46063200D02*
X65338200Y-46063200D01*
X63000000Y-16199400D02*
X63183200Y-16199400D01*
D45*
X60000000Y-45399200D02*
X59261700Y-45399200D01*
D44*
X11272900Y-42232100D02*
X15530400Y-42232100D01*
X23250000Y-31250000D02*
X23767000Y-31250000D01*
X56250000Y-20525000D02*
X57025000Y-19750000D01*
X44049300Y-47847600D02*
X48481900Y-47847600D01*
X8259600Y-31000000D02*
X7866400Y-31000000D01*
X60224200Y-46532400D02*
X60224200Y-46325600D01*
X27751700Y-46022900D02*
X28501300Y-45273300D01*
D45*
X18199800Y-8309800D02*
X19203500Y-8309800D01*
X59926100Y-48862500D02*
X59926100Y-47848700D01*
D44*
X49862500Y-21725000D02*
X50525800Y-21725000D01*
X27500000Y-36575000D02*
X24825000Y-39250000D01*
X9800000Y-15460000D02*
X10500000Y-15460000D01*
X54577500Y-41462500D02*
X54577500Y-40517600D01*
X59136800Y-48738600D02*
X59260700Y-48862500D01*
X43950000Y-29750000D02*
X43950000Y-30726200D01*
X57875000Y-5961000D02*
X57875000Y-5700000D01*
X42675000Y-47375000D02*
X41773300Y-47375000D01*
X42324700Y-26737200D02*
X42324700Y-26854700D01*
X53787500Y-10977500D02*
X54412900Y-10977500D01*
X65375000Y-5910400D02*
X65375000Y-5700000D01*
X51135900Y-21114900D02*
X51135900Y-20843000D01*
X9200000Y-41820000D02*
X9779200Y-41820000D01*
X43603200Y-8344900D02*
X43403100Y-8344900D01*
D45*
X42600500Y-30726200D02*
X41051700Y-32275000D01*
D44*
X15018000Y-46843100D02*
X15875000Y-47700100D01*
X59612300Y-32085400D02*
X59867600Y-32340700D01*
X5200000Y-28631600D02*
X5200000Y-28000000D01*
X51425000Y-37615000D02*
X51425000Y-35723900D01*
X60775000Y-37000000D02*
X62300000Y-35475000D01*
X6965400Y-29600000D02*
X7275000Y-29600000D01*
X8950000Y-36500000D02*
X8950000Y-38375000D01*
X9779200Y-41820000D02*
X10320000Y-41279200D01*
X49127400Y-43016600D02*
X49127400Y-42757900D01*
X62812500Y-21431500D02*
X62908600Y-21527600D01*
D45*
X60224200Y-46325600D02*
X60224200Y-46150400D01*
D44*
X9075000Y-38500000D02*
X11025000Y-38500000D01*
X64646500Y-23265500D02*
X68842800Y-23265500D01*
X28218900Y-44990900D02*
X28501300Y-45273300D01*
X46322200Y-3813200D02*
X45312600Y-4822800D01*
X13637300Y-46843100D02*
X15018000Y-46843100D01*
D45*
X29175000Y-36575000D02*
X29901700Y-36575000D01*
D44*
X53025000Y-22347600D02*
X53886300Y-21486300D01*
D45*
X61061900Y-16199400D02*
X60862500Y-16000000D01*
X30251500Y-36225200D02*
X29901700Y-36575000D01*
D44*
X31101700Y-18500000D02*
X30501700Y-17900000D01*
X48833600Y-44689600D02*
X48833600Y-47495900D01*
X4781500Y-30506500D02*
X5275000Y-31000000D01*
X27445300Y-27726000D02*
X27415900Y-27696600D01*
X51135900Y-20843000D02*
X51728900Y-20250000D01*
X15875000Y-47700100D02*
X15875000Y-47950000D01*
X2220800Y-41820000D02*
X2800000Y-41820000D01*
X32525000Y-29212900D02*
X32525000Y-30000000D01*
D45*
X19203500Y-8309800D02*
X19773300Y-7740000D01*
D44*
X60200100Y-27774900D02*
X60750000Y-27225000D01*
X59000000Y-21225000D02*
X57525000Y-19750000D01*
D45*
X29749700Y-12740000D02*
X29009700Y-12000000D01*
D44*
X5055600Y-36269400D02*
X5325000Y-36000000D01*
X1680000Y-46575000D02*
X1680000Y-47726700D01*
X12753700Y-47726700D02*
X13637300Y-46843100D01*
X10320000Y-47581500D02*
X10320000Y-47726700D01*
X45312600Y-4822800D02*
X45312600Y-6635500D01*
X4762000Y-36679200D02*
X5055600Y-36679200D01*
X43336400Y-8344900D02*
X40875000Y-5883500D01*
X49127400Y-42757900D02*
X50205200Y-41680100D01*
X5200000Y-28000000D02*
X5200000Y-26773800D01*
X15875000Y-47950000D02*
X18198300Y-47950000D01*
X32548300Y-23500000D02*
X31673500Y-24374800D01*
X32525000Y-30000000D02*
X33275000Y-30750000D01*
X59867600Y-32340700D02*
X59867600Y-32800600D01*
X43403100Y-8344900D02*
X43336400Y-8344900D01*
X62300000Y-35475000D02*
X63000000Y-35475000D01*
X53467700Y-6826500D02*
X57009500Y-6826500D01*
X53775000Y-21000000D02*
X53775000Y-21375000D01*
D45*
X20750000Y-7740000D02*
X19773300Y-7740000D01*
D44*
X60862500Y-16000000D02*
X60271000Y-16000000D01*
X60750000Y-9225000D02*
X62060400Y-9225000D01*
X48375000Y-5700000D02*
X48375000Y-4488700D01*
X5483700Y-28915300D02*
X5200000Y-28631600D01*
X6170900Y-37794500D02*
X6730400Y-37794500D01*
X5055600Y-36679200D02*
X6170900Y-37794500D01*
X8950000Y-38375000D02*
X9075000Y-38500000D01*
X70250000Y-45128400D02*
X69315200Y-46063200D01*
X53886300Y-21486300D02*
X54665500Y-22265500D01*
X27751700Y-46900000D02*
X27751700Y-46022900D01*
X5483700Y-28915300D02*
X4781500Y-29617500D01*
X48144000Y-44000000D02*
X48833600Y-44689600D01*
X53537500Y-39727500D02*
X51425000Y-37615000D01*
X24825000Y-39250000D02*
X28218900Y-42643900D01*
X6283800Y-29715400D02*
X5483700Y-28915300D01*
X53467700Y-6826500D02*
X53467700Y-10657700D01*
X70250000Y-44950000D02*
X70250000Y-45128400D01*
X61805300Y-27225000D02*
X62737500Y-27225000D01*
X47699500Y-3813200D02*
X46322200Y-3813200D01*
D45*
X31038100Y-27726000D02*
X31676100Y-28364000D01*
X5200000Y-26773800D02*
X6986100Y-26773800D01*
X59926100Y-47848700D02*
X60075200Y-47699600D01*
D44*
X29400000Y-24900000D02*
X30501700Y-24900000D01*
X70250000Y-24672700D02*
X70250000Y-24950000D01*
X60224200Y-47575700D02*
X60224200Y-46532400D01*
X8172000Y-26773800D02*
X8172000Y-26972000D01*
X40129700Y-26854700D02*
X39775000Y-26500000D01*
X23767000Y-31250000D02*
X24931100Y-30085900D01*
X53467700Y-10657700D02*
X53787500Y-10977500D01*
X68842800Y-23265500D02*
X70250000Y-24672700D01*
X58725000Y-39050000D02*
X57562500Y-39050000D01*
X55435400Y-12000000D02*
X55775000Y-12000000D01*
X14075000Y-41500000D02*
X15862500Y-41500000D01*
X10174800Y-47726700D02*
X1680000Y-47726700D01*
X53025000Y-18000000D02*
X53025000Y-20250000D01*
D45*
X58699100Y-48476100D02*
X58874300Y-48476100D01*
D44*
X15862500Y-41500000D02*
X16062500Y-41700000D01*
D45*
X59867600Y-32800600D02*
X60663100Y-32800600D01*
D44*
X16950200Y-8309800D02*
X12669300Y-12590700D01*
X11200000Y-15460000D02*
X10500000Y-15460000D01*
X63329800Y-33309300D02*
X68886700Y-33309300D01*
X41773300Y-46849100D02*
X41598100Y-46673900D01*
X60000000Y-45926200D02*
X60000000Y-45399200D01*
X8950000Y-36500000D02*
X8950000Y-34250000D01*
X3600200Y-37841000D02*
X4762000Y-36679200D01*
X23100000Y-24900000D02*
X27347200Y-24900000D01*
X54349000Y-48324000D02*
X57823700Y-48324000D01*
X33275000Y-32275000D02*
X33275000Y-34297400D01*
D45*
X59874400Y-29976100D02*
X59874400Y-30556300D01*
D44*
X56825000Y-46000000D02*
X56935500Y-45889500D01*
D45*
X59261700Y-45399200D02*
X58862500Y-45000000D01*
D44*
X52250000Y-32775000D02*
X53025000Y-32000000D01*
X38196600Y-19295300D02*
X39721200Y-17770700D01*
X18198300Y-47950000D02*
X19248300Y-46900000D01*
D45*
X59874400Y-30556300D02*
X59874400Y-31823300D01*
D44*
X2916300Y-38750000D02*
X3600200Y-38066100D01*
D45*
X30500200Y-13490500D02*
X29749700Y-12740000D01*
D44*
X48833600Y-47495900D02*
X52029100Y-47495900D01*
X8172000Y-26773800D02*
X8007900Y-26609700D01*
X53500000Y-42725000D02*
X51250000Y-42725000D01*
X48481900Y-47847600D02*
X48833600Y-47495900D01*
X1680000Y-41279200D02*
X2220800Y-41820000D01*
X34212500Y-18500000D02*
X35125000Y-17587500D01*
X57009500Y-6826500D02*
X57875000Y-5961000D01*
X62812500Y-21050000D02*
X62256900Y-20494400D01*
X29749700Y-12740000D02*
X31912600Y-10577100D01*
X60224200Y-47575700D02*
X60600700Y-47575700D01*
X33025000Y-19295300D02*
X38196600Y-19295300D01*
D45*
X59726100Y-28899400D02*
X59963100Y-29136400D01*
D44*
X27347200Y-24900000D02*
X29400000Y-24900000D01*
X29175000Y-36575000D02*
X27500000Y-36575000D01*
X48144000Y-44000000D02*
X49127400Y-43016600D01*
X28218900Y-42643900D02*
X28218900Y-44990900D01*
X63183200Y-17541800D02*
X63183200Y-16199400D01*
X33025000Y-21750000D02*
X33025000Y-23450000D01*
X31673500Y-24374800D02*
X31673500Y-24374900D01*
X59260700Y-48862500D02*
X59926100Y-48862500D01*
D45*
X7400300Y-31000000D02*
X8135700Y-31000000D01*
D44*
X15530400Y-42232100D02*
X16062500Y-41700000D01*
X1680000Y-42395000D02*
X1680000Y-41279200D01*
X24931100Y-29568900D02*
X26450000Y-28050000D01*
X65402600Y-46063200D02*
X65402600Y-46532400D01*
X53975000Y-13800000D02*
X53025000Y-13800000D01*
X63000000Y-35475000D02*
X63093900Y-35381100D01*
X10320000Y-46575000D02*
X10320000Y-47581500D01*
X18199800Y-8309800D02*
X16950200Y-8309800D01*
X63000000Y-17725000D02*
X63183200Y-17541800D01*
X53025000Y-18000000D02*
X53025000Y-13800000D01*
X40875000Y-5883500D02*
X40875000Y-5700000D01*
X6850000Y-29715400D02*
X6965400Y-29600000D01*
X44137500Y-21725000D02*
X49862500Y-21725000D01*
X62256900Y-18468100D02*
X63000000Y-17725000D01*
X7818600Y-7740000D02*
X12669300Y-12590700D01*
D45*
X29009700Y-12000000D02*
X28025000Y-12000000D01*
D44*
X63183200Y-16199400D02*
X69186000Y-16199400D01*
X53500000Y-42725000D02*
X53500000Y-42540000D01*
X27347200Y-27627900D02*
X27415900Y-27696600D01*
X59000000Y-8975000D02*
X60500000Y-8975000D01*
X29426100Y-46673900D02*
X29175000Y-46925000D01*
D45*
X31347200Y-36225200D02*
X30251500Y-36225200D01*
D44*
X60199100Y-47575700D02*
X60224200Y-47575700D01*
X7400300Y-31750000D02*
X7400300Y-31735400D01*
D45*
X59726100Y-28763900D02*
X59726100Y-28899400D01*
D44*
X62908600Y-21527600D02*
X64646500Y-23265500D01*
X11025000Y-38500000D02*
X12275000Y-39750000D01*
X29175000Y-46925000D02*
X29175000Y-45273300D01*
X54665500Y-22265500D02*
X55800700Y-22265500D01*
X42324700Y-26854700D02*
X42324700Y-27194000D01*
X56935500Y-45889500D02*
X56935500Y-45399200D01*
X30413400Y-17900000D02*
X30500200Y-17900000D01*
X32635400Y-10577100D02*
X33712500Y-9500000D01*
D45*
X30500200Y-17900000D02*
X30500200Y-13490500D01*
D44*
X42492200Y-25767500D02*
X42492200Y-26569700D01*
X3250000Y-7740000D02*
X7818600Y-7740000D01*
X51250000Y-42725000D02*
X50205200Y-41680100D01*
X59726100Y-27774900D02*
X60200100Y-27774900D01*
X53787400Y-39727500D02*
X53537500Y-39727500D01*
X29400000Y-17900000D02*
X23100000Y-17900000D01*
X60750000Y-27225000D02*
X61805300Y-27225000D01*
X61805300Y-27225000D02*
X61805300Y-22630900D01*
X24931100Y-30085900D02*
X24931100Y-29568900D01*
X35125000Y-17587500D02*
X35125000Y-15950000D01*
X31912600Y-10577100D02*
X32635400Y-10577100D01*
X10320000Y-47726700D02*
X12753700Y-47726700D01*
D45*
X6986100Y-26773800D02*
X7150200Y-26609700D01*
D44*
X62812500Y-21050000D02*
X62812500Y-21431500D01*
D45*
X40325000Y-32275000D02*
X41051700Y-32275000D01*
D44*
X51728900Y-20250000D02*
X53025000Y-20250000D01*
X63093900Y-35381100D02*
X63093900Y-33199400D01*
X10320000Y-41279200D02*
X11272900Y-42232100D01*
X59000000Y-27725000D02*
X59049900Y-27774900D01*
X57025000Y-19246000D02*
X57025000Y-19750000D01*
X31026800Y-24374900D02*
X30501700Y-24900000D01*
X59000000Y-8975000D02*
X57009500Y-6984500D01*
D45*
X58463300Y-45399200D02*
X58862500Y-45000000D01*
D44*
X10320000Y-47581500D02*
X10174800Y-47726700D01*
X10320000Y-42395000D02*
X10320000Y-41279200D01*
X43576700Y-47375000D02*
X44049300Y-47847600D01*
X33025000Y-18500000D02*
X33025000Y-19295300D01*
X7866400Y-31000000D02*
X7116400Y-30250000D01*
X60600700Y-47575700D02*
X60775000Y-47750000D01*
X48375000Y-5700000D02*
X49501500Y-6826500D01*
X63000000Y-33199400D02*
X63000000Y-31921000D01*
X53025000Y-20250000D02*
X53775000Y-21000000D01*
X28501300Y-45273300D02*
X29175000Y-45273300D01*
X53500000Y-42540000D02*
X54577500Y-41462500D01*
X53025000Y-32000000D02*
X53025000Y-22347600D01*
X52775000Y-46750000D02*
X54349000Y-48324000D01*
X69186000Y-16199400D02*
X70250000Y-15135400D01*
X55800700Y-22265500D02*
X56250000Y-21816200D01*
X7775000Y-32124700D02*
X7775000Y-32400000D01*
X2612500Y-38750000D02*
X2916300Y-38750000D01*
X33025000Y-18500000D02*
X31101700Y-18500000D01*
X48375000Y-4488700D02*
X47699500Y-3813200D01*
D45*
X63093900Y-33199400D02*
X63000000Y-33199400D01*
D44*
X52029100Y-47495900D02*
X52775000Y-46750000D01*
X57009500Y-6984500D02*
X57009500Y-6826500D01*
X20350000Y-46900000D02*
X19248300Y-46900000D01*
X69315200Y-46063200D02*
X65402600Y-46063200D01*
X62060400Y-9547900D02*
X62812500Y-10300000D01*
X41045700Y-17770700D02*
X41775000Y-18500000D01*
X61635300Y-30556300D02*
X59874400Y-30556300D01*
X59963100Y-29887400D02*
X59874400Y-29976100D01*
X50525800Y-21725000D02*
X51135900Y-21114900D01*
X6850000Y-30250000D02*
X6850000Y-29715400D01*
X54412900Y-10977500D02*
X55435400Y-12000000D01*
D45*
X8259600Y-31000000D02*
X8600000Y-31000000D01*
D44*
X47862500Y-44000000D02*
X48144000Y-44000000D01*
X30500200Y-17900000D02*
X30501700Y-17900000D01*
X68886700Y-33309300D02*
X70250000Y-34672600D01*
X26650000Y-46900000D02*
X27751700Y-46900000D01*
X63219900Y-33199400D02*
X63329800Y-33309300D01*
X34212500Y-18500000D02*
X33025000Y-18500000D01*
X33025000Y-19295300D02*
X33025000Y-21750000D01*
X55775000Y-12000000D02*
X53975000Y-13800000D01*
X57525000Y-19750000D02*
X57025000Y-19750000D01*
X29849300Y-27726000D02*
X27445300Y-27726000D01*
X41773300Y-47375000D02*
X41773300Y-46849100D01*
X8172000Y-26972000D02*
X8950000Y-27750000D01*
X70250000Y-34672600D02*
X70250000Y-34950000D01*
X31673500Y-24374900D02*
X31026800Y-24374900D01*
X59726100Y-27774900D02*
X59726100Y-28763900D01*
D45*
X43950000Y-30726200D02*
X42600500Y-30726200D01*
D44*
X33275000Y-34297400D02*
X31347200Y-36225200D01*
X40224700Y-23500000D02*
X42492200Y-25767500D01*
X27347200Y-24900000D02*
X27347200Y-27627900D01*
X53775000Y-21375000D02*
X53886300Y-21486300D01*
D45*
X59874400Y-31823300D02*
X59612300Y-32085400D01*
D44*
X53025000Y-13800000D02*
X52050000Y-12825000D01*
X65402600Y-46532400D02*
X60224200Y-46532400D01*
X41598100Y-46673900D02*
X29426100Y-46673900D01*
D45*
X63219900Y-33199400D02*
X63093900Y-33199400D01*
D44*
X33075000Y-23500000D02*
X32548300Y-23500000D01*
X43950000Y-28819300D02*
X43950000Y-29750000D01*
X59049900Y-27774900D02*
X59726100Y-27774900D01*
X7400300Y-31750000D02*
X7775000Y-32124700D01*
X50205200Y-41680100D02*
X49775000Y-41250000D01*
D45*
X57823700Y-48324000D02*
X58547000Y-48324000D01*
D44*
X5055600Y-36679200D02*
X5055600Y-36269400D01*
X6850000Y-31750000D02*
X7400300Y-31750000D01*
X49501500Y-6826500D02*
X53467700Y-6826500D01*
D45*
X8135700Y-31000000D02*
X8259600Y-31000000D01*
D44*
X54577500Y-40517600D02*
X53787400Y-39727500D01*
X62256900Y-20494400D02*
X62256900Y-18468100D01*
X42324700Y-26854700D02*
X40129700Y-26854700D01*
X61805300Y-22630900D02*
X62908600Y-21527600D01*
X7116400Y-30250000D02*
X6850000Y-30250000D01*
D45*
X58874300Y-48476100D02*
X59136800Y-48738600D01*
D44*
X51425000Y-35723900D02*
X52250000Y-34898900D01*
D45*
X58547000Y-48324000D02*
X58687500Y-48464500D01*
D44*
X33275000Y-30750000D02*
X33275000Y-32275000D01*
X63000000Y-31921000D02*
X61635300Y-30556300D01*
X27415900Y-27696600D02*
X27062500Y-28050000D01*
X12325000Y-39750000D02*
X14075000Y-41500000D01*
X26450000Y-28050000D02*
X27062500Y-28050000D01*
X60775000Y-37000000D02*
X58725000Y-39050000D01*
X12669300Y-12590700D02*
X11200000Y-14060000D01*
X42324700Y-27194000D02*
X43950000Y-28819300D01*
D45*
X29849300Y-27726000D02*
X31038100Y-27726000D01*
D44*
X3600200Y-38066100D02*
X3600200Y-37841000D01*
X56250000Y-21816200D02*
X56250000Y-20525000D01*
D45*
X56935500Y-45399200D02*
X58463300Y-45399200D01*
D44*
X31676100Y-28364000D02*
X32525000Y-29212900D01*
X33025000Y-23450000D02*
X33075000Y-23500000D01*
D45*
X60663100Y-32800600D02*
X60862500Y-33000000D01*
D44*
X60271000Y-16000000D02*
X57025000Y-19246000D01*
X62737500Y-27225000D02*
X62812500Y-27300000D01*
%TO.N,RAW0*%
X71500000Y-14950000D02*
X71500000Y-9225000D01*
X70850000Y-8575000D02*
X70925000Y-8500000D01*
X69250000Y-8575000D02*
X70850000Y-8575000D01*
X71500000Y-9225000D02*
X70850000Y-8575000D01*
%TO.N,VMID_DIV*%
X58862500Y-47387500D02*
X58862500Y-46780500D01*
X59225000Y-47750000D02*
X58862500Y-47387500D01*
X55175000Y-46000000D02*
X55955500Y-46780500D01*
X56825000Y-44350000D02*
X55175000Y-46000000D01*
X58862500Y-46780500D02*
X58862500Y-45950000D01*
X56825000Y-43000000D02*
X56825000Y-44350000D01*
X55955500Y-46780500D02*
X58862500Y-46780500D01*
%TO.N,VAUX*%
X6799900Y-31300100D02*
X6850000Y-31250000D01*
X3725000Y-31000000D02*
X4500300Y-31775300D01*
D45*
X5976100Y-31475300D02*
X6151300Y-31300100D01*
X6151300Y-31300100D02*
X6799900Y-31300100D01*
D44*
X5676100Y-31775300D02*
X5976100Y-31475300D01*
X4500300Y-31775300D02*
X5676100Y-31775300D01*
%TO.N,POWER_GOOD*%
X6850000Y-30750000D02*
X6256600Y-30750000D01*
X33314200Y-25489200D02*
X33956600Y-25489200D01*
X6256600Y-30750000D02*
X5392400Y-29885800D01*
X33075000Y-25250000D02*
X33314200Y-25489200D01*
%TO.N,FB*%
X3311600Y-33238900D02*
X4563900Y-33238900D01*
D45*
X3024000Y-34375600D02*
X2729100Y-34080700D01*
D44*
X3024000Y-35349000D02*
X3024000Y-34550800D01*
D45*
X3024000Y-34550800D02*
X3024000Y-34375600D01*
D44*
X4563900Y-33238900D02*
X5325000Y-34000000D01*
X5325000Y-34000000D02*
X6925000Y-32400000D01*
X2729100Y-33821400D02*
X3311600Y-33238900D01*
X6925000Y-32400000D02*
X7275000Y-32400000D01*
X2729100Y-34080700D02*
X2729100Y-33821400D01*
X3675000Y-36000000D02*
X3024000Y-35349000D01*
%TO.N,3V3D*%
X39113000Y-27388000D02*
X38749000Y-27752000D01*
X38749000Y-27752000D02*
X38749000Y-28288900D01*
X42050000Y-29750000D02*
X41900000Y-29600000D01*
X41750000Y-29600000D02*
X39725000Y-29600000D01*
X24379400Y-29857400D02*
X24379400Y-28204400D01*
X2362500Y-35850400D02*
X3239600Y-36727500D01*
X4674000Y-34742200D02*
X4417200Y-34742200D01*
X39625000Y-5487700D02*
X41651200Y-3461500D01*
X37750000Y-29358800D02*
X37750000Y-29825000D01*
X8124600Y-38701100D02*
X9173500Y-39750000D01*
X41651200Y-3461500D02*
X47853500Y-3461500D01*
X47853500Y-3461500D02*
X50092000Y-5700000D01*
X46925200Y-44294200D02*
X46925200Y-43692900D01*
X34250000Y-29825000D02*
X35475000Y-31050000D01*
X8275000Y-33174900D02*
X8275000Y-32400000D01*
D45*
X4674000Y-35624400D02*
X4500000Y-35798400D01*
D44*
X50092000Y-5700000D02*
X56625000Y-5700000D01*
X27934600Y-9240400D02*
X30165400Y-9240400D01*
X49950000Y-11175000D02*
X49950000Y-12212500D01*
X47581000Y-44950000D02*
X47581000Y-46912300D01*
X47862500Y-44950000D02*
X47581000Y-44950000D01*
X30925000Y-27000000D02*
X30925000Y-26788500D01*
X48225000Y-41250000D02*
X48225000Y-42687500D01*
X3300000Y-28000000D02*
X2362500Y-28937500D01*
X43838800Y-46798100D02*
X43838800Y-46174900D01*
D45*
X4326000Y-36550800D02*
X4326000Y-36487700D01*
D44*
X35475000Y-32275000D02*
X35475000Y-33126700D01*
X2248300Y-26948300D02*
X3300000Y-28000000D01*
X39113000Y-27388000D02*
X41313000Y-27388000D01*
X32117200Y-28192200D02*
X30925000Y-27000000D01*
X47581000Y-46912300D02*
X46997400Y-47495900D01*
X36901000Y-8390200D02*
X39175000Y-8390200D01*
X25312200Y-10188800D02*
X25741500Y-9759500D01*
X49492100Y-12212500D02*
X49492100Y-16017100D01*
X40309300Y-42645400D02*
X40309300Y-37947400D01*
D46*
X7175000Y-34250000D02*
X6700000Y-34800000D01*
D44*
X47568100Y-43050000D02*
X47862500Y-43050000D01*
X41313000Y-27388000D02*
X41750000Y-27825000D01*
X41876000Y-10304900D02*
X39979900Y-10304900D01*
X4500000Y-35798400D02*
X4500000Y-36313700D01*
X33971700Y-26332400D02*
X33648400Y-26655700D01*
X43838800Y-46174900D02*
X40309300Y-42645400D01*
X25741500Y-9759500D02*
X26934500Y-9759500D01*
X39625000Y-5700000D02*
X39175000Y-6150000D01*
X22238200Y-40063200D02*
X22238200Y-39988200D01*
X39175000Y-8390200D02*
X39175000Y-9500000D01*
X32617200Y-28192200D02*
X32117200Y-28192200D01*
X30925000Y-25750000D02*
X31425000Y-25250000D01*
X33648400Y-27161000D02*
X32617200Y-28192200D01*
X54225000Y-11913000D02*
X54225000Y-12000000D01*
X49862500Y-19612500D02*
X49862500Y-21075000D01*
X38225000Y-26500000D02*
X38057400Y-26332400D01*
X25312200Y-10188800D02*
X22161600Y-7038300D01*
X22161600Y-7038300D02*
X2331100Y-7038300D01*
X38057400Y-26332400D02*
X33971700Y-26332400D01*
X7050000Y-36500000D02*
X8124600Y-37574600D01*
X3239600Y-36727500D02*
X4149300Y-36727500D01*
X7050000Y-34250000D02*
X8125100Y-33174900D01*
X37750000Y-29825000D02*
X36000000Y-29825000D01*
X27175000Y-10000000D02*
X27934600Y-9240400D01*
X49492100Y-16017100D02*
X51475000Y-18000000D01*
X44536600Y-47495900D02*
X43838800Y-46798100D01*
X4417200Y-34742200D02*
X3675000Y-34000000D01*
X35488600Y-33126700D02*
X35475000Y-33126700D01*
D45*
X38749000Y-28288900D02*
X38363700Y-28674200D01*
D44*
X6557800Y-34742200D02*
X6557800Y-36007800D01*
D45*
X4674000Y-35449200D02*
X4674000Y-35624400D01*
D44*
X23501000Y-12000000D02*
X25312200Y-10188800D01*
X50775700Y-10349300D02*
X52661300Y-10349300D01*
X39175000Y-6150000D02*
X39175000Y-8390200D01*
X39625000Y-5700000D02*
X39625000Y-5487700D01*
X4149300Y-36727500D02*
X4326000Y-36550800D01*
X39725000Y-29600000D02*
X39500000Y-29825000D01*
X23175000Y-41000000D02*
X22238200Y-40063200D01*
X3250000Y-9010000D02*
X2248300Y-9010000D01*
X52661300Y-10349300D02*
X54225000Y-11913000D01*
X8125100Y-33174900D02*
X8275000Y-33174900D01*
X2362500Y-28937500D02*
X2362500Y-35850400D01*
X6557800Y-34742200D02*
X4674000Y-34742200D01*
X4500000Y-36313700D02*
X4438100Y-36375600D01*
X8775000Y-32400000D02*
X9250000Y-32400000D01*
X7050000Y-34250000D02*
X6557800Y-34742200D01*
X49950000Y-11175000D02*
X50775700Y-10349300D01*
X31135300Y-8789700D02*
X31208200Y-8789700D01*
X41750000Y-29600000D02*
X41750000Y-27825000D01*
X2248300Y-7121100D02*
X2248300Y-9010000D01*
X30925000Y-26788500D02*
X27919300Y-26788500D01*
D45*
X38363700Y-28674200D02*
X38363700Y-28745100D01*
D44*
X30165400Y-9240400D02*
X30425000Y-9500000D01*
X32617200Y-28192200D02*
X34250000Y-29825000D01*
X51475000Y-18000000D02*
X49862500Y-19612500D01*
X33648400Y-26655700D02*
X33648400Y-27161000D01*
X24379400Y-28204400D02*
X23175000Y-27000000D01*
X9173500Y-39750000D02*
X10725000Y-39750000D01*
X38225000Y-26500000D02*
X39113000Y-27388000D01*
X39175000Y-9500000D02*
X33875000Y-14800000D01*
X49950000Y-12212500D02*
X49950000Y-12825000D01*
X40309300Y-37947400D02*
X35488600Y-33126700D01*
X8275000Y-32400000D02*
X8775000Y-32400000D01*
X2331100Y-7038300D02*
X2248300Y-7121100D01*
X49950000Y-12212500D02*
X49492100Y-12212500D01*
X48225000Y-42687500D02*
X47862500Y-43050000D01*
X6557800Y-36007800D02*
X7050000Y-36500000D01*
X8124600Y-37574600D02*
X8124600Y-38701100D01*
X26934500Y-9759500D02*
X27175000Y-10000000D01*
X43925000Y-12212500D02*
X43925000Y-13000000D01*
X49492100Y-12212500D02*
X43925000Y-12212500D01*
X46925200Y-43692900D02*
X47568100Y-43050000D01*
X30925000Y-26788500D02*
X30925000Y-25750000D01*
X39979900Y-10304900D02*
X39175000Y-9500000D01*
X43925000Y-12212500D02*
X43783600Y-12212500D01*
X43783600Y-12212500D02*
X41876000Y-10304900D01*
X35475000Y-31050000D02*
X35475000Y-32275000D01*
D45*
X4326000Y-36487700D02*
X4438100Y-36375600D01*
D44*
X47581000Y-44950000D02*
X46925200Y-44294200D01*
X46997400Y-47495900D02*
X44536600Y-47495900D01*
X38363700Y-28745100D02*
X37750000Y-29358800D01*
X8275000Y-32400000D02*
X8775000Y-32400000D01*
X23175000Y-12000000D02*
X23501000Y-12000000D01*
X30425000Y-9500000D02*
X31135300Y-8789700D01*
X4674000Y-34742200D02*
X4674000Y-35449200D01*
X33875000Y-14800000D02*
X33875000Y-15950000D01*
X2248300Y-9010000D02*
X2248300Y-26948300D01*
X41900000Y-29600000D02*
X41750000Y-29600000D01*
%TO.N,SW_L2*%
D47*
X14185000Y-33150000D02*
X14185000Y-31000000D01*
D48*
X8775000Y-31500000D02*
X10000000Y-31500000D01*
D47*
X10000000Y-33150000D02*
X14185000Y-33150000D01*
X10000000Y-31500000D02*
X10000000Y-33150000D01*
%TO.N,SW_L1*%
X9750000Y-30500000D02*
X11815000Y-30500000D01*
D48*
X8775000Y-30500000D02*
X9750000Y-30500000D01*
%TO.N,VBAT*%
D44*
X8275000Y-29600000D02*
X8275000Y-28975000D01*
X13947700Y-28338300D02*
X16859400Y-31250000D01*
X8275000Y-28975000D02*
X7050000Y-27750000D01*
X27062500Y-29950000D02*
X24248200Y-32764300D01*
X8275000Y-29600000D02*
X8775000Y-29600000D01*
X19764300Y-32764300D02*
X18250000Y-31250000D01*
X9772700Y-29600000D02*
X10047400Y-29325300D01*
X16859400Y-31250000D02*
X18250000Y-31250000D01*
X24248200Y-32764300D02*
X19764300Y-32764300D01*
X8775000Y-29600000D02*
X9772700Y-29600000D01*
X11655100Y-28338300D02*
X10816800Y-27500000D01*
X10816800Y-27500000D02*
X10675000Y-27500000D01*
X11655100Y-28338300D02*
X13947700Y-28338300D01*
%TO.N,POWER_EN*%
X7481400Y-29012700D02*
X7775000Y-29306300D01*
X7775000Y-29306300D02*
X7775000Y-29600000D01*
X20750000Y-31250000D02*
X19667900Y-30167900D01*
X6564000Y-29163700D02*
X6715000Y-29012700D01*
X6715000Y-29012700D02*
X7481400Y-29012700D01*
%TO.N,LED_LOW_A*%
X45537500Y-10962500D02*
X44075000Y-9500000D01*
X45537500Y-11250000D02*
X45537500Y-10962500D01*
%TO.N,SD_D2*%
X39500000Y-28175000D02*
X38700000Y-28975000D01*
X38700000Y-31348300D02*
X38775000Y-31423300D01*
X38700000Y-28975000D02*
X38700000Y-31348300D01*
X38775000Y-32275000D02*
X38775000Y-31423300D01*
%TO.N,SD_D3*%
X37675000Y-32275000D02*
X37675000Y-33126700D01*
X37976300Y-33350400D02*
X37752600Y-33126700D01*
X41750000Y-26175000D02*
X40827800Y-25252800D01*
X37752600Y-33126700D02*
X37675000Y-33126700D01*
X40827800Y-25252800D02*
X38775200Y-25252800D01*
%TO.N,SD_CMD*%
X19748300Y-22489900D02*
X19545300Y-22692900D01*
X34250000Y-28175000D02*
X35095000Y-29020000D01*
X20750000Y-19170000D02*
X19748300Y-19170000D01*
X19748300Y-19170000D02*
X19748300Y-22489900D01*
X35125000Y-29020000D02*
X35125000Y-30111700D01*
X36575000Y-32275000D02*
X36575000Y-31423300D01*
X36436600Y-31423300D02*
X36575000Y-31423300D01*
X35125000Y-30111700D02*
X36436600Y-31423300D01*
X35095000Y-29020000D02*
X35125000Y-29020000D01*
%TO.N,SD_CLK*%
X23014700Y-28255600D02*
X21819400Y-28255600D01*
X34375000Y-33126700D02*
X34238700Y-33126700D01*
X34375000Y-32275000D02*
X34375000Y-33126700D01*
X21819400Y-28255600D02*
X21575000Y-28500000D01*
X34238700Y-33126700D02*
X34029400Y-33336000D01*
%TO.N,SD_D0*%
X20750000Y-16630000D02*
X19748300Y-16630000D01*
X19748300Y-16753400D02*
X19547100Y-16954600D01*
X19748300Y-16630000D02*
X19748300Y-16753400D01*
X36000000Y-28175000D02*
X36794400Y-28969400D01*
X32175000Y-32275000D02*
X32175000Y-31218400D01*
%TO.N,SD_D1*%
X37750000Y-28175000D02*
X36459100Y-26884100D01*
X36459100Y-26884100D02*
X34200100Y-26884100D01*
X31075000Y-32275000D02*
X31075000Y-33332300D01*
%TO.N,BUF2B*%
X44925000Y-32900000D02*
X45881000Y-31944000D01*
X45881000Y-31944000D02*
X46256500Y-31944000D01*
X60862500Y-34950000D02*
X57524200Y-34950000D01*
X44925000Y-34000000D02*
X44925000Y-32900000D01*
X56524000Y-35950200D02*
X51989600Y-35950200D01*
X60862500Y-34300000D02*
X60862500Y-34950000D01*
X57524200Y-34950000D02*
X56524000Y-35950200D01*
%TO.N,AIN2P*%
X46575000Y-34000000D02*
X46575000Y-33655000D01*
X45108200Y-39275000D02*
X45776900Y-38606300D01*
X44732400Y-24975000D02*
X45353000Y-25595600D01*
X44137500Y-24975000D02*
X44732400Y-24975000D01*
X45000000Y-39275000D02*
X45108200Y-39275000D01*
X46575000Y-33655000D02*
X46046200Y-33126200D01*
%TO.N,AIN1P*%
X42000000Y-22775000D02*
X43550000Y-24325000D01*
X43550000Y-24325000D02*
X44137500Y-24325000D01*
X44137500Y-24325000D02*
X44924800Y-24325000D01*
X47325000Y-26725200D02*
X47325000Y-28500000D01*
X44924800Y-24325000D02*
X47325000Y-26725200D01*
%TO.N,AIN1N*%
X42740700Y-21965700D02*
X42000000Y-21225000D01*
X42740700Y-22927600D02*
X42740700Y-21965700D01*
X48029000Y-29546000D02*
X47325000Y-30250000D01*
X48029000Y-26874000D02*
X48029000Y-29546000D01*
X44137500Y-23675000D02*
X44830000Y-23675000D01*
X43488100Y-23675000D02*
X42740700Y-22927600D01*
X44137500Y-23675000D02*
X43488100Y-23675000D01*
X44830000Y-23675000D02*
X48029000Y-26874000D01*
%TO.N,USB_DM*%
X3922800Y-43726400D02*
X5250000Y-42399200D01*
X2452800Y-39859700D02*
X906600Y-41405900D01*
X5250000Y-41820000D02*
X5250000Y-41229700D01*
X1311300Y-38718200D02*
X1311300Y-33858500D01*
X13925000Y-27500000D02*
X15583900Y-29158900D01*
X2452800Y-39859700D02*
X1311300Y-38718200D01*
X5250000Y-41229700D02*
X5500600Y-40979100D01*
X6001700Y-40979100D02*
X6250000Y-41227400D01*
X5500600Y-40979100D02*
X6001700Y-40979100D01*
X15583900Y-29158900D02*
X15683700Y-29158900D01*
X2612500Y-39700000D02*
X2452800Y-39859700D01*
X906600Y-41405900D02*
X906600Y-43346600D01*
X1286400Y-43726400D02*
X3922800Y-43726400D01*
X5250000Y-42399200D02*
X5250000Y-41820000D01*
X6250000Y-41227400D02*
X6250000Y-41820000D01*
X906600Y-43346600D02*
X1286400Y-43726400D01*
%TO.N,USB_DM_MCU*%
X3250000Y-22980000D02*
X5663800Y-22980000D01*
X15575000Y-27500000D02*
X14832500Y-26757500D01*
X5663800Y-22980000D02*
X6406800Y-23723000D01*
X14832500Y-26757500D02*
X14800500Y-26757500D01*
%TO.N,BUF2A*%
X54175000Y-29250000D02*
X60862500Y-22562500D01*
X60862500Y-17300000D02*
X60862500Y-17950000D01*
X60862500Y-22562500D02*
X60862500Y-17950000D01*
%TO.N,RC2B*%
X53586400Y-35549800D02*
X53075000Y-35038400D01*
X59000000Y-29275000D02*
X59000000Y-33650000D01*
X56251900Y-35549800D02*
X53586400Y-35549800D01*
X59000000Y-29275000D02*
X55850000Y-29275000D01*
X55850000Y-29275000D02*
X55825000Y-29250000D01*
X59000000Y-33650000D02*
X60862500Y-33650000D01*
X59000000Y-33650000D02*
X58151700Y-33650000D01*
X53075000Y-35038400D02*
X53075000Y-33750000D01*
X58151700Y-33650000D02*
X56251900Y-35549800D01*
%TO.N,VMID*%
X53914600Y-22989600D02*
X54175000Y-23250000D01*
X57425000Y-12250000D02*
X57749900Y-11925100D01*
X72091000Y-28766000D02*
X72091000Y-38234000D01*
X63475000Y-45750000D02*
X64825000Y-44400000D01*
X43238700Y-41780000D02*
X44848500Y-40170200D01*
X49051400Y-40170200D02*
X51073300Y-38148300D01*
X72100600Y-28224400D02*
X71825000Y-28500000D01*
X44925000Y-46750000D02*
X43238700Y-45063700D01*
X72091000Y-38234000D02*
X71825000Y-38500000D01*
X64825000Y-44000000D02*
X67257900Y-44000000D01*
X51425000Y-33750000D02*
X49867800Y-32192800D01*
X46808200Y-32192800D02*
X46426600Y-32574400D01*
X72255400Y-39446700D02*
X72255400Y-38930400D01*
X45581500Y-34704000D02*
X44925000Y-35360500D01*
X46808200Y-31383200D02*
X46808200Y-31552600D01*
X72575000Y-17750000D02*
X71825000Y-18500000D01*
X64825000Y-44400000D02*
X64825000Y-44000000D01*
X49867800Y-32192800D02*
X46808200Y-32192800D01*
X44848500Y-40170200D02*
X49051400Y-40170200D01*
X45494500Y-33354600D02*
X45581500Y-33441600D01*
X43238700Y-45063700D02*
X43238700Y-41780000D01*
X44925000Y-35360500D02*
X44925000Y-36000000D01*
X47890000Y-31552600D02*
X46808200Y-31552600D01*
X72255400Y-38930400D02*
X71825000Y-38500000D01*
X72100600Y-18775600D02*
X72100600Y-28224400D01*
X71825000Y-18500000D02*
X72100600Y-18775600D01*
X72575000Y-8500000D02*
X72575000Y-17750000D01*
X43425000Y-18500000D02*
X43425000Y-18816000D01*
X43425000Y-18816000D02*
X43971900Y-19362900D01*
X51425000Y-33750000D02*
X51073300Y-34101700D01*
X45581500Y-33441600D02*
X45581500Y-34704000D01*
X46808200Y-31552600D02*
X46808200Y-32192800D01*
X46426600Y-32574400D02*
X45793100Y-32574400D01*
X45793100Y-32574400D02*
X45494500Y-32873000D01*
X45494500Y-32873000D02*
X45494500Y-33354600D01*
X57749900Y-11925100D02*
X57749900Y-11292400D01*
X71825000Y-28500000D02*
X72091000Y-28766000D01*
X51073300Y-34101700D02*
X51073300Y-38148300D01*
X45675000Y-30250000D02*
X46808200Y-31383200D01*
X53914600Y-22314700D02*
X53914600Y-22989600D01*
X51073300Y-38148300D02*
X53925000Y-41000000D01*
%TO.N,BUTTON*%
X31791500Y-26216500D02*
X31567300Y-26216500D01*
X20350000Y-43100000D02*
X19248300Y-43100000D01*
X3250000Y-20440000D02*
X10372500Y-20440000D01*
X26650000Y-43100000D02*
X20350000Y-43100000D01*
X19248300Y-43100000D02*
X19034900Y-43313400D01*
X19034900Y-43313400D02*
X18688400Y-43313400D01*
X32575000Y-27000000D02*
X31791500Y-26216500D01*
%TO.N,AIN0P*%
X44682100Y-19434200D02*
X44682100Y-19275000D01*
X46750000Y-19275000D02*
X44682100Y-19275000D01*
X44415600Y-19008500D02*
X44415600Y-17159400D01*
X44137500Y-22375000D02*
X43550200Y-22375000D01*
X43100600Y-20834700D02*
X43656600Y-20278700D01*
X43656600Y-20278700D02*
X43837600Y-20278700D01*
X44682100Y-19275000D02*
X44415600Y-19008500D01*
X43837600Y-20278700D02*
X44682100Y-19434200D01*
X43550200Y-22375000D02*
X43100600Y-21925400D01*
X43100600Y-21925400D02*
X43100600Y-20834700D01*
X44415600Y-17159400D02*
X45575000Y-16000000D01*
%TO.N,AIN0N*%
X44860600Y-20302500D02*
X46899800Y-20302500D01*
X47511500Y-18486500D02*
X46750000Y-17725000D01*
X45850000Y-17725000D02*
X45075000Y-18500000D01*
X45450800Y-23025000D02*
X45703600Y-22772200D01*
X46899800Y-20302500D02*
X47511500Y-19690800D01*
X46750000Y-17725000D02*
X45850000Y-17725000D01*
X47511500Y-19690800D02*
X47511500Y-18486500D01*
X44137500Y-23025000D02*
X45450800Y-23025000D01*
%TO.N,AIN2N*%
X45813900Y-35251700D02*
X45826700Y-35251700D01*
X46575000Y-36150000D02*
X46575000Y-36000000D01*
X45826700Y-35251700D02*
X46575000Y-36000000D01*
X43129800Y-25625000D02*
X42932800Y-25428000D01*
X44137500Y-25625000D02*
X43129800Y-25625000D01*
X45000000Y-37725000D02*
X46575000Y-36150000D01*
%TO.N,AIN3N*%
X42876400Y-26922600D02*
X42876400Y-26965600D01*
X43813300Y-43225000D02*
X45000000Y-43225000D01*
X44137500Y-26275000D02*
X43524000Y-26275000D01*
X44229100Y-45160400D02*
X44886400Y-45817700D01*
X44229100Y-43995900D02*
X44229100Y-45160400D01*
X45000000Y-43225000D02*
X44229100Y-43995900D01*
X43524000Y-26275000D02*
X42876400Y-26922600D01*
X45642700Y-45817700D02*
X46575000Y-46750000D01*
X44886400Y-45817700D02*
X45642700Y-45817700D01*
%TO.N,AIN3P*%
X46575000Y-41496200D02*
X45797400Y-42273800D01*
X44137500Y-26925000D02*
X44706400Y-27493900D01*
X44706400Y-27493900D02*
X44706400Y-30732100D01*
X45000000Y-44775000D02*
X45797400Y-43977600D01*
X46575000Y-41250000D02*
X46575000Y-41496200D01*
X45797400Y-43977600D02*
X45797400Y-42273800D01*
%TO.N,ADC_RESET*%
X7555000Y-24498300D02*
X7636300Y-24498300D01*
X9953100Y-22181500D02*
X13373000Y-22181500D01*
X49862500Y-26925000D02*
X50464100Y-26925000D01*
X40707800Y-9500000D02*
X40825000Y-9500000D01*
X40043300Y-8835500D02*
X40707800Y-9500000D01*
X50464100Y-26925000D02*
X51975200Y-25413900D01*
X7555000Y-25500000D02*
X7555000Y-24498300D01*
X51975200Y-25413900D02*
X51975200Y-24684400D01*
X7636300Y-24498300D02*
X9953100Y-22181500D01*
%TO.N,ADC_CS*%
X10666100Y-24498300D02*
X11329800Y-23834600D01*
X8825000Y-24498300D02*
X10666100Y-24498300D01*
X49862500Y-26275000D02*
X50480100Y-26275000D01*
X51398400Y-25356700D02*
X51398400Y-25179000D01*
X45421300Y-13000000D02*
X45575000Y-13000000D01*
X44783400Y-13637900D02*
X45421300Y-13000000D01*
X50480100Y-26275000D02*
X51398400Y-25356700D01*
X8825000Y-25500000D02*
X8825000Y-24498300D01*
%TO.N,ADC_DRDY*%
X12317000Y-21113700D02*
X15493200Y-21113700D01*
X11720700Y-21710000D02*
X12317000Y-21113700D01*
X3250000Y-21710000D02*
X11720700Y-21710000D01*
X49811100Y-25573600D02*
X47724900Y-25573600D01*
X49862500Y-25625000D02*
X49811100Y-25573600D01*
%TO.N,ADC_SCK*%
X11836400Y-24498300D02*
X14008100Y-22326600D01*
X49862500Y-24975000D02*
X48664100Y-24975000D01*
X11365000Y-24498300D02*
X11836400Y-24498300D01*
X11365000Y-25500000D02*
X11365000Y-24498300D01*
X14008100Y-22326600D02*
X17782300Y-22326600D01*
%TO.N,ADC_MISO*%
X13461000Y-23672300D02*
X12635000Y-24498300D01*
X18233700Y-23672300D02*
X13461000Y-23672300D01*
X12635000Y-25500000D02*
X12635000Y-24498300D01*
X49862500Y-24325000D02*
X47636400Y-24325000D01*
X47636400Y-24325000D02*
X47461600Y-24150200D01*
%TO.N,ADC_MOSI*%
X49862500Y-23675000D02*
X48669800Y-23675000D01*
X10095000Y-26501700D02*
X9977200Y-26619500D01*
X48669800Y-23675000D02*
X48583800Y-23761000D01*
X9977200Y-27934100D02*
X10536900Y-28493800D01*
X10095000Y-25500000D02*
X10095000Y-26501700D01*
X9977200Y-26619500D02*
X9977200Y-27934100D01*
X10536900Y-28493800D02*
X10845300Y-28493800D01*
%TO.N,ADC_CLK*%
X51825000Y-15248900D02*
X51825000Y-15000000D01*
X49862500Y-23025000D02*
X50594700Y-23025000D01*
X52406600Y-15830500D02*
X51825000Y-15248900D01*
X50594700Y-23025000D02*
X51096400Y-22523300D01*
%TO.N,ADC_CAP*%
X52225000Y-21000000D02*
X51839600Y-21000000D01*
X50464600Y-22375000D02*
X49862500Y-22375000D01*
X51839600Y-21000000D02*
X50464600Y-22375000D01*
%TO.N,USB_CC2*%
X8175100Y-40896100D02*
X7750000Y-41321200D01*
X12425000Y-41500000D02*
X11821100Y-40896100D01*
X11821100Y-40896100D02*
X8175100Y-40896100D01*
X7750000Y-41321200D02*
X7750000Y-41820000D01*
%TO.N,RC2A*%
X64687500Y-30612500D02*
X64687500Y-29764200D01*
X64687500Y-29764200D02*
X61739200Y-29764200D01*
X64687500Y-29027300D02*
X64687500Y-28250000D01*
X64687500Y-29764200D02*
X64687500Y-29027300D01*
X61739200Y-29764200D02*
X60750000Y-28775000D01*
X62495800Y-16650000D02*
X62631500Y-16785700D01*
X60862500Y-16650000D02*
X62495800Y-16650000D01*
X65000000Y-30925000D02*
X64687500Y-30612500D01*
%TO.N,LED_REC*%
X20750000Y-15360000D02*
X19522400Y-15360000D01*
X29175000Y-7750000D02*
X24431600Y-7750000D01*
%TO.N,LED_REC_A*%
X33120500Y-8749100D02*
X34536600Y-8749100D01*
X34536600Y-8749100D02*
X35287500Y-9500000D01*
X32599300Y-8813400D02*
X33056200Y-8813400D01*
X31535900Y-7750000D02*
X32599300Y-8813400D01*
X33056200Y-8813400D02*
X33120500Y-8749100D01*
X30825000Y-7750000D02*
X31535900Y-7750000D01*
%TO.N,RAW2*%
X69627500Y-27952500D02*
X67811200Y-27952500D01*
X65000000Y-32575000D02*
X64281000Y-31856000D01*
X71500000Y-29825000D02*
X71500000Y-34950000D01*
X70175000Y-28500000D02*
X71500000Y-29825000D01*
X70175000Y-28500000D02*
X69627500Y-27952500D01*
%TO.N,OSC_OUT*%
X51000000Y-12225000D02*
X52050000Y-11175000D01*
X51000000Y-14175000D02*
X51000000Y-12225000D01*
X50175000Y-15000000D02*
X51000000Y-14175000D01*
%TO.N,IMU_SCL*%
X3250000Y-14090000D02*
X4462300Y-14090000D01*
X59125000Y-5433900D02*
X59125000Y-5700000D01*
X57397800Y-4451400D02*
X58142500Y-4451400D01*
X58142500Y-4451400D02*
X59125000Y-5433900D01*
X42125000Y-4392300D02*
X42125000Y-5700000D01*
%TO.N,IMU_SDA*%
X43375000Y-6508500D02*
X43375000Y-5700000D01*
X59715800Y-4378900D02*
X60375000Y-5038100D01*
X3250000Y-11550000D02*
X4471600Y-11550000D01*
X42854800Y-7028700D02*
X43375000Y-6508500D01*
X60375000Y-5038100D02*
X60375000Y-5700000D01*
%TO.N,IMU_RESERVED*%
X59304800Y-7653300D02*
X59896200Y-7653300D01*
X61625000Y-5924500D02*
X61625000Y-5700000D01*
X43888100Y-7200900D02*
X44625000Y-6464000D01*
X44625000Y-6464000D02*
X44625000Y-5700000D01*
X59896200Y-7653300D02*
X61625000Y-5924500D01*
X3250000Y-12820000D02*
X6673700Y-12820000D01*
%TO.N,SHANK_AD0*%
X32075000Y-9500000D02*
X29999900Y-11575100D01*
X62875000Y-5700000D02*
X62875000Y-5424800D01*
X57121600Y-3807000D02*
X56922300Y-4006300D01*
X3250000Y-16630000D02*
X6641500Y-16630000D01*
X62875000Y-5424800D02*
X61257200Y-3807000D01*
X48968000Y-4006300D02*
X48071500Y-3109800D01*
X29999900Y-11575100D02*
X29542500Y-11575100D01*
X48071500Y-3109800D02*
X40854200Y-3109800D01*
X61257200Y-3807000D02*
X57121600Y-3807000D01*
X56922300Y-4006300D02*
X48968000Y-4006300D01*
%TO.N,SHANK_INT*%
X3250000Y-19170000D02*
X4478000Y-19170000D01*
X64658800Y-4508700D02*
X64125000Y-5042500D01*
X64125000Y-5042500D02*
X64125000Y-5700000D01*
%TO.N,USB_GATE*%
X21575000Y-39250000D02*
X21068200Y-39250000D01*
X21575000Y-39250000D02*
X23175000Y-39250000D01*
X30975000Y-30000000D02*
X23175000Y-37800000D01*
X16245300Y-39982800D02*
X16062500Y-39800000D01*
X21068200Y-39250000D02*
X20335400Y-39982800D01*
X23175000Y-37800000D02*
X23175000Y-39250000D01*
X20335400Y-39982800D02*
X16245300Y-39982800D01*
%TO.N,BAT_SENSE*%
X25635800Y-23500000D02*
X24976700Y-24159100D01*
X31475000Y-21750000D02*
X31425000Y-21800000D01*
X20750000Y-9010000D02*
X19748300Y-9010000D01*
X12325000Y-27472800D02*
X13025500Y-26772300D01*
X31425000Y-23500000D02*
X25635800Y-23500000D01*
X31425000Y-21800000D02*
X31425000Y-23500000D01*
X19748300Y-9010000D02*
X19534300Y-9010000D01*
X12325000Y-27500000D02*
X12325000Y-27472800D01*
%TO.N,RAW3*%
X65000000Y-37075000D02*
X68750000Y-37075000D01*
X71500000Y-44950000D02*
X71500000Y-39825000D01*
X71500000Y-39825000D02*
X70175000Y-38500000D01*
X68750000Y-37075000D02*
X70175000Y-38500000D01*
%TO.N,BUF1A*%
X55425000Y-21500000D02*
X54723100Y-20798100D01*
X54723100Y-20798100D02*
X54723100Y-18364400D01*
X55137500Y-17300000D02*
X55137500Y-17950000D01*
X54723100Y-18364400D02*
X55137500Y-17950000D01*
%TO.N,RC1B*%
X53770200Y-30614900D02*
X53517000Y-30361700D01*
X55825000Y-23250000D02*
X57075000Y-22000000D01*
X57850000Y-22775000D02*
X57075000Y-22000000D01*
X53517000Y-30361700D02*
X53517000Y-25558000D01*
X57075000Y-22000000D02*
X57075000Y-21500000D01*
X53517000Y-25558000D02*
X55825000Y-23250000D01*
X53770200Y-32887200D02*
X53770200Y-30614900D01*
X59000000Y-22775000D02*
X57850000Y-22775000D01*
X55137500Y-33650000D02*
X54533000Y-33650000D01*
X54533000Y-33650000D02*
X53770200Y-32887200D01*
%TO.N,RAW1*%
X69461300Y-19325000D02*
X71500000Y-21363700D01*
X71500000Y-21363700D02*
X71500000Y-24950000D01*
X69461300Y-19213700D02*
X69461300Y-19325000D01*
X70175000Y-18500000D02*
X69461300Y-19213700D01*
X69461300Y-19325000D02*
X65000000Y-19325000D01*
%TO.N,RC1A*%
X55137500Y-16650000D02*
X54524000Y-16650000D01*
X65000000Y-17675000D02*
X64175000Y-18500000D01*
X63265400Y-19275000D02*
X63000000Y-19275000D01*
X64175000Y-18500000D02*
X64040400Y-18500000D01*
X54524000Y-16650000D02*
X53933600Y-17240400D01*
X64687500Y-20962500D02*
X64687500Y-22000000D01*
X64040400Y-18500000D02*
X63265400Y-19275000D01*
X53933600Y-17240400D02*
X53933600Y-17372100D01*
X63000000Y-19275000D02*
X64687500Y-20962500D01*
%TO.N,BUF0B*%
X43925000Y-16899500D02*
X43925000Y-16000000D01*
X55776900Y-31050000D02*
X56848000Y-29978900D01*
X55137500Y-31050000D02*
X55776900Y-31050000D01*
X43863400Y-16961100D02*
X43925000Y-16899500D01*
X55137500Y-31700000D02*
X55137500Y-31050000D01*
%TO.N,RC0A*%
X57125000Y-15350000D02*
X61225000Y-11250000D01*
X69012500Y-6925000D02*
X64687500Y-11250000D01*
X55137500Y-15350000D02*
X57125000Y-15350000D01*
X61225000Y-11250000D02*
X64687500Y-11250000D01*
X69250000Y-6925000D02*
X69012500Y-6925000D01*
X60750000Y-10775000D02*
X61225000Y-11250000D01*
%TO.N,VMID_BUF*%
X61820100Y-45354900D02*
X61137500Y-45354900D01*
X61137500Y-45354900D02*
X61137500Y-45950000D01*
X58862500Y-44050000D02*
X59832600Y-44050000D01*
X63175000Y-44000000D02*
X61820100Y-45354900D01*
X59832600Y-44050000D02*
X61137500Y-45354900D01*
%TO.N,BOOT*%
X29400000Y-14100000D02*
X28298300Y-14100000D01*
X24825000Y-27000000D02*
X24048100Y-26223100D01*
X23100000Y-14100000D02*
X21998300Y-14100000D01*
X28298300Y-14100000D02*
X23100000Y-14100000D01*
X22645100Y-26223100D02*
X21751700Y-25329700D01*
D45*
X21750200Y-17375000D02*
X21853700Y-17271500D01*
X21750200Y-24250000D02*
X21750200Y-17375000D01*
D44*
X21750200Y-24250000D02*
X21751700Y-24250000D01*
X24048100Y-26223100D02*
X22645100Y-26223100D01*
X21663400Y-24250000D02*
X21750200Y-24250000D01*
X21853700Y-14244600D02*
X21998300Y-14100000D01*
X21853700Y-17271500D02*
X21853700Y-14244600D01*
X21751700Y-25329700D02*
X21751700Y-24250000D01*
X20750000Y-24250000D02*
X21663400Y-24250000D01*
%TO.N,SD_CLK_MCU*%
X19748300Y-17900000D02*
X19528100Y-17900000D01*
X20750000Y-17900000D02*
X19748300Y-17900000D01*
X19925000Y-28500000D02*
X19055000Y-28500000D01*
%TO.N,LED_LOW*%
X24440800Y-10280000D02*
X24500900Y-10219900D01*
X40772500Y-7847500D02*
X42425000Y-9500000D01*
X20750000Y-10280000D02*
X21751700Y-10280000D01*
X40181300Y-7847500D02*
X40772500Y-7847500D01*
X21751700Y-10280000D02*
X24440800Y-10280000D01*
%TO.N,USB_DP*%
X6081200Y-42689100D02*
X6464800Y-42689100D01*
X17852400Y-42349800D02*
X18575200Y-42349800D01*
X5750000Y-42357900D02*
X6081200Y-42689100D01*
X7327000Y-44195900D02*
X10012600Y-44195900D01*
X6464800Y-42689100D02*
X6750000Y-42403900D01*
X6003700Y-42872600D02*
X7327000Y-44195900D01*
X2612500Y-37800000D02*
X2541200Y-37728700D01*
X18575200Y-42349800D02*
X19925000Y-41000000D01*
X6003700Y-42872600D02*
X6003700Y-42766600D01*
X6750000Y-42403900D02*
X6750000Y-41820000D01*
X6003700Y-42766600D02*
X6081200Y-42689100D01*
X5750000Y-41820000D02*
X5750000Y-42357900D01*
X13949600Y-46252600D02*
X17852400Y-42349800D01*
X12069300Y-46252600D02*
X13949600Y-46252600D01*
X10012600Y-44195900D02*
X12069300Y-46252600D01*
X2541200Y-37728700D02*
X2541200Y-37023100D01*
%TO.N,USB_DP_MCU*%
X4251700Y-24250000D02*
X4276400Y-24274700D01*
X4276400Y-24274700D02*
X7079700Y-24274700D01*
X7079700Y-24274700D02*
X7503800Y-23850600D01*
X21575000Y-41000000D02*
X21575000Y-40717200D01*
X21575000Y-40717200D02*
X21014500Y-40156700D01*
X3250000Y-24250000D02*
X4251700Y-24250000D01*
%TO.N,EN*%
X24825000Y-11345600D02*
X25851400Y-10319200D01*
X24245800Y-21055900D02*
X24201700Y-21100000D01*
X26475000Y-12000000D02*
X24825000Y-12000000D01*
X8238100Y-10280000D02*
X3250000Y-10280000D01*
X27421900Y-21100000D02*
X27377800Y-21055900D01*
X8882000Y-9636100D02*
X8238100Y-10280000D01*
X27377800Y-21055900D02*
X24245800Y-21055900D01*
X29400000Y-21100000D02*
X27421900Y-21100000D01*
X25851400Y-10319200D02*
X26228900Y-10319200D01*
X27377800Y-21055900D02*
X27377800Y-20122700D01*
X23100000Y-21100000D02*
X24201700Y-21100000D01*
X24825000Y-12000000D02*
X24825000Y-11345600D01*
%TO.N,RC3B*%
X61497900Y-32350000D02*
X60862500Y-32350000D01*
X61033800Y-36025200D02*
X61879100Y-35179900D01*
X55575000Y-39000000D02*
X58549800Y-36025200D01*
X55575000Y-41000000D02*
X55575000Y-39000000D01*
X53500000Y-44275000D02*
X54363800Y-43411200D01*
X61879100Y-32731200D02*
X61497900Y-32350000D01*
X54363800Y-43411200D02*
X54363800Y-42211200D01*
X54363800Y-42211200D02*
X55575000Y-41000000D01*
X61879100Y-35179900D02*
X61879100Y-32731200D01*
X58549800Y-36025200D02*
X61033800Y-36025200D01*
%TO.N,PACK_PLUS*%
X28937500Y-29000000D02*
X26361700Y-29000000D01*
X14625000Y-47950000D02*
X13862700Y-47950000D01*
%TO.N,USB_CC1*%
X4750000Y-41820000D02*
X4750000Y-41532500D01*
X4659600Y-41265400D02*
X7425000Y-38500000D01*
D45*
X4659600Y-41442100D02*
X4659600Y-41384200D01*
X4750000Y-41532500D02*
X4659600Y-41442100D01*
D44*
X4659600Y-41384200D02*
X4659600Y-41265400D01*
%TO.N,RC0B*%
X59000000Y-10525000D02*
X59075000Y-10600000D01*
X59000000Y-10525000D02*
X57013200Y-10525000D01*
X56100000Y-10525000D02*
X55825000Y-10250000D01*
X57013200Y-10525000D02*
X56100000Y-10525000D01*
X54121900Y-30802100D02*
X54729700Y-30194300D01*
X54547800Y-32350000D02*
X54121900Y-31924100D01*
X54121900Y-31924100D02*
X54121900Y-30802100D01*
X59075000Y-10600000D02*
X59075000Y-12250000D01*
X55137500Y-32350000D02*
X54547800Y-32350000D01*
%TO.N,RC3A*%
X65000000Y-35425000D02*
X64050700Y-35425000D01*
X63000000Y-37025000D02*
X60025000Y-40000000D01*
X63400000Y-37025000D02*
X63000000Y-37025000D01*
X60862500Y-15350000D02*
X62053100Y-15350000D01*
X60025000Y-40000000D02*
X59437500Y-40000000D01*
X65000000Y-35425000D02*
X63400000Y-37025000D01*
%TO.N,BUF3B*%
X61448000Y-31700000D02*
X60862500Y-31700000D01*
X60862500Y-31700000D02*
X60862500Y-31050000D01*
X62542200Y-32794200D02*
X61448000Y-31700000D01*
X44629100Y-41545900D02*
X44629100Y-42210100D01*
X62542200Y-34528300D02*
X62542200Y-32794200D01*
X44925000Y-41250000D02*
X44629100Y-41545900D01*
%TO.N,BUF3A*%
X55111000Y-37816100D02*
X55108900Y-37816100D01*
X55108900Y-37816100D02*
X53925000Y-39000000D01*
X60862500Y-14375000D02*
X62080500Y-14375000D01*
X60862500Y-14700000D02*
X60862500Y-14375000D01*
X60862500Y-14375000D02*
X60862500Y-14050000D01*
%TO.N,FOOT_AD0*%
X3250000Y-15360000D02*
X6178600Y-15360000D01*
X27581500Y-11243500D02*
X25745000Y-11243500D01*
X45875000Y-7776500D02*
X44885200Y-8766300D01*
X25745000Y-11243500D02*
X25621100Y-11367400D01*
X28825000Y-10000000D02*
X27581500Y-11243500D01*
X45875000Y-5700000D02*
X45875000Y-7776500D01*
%TO.N,FOOT_INT*%
X47125000Y-5700000D02*
X47125000Y-4688100D01*
X3250000Y-17900000D02*
X8695100Y-17900000D01*
X47125000Y-4688100D02*
X47437300Y-4375800D01*
X8695100Y-17900000D02*
X9101100Y-18306000D01*
%TO.N,BUF1B*%
X55137500Y-34950000D02*
X53780200Y-34950000D01*
X45675000Y-28500000D02*
X46335000Y-27840000D01*
X55137500Y-34300000D02*
X55137500Y-34950000D01*
X46335000Y-27840000D02*
X46438300Y-27840000D01*
%TO.N,USB_VBUS*%
D45*
X8400000Y-41820000D02*
X8090700Y-43622400D01*
D44*
X8190000Y-43721700D02*
X10606300Y-43721700D01*
X3600000Y-39749100D02*
X4599100Y-38750000D01*
X4887500Y-38750000D02*
X6013800Y-38750000D01*
X11725400Y-42602600D02*
X16507400Y-42602600D01*
X8090700Y-43622400D02*
X8190000Y-43721700D01*
X15025400Y-40128300D02*
X15025400Y-39509900D01*
X19885900Y-39210900D02*
X19925000Y-39250000D01*
X15324400Y-39210900D02*
X19885900Y-39210900D01*
X16507400Y-42602600D02*
X17076000Y-42034000D01*
X15025400Y-39509900D02*
X15324400Y-39210900D01*
X3600000Y-41820000D02*
X3600000Y-39749100D01*
X17076000Y-41393300D02*
X16308800Y-40626100D01*
X16308800Y-40626100D02*
X15523200Y-40626100D01*
X10606300Y-43721700D02*
X11725400Y-42602600D01*
X15523200Y-40626100D02*
X15025400Y-40128300D01*
X4599100Y-38750000D02*
X4887500Y-38750000D01*
X17076000Y-42034000D02*
X17076000Y-41393300D01*
%TO.N,LED_ERR*%
X19748300Y-14090000D02*
X19547800Y-14090000D01*
X20750000Y-14090000D02*
X19748300Y-14090000D01*
X32827700Y-8261700D02*
X33663300Y-8261700D01*
X33663300Y-8261700D02*
X34175000Y-7750000D01*
%TO.N,LED_ERR_A*%
X36055000Y-10179100D02*
X36055000Y-7980000D01*
X35787500Y-18500000D02*
X35787500Y-14881700D01*
X35787500Y-14881700D02*
X35742100Y-14836300D01*
X36055000Y-7980000D02*
X35825000Y-7750000D01*
%TO.N,BUF0A*%
X56534600Y-12652900D02*
X56534600Y-11589800D01*
X55997300Y-11052500D02*
X55276200Y-11052500D01*
X55276200Y-11052500D02*
X54473700Y-10250000D01*
X54473700Y-10250000D02*
X54175000Y-10250000D01*
X55137500Y-14700000D02*
X55137500Y-14050000D01*
X55137500Y-14050000D02*
X56534600Y-12652900D01*
X56534600Y-11589800D02*
X55997300Y-11052500D01*
%TO.N,USB_PRESENT_N*%
X17937500Y-40750000D02*
X17937500Y-41486500D01*
X15175000Y-25500000D02*
X15175000Y-24498300D01*
X17937500Y-41486500D02*
X17910300Y-41513700D01*
X15180200Y-24498300D02*
X15384400Y-24294100D01*
X23775000Y-42237900D02*
X24825000Y-41187900D01*
X15175000Y-24498300D02*
X15180200Y-24498300D01*
X24825000Y-41187900D02*
X24825000Y-41000000D01*
%TO.N,EXP_SDA*%
X36375000Y-15950000D02*
X36375000Y-14378000D01*
X16934500Y-24498300D02*
X17143600Y-24289200D01*
X16445000Y-25500000D02*
X16445000Y-24498300D01*
X16445000Y-24498300D02*
X16934500Y-24498300D01*
%TO.N,EXP_SCL*%
X37625000Y-15755300D02*
X38560900Y-14819400D01*
X38560900Y-14819400D02*
X39213200Y-14819400D01*
X19325000Y-24498300D02*
X19527300Y-24296000D01*
X17715000Y-24498300D02*
X19325000Y-24498300D01*
X17715000Y-25500000D02*
X17715000Y-24498300D01*
X39213200Y-14819400D02*
X39431600Y-15037800D01*
X39431600Y-15037800D02*
X39431600Y-17117200D01*
X37625000Y-15950000D02*
X37625000Y-15755300D01*
%TO.N,UART_RX*%
X20750000Y-12820000D02*
X21751700Y-12820000D01*
X21950400Y-13018700D02*
X28176400Y-13018700D01*
X40304800Y-16129800D02*
X40125000Y-15950000D01*
X21751700Y-12820000D02*
X21950400Y-13018700D01*
X40898900Y-16129800D02*
X40304800Y-16129800D01*
%TO.N,UART_TX*%
X38875000Y-16223000D02*
X37826200Y-17271800D01*
X38875000Y-15950000D02*
X38875000Y-16223000D01*
X22166400Y-11550000D02*
X22305500Y-11689100D01*
X20750000Y-11550000D02*
X22166400Y-11550000D01*
%TD*%
M02*
