%TF.GenerationSoftware,KiCad,Pcbnew,10.0.6*%
%TF.CreationDate,2026-09-27T12:07:22+06:00*%
%TF.ProjectId,afo_revb_main,61666f5f-7265-4766-925f-6d61696e2e6b,rev?*%
%TF.SameCoordinates,Original*%
%TF.FileFunction,Copper,L2,Inr*%
%TF.FilePolarity,Positive*%
%FSLAX46Y46*%
G04 Gerber Fmt 4.6, Leading zero omitted, Abs format (unit mm)*
G04 Created by KiCad (PCBNEW 10.0.6) date 2026-09-27 12:07:22*
%MOMM*%
%LPD*%
G01*
G04 APERTURE LIST*
%TA.AperFunction,HeatsinkPad*%
%ADD10C,0.600000*%
%TD*%
%TA.AperFunction,ComponentPad*%
%ADD11O,1.000000X2.100000*%
%TD*%
%TA.AperFunction,ComponentPad*%
%ADD12O,1.000000X1.800000*%
%TD*%
%TA.AperFunction,ViaPad*%
%ADD13C,0.600000*%
%TD*%
G04 APERTURE END LIST*
D10*
%TO.N,GND*%
%TO.C,U1*%
X9100000Y-14760000D03*
X9100000Y-16160000D03*
X9800000Y-14060000D03*
X9800000Y-15460000D03*
X9800000Y-16860000D03*
X10500000Y-14760000D03*
X10500000Y-16160000D03*
X11200000Y-14060000D03*
X11200000Y-15460000D03*
X11200000Y-16860000D03*
X11900000Y-14760000D03*
X11900000Y-16160000D03*
%TD*%
D11*
%TO.N,GND*%
%TO.C,J1*%
X1680000Y-42395000D03*
D12*
X1680000Y-46575000D03*
D11*
X10320000Y-42395000D03*
D12*
X10320000Y-46575000D03*
%TD*%
D13*
%TO.N,3V0A*%
X55811500Y-18655600D03*
X41805300Y-19793900D03*
X47342700Y-20923400D03*
X56594600Y-33000000D03*
X58312300Y-37074500D03*
X52453800Y-31050400D03*
%TO.N,GND*%
X6730400Y-37794500D03*
X8172000Y-26773800D03*
%TO.N,POWER_GOOD*%
X33956600Y-25489200D03*
X5392400Y-29885800D03*
%TO.N,3V3D*%
X31208200Y-8789700D03*
X6700000Y-34800000D03*
X36901000Y-8390200D03*
X7175000Y-36500000D03*
X22238200Y-39988200D03*
X24379400Y-29857400D03*
X27919300Y-26788500D03*
X9250000Y-32400000D03*
%TO.N,VBAT*%
X10047400Y-29325300D03*
X11655100Y-28338300D03*
%TO.N,POWER_EN*%
X19667900Y-30167900D03*
X6564000Y-29163700D03*
%TO.N,SD_D3*%
X38775200Y-25252800D03*
X37976300Y-33350400D03*
%TO.N,SD_CMD*%
X29994500Y-22692900D03*
X19545300Y-22692900D03*
X35125000Y-29020000D03*
%TO.N,SD_CLK*%
X34029400Y-33336000D03*
X23014700Y-28255600D03*
%TO.N,SD_D0*%
X32175000Y-31218400D03*
X19547100Y-16954600D03*
X36794400Y-28969400D03*
%TO.N,SD_D1*%
X34200100Y-26884100D03*
X31075000Y-33332300D03*
%TO.N,BUF2B*%
X46256500Y-31944000D03*
X51989600Y-35950200D03*
%TO.N,AIN2P*%
X45353000Y-25595600D03*
X46046200Y-33126200D03*
X45776900Y-38606300D03*
%TO.N,USB_DM*%
X1311300Y-33858500D03*
X15683700Y-29158900D03*
%TO.N,USB_DM_MCU*%
X6406800Y-23723000D03*
X14800500Y-26757500D03*
%TO.N,VMID*%
X72255400Y-39446700D03*
X67257900Y-44000000D03*
X57749900Y-11292400D03*
X43971900Y-19362900D03*
X47890000Y-31552600D03*
X53914600Y-22314700D03*
%TO.N,BUTTON*%
X31567300Y-26216500D03*
X10372500Y-20440000D03*
X18688400Y-43313400D03*
%TO.N,AIN0N*%
X44860600Y-20302500D03*
X45703600Y-22772200D03*
%TO.N,AIN2N*%
X45813900Y-35251700D03*
X42932800Y-25428000D03*
%TO.N,AIN3N*%
X43813300Y-43225000D03*
X42876400Y-26965600D03*
%TO.N,AIN3P*%
X44706400Y-30732100D03*
X45797400Y-42273800D03*
%TO.N,ADC_RESET*%
X51975200Y-24684400D03*
X40043300Y-8835500D03*
X13373000Y-22181500D03*
%TO.N,ADC_CS*%
X38129800Y-18547300D03*
X11329800Y-23834600D03*
X51398400Y-25179000D03*
X44783400Y-13637900D03*
%TO.N,ADC_DRDY*%
X47724900Y-25573600D03*
X15493200Y-21113700D03*
X41060900Y-21055900D03*
%TO.N,ADC_SCK*%
X46461200Y-22278900D03*
X48664100Y-24975000D03*
X17782300Y-22326600D03*
%TO.N,ADC_MISO*%
X18233700Y-23672300D03*
X47461600Y-24150200D03*
%TO.N,ADC_MOSI*%
X48583800Y-23761000D03*
X10845300Y-28493800D03*
%TO.N,ADC_CLK*%
X52406600Y-15830500D03*
X53610400Y-20011500D03*
X51096400Y-22523300D03*
%TO.N,RC2A*%
X64687500Y-29027300D03*
X62631500Y-16785700D03*
%TO.N,LED_REC*%
X19522400Y-15360000D03*
X24431600Y-7750000D03*
%TO.N,RAW2*%
X64281000Y-31856000D03*
X67811200Y-27952500D03*
%TO.N,IMU_SCL*%
X42125000Y-4392300D03*
X4462300Y-14090000D03*
X57397800Y-4451400D03*
%TO.N,IMU_SDA*%
X59715800Y-4378900D03*
X42854800Y-7028700D03*
X4471600Y-11550000D03*
%TO.N,IMU_RESERVED*%
X43888100Y-7200900D03*
X59304800Y-7653300D03*
X6673700Y-12820000D03*
%TO.N,SHANK_AD0*%
X29542500Y-11575100D03*
X10252600Y-12806500D03*
X6641500Y-16630000D03*
X40854200Y-3109800D03*
%TO.N,SHANK_INT*%
X64658800Y-4508700D03*
X4478000Y-19170000D03*
%TO.N,BAT_SENSE*%
X19534300Y-9010000D03*
X24976700Y-24159100D03*
X13025500Y-26772300D03*
%TO.N,RC1A*%
X53933600Y-17372100D03*
X64040400Y-18500000D03*
%TO.N,BUF0B*%
X43863400Y-16961100D03*
X56848000Y-29978900D03*
%TO.N,SD_CLK_MCU*%
X19528100Y-17900000D03*
X19055000Y-28500000D03*
%TO.N,LED_LOW*%
X40181300Y-7847500D03*
X24500900Y-10219900D03*
%TO.N,USB_DP*%
X2541200Y-37023100D03*
X6003700Y-42872600D03*
%TO.N,USB_DP_MCU*%
X21014500Y-40156700D03*
X7503800Y-23850600D03*
X13651500Y-24277800D03*
%TO.N,EN*%
X26228900Y-10319200D03*
X8882000Y-9636100D03*
X27377800Y-20122700D03*
%TO.N,PACK_PLUS*%
X13862700Y-47950000D03*
X26361700Y-29000000D03*
%TO.N,RC0B*%
X54729700Y-30194300D03*
X57013200Y-10525000D03*
%TO.N,RC3A*%
X64050700Y-35425000D03*
X62053100Y-15350000D03*
%TO.N,BUF3B*%
X44629100Y-42210100D03*
X62542200Y-34528300D03*
%TO.N,BUF3A*%
X55111000Y-37816100D03*
X62080500Y-14375000D03*
%TO.N,FOOT_AD0*%
X25621100Y-11367400D03*
X44885200Y-8766300D03*
X9021500Y-12240800D03*
X6178600Y-15360000D03*
%TO.N,FOOT_INT*%
X37006200Y-14863000D03*
X47437300Y-4375800D03*
X9101100Y-18306000D03*
%TO.N,BUF1B*%
X53780200Y-34950000D03*
X46438300Y-27840000D03*
%TO.N,USB_VBUS*%
X8090700Y-43622400D03*
X6013800Y-38750000D03*
%TO.N,LED_ERR*%
X19547800Y-14090000D03*
X32827700Y-8261700D03*
%TO.N,LED_ERR_A*%
X36055000Y-10179100D03*
X35742100Y-14836300D03*
%TO.N,USB_PRESENT_N*%
X15384400Y-24294100D03*
X17910300Y-41513700D03*
X23775000Y-42237900D03*
%TO.N,EXP_SDA*%
X17143600Y-24289200D03*
X36375000Y-14378000D03*
%TO.N,EXP_SCL*%
X19527300Y-24296000D03*
X32366300Y-24462100D03*
X39431600Y-17117200D03*
%TO.N,UART_RX*%
X40898900Y-16129800D03*
X28176400Y-13018700D03*
%TO.N,UART_TX*%
X22305500Y-11689100D03*
X37826200Y-17271800D03*
%TD*%
%TA.AperFunction,Conductor*%
%TO.N,GND*%
G36*
X74642539Y-320185D02*
G01*
X74688294Y-372989D01*
X74699500Y-424500D01*
X74699500Y-49575500D01*
X74679815Y-49642539D01*
X74627011Y-49688294D01*
X74575500Y-49699500D01*
X424500Y-49699500D01*
X357461Y-49679815D01*
X311706Y-49627011D01*
X300500Y-49575500D01*
X300500Y-47884108D01*
X13362200Y-47884108D01*
X13362200Y-48015891D01*
X13396308Y-48143187D01*
X13429254Y-48200250D01*
X13462200Y-48257314D01*
X13555386Y-48350500D01*
X13669514Y-48416392D01*
X13796808Y-48450500D01*
X13796810Y-48450500D01*
X13928590Y-48450500D01*
X13928592Y-48450500D01*
X14055886Y-48416392D01*
X14170014Y-48350500D01*
X14263200Y-48257314D01*
X14329092Y-48143186D01*
X14363200Y-48015892D01*
X14363200Y-47884108D01*
X14329092Y-47756814D01*
X14263200Y-47642686D01*
X14170014Y-47549500D01*
X14112950Y-47516554D01*
X14055887Y-47483608D01*
X13992239Y-47466554D01*
X13928592Y-47449500D01*
X13796808Y-47449500D01*
X13669512Y-47483608D01*
X13555386Y-47549500D01*
X13555383Y-47549502D01*
X13462202Y-47642683D01*
X13462200Y-47642686D01*
X13396308Y-47756812D01*
X13362200Y-47884108D01*
X300500Y-47884108D01*
X300500Y-43556508D01*
X7590200Y-43556508D01*
X7590200Y-43688292D01*
X7600170Y-43725500D01*
X7624308Y-43815587D01*
X7657254Y-43872650D01*
X7690200Y-43929714D01*
X7783386Y-44022900D01*
X7897514Y-44088792D01*
X8024808Y-44122900D01*
X8024810Y-44122900D01*
X8156590Y-44122900D01*
X8156592Y-44122900D01*
X8283886Y-44088792D01*
X8398014Y-44022900D01*
X8486806Y-43934108D01*
X66757400Y-43934108D01*
X66757400Y-44065891D01*
X66791508Y-44193187D01*
X66824454Y-44250250D01*
X66857400Y-44307314D01*
X66950586Y-44400500D01*
X67064714Y-44466392D01*
X67192008Y-44500500D01*
X67192010Y-44500500D01*
X67323790Y-44500500D01*
X67323792Y-44500500D01*
X67451086Y-44466392D01*
X67565214Y-44400500D01*
X67658400Y-44307314D01*
X67724292Y-44193186D01*
X67758400Y-44065892D01*
X67758400Y-43934108D01*
X67724292Y-43806814D01*
X67658400Y-43692686D01*
X67565214Y-43599500D01*
X67508150Y-43566554D01*
X67451087Y-43533608D01*
X67350241Y-43506587D01*
X67323792Y-43499500D01*
X67192008Y-43499500D01*
X67064712Y-43533608D01*
X66950586Y-43599500D01*
X66950583Y-43599502D01*
X66857402Y-43692683D01*
X66857400Y-43692686D01*
X66791508Y-43806812D01*
X66757400Y-43934108D01*
X8486806Y-43934108D01*
X8491200Y-43929714D01*
X8557092Y-43815586D01*
X8591200Y-43688292D01*
X8591200Y-43556508D01*
X8574821Y-43495380D01*
X8576484Y-43425533D01*
X8615647Y-43367670D01*
X8679875Y-43340166D01*
X8726686Y-43343513D01*
X8827399Y-43370500D01*
X8827401Y-43370500D01*
X8952599Y-43370500D01*
X8952601Y-43370500D01*
X9073536Y-43338095D01*
X9181964Y-43275495D01*
X9209951Y-43247508D01*
X18187900Y-43247508D01*
X18187900Y-43379291D01*
X18222008Y-43506587D01*
X18250832Y-43556510D01*
X18287900Y-43620714D01*
X18381086Y-43713900D01*
X18495214Y-43779792D01*
X18622508Y-43813900D01*
X18622510Y-43813900D01*
X18754290Y-43813900D01*
X18754292Y-43813900D01*
X18881586Y-43779792D01*
X18995714Y-43713900D01*
X19088900Y-43620714D01*
X19154792Y-43506586D01*
X19188900Y-43379292D01*
X19188900Y-43247508D01*
X19165214Y-43159108D01*
X43312800Y-43159108D01*
X43312800Y-43290891D01*
X43346908Y-43418187D01*
X43353275Y-43429214D01*
X43412800Y-43532314D01*
X43505986Y-43625500D01*
X43604821Y-43682563D01*
X43614744Y-43688292D01*
X43620114Y-43691392D01*
X43747408Y-43725500D01*
X43747410Y-43725500D01*
X43879190Y-43725500D01*
X43879192Y-43725500D01*
X44006486Y-43691392D01*
X44120614Y-43625500D01*
X44213800Y-43532314D01*
X44279692Y-43418186D01*
X44313800Y-43290892D01*
X44313800Y-43159108D01*
X44279692Y-43031814D01*
X44213800Y-42917686D01*
X44120614Y-42824500D01*
X44063550Y-42791554D01*
X44006487Y-42758608D01*
X43931064Y-42738399D01*
X43879192Y-42724500D01*
X43747408Y-42724500D01*
X43620112Y-42758608D01*
X43505986Y-42824500D01*
X43505983Y-42824502D01*
X43412802Y-42917683D01*
X43412800Y-42917686D01*
X43346908Y-43031812D01*
X43312800Y-43159108D01*
X19165214Y-43159108D01*
X19154792Y-43120214D01*
X19088900Y-43006086D01*
X18995714Y-42912900D01*
X18938650Y-42879954D01*
X18881587Y-42847008D01*
X18817939Y-42829954D01*
X18754292Y-42812900D01*
X18622508Y-42812900D01*
X18495212Y-42847008D01*
X18381086Y-42912900D01*
X18381083Y-42912902D01*
X18287902Y-43006083D01*
X18287900Y-43006086D01*
X18222008Y-43120212D01*
X18187900Y-43247508D01*
X9209951Y-43247508D01*
X9270495Y-43186964D01*
X9333095Y-43078536D01*
X9365500Y-42957601D01*
X9365500Y-42832399D01*
X9333095Y-42711464D01*
X9270495Y-42603036D01*
X9181964Y-42514505D01*
X9073536Y-42451905D01*
X9073537Y-42451905D01*
X9006789Y-42434020D01*
X8952601Y-42419500D01*
X8827399Y-42419500D01*
X8773211Y-42434020D01*
X8706463Y-42451905D01*
X8598037Y-42514504D01*
X8598034Y-42514506D01*
X8509506Y-42603034D01*
X8509504Y-42603037D01*
X8446905Y-42711463D01*
X8446905Y-42711464D01*
X8414500Y-42832399D01*
X8414500Y-42957601D01*
X8426291Y-43001603D01*
X8424628Y-43071453D01*
X8385466Y-43129315D01*
X8321238Y-43156820D01*
X8274423Y-43153472D01*
X8184265Y-43129315D01*
X8156592Y-43121900D01*
X8024808Y-43121900D01*
X7897512Y-43156008D01*
X7783386Y-43221900D01*
X7783383Y-43221902D01*
X7690202Y-43315083D01*
X7690200Y-43315086D01*
X7624308Y-43429212D01*
X7605475Y-43499500D01*
X7590200Y-43556508D01*
X300500Y-43556508D01*
X300500Y-42832399D01*
X2634500Y-42832399D01*
X2634500Y-42957601D01*
X2666905Y-43078536D01*
X2729505Y-43186964D01*
X2818036Y-43275495D01*
X2926464Y-43338095D01*
X3047399Y-43370500D01*
X3047401Y-43370500D01*
X3172599Y-43370500D01*
X3172601Y-43370500D01*
X3293536Y-43338095D01*
X3401964Y-43275495D01*
X3490495Y-43186964D01*
X3553095Y-43078536D01*
X3585500Y-42957601D01*
X3585500Y-42832399D01*
X3578616Y-42806708D01*
X5503200Y-42806708D01*
X5503200Y-42938491D01*
X5537308Y-43065787D01*
X5544669Y-43078536D01*
X5603200Y-43179914D01*
X5696386Y-43273100D01*
X5769103Y-43315083D01*
X5808958Y-43338094D01*
X5810514Y-43338992D01*
X5937808Y-43373100D01*
X5937810Y-43373100D01*
X6069590Y-43373100D01*
X6069592Y-43373100D01*
X6196886Y-43338992D01*
X6311014Y-43273100D01*
X6404200Y-43179914D01*
X6470092Y-43065786D01*
X6504200Y-42938492D01*
X6504200Y-42806708D01*
X6470092Y-42679414D01*
X6468404Y-42676491D01*
X6430362Y-42610600D01*
X6404200Y-42565286D01*
X6311014Y-42472100D01*
X6239976Y-42431086D01*
X6196887Y-42406208D01*
X6133239Y-42389154D01*
X6069592Y-42372100D01*
X5937808Y-42372100D01*
X5810512Y-42406208D01*
X5696386Y-42472100D01*
X5696383Y-42472102D01*
X5603202Y-42565283D01*
X5603200Y-42565286D01*
X5537308Y-42679412D01*
X5503200Y-42806708D01*
X3578616Y-42806708D01*
X3553095Y-42711464D01*
X3490495Y-42603036D01*
X3401964Y-42514505D01*
X3293536Y-42451905D01*
X3293537Y-42451905D01*
X3226789Y-42434020D01*
X3172601Y-42419500D01*
X3047399Y-42419500D01*
X2993211Y-42434020D01*
X2926463Y-42451905D01*
X2818037Y-42514504D01*
X2818034Y-42514506D01*
X2729506Y-42603034D01*
X2729504Y-42603037D01*
X2666905Y-42711463D01*
X2666905Y-42711464D01*
X2634500Y-42832399D01*
X300500Y-42832399D01*
X300500Y-42172008D01*
X23274500Y-42172008D01*
X23274500Y-42303791D01*
X23308608Y-42431087D01*
X23341554Y-42488150D01*
X23374500Y-42545214D01*
X23467686Y-42638400D01*
X23581814Y-42704292D01*
X23709108Y-42738400D01*
X23709110Y-42738400D01*
X23840890Y-42738400D01*
X23840892Y-42738400D01*
X23968186Y-42704292D01*
X24082314Y-42638400D01*
X24175500Y-42545214D01*
X24241392Y-42431086D01*
X24275500Y-42303792D01*
X24275500Y-42172008D01*
X24268051Y-42144208D01*
X44128600Y-42144208D01*
X44128600Y-42275992D01*
X44136049Y-42303791D01*
X44162708Y-42403287D01*
X44178758Y-42431086D01*
X44228600Y-42517414D01*
X44321786Y-42610600D01*
X44420621Y-42667663D01*
X44432115Y-42674299D01*
X44435914Y-42676492D01*
X44563208Y-42710600D01*
X44563210Y-42710600D01*
X44694990Y-42710600D01*
X44694992Y-42710600D01*
X44822286Y-42676492D01*
X44936414Y-42610600D01*
X45029600Y-42517414D01*
X45095013Y-42404114D01*
X45145580Y-42355899D01*
X45214187Y-42342676D01*
X45279052Y-42368644D01*
X45319580Y-42425558D01*
X45322174Y-42434020D01*
X45331007Y-42466984D01*
X45331007Y-42466985D01*
X45358443Y-42514504D01*
X45396900Y-42581114D01*
X45490086Y-42674300D01*
X45604214Y-42740192D01*
X45731508Y-42774300D01*
X45731510Y-42774300D01*
X45863290Y-42774300D01*
X45863292Y-42774300D01*
X45990586Y-42740192D01*
X46104714Y-42674300D01*
X46197900Y-42581114D01*
X46263792Y-42466986D01*
X46297900Y-42339692D01*
X46297900Y-42207908D01*
X46263792Y-42080614D01*
X46263313Y-42079785D01*
X46243064Y-42044712D01*
X46197900Y-41966486D01*
X46104714Y-41873300D01*
X46014156Y-41821016D01*
X45990587Y-41807408D01*
X45926939Y-41790354D01*
X45863292Y-41773300D01*
X45731508Y-41773300D01*
X45604212Y-41807408D01*
X45490086Y-41873300D01*
X45490083Y-41873302D01*
X45396902Y-41966483D01*
X45396900Y-41966486D01*
X45331486Y-42079785D01*
X45280918Y-42128000D01*
X45212311Y-42141222D01*
X45147446Y-42115254D01*
X45106919Y-42058339D01*
X45104324Y-42049877D01*
X45095491Y-42016912D01*
X45066377Y-41966486D01*
X45029600Y-41902786D01*
X44936414Y-41809600D01*
X44870437Y-41771508D01*
X44822287Y-41743708D01*
X44758639Y-41726654D01*
X44694992Y-41709600D01*
X44563208Y-41709600D01*
X44435912Y-41743708D01*
X44321786Y-41809600D01*
X44321783Y-41809602D01*
X44228602Y-41902783D01*
X44228600Y-41902786D01*
X44162708Y-42016912D01*
X44151608Y-42058339D01*
X44128600Y-42144208D01*
X24268051Y-42144208D01*
X24241392Y-42044714D01*
X24175500Y-41930586D01*
X24082314Y-41837400D01*
X24025250Y-41804454D01*
X23968187Y-41771508D01*
X23889782Y-41750500D01*
X23840892Y-41737400D01*
X23709108Y-41737400D01*
X23581812Y-41771508D01*
X23467686Y-41837400D01*
X23467683Y-41837402D01*
X23374502Y-41930583D01*
X23374500Y-41930586D01*
X23308608Y-42044712D01*
X23274500Y-42172008D01*
X300500Y-42172008D01*
X300500Y-41447808D01*
X17409800Y-41447808D01*
X17409800Y-41579591D01*
X17443908Y-41706887D01*
X17476854Y-41763950D01*
X17509800Y-41821014D01*
X17602986Y-41914200D01*
X17717114Y-41980092D01*
X17844408Y-42014200D01*
X17844410Y-42014200D01*
X17976190Y-42014200D01*
X17976192Y-42014200D01*
X18103486Y-41980092D01*
X18217614Y-41914200D01*
X18310800Y-41821014D01*
X18376692Y-41706886D01*
X18410800Y-41579592D01*
X18410800Y-41447808D01*
X18376692Y-41320514D01*
X18310800Y-41206386D01*
X18217614Y-41113200D01*
X18160550Y-41080254D01*
X18103487Y-41047308D01*
X18039839Y-41030254D01*
X17976192Y-41013200D01*
X17844408Y-41013200D01*
X17717112Y-41047308D01*
X17602986Y-41113200D01*
X17602983Y-41113202D01*
X17509802Y-41206383D01*
X17509800Y-41206386D01*
X17443908Y-41320512D01*
X17409800Y-41447808D01*
X300500Y-41447808D01*
X300500Y-40090808D01*
X20514000Y-40090808D01*
X20514000Y-40222591D01*
X20548108Y-40349887D01*
X20570517Y-40388699D01*
X20614000Y-40464014D01*
X20707186Y-40557200D01*
X20821314Y-40623092D01*
X20948608Y-40657200D01*
X20948610Y-40657200D01*
X21080390Y-40657200D01*
X21080392Y-40657200D01*
X21207686Y-40623092D01*
X21321814Y-40557200D01*
X21415000Y-40464014D01*
X21480892Y-40349886D01*
X21515000Y-40222592D01*
X21515000Y-40090808D01*
X21480892Y-39963514D01*
X21457102Y-39922308D01*
X21737700Y-39922308D01*
X21737700Y-40054092D01*
X21760794Y-40140284D01*
X21760795Y-40140285D01*
X21771808Y-40181387D01*
X21795597Y-40222590D01*
X21837700Y-40295514D01*
X21930886Y-40388700D01*
X22045014Y-40454592D01*
X22172308Y-40488700D01*
X22172310Y-40488700D01*
X22304090Y-40488700D01*
X22304092Y-40488700D01*
X22431386Y-40454592D01*
X22523210Y-40401577D01*
X61999500Y-40401577D01*
X61999500Y-40598422D01*
X62030290Y-40792826D01*
X62091117Y-40980029D01*
X62180476Y-41155405D01*
X62296172Y-41314646D01*
X62435354Y-41453828D01*
X62594595Y-41569524D01*
X62614351Y-41579590D01*
X62769970Y-41658882D01*
X62769972Y-41658882D01*
X62769975Y-41658884D01*
X62870317Y-41691487D01*
X62957173Y-41719709D01*
X63151578Y-41750500D01*
X63151583Y-41750500D01*
X63348422Y-41750500D01*
X63542826Y-41719709D01*
X63573938Y-41709600D01*
X63730025Y-41658884D01*
X63905405Y-41569524D01*
X64064646Y-41453828D01*
X64203828Y-41314646D01*
X64319524Y-41155405D01*
X64408884Y-40980025D01*
X64469709Y-40792826D01*
X64491190Y-40657200D01*
X64500500Y-40598422D01*
X64500500Y-40401577D01*
X64469709Y-40207173D01*
X64419969Y-40054091D01*
X64408884Y-40019975D01*
X64408882Y-40019972D01*
X64408882Y-40019970D01*
X64361743Y-39927455D01*
X64319524Y-39844595D01*
X64203828Y-39685354D01*
X64064646Y-39546172D01*
X63905405Y-39430476D01*
X63807927Y-39380808D01*
X71754900Y-39380808D01*
X71754900Y-39512592D01*
X71763898Y-39546172D01*
X71789008Y-39639887D01*
X71798427Y-39656200D01*
X71854900Y-39754014D01*
X71948086Y-39847200D01*
X72062214Y-39913092D01*
X72189508Y-39947200D01*
X72189510Y-39947200D01*
X72321290Y-39947200D01*
X72321292Y-39947200D01*
X72448586Y-39913092D01*
X72562714Y-39847200D01*
X72655900Y-39754014D01*
X72721792Y-39639886D01*
X72755900Y-39512592D01*
X72755900Y-39380808D01*
X72721792Y-39253514D01*
X72655900Y-39139386D01*
X72562714Y-39046200D01*
X72505650Y-39013254D01*
X72448587Y-38980308D01*
X72384939Y-38963254D01*
X72321292Y-38946200D01*
X72189508Y-38946200D01*
X72062212Y-38980308D01*
X71948086Y-39046200D01*
X71948083Y-39046202D01*
X71854902Y-39139383D01*
X71854900Y-39139386D01*
X71789008Y-39253512D01*
X71781833Y-39280290D01*
X71754900Y-39380808D01*
X63807927Y-39380808D01*
X63730029Y-39341117D01*
X63542826Y-39280290D01*
X63348422Y-39249500D01*
X63348417Y-39249500D01*
X63151583Y-39249500D01*
X63151578Y-39249500D01*
X62957173Y-39280290D01*
X62769970Y-39341117D01*
X62594594Y-39430476D01*
X62536067Y-39472999D01*
X62435354Y-39546172D01*
X62435352Y-39546174D01*
X62435351Y-39546174D01*
X62296174Y-39685351D01*
X62296174Y-39685352D01*
X62296172Y-39685354D01*
X62292573Y-39690308D01*
X62180476Y-39844594D01*
X62091117Y-40019970D01*
X62030290Y-40207173D01*
X61999500Y-40401577D01*
X22523210Y-40401577D01*
X22545514Y-40388700D01*
X22638700Y-40295514D01*
X22704592Y-40181386D01*
X22738700Y-40054092D01*
X22738700Y-39922308D01*
X22704592Y-39795014D01*
X22638700Y-39680886D01*
X22545514Y-39587700D01*
X22473586Y-39546172D01*
X22431387Y-39521808D01*
X22367739Y-39504754D01*
X22304092Y-39487700D01*
X22172308Y-39487700D01*
X22045012Y-39521808D01*
X21930886Y-39587700D01*
X21930883Y-39587702D01*
X21837702Y-39680883D01*
X21837700Y-39680886D01*
X21771808Y-39795012D01*
X21757825Y-39847199D01*
X21737700Y-39922308D01*
X21457102Y-39922308D01*
X21415000Y-39849386D01*
X21321814Y-39756200D01*
X21264750Y-39723254D01*
X21207687Y-39690308D01*
X21144039Y-39673254D01*
X21080392Y-39656200D01*
X20948608Y-39656200D01*
X20821312Y-39690308D01*
X20707186Y-39756200D01*
X20707183Y-39756202D01*
X20614002Y-39849383D01*
X20614000Y-39849386D01*
X20548108Y-39963512D01*
X20514000Y-40090808D01*
X300500Y-40090808D01*
X300500Y-38684108D01*
X5513300Y-38684108D01*
X5513300Y-38815891D01*
X5547408Y-38943187D01*
X5549148Y-38946200D01*
X5613300Y-39057314D01*
X5706486Y-39150500D01*
X5820614Y-39216392D01*
X5947908Y-39250500D01*
X5947910Y-39250500D01*
X6079690Y-39250500D01*
X6079692Y-39250500D01*
X6206986Y-39216392D01*
X6321114Y-39150500D01*
X6414300Y-39057314D01*
X6480192Y-38943186D01*
X6514300Y-38815892D01*
X6514300Y-38684108D01*
X6480192Y-38556814D01*
X6470720Y-38540408D01*
X45276400Y-38540408D01*
X45276400Y-38672192D01*
X45293454Y-38735839D01*
X45310508Y-38799487D01*
X45319979Y-38815891D01*
X45376400Y-38913614D01*
X45469586Y-39006800D01*
X45583714Y-39072692D01*
X45711008Y-39106800D01*
X45711010Y-39106800D01*
X45842790Y-39106800D01*
X45842792Y-39106800D01*
X45970086Y-39072692D01*
X46084214Y-39006800D01*
X46177400Y-38913614D01*
X46243292Y-38799486D01*
X46277400Y-38672192D01*
X46277400Y-38540408D01*
X46243292Y-38413114D01*
X46177400Y-38298986D01*
X46084214Y-38205800D01*
X46027150Y-38172854D01*
X45970087Y-38139908D01*
X45906439Y-38122854D01*
X45842792Y-38105800D01*
X45711008Y-38105800D01*
X45583712Y-38139908D01*
X45469586Y-38205800D01*
X45469583Y-38205802D01*
X45376402Y-38298983D01*
X45376400Y-38298986D01*
X45310508Y-38413112D01*
X45302585Y-38442683D01*
X45276400Y-38540408D01*
X6470720Y-38540408D01*
X6414300Y-38442686D01*
X6321114Y-38349500D01*
X6264050Y-38316554D01*
X6206987Y-38283608D01*
X6143339Y-38266554D01*
X6079692Y-38249500D01*
X5947908Y-38249500D01*
X5820612Y-38283608D01*
X5706486Y-38349500D01*
X5706483Y-38349502D01*
X5613302Y-38442683D01*
X5613300Y-38442686D01*
X5547408Y-38556812D01*
X5513300Y-38684108D01*
X300500Y-38684108D01*
X300500Y-37750208D01*
X54610500Y-37750208D01*
X54610500Y-37881991D01*
X54644608Y-38009287D01*
X54677554Y-38066350D01*
X54710500Y-38123414D01*
X54803686Y-38216600D01*
X54917814Y-38282492D01*
X55045108Y-38316600D01*
X55045110Y-38316600D01*
X55176890Y-38316600D01*
X55176892Y-38316600D01*
X55304186Y-38282492D01*
X55418314Y-38216600D01*
X55511500Y-38123414D01*
X55577392Y-38009286D01*
X55611500Y-37881992D01*
X55611500Y-37750208D01*
X55577392Y-37622914D01*
X55511500Y-37508786D01*
X55418314Y-37415600D01*
X55359793Y-37381813D01*
X55304187Y-37349708D01*
X55240539Y-37332654D01*
X55176892Y-37315600D01*
X55045108Y-37315600D01*
X54917812Y-37349708D01*
X54803686Y-37415600D01*
X54803683Y-37415602D01*
X54710502Y-37508783D01*
X54710500Y-37508786D01*
X54644608Y-37622912D01*
X54610500Y-37750208D01*
X300500Y-37750208D01*
X300500Y-36957208D01*
X2040700Y-36957208D01*
X2040700Y-37088992D01*
X2057754Y-37152639D01*
X2074808Y-37216287D01*
X2104484Y-37267686D01*
X2140700Y-37330414D01*
X2233886Y-37423600D01*
X2348014Y-37489492D01*
X2475308Y-37523600D01*
X2475310Y-37523600D01*
X2607090Y-37523600D01*
X2607092Y-37523600D01*
X2734386Y-37489492D01*
X2848514Y-37423600D01*
X2941700Y-37330414D01*
X3007592Y-37216286D01*
X3041700Y-37088992D01*
X3041700Y-36957208D01*
X3007592Y-36829914D01*
X2941700Y-36715786D01*
X2848514Y-36622600D01*
X2764337Y-36574000D01*
X2734387Y-36556708D01*
X2715728Y-36551708D01*
X2607092Y-36522600D01*
X2475308Y-36522600D01*
X2348012Y-36556708D01*
X2233886Y-36622600D01*
X2233883Y-36622602D01*
X2140702Y-36715783D01*
X2140700Y-36715786D01*
X2074808Y-36829912D01*
X2048635Y-36927593D01*
X2040700Y-36957208D01*
X300500Y-36957208D01*
X300500Y-36434108D01*
X6674500Y-36434108D01*
X6674500Y-36565891D01*
X6708608Y-36693187D01*
X6721654Y-36715783D01*
X6774500Y-36807314D01*
X6867686Y-36900500D01*
X6981814Y-36966392D01*
X7109108Y-37000500D01*
X7109110Y-37000500D01*
X7240890Y-37000500D01*
X7240892Y-37000500D01*
X7368186Y-36966392D01*
X7482314Y-36900500D01*
X7575500Y-36807314D01*
X7641392Y-36693186D01*
X7675500Y-36565892D01*
X7675500Y-36434108D01*
X7641392Y-36306814D01*
X7575500Y-36192686D01*
X7534391Y-36151577D01*
X11249500Y-36151577D01*
X11249500Y-36348422D01*
X11280290Y-36542826D01*
X11341117Y-36730029D01*
X11418200Y-36881312D01*
X11430476Y-36905405D01*
X11546172Y-37064646D01*
X11685354Y-37203828D01*
X11844595Y-37319524D01*
X11903835Y-37349708D01*
X12019970Y-37408882D01*
X12019972Y-37408882D01*
X12019975Y-37408884D01*
X12120317Y-37441487D01*
X12207173Y-37469709D01*
X12401578Y-37500500D01*
X12401583Y-37500500D01*
X12598422Y-37500500D01*
X12792826Y-37469709D01*
X12980025Y-37408884D01*
X13155405Y-37319524D01*
X13314646Y-37203828D01*
X13453828Y-37064646D01*
X13494542Y-37008608D01*
X57811800Y-37008608D01*
X57811800Y-37140391D01*
X57845908Y-37267687D01*
X57873571Y-37315600D01*
X57911800Y-37381814D01*
X58004986Y-37475000D01*
X58119114Y-37540892D01*
X58246408Y-37575000D01*
X58246410Y-37575000D01*
X58378190Y-37575000D01*
X58378192Y-37575000D01*
X58505486Y-37540892D01*
X58619614Y-37475000D01*
X58712800Y-37381814D01*
X58778692Y-37267686D01*
X58812800Y-37140392D01*
X58812800Y-37008608D01*
X58778692Y-36881314D01*
X58712800Y-36767186D01*
X58619614Y-36674000D01*
X58562550Y-36641054D01*
X58505487Y-36608108D01*
X58441839Y-36591054D01*
X58378192Y-36574000D01*
X58246408Y-36574000D01*
X58119112Y-36608108D01*
X58004986Y-36674000D01*
X58004983Y-36674002D01*
X57911802Y-36767183D01*
X57911800Y-36767186D01*
X57845908Y-36881312D01*
X57811800Y-37008608D01*
X13494542Y-37008608D01*
X13569524Y-36905405D01*
X13658884Y-36730025D01*
X13719709Y-36542826D01*
X13750500Y-36348422D01*
X13750500Y-36151577D01*
X13719709Y-35957173D01*
X13696033Y-35884308D01*
X51489100Y-35884308D01*
X51489100Y-36016092D01*
X51506154Y-36079739D01*
X51523208Y-36143387D01*
X51551670Y-36192683D01*
X51589100Y-36257514D01*
X51682286Y-36350700D01*
X51796414Y-36416592D01*
X51923708Y-36450700D01*
X51923710Y-36450700D01*
X52055490Y-36450700D01*
X52055492Y-36450700D01*
X52182786Y-36416592D01*
X52296914Y-36350700D01*
X52390100Y-36257514D01*
X52455992Y-36143386D01*
X52490100Y-36016092D01*
X52490100Y-35884308D01*
X52455992Y-35757014D01*
X52390100Y-35642886D01*
X52296914Y-35549700D01*
X52239850Y-35516754D01*
X52182787Y-35483808D01*
X52119139Y-35466754D01*
X52055492Y-35449700D01*
X51923708Y-35449700D01*
X51796412Y-35483808D01*
X51682286Y-35549700D01*
X51682283Y-35549702D01*
X51589102Y-35642883D01*
X51589100Y-35642886D01*
X51523208Y-35757012D01*
X51504857Y-35825500D01*
X51489100Y-35884308D01*
X13696033Y-35884308D01*
X13658882Y-35769970D01*
X13598875Y-35652200D01*
X13569524Y-35594595D01*
X13453828Y-35435354D01*
X13314646Y-35296172D01*
X13162744Y-35185808D01*
X45313400Y-35185808D01*
X45313400Y-35317591D01*
X45347508Y-35444887D01*
X45350749Y-35450500D01*
X45413400Y-35559014D01*
X45506586Y-35652200D01*
X45620714Y-35718092D01*
X45748008Y-35752200D01*
X45748010Y-35752200D01*
X45879790Y-35752200D01*
X45879792Y-35752200D01*
X46007086Y-35718092D01*
X46121214Y-35652200D01*
X46214400Y-35559014D01*
X46280292Y-35444886D01*
X46314400Y-35317592D01*
X46314400Y-35185808D01*
X46280292Y-35058514D01*
X46214400Y-34944386D01*
X46154122Y-34884108D01*
X53279700Y-34884108D01*
X53279700Y-35015892D01*
X53296754Y-35079539D01*
X53313808Y-35143187D01*
X53335337Y-35180476D01*
X53379700Y-35257314D01*
X53472886Y-35350500D01*
X53587014Y-35416392D01*
X53714308Y-35450500D01*
X53714310Y-35450500D01*
X53846090Y-35450500D01*
X53846092Y-35450500D01*
X53973386Y-35416392D01*
X54072605Y-35359108D01*
X63550200Y-35359108D01*
X63550200Y-35490891D01*
X63584308Y-35618187D01*
X63603944Y-35652197D01*
X63650200Y-35732314D01*
X63743386Y-35825500D01*
X63857514Y-35891392D01*
X63984808Y-35925500D01*
X63984810Y-35925500D01*
X64116590Y-35925500D01*
X64116592Y-35925500D01*
X64243886Y-35891392D01*
X64358014Y-35825500D01*
X64451200Y-35732314D01*
X64517092Y-35618186D01*
X64551200Y-35490892D01*
X64551200Y-35359108D01*
X64517092Y-35231814D01*
X64451200Y-35117686D01*
X64358014Y-35024500D01*
X64300950Y-34991554D01*
X64243887Y-34958608D01*
X64180239Y-34941554D01*
X64116592Y-34924500D01*
X63984808Y-34924500D01*
X63857512Y-34958608D01*
X63743386Y-35024500D01*
X63743383Y-35024502D01*
X63650202Y-35117683D01*
X63650200Y-35117686D01*
X63584308Y-35231812D01*
X63550200Y-35359108D01*
X54072605Y-35359108D01*
X54087514Y-35350500D01*
X54180700Y-35257314D01*
X54246592Y-35143186D01*
X54280700Y-35015892D01*
X54280700Y-34884108D01*
X54246592Y-34756814D01*
X54180700Y-34642686D01*
X54087514Y-34549500D01*
X53989110Y-34492686D01*
X53973387Y-34483608D01*
X53894266Y-34462408D01*
X62041700Y-34462408D01*
X62041700Y-34594192D01*
X62045082Y-34606814D01*
X62075808Y-34721487D01*
X62108754Y-34778550D01*
X62141700Y-34835614D01*
X62234886Y-34928800D01*
X62333721Y-34985863D01*
X62346405Y-34993186D01*
X62349014Y-34994692D01*
X62476308Y-35028800D01*
X62476310Y-35028800D01*
X62608090Y-35028800D01*
X62608092Y-35028800D01*
X62735386Y-34994692D01*
X62849514Y-34928800D01*
X62942700Y-34835614D01*
X63008592Y-34721486D01*
X63042700Y-34594192D01*
X63042700Y-34462408D01*
X63008592Y-34335114D01*
X62942700Y-34220986D01*
X62849514Y-34127800D01*
X62765089Y-34079057D01*
X62735387Y-34061908D01*
X62671739Y-34044854D01*
X62608092Y-34027800D01*
X62476308Y-34027800D01*
X62349012Y-34061908D01*
X62234886Y-34127800D01*
X62234883Y-34127802D01*
X62141702Y-34220983D01*
X62141700Y-34220986D01*
X62075808Y-34335112D01*
X62066806Y-34368709D01*
X62041700Y-34462408D01*
X53894266Y-34462408D01*
X53846092Y-34449500D01*
X53714308Y-34449500D01*
X53587012Y-34483608D01*
X53472886Y-34549500D01*
X53472883Y-34549502D01*
X53379702Y-34642683D01*
X53379700Y-34642686D01*
X53313808Y-34756812D01*
X53288517Y-34851202D01*
X53279700Y-34884108D01*
X46154122Y-34884108D01*
X46121214Y-34851200D01*
X46064150Y-34818254D01*
X46007087Y-34785308D01*
X45943439Y-34768254D01*
X45879792Y-34751200D01*
X45748008Y-34751200D01*
X45620712Y-34785308D01*
X45506586Y-34851200D01*
X45506583Y-34851202D01*
X45413402Y-34944383D01*
X45413400Y-34944386D01*
X45347508Y-35058512D01*
X45313400Y-35185808D01*
X13162744Y-35185808D01*
X13155405Y-35180476D01*
X12980029Y-35091117D01*
X12792826Y-35030290D01*
X12598422Y-34999500D01*
X12598417Y-34999500D01*
X12401583Y-34999500D01*
X12401578Y-34999500D01*
X12207173Y-35030290D01*
X12019970Y-35091117D01*
X11844594Y-35180476D01*
X11753741Y-35246485D01*
X11685354Y-35296172D01*
X11685352Y-35296174D01*
X11685351Y-35296174D01*
X11546174Y-35435351D01*
X11546174Y-35435352D01*
X11546172Y-35435354D01*
X11535168Y-35450500D01*
X11430476Y-35594594D01*
X11341117Y-35769970D01*
X11280290Y-35957173D01*
X11249500Y-36151577D01*
X7534391Y-36151577D01*
X7482314Y-36099500D01*
X7425250Y-36066554D01*
X7368187Y-36033608D01*
X7302807Y-36016090D01*
X7240892Y-35999500D01*
X7109108Y-35999500D01*
X6981812Y-36033608D01*
X6867686Y-36099500D01*
X6867683Y-36099502D01*
X6774502Y-36192683D01*
X6774500Y-36192686D01*
X6708608Y-36306812D01*
X6674500Y-36434108D01*
X300500Y-36434108D01*
X300500Y-34734108D01*
X6199500Y-34734108D01*
X6199500Y-34865892D01*
X6215204Y-34924500D01*
X6233608Y-34993187D01*
X6266554Y-35050250D01*
X6299500Y-35107314D01*
X6392686Y-35200500D01*
X6491089Y-35257313D01*
X6501458Y-35263300D01*
X6506814Y-35266392D01*
X6634108Y-35300500D01*
X6634110Y-35300500D01*
X6765890Y-35300500D01*
X6765892Y-35300500D01*
X6893186Y-35266392D01*
X7007314Y-35200500D01*
X7100500Y-35107314D01*
X7166392Y-34993186D01*
X7200500Y-34865892D01*
X7200500Y-34734108D01*
X7166392Y-34606814D01*
X7100500Y-34492686D01*
X7007314Y-34399500D01*
X6937166Y-34359000D01*
X6893187Y-34333608D01*
X6829539Y-34316554D01*
X6765892Y-34299500D01*
X6634108Y-34299500D01*
X6506812Y-34333608D01*
X6392686Y-34399500D01*
X6392683Y-34399502D01*
X6299502Y-34492683D01*
X6299500Y-34492686D01*
X6233608Y-34606812D01*
X6223997Y-34642683D01*
X6199500Y-34734108D01*
X300500Y-34734108D01*
X300500Y-33792608D01*
X810800Y-33792608D01*
X810800Y-33924391D01*
X844908Y-34051687D01*
X877854Y-34108750D01*
X910800Y-34165814D01*
X1003986Y-34259000D01*
X1118114Y-34324892D01*
X1245408Y-34359000D01*
X1245410Y-34359000D01*
X1377190Y-34359000D01*
X1377192Y-34359000D01*
X1504486Y-34324892D01*
X1618614Y-34259000D01*
X1711800Y-34165814D01*
X1777692Y-34051686D01*
X1811800Y-33924392D01*
X1811800Y-33920943D01*
X16749500Y-33920943D01*
X16749500Y-34079057D01*
X16772747Y-34165814D01*
X16790423Y-34231783D01*
X16790426Y-34231790D01*
X16869475Y-34368709D01*
X16869479Y-34368714D01*
X16869480Y-34368716D01*
X16981284Y-34480520D01*
X16981286Y-34480521D01*
X16981290Y-34480524D01*
X17002356Y-34492686D01*
X17118216Y-34559577D01*
X17270943Y-34600500D01*
X17270945Y-34600500D01*
X17429055Y-34600500D01*
X17429057Y-34600500D01*
X17581784Y-34559577D01*
X17718716Y-34480520D01*
X17830520Y-34368716D01*
X17909577Y-34231784D01*
X17950500Y-34079057D01*
X17950500Y-33920943D01*
X23549500Y-33920943D01*
X23549500Y-34079057D01*
X23572747Y-34165814D01*
X23590423Y-34231783D01*
X23590426Y-34231790D01*
X23669475Y-34368709D01*
X23669479Y-34368714D01*
X23669480Y-34368716D01*
X23781284Y-34480520D01*
X23781286Y-34480521D01*
X23781290Y-34480524D01*
X23802356Y-34492686D01*
X23918216Y-34559577D01*
X24070943Y-34600500D01*
X24070945Y-34600500D01*
X24229055Y-34600500D01*
X24229057Y-34600500D01*
X24381784Y-34559577D01*
X24518716Y-34480520D01*
X24630520Y-34368716D01*
X24709577Y-34231784D01*
X24750500Y-34079057D01*
X24750500Y-33920943D01*
X24709577Y-33768216D01*
X24691266Y-33736500D01*
X24630524Y-33631290D01*
X24630518Y-33631282D01*
X24518717Y-33519481D01*
X24518709Y-33519475D01*
X24381790Y-33440426D01*
X24381786Y-33440424D01*
X24381784Y-33440423D01*
X24229057Y-33399500D01*
X24070943Y-33399500D01*
X23918216Y-33440423D01*
X23918209Y-33440426D01*
X23781290Y-33519475D01*
X23781282Y-33519481D01*
X23669481Y-33631282D01*
X23669475Y-33631290D01*
X23590426Y-33768209D01*
X23590423Y-33768216D01*
X23549500Y-33920943D01*
X17950500Y-33920943D01*
X17909577Y-33768216D01*
X17891266Y-33736500D01*
X17830524Y-33631290D01*
X17830518Y-33631282D01*
X17718717Y-33519481D01*
X17718709Y-33519475D01*
X17581790Y-33440426D01*
X17581786Y-33440424D01*
X17581784Y-33440423D01*
X17429057Y-33399500D01*
X17270943Y-33399500D01*
X17118216Y-33440423D01*
X17118209Y-33440426D01*
X16981290Y-33519475D01*
X16981282Y-33519481D01*
X16869481Y-33631282D01*
X16869475Y-33631290D01*
X16790426Y-33768209D01*
X16790423Y-33768216D01*
X16749500Y-33920943D01*
X1811800Y-33920943D01*
X1811800Y-33792608D01*
X1777692Y-33665314D01*
X1711800Y-33551186D01*
X1618614Y-33458000D01*
X1546372Y-33416291D01*
X1504487Y-33392108D01*
X1485227Y-33386947D01*
X1377192Y-33358000D01*
X1245408Y-33358000D01*
X1118112Y-33392108D01*
X1003986Y-33458000D01*
X1003983Y-33458002D01*
X910802Y-33551183D01*
X910800Y-33551186D01*
X844908Y-33665312D01*
X810800Y-33792608D01*
X300500Y-33792608D01*
X300500Y-33266408D01*
X30574500Y-33266408D01*
X30574500Y-33398192D01*
X30590525Y-33458000D01*
X30608608Y-33525487D01*
X30623444Y-33551183D01*
X30674500Y-33639614D01*
X30767686Y-33732800D01*
X30881814Y-33798692D01*
X31009108Y-33832800D01*
X31009110Y-33832800D01*
X31140890Y-33832800D01*
X31140892Y-33832800D01*
X31268186Y-33798692D01*
X31382314Y-33732800D01*
X31475500Y-33639614D01*
X31541392Y-33525486D01*
X31575500Y-33398192D01*
X31575500Y-33270108D01*
X33528900Y-33270108D01*
X33528900Y-33401892D01*
X33545954Y-33465539D01*
X33563008Y-33529187D01*
X33595954Y-33586250D01*
X33628900Y-33643314D01*
X33722086Y-33736500D01*
X33836214Y-33802392D01*
X33963508Y-33836500D01*
X33963510Y-33836500D01*
X34095290Y-33836500D01*
X34095292Y-33836500D01*
X34222586Y-33802392D01*
X34336714Y-33736500D01*
X34429900Y-33643314D01*
X34495792Y-33529186D01*
X34529900Y-33401892D01*
X34529900Y-33284508D01*
X37475800Y-33284508D01*
X37475800Y-33416292D01*
X37480415Y-33433514D01*
X37509908Y-33543587D01*
X37538201Y-33592591D01*
X37575800Y-33657714D01*
X37668986Y-33750900D01*
X37783114Y-33816792D01*
X37910408Y-33850900D01*
X37910410Y-33850900D01*
X38042190Y-33850900D01*
X38042192Y-33850900D01*
X38169486Y-33816792D01*
X38283614Y-33750900D01*
X38376800Y-33657714D01*
X38442692Y-33543586D01*
X38476800Y-33416292D01*
X38476800Y-33284508D01*
X38442692Y-33157214D01*
X38386743Y-33060308D01*
X45545700Y-33060308D01*
X45545700Y-33192092D01*
X45562754Y-33255739D01*
X45579808Y-33319387D01*
X45602102Y-33358000D01*
X45645700Y-33433514D01*
X45738886Y-33526700D01*
X45853014Y-33592592D01*
X45980308Y-33626700D01*
X45980310Y-33626700D01*
X46112090Y-33626700D01*
X46112092Y-33626700D01*
X46239386Y-33592592D01*
X46353514Y-33526700D01*
X46446700Y-33433514D01*
X46512592Y-33319386D01*
X46546700Y-33192092D01*
X46546700Y-33060308D01*
X46512885Y-32934108D01*
X56094100Y-32934108D01*
X56094100Y-33065891D01*
X56128208Y-33193187D01*
X56161154Y-33250250D01*
X56194100Y-33307314D01*
X56287286Y-33400500D01*
X56401414Y-33466392D01*
X56528708Y-33500500D01*
X56528710Y-33500500D01*
X56660490Y-33500500D01*
X56660492Y-33500500D01*
X56787786Y-33466392D01*
X56901914Y-33400500D01*
X56995100Y-33307314D01*
X57060992Y-33193186D01*
X57095100Y-33065892D01*
X57095100Y-32934108D01*
X57060992Y-32806814D01*
X56995100Y-32692686D01*
X56901914Y-32599500D01*
X56827805Y-32556713D01*
X56787787Y-32533608D01*
X56712693Y-32513487D01*
X56660492Y-32499500D01*
X56528708Y-32499500D01*
X56401412Y-32533608D01*
X56287286Y-32599500D01*
X56287283Y-32599502D01*
X56194102Y-32692683D01*
X56194100Y-32692686D01*
X56128208Y-32806812D01*
X56094100Y-32934108D01*
X46512885Y-32934108D01*
X46512592Y-32933014D01*
X46446700Y-32818886D01*
X46353514Y-32725700D01*
X46267236Y-32675887D01*
X46219020Y-32625320D01*
X46205798Y-32556713D01*
X46231766Y-32491848D01*
X46288680Y-32451320D01*
X46314518Y-32446974D01*
X46314332Y-32445561D01*
X46322383Y-32444500D01*
X46322392Y-32444500D01*
X46449686Y-32410392D01*
X46563814Y-32344500D01*
X46657000Y-32251314D01*
X46722892Y-32137186D01*
X46757000Y-32009892D01*
X46757000Y-31878108D01*
X46722892Y-31750814D01*
X46719988Y-31745785D01*
X46684774Y-31684792D01*
X46657000Y-31636686D01*
X46563814Y-31543500D01*
X46506750Y-31510554D01*
X46465448Y-31486708D01*
X47389500Y-31486708D01*
X47389500Y-31618492D01*
X47394374Y-31636683D01*
X47423608Y-31745787D01*
X47456554Y-31802850D01*
X47489500Y-31859914D01*
X47582686Y-31953100D01*
X47696814Y-32018992D01*
X47824108Y-32053100D01*
X47824110Y-32053100D01*
X47955890Y-32053100D01*
X47955892Y-32053100D01*
X48083186Y-32018992D01*
X48197314Y-31953100D01*
X48290500Y-31859914D01*
X48330803Y-31790108D01*
X63780500Y-31790108D01*
X63780500Y-31921891D01*
X63814608Y-32049187D01*
X63839721Y-32092683D01*
X63880500Y-32163314D01*
X63973686Y-32256500D01*
X64087814Y-32322392D01*
X64215108Y-32356500D01*
X64215110Y-32356500D01*
X64346890Y-32356500D01*
X64346892Y-32356500D01*
X64474186Y-32322392D01*
X64588314Y-32256500D01*
X64681500Y-32163314D01*
X64747392Y-32049186D01*
X64781500Y-31921892D01*
X64781500Y-31790108D01*
X64747392Y-31662814D01*
X64681500Y-31548686D01*
X64588314Y-31455500D01*
X64512253Y-31411586D01*
X64474187Y-31389608D01*
X64361499Y-31359414D01*
X64346892Y-31355500D01*
X64215108Y-31355500D01*
X64087812Y-31389608D01*
X63973686Y-31455500D01*
X63973683Y-31455502D01*
X63880502Y-31548683D01*
X63880500Y-31548686D01*
X63814608Y-31662812D01*
X63780500Y-31790108D01*
X48330803Y-31790108D01*
X48356392Y-31745786D01*
X48390500Y-31618492D01*
X48390500Y-31486708D01*
X48356392Y-31359414D01*
X48290500Y-31245286D01*
X48197314Y-31152100D01*
X48135291Y-31116291D01*
X48083187Y-31086208D01*
X48019539Y-31069154D01*
X47955892Y-31052100D01*
X47824108Y-31052100D01*
X47696812Y-31086208D01*
X47582686Y-31152100D01*
X47582683Y-31152102D01*
X47489502Y-31245283D01*
X47489500Y-31245286D01*
X47423608Y-31359412D01*
X47391938Y-31477608D01*
X47389500Y-31486708D01*
X46465448Y-31486708D01*
X46449687Y-31477608D01*
X46350009Y-31450900D01*
X46322392Y-31443500D01*
X46190608Y-31443500D01*
X46063312Y-31477608D01*
X45949186Y-31543500D01*
X45949183Y-31543502D01*
X45856002Y-31636683D01*
X45856000Y-31636686D01*
X45790108Y-31750812D01*
X45760875Y-31859913D01*
X45756000Y-31878108D01*
X45756000Y-32009892D01*
X45773054Y-32073539D01*
X45790108Y-32137187D01*
X45805192Y-32163313D01*
X45856000Y-32251314D01*
X45949186Y-32344500D01*
X45969971Y-32356500D01*
X46035464Y-32394313D01*
X46083680Y-32444880D01*
X46096902Y-32513487D01*
X46070934Y-32578352D01*
X46014020Y-32618880D01*
X45988181Y-32623225D01*
X45988368Y-32624639D01*
X45980308Y-32625700D01*
X45853012Y-32659808D01*
X45738886Y-32725700D01*
X45738883Y-32725702D01*
X45645702Y-32818883D01*
X45645700Y-32818886D01*
X45579808Y-32933012D01*
X45573093Y-32958075D01*
X45545700Y-33060308D01*
X38386743Y-33060308D01*
X38376800Y-33043086D01*
X38283614Y-32949900D01*
X38198051Y-32900500D01*
X38169487Y-32884008D01*
X38101935Y-32865908D01*
X38042192Y-32849900D01*
X37910408Y-32849900D01*
X37783112Y-32884008D01*
X37668986Y-32949900D01*
X37668983Y-32949902D01*
X37575802Y-33043083D01*
X37575800Y-33043086D01*
X37509908Y-33157212D01*
X37500269Y-33193186D01*
X37475800Y-33284508D01*
X34529900Y-33284508D01*
X34529900Y-33270108D01*
X34495792Y-33142814D01*
X34429900Y-33028686D01*
X34336714Y-32935500D01*
X34276091Y-32900499D01*
X34222587Y-32869608D01*
X34149034Y-32849900D01*
X34095292Y-32835500D01*
X33963508Y-32835500D01*
X33836212Y-32869608D01*
X33722086Y-32935500D01*
X33722083Y-32935502D01*
X33628902Y-33028683D01*
X33628900Y-33028686D01*
X33563008Y-33142812D01*
X33529891Y-33266408D01*
X33528900Y-33270108D01*
X31575500Y-33270108D01*
X31575500Y-33266408D01*
X31541392Y-33139114D01*
X31475500Y-33024986D01*
X31382314Y-32931800D01*
X31274595Y-32869608D01*
X31268187Y-32865908D01*
X31204539Y-32848854D01*
X31140892Y-32831800D01*
X31009108Y-32831800D01*
X30881812Y-32865908D01*
X30767686Y-32931800D01*
X30767683Y-32931802D01*
X30674502Y-33024983D01*
X30674500Y-33024986D01*
X30608608Y-33139112D01*
X30594119Y-33193187D01*
X30574500Y-33266408D01*
X300500Y-33266408D01*
X300500Y-32334108D01*
X8749500Y-32334108D01*
X8749500Y-32465891D01*
X8783608Y-32593187D01*
X8802380Y-32625700D01*
X8849500Y-32707314D01*
X8942686Y-32800500D01*
X9003308Y-32835500D01*
X9055975Y-32865908D01*
X9056814Y-32866392D01*
X9184108Y-32900500D01*
X9184110Y-32900500D01*
X9315890Y-32900500D01*
X9315892Y-32900500D01*
X9443186Y-32866392D01*
X9557314Y-32800500D01*
X9650500Y-32707314D01*
X9716392Y-32593186D01*
X9750500Y-32465892D01*
X9750500Y-32334108D01*
X9716392Y-32206814D01*
X9650500Y-32092686D01*
X9557314Y-31999500D01*
X9476947Y-31953100D01*
X9443187Y-31933608D01*
X9379539Y-31916554D01*
X9315892Y-31899500D01*
X9184108Y-31899500D01*
X9056812Y-31933608D01*
X8942686Y-31999500D01*
X8942683Y-31999502D01*
X8849502Y-32092683D01*
X8849500Y-32092686D01*
X8783608Y-32206812D01*
X8749500Y-32334108D01*
X300500Y-32334108D01*
X300500Y-31152508D01*
X31674500Y-31152508D01*
X31674500Y-31284291D01*
X31708608Y-31411587D01*
X31731304Y-31450897D01*
X31774500Y-31525714D01*
X31867686Y-31618900D01*
X31981814Y-31684792D01*
X32109108Y-31718900D01*
X32109110Y-31718900D01*
X32240890Y-31718900D01*
X32240892Y-31718900D01*
X32368186Y-31684792D01*
X32482314Y-31618900D01*
X32575500Y-31525714D01*
X32641392Y-31411586D01*
X32675500Y-31284292D01*
X32675500Y-31152508D01*
X32641392Y-31025214D01*
X32575500Y-30911086D01*
X32482314Y-30817900D01*
X32482312Y-30817899D01*
X32482310Y-30817897D01*
X32391500Y-30765468D01*
X32391499Y-30765468D01*
X32368187Y-30752008D01*
X32304539Y-30734954D01*
X32240892Y-30717900D01*
X32109108Y-30717900D01*
X31981812Y-30752008D01*
X31867686Y-30817900D01*
X31867683Y-30817902D01*
X31774502Y-30911083D01*
X31774500Y-30911086D01*
X31708608Y-31025212D01*
X31674500Y-31152508D01*
X300500Y-31152508D01*
X300500Y-29819908D01*
X4891900Y-29819908D01*
X4891900Y-29951692D01*
X4908954Y-30015339D01*
X4926008Y-30078987D01*
X4939301Y-30102010D01*
X4991900Y-30193114D01*
X5085086Y-30286300D01*
X5199214Y-30352192D01*
X5326508Y-30386300D01*
X5326510Y-30386300D01*
X5458290Y-30386300D01*
X5458292Y-30386300D01*
X5585586Y-30352192D01*
X5699714Y-30286300D01*
X5792900Y-30193114D01*
X5845500Y-30102008D01*
X19167400Y-30102008D01*
X19167400Y-30233792D01*
X19173860Y-30257900D01*
X19201508Y-30361087D01*
X19234454Y-30418150D01*
X19267400Y-30475214D01*
X19360586Y-30568400D01*
X19474714Y-30634292D01*
X19602008Y-30668400D01*
X19602010Y-30668400D01*
X19733790Y-30668400D01*
X19733792Y-30668400D01*
X19741973Y-30666208D01*
X44205900Y-30666208D01*
X44205900Y-30797992D01*
X44211234Y-30817900D01*
X44240008Y-30925287D01*
X44272954Y-30982350D01*
X44305900Y-31039414D01*
X44399086Y-31132600D01*
X44513214Y-31198492D01*
X44640508Y-31232600D01*
X44640510Y-31232600D01*
X44772290Y-31232600D01*
X44772292Y-31232600D01*
X44899586Y-31198492D01*
X45013714Y-31132600D01*
X45106900Y-31039414D01*
X45138600Y-30984508D01*
X51953300Y-30984508D01*
X51953300Y-31116292D01*
X51970354Y-31179939D01*
X51987408Y-31243587D01*
X52010909Y-31284291D01*
X52053300Y-31357714D01*
X52146486Y-31450900D01*
X52260614Y-31516792D01*
X52387908Y-31550900D01*
X52387910Y-31550900D01*
X52519690Y-31550900D01*
X52519692Y-31550900D01*
X52646986Y-31516792D01*
X52761114Y-31450900D01*
X52854300Y-31357714D01*
X52920192Y-31243586D01*
X52954300Y-31116292D01*
X52954300Y-30984508D01*
X52920192Y-30857214D01*
X52854300Y-30743086D01*
X52761114Y-30649900D01*
X52704050Y-30616954D01*
X52646987Y-30584008D01*
X52583339Y-30566954D01*
X52519692Y-30549900D01*
X52387908Y-30549900D01*
X52260612Y-30584008D01*
X52146486Y-30649900D01*
X52146483Y-30649902D01*
X52053302Y-30743083D01*
X52053300Y-30743086D01*
X51987408Y-30857212D01*
X51972974Y-30911083D01*
X51953300Y-30984508D01*
X45138600Y-30984508D01*
X45172792Y-30925286D01*
X45206900Y-30797992D01*
X45206900Y-30666208D01*
X45172792Y-30538914D01*
X45106900Y-30424786D01*
X45013714Y-30331600D01*
X44956650Y-30298654D01*
X44899587Y-30265708D01*
X44861623Y-30255536D01*
X44772292Y-30231600D01*
X44640508Y-30231600D01*
X44513212Y-30265708D01*
X44399086Y-30331600D01*
X44399083Y-30331602D01*
X44305902Y-30424783D01*
X44305900Y-30424786D01*
X44240008Y-30538912D01*
X44214452Y-30634291D01*
X44205900Y-30666208D01*
X19741973Y-30666208D01*
X19861086Y-30634292D01*
X19975214Y-30568400D01*
X20068400Y-30475214D01*
X20134292Y-30361086D01*
X20168400Y-30233792D01*
X20168400Y-30102008D01*
X20134292Y-29974714D01*
X20068400Y-29860586D01*
X19999322Y-29791508D01*
X23878900Y-29791508D01*
X23878900Y-29923292D01*
X23886510Y-29951692D01*
X23913008Y-30050587D01*
X23929405Y-30078987D01*
X23978900Y-30164714D01*
X24072086Y-30257900D01*
X24186214Y-30323792D01*
X24313508Y-30357900D01*
X24313510Y-30357900D01*
X24445290Y-30357900D01*
X24445292Y-30357900D01*
X24572586Y-30323792D01*
X24686714Y-30257900D01*
X24779900Y-30164714D01*
X24800861Y-30128408D01*
X54229200Y-30128408D01*
X54229200Y-30260191D01*
X54263308Y-30387487D01*
X54284841Y-30424783D01*
X54329200Y-30501614D01*
X54422386Y-30594800D01*
X54536514Y-30660692D01*
X54663808Y-30694800D01*
X54663810Y-30694800D01*
X54795590Y-30694800D01*
X54795592Y-30694800D01*
X54922886Y-30660692D01*
X55037014Y-30594800D01*
X55130200Y-30501614D01*
X55196092Y-30387486D01*
X55230200Y-30260192D01*
X55230200Y-30128408D01*
X55196092Y-30001114D01*
X55145224Y-29913008D01*
X56347500Y-29913008D01*
X56347500Y-30044792D01*
X56362831Y-30102008D01*
X56381608Y-30172087D01*
X56414554Y-30229150D01*
X56447500Y-30286214D01*
X56540686Y-30379400D01*
X56654814Y-30445292D01*
X56782108Y-30479400D01*
X56782110Y-30479400D01*
X56913890Y-30479400D01*
X56913892Y-30479400D01*
X57041186Y-30445292D01*
X57155314Y-30379400D01*
X57248500Y-30286214D01*
X57314392Y-30172086D01*
X57348500Y-30044792D01*
X57348500Y-29913008D01*
X57314392Y-29785714D01*
X57248500Y-29671586D01*
X57155314Y-29578400D01*
X57098250Y-29545454D01*
X57041187Y-29512508D01*
X56970959Y-29493691D01*
X56913892Y-29478400D01*
X56782108Y-29478400D01*
X56654812Y-29512508D01*
X56540686Y-29578400D01*
X56540683Y-29578402D01*
X56447502Y-29671583D01*
X56447500Y-29671586D01*
X56381608Y-29785712D01*
X56347500Y-29913008D01*
X55145224Y-29913008D01*
X55130200Y-29886986D01*
X55037014Y-29793800D01*
X54979950Y-29760854D01*
X54922887Y-29727908D01*
X54859239Y-29710854D01*
X54795592Y-29693800D01*
X54663808Y-29693800D01*
X54536512Y-29727908D01*
X54422386Y-29793800D01*
X54422383Y-29793802D01*
X54329202Y-29886983D01*
X54329200Y-29886986D01*
X54263308Y-30001112D01*
X54229200Y-30128408D01*
X24800861Y-30128408D01*
X24845792Y-30050586D01*
X24879900Y-29923292D01*
X24879900Y-29791508D01*
X24845792Y-29664214D01*
X24779900Y-29550086D01*
X24686714Y-29456900D01*
X24589027Y-29400500D01*
X24572587Y-29391008D01*
X24493798Y-29369897D01*
X24445292Y-29356900D01*
X24313508Y-29356900D01*
X24186212Y-29391008D01*
X24072086Y-29456900D01*
X24072083Y-29456902D01*
X23978902Y-29550083D01*
X23978900Y-29550086D01*
X23913008Y-29664212D01*
X23896506Y-29725800D01*
X23878900Y-29791508D01*
X19999322Y-29791508D01*
X19975214Y-29767400D01*
X19903156Y-29725797D01*
X19861087Y-29701508D01*
X19797439Y-29684454D01*
X19733792Y-29667400D01*
X19602008Y-29667400D01*
X19474712Y-29701508D01*
X19360586Y-29767400D01*
X19360583Y-29767402D01*
X19267402Y-29860583D01*
X19267400Y-29860586D01*
X19201508Y-29974712D01*
X19194434Y-30001114D01*
X19167400Y-30102008D01*
X5845500Y-30102008D01*
X5858792Y-30078986D01*
X5892900Y-29951692D01*
X5892900Y-29819908D01*
X5858792Y-29692614D01*
X5792900Y-29578486D01*
X5699714Y-29485300D01*
X5613964Y-29435792D01*
X5585587Y-29419408D01*
X5515016Y-29400499D01*
X5458292Y-29385300D01*
X5326508Y-29385300D01*
X5199212Y-29419408D01*
X5085086Y-29485300D01*
X5085083Y-29485302D01*
X4991902Y-29578483D01*
X4991900Y-29578486D01*
X4926008Y-29692612D01*
X4898895Y-29793802D01*
X4891900Y-29819908D01*
X300500Y-29819908D01*
X300500Y-29097808D01*
X6063500Y-29097808D01*
X6063500Y-29229591D01*
X6097608Y-29356887D01*
X6130554Y-29413950D01*
X6163500Y-29471014D01*
X6256686Y-29564200D01*
X6370814Y-29630092D01*
X6498108Y-29664200D01*
X6498110Y-29664200D01*
X6629890Y-29664200D01*
X6629892Y-29664200D01*
X6757186Y-29630092D01*
X6871314Y-29564200D01*
X6964500Y-29471014D01*
X7030392Y-29356886D01*
X7056511Y-29259408D01*
X9546900Y-29259408D01*
X9546900Y-29391192D01*
X9563954Y-29454839D01*
X9581008Y-29518487D01*
X9599252Y-29550086D01*
X9646900Y-29632614D01*
X9740086Y-29725800D01*
X9854214Y-29791692D01*
X9981508Y-29825800D01*
X9981510Y-29825800D01*
X10113290Y-29825800D01*
X10113292Y-29825800D01*
X10240586Y-29791692D01*
X10354714Y-29725800D01*
X10447900Y-29632614D01*
X10513792Y-29518486D01*
X10547900Y-29391192D01*
X10547900Y-29259408D01*
X10513792Y-29132114D01*
X10513789Y-29132109D01*
X10512642Y-29129337D01*
X10512370Y-29126809D01*
X10511688Y-29124263D01*
X10512085Y-29124156D01*
X10508738Y-29093008D01*
X15183200Y-29093008D01*
X15183200Y-29224792D01*
X15184486Y-29229591D01*
X15217308Y-29352087D01*
X15220087Y-29356900D01*
X15283200Y-29466214D01*
X15376386Y-29559400D01*
X15490514Y-29625292D01*
X15617808Y-29659400D01*
X15617810Y-29659400D01*
X15749590Y-29659400D01*
X15749592Y-29659400D01*
X15876886Y-29625292D01*
X15991014Y-29559400D01*
X16084200Y-29466214D01*
X16150092Y-29352086D01*
X16184200Y-29224792D01*
X16184200Y-29093008D01*
X16150092Y-28965714D01*
X16084200Y-28851586D01*
X15991014Y-28758400D01*
X15924474Y-28719983D01*
X15876887Y-28692508D01*
X15813239Y-28675454D01*
X15749592Y-28658400D01*
X15617808Y-28658400D01*
X15490512Y-28692508D01*
X15376386Y-28758400D01*
X15376383Y-28758402D01*
X15283202Y-28851583D01*
X15283200Y-28851586D01*
X15217308Y-28965712D01*
X15203302Y-29017986D01*
X15183200Y-29093008D01*
X10508738Y-29093008D01*
X10505177Y-29059867D01*
X10536456Y-28997390D01*
X10596547Y-28961741D01*
X10659294Y-28962115D01*
X10779408Y-28994300D01*
X10779411Y-28994300D01*
X10911190Y-28994300D01*
X10911192Y-28994300D01*
X11038486Y-28960192D01*
X11152614Y-28894300D01*
X11245800Y-28801114D01*
X11245800Y-28801113D01*
X11251547Y-28795367D01*
X11253025Y-28796845D01*
X11300462Y-28762201D01*
X11370208Y-28758039D01*
X11404421Y-28771499D01*
X11461910Y-28804690D01*
X11461911Y-28804690D01*
X11461914Y-28804692D01*
X11589208Y-28838800D01*
X11589210Y-28838800D01*
X11720990Y-28838800D01*
X11720992Y-28838800D01*
X11848286Y-28804692D01*
X11962414Y-28738800D01*
X12055600Y-28645614D01*
X12121492Y-28531486D01*
X12147584Y-28434108D01*
X18554500Y-28434108D01*
X18554500Y-28565891D01*
X18588608Y-28693187D01*
X18614943Y-28738799D01*
X18654500Y-28807314D01*
X18747686Y-28900500D01*
X18840538Y-28954108D01*
X18860639Y-28965714D01*
X18861814Y-28966392D01*
X18989108Y-29000500D01*
X18989110Y-29000500D01*
X19120890Y-29000500D01*
X19120892Y-29000500D01*
X19248186Y-28966392D01*
X19304103Y-28934108D01*
X25861200Y-28934108D01*
X25861200Y-29065892D01*
X25868515Y-29093191D01*
X25895308Y-29193187D01*
X25913555Y-29224791D01*
X25961200Y-29307314D01*
X26054386Y-29400500D01*
X26152073Y-29456900D01*
X26168205Y-29466214D01*
X26168514Y-29466392D01*
X26295808Y-29500500D01*
X26295810Y-29500500D01*
X26427590Y-29500500D01*
X26427592Y-29500500D01*
X26554886Y-29466392D01*
X26669014Y-29400500D01*
X26762200Y-29307314D01*
X26828092Y-29193186D01*
X26862200Y-29065892D01*
X26862200Y-28954108D01*
X34624500Y-28954108D01*
X34624500Y-29085892D01*
X34636885Y-29132114D01*
X34658608Y-29213187D01*
X34691554Y-29270250D01*
X34724500Y-29327314D01*
X34817686Y-29420500D01*
X34903249Y-29469900D01*
X34929922Y-29485300D01*
X34931814Y-29486392D01*
X35059108Y-29520500D01*
X35059110Y-29520500D01*
X35190890Y-29520500D01*
X35190892Y-29520500D01*
X35318186Y-29486392D01*
X35432314Y-29420500D01*
X35525500Y-29327314D01*
X35591392Y-29213186D01*
X35625500Y-29085892D01*
X35625500Y-28954108D01*
X35611942Y-28903508D01*
X36293900Y-28903508D01*
X36293900Y-29035291D01*
X36328008Y-29162587D01*
X36357222Y-29213186D01*
X36393900Y-29276714D01*
X36487086Y-29369900D01*
X36601214Y-29435792D01*
X36728508Y-29469900D01*
X36728510Y-29469900D01*
X36860290Y-29469900D01*
X36860292Y-29469900D01*
X36987586Y-29435792D01*
X37101714Y-29369900D01*
X37194900Y-29276714D01*
X37260792Y-29162586D01*
X37294900Y-29035292D01*
X37294900Y-28961408D01*
X64187000Y-28961408D01*
X64187000Y-29093192D01*
X64197429Y-29132114D01*
X64221108Y-29220487D01*
X64226365Y-29229592D01*
X64287000Y-29334614D01*
X64380186Y-29427800D01*
X64494314Y-29493692D01*
X64621608Y-29527800D01*
X64621610Y-29527800D01*
X64753390Y-29527800D01*
X64753392Y-29527800D01*
X64880686Y-29493692D01*
X64994814Y-29427800D01*
X65088000Y-29334614D01*
X65153892Y-29220486D01*
X65188000Y-29093192D01*
X65188000Y-28961408D01*
X65153892Y-28834114D01*
X65088000Y-28719986D01*
X64994814Y-28626800D01*
X64937750Y-28593854D01*
X64880687Y-28560908D01*
X64817039Y-28543854D01*
X64753392Y-28526800D01*
X64621608Y-28526800D01*
X64494312Y-28560908D01*
X64380186Y-28626800D01*
X64380183Y-28626802D01*
X64287002Y-28719983D01*
X64287000Y-28719986D01*
X64221108Y-28834112D01*
X64196092Y-28927475D01*
X64187000Y-28961408D01*
X37294900Y-28961408D01*
X37294900Y-28903508D01*
X37260792Y-28776214D01*
X37253279Y-28763202D01*
X37239189Y-28738797D01*
X37194900Y-28662086D01*
X37101714Y-28568900D01*
X37016151Y-28519500D01*
X36987587Y-28503008D01*
X36923939Y-28485954D01*
X36860292Y-28468900D01*
X36728508Y-28468900D01*
X36601212Y-28503008D01*
X36487086Y-28568900D01*
X36487083Y-28568902D01*
X36393902Y-28662083D01*
X36393900Y-28662086D01*
X36328008Y-28776212D01*
X36293900Y-28903508D01*
X35611942Y-28903508D01*
X35591392Y-28826814D01*
X35525500Y-28712686D01*
X35432314Y-28619500D01*
X35344676Y-28568902D01*
X35318187Y-28553608D01*
X35243544Y-28533608D01*
X35190892Y-28519500D01*
X35059108Y-28519500D01*
X34931812Y-28553608D01*
X34817686Y-28619500D01*
X34817683Y-28619502D01*
X34724502Y-28712683D01*
X34724500Y-28712686D01*
X34658608Y-28826812D01*
X34632353Y-28924800D01*
X34624500Y-28954108D01*
X26862200Y-28954108D01*
X26862200Y-28934108D01*
X26828092Y-28806814D01*
X26762200Y-28692686D01*
X26669014Y-28599500D01*
X26589527Y-28553608D01*
X26554887Y-28533608D01*
X26491239Y-28516554D01*
X26427592Y-28499500D01*
X26295808Y-28499500D01*
X26168512Y-28533608D01*
X26054386Y-28599500D01*
X26054383Y-28599502D01*
X25961202Y-28692683D01*
X25961200Y-28692686D01*
X25895308Y-28806812D01*
X25862978Y-28927474D01*
X25861200Y-28934108D01*
X19304103Y-28934108D01*
X19362314Y-28900500D01*
X19455500Y-28807314D01*
X19521392Y-28693186D01*
X19555500Y-28565892D01*
X19555500Y-28434108D01*
X19521392Y-28306814D01*
X19521390Y-28306810D01*
X19484886Y-28243583D01*
X19484885Y-28243582D01*
X19482079Y-28238722D01*
X19455500Y-28192686D01*
X19452522Y-28189708D01*
X22514200Y-28189708D01*
X22514200Y-28321492D01*
X22531254Y-28385139D01*
X22548308Y-28448787D01*
X22577588Y-28499500D01*
X22614200Y-28562914D01*
X22707386Y-28656100D01*
X22805390Y-28712683D01*
X22818039Y-28719986D01*
X22821514Y-28721992D01*
X22948808Y-28756100D01*
X22948810Y-28756100D01*
X23080590Y-28756100D01*
X23080592Y-28756100D01*
X23207886Y-28721992D01*
X23322014Y-28656100D01*
X23415200Y-28562914D01*
X23481092Y-28448786D01*
X23515200Y-28321492D01*
X23515200Y-28189708D01*
X23481092Y-28062414D01*
X23415200Y-27948286D01*
X23322014Y-27855100D01*
X23264950Y-27822154D01*
X23207887Y-27789208D01*
X23151532Y-27774108D01*
X45937800Y-27774108D01*
X45937800Y-27905891D01*
X45971908Y-28033187D01*
X45988783Y-28062414D01*
X46037800Y-28147314D01*
X46130986Y-28240500D01*
X46245114Y-28306392D01*
X46372408Y-28340500D01*
X46372410Y-28340500D01*
X46504190Y-28340500D01*
X46504192Y-28340500D01*
X46631486Y-28306392D01*
X46745614Y-28240500D01*
X46838800Y-28147314D01*
X46904692Y-28033186D01*
X46938800Y-27905892D01*
X46938800Y-27886608D01*
X67310700Y-27886608D01*
X67310700Y-28018392D01*
X67322495Y-28062412D01*
X67344808Y-28145687D01*
X67377754Y-28202750D01*
X67410700Y-28259814D01*
X67503886Y-28353000D01*
X67618014Y-28418892D01*
X67745308Y-28453000D01*
X67745310Y-28453000D01*
X67877090Y-28453000D01*
X67877092Y-28453000D01*
X68004386Y-28418892D01*
X68118514Y-28353000D01*
X68211700Y-28259814D01*
X68277592Y-28145686D01*
X68311700Y-28018392D01*
X68311700Y-27886608D01*
X68277592Y-27759314D01*
X68211700Y-27645186D01*
X68118514Y-27552000D01*
X68061450Y-27519054D01*
X68004387Y-27486108D01*
X67929711Y-27466099D01*
X67877092Y-27452000D01*
X67745308Y-27452000D01*
X67618012Y-27486108D01*
X67503886Y-27552000D01*
X67503883Y-27552002D01*
X67410702Y-27645183D01*
X67410700Y-27645186D01*
X67344808Y-27759312D01*
X67340844Y-27774108D01*
X67310700Y-27886608D01*
X46938800Y-27886608D01*
X46938800Y-27774108D01*
X46904692Y-27646814D01*
X46838800Y-27532686D01*
X46745614Y-27439500D01*
X46650525Y-27384600D01*
X46631487Y-27373608D01*
X46545211Y-27350491D01*
X46504192Y-27339500D01*
X46372408Y-27339500D01*
X46245112Y-27373608D01*
X46130986Y-27439500D01*
X46130983Y-27439502D01*
X46037802Y-27532683D01*
X46037800Y-27532686D01*
X45971908Y-27646812D01*
X45937800Y-27774108D01*
X23151532Y-27774108D01*
X23144239Y-27772154D01*
X23080592Y-27755100D01*
X22948808Y-27755100D01*
X22821512Y-27789208D01*
X22707386Y-27855100D01*
X22707383Y-27855102D01*
X22614202Y-27948283D01*
X22614200Y-27948286D01*
X22548308Y-28062412D01*
X22525559Y-28147314D01*
X22514200Y-28189708D01*
X19452522Y-28189708D01*
X19362314Y-28099500D01*
X19298076Y-28062412D01*
X19248187Y-28033608D01*
X19184539Y-28016554D01*
X19120892Y-27999500D01*
X18989108Y-27999500D01*
X18861812Y-28033608D01*
X18747686Y-28099500D01*
X18747683Y-28099502D01*
X18654502Y-28192683D01*
X18654500Y-28192686D01*
X18588608Y-28306812D01*
X18554500Y-28434108D01*
X12147584Y-28434108D01*
X12155600Y-28404192D01*
X12155600Y-28272408D01*
X12121492Y-28145114D01*
X12055600Y-28030986D01*
X11962414Y-27937800D01*
X11873751Y-27886610D01*
X11848287Y-27871908D01*
X11784639Y-27854854D01*
X11720992Y-27837800D01*
X11589208Y-27837800D01*
X11461912Y-27871908D01*
X11347786Y-27937800D01*
X11248853Y-28036733D01*
X11247378Y-28035258D01*
X11199901Y-28069911D01*
X11130154Y-28074051D01*
X11095977Y-28060600D01*
X11038489Y-28027409D01*
X11038486Y-28027408D01*
X10911192Y-27993300D01*
X10779408Y-27993300D01*
X10652112Y-28027408D01*
X10537986Y-28093300D01*
X10537983Y-28093302D01*
X10444802Y-28186483D01*
X10444800Y-28186486D01*
X10378908Y-28300612D01*
X10364871Y-28353000D01*
X10344800Y-28427908D01*
X10344800Y-28559692D01*
X10372235Y-28662083D01*
X10378910Y-28686992D01*
X10380059Y-28689767D01*
X10380330Y-28692292D01*
X10381012Y-28694837D01*
X10380614Y-28694943D01*
X10387520Y-28759238D01*
X10356239Y-28821714D01*
X10296146Y-28857360D01*
X10233401Y-28856983D01*
X10113292Y-28824800D01*
X9981508Y-28824800D01*
X9854212Y-28858908D01*
X9740086Y-28924800D01*
X9740083Y-28924802D01*
X9646902Y-29017983D01*
X9646900Y-29017986D01*
X9581008Y-29132112D01*
X9556175Y-29224792D01*
X9546900Y-29259408D01*
X7056511Y-29259408D01*
X7064500Y-29229592D01*
X7064500Y-29097808D01*
X7030392Y-28970514D01*
X6964500Y-28856386D01*
X6871314Y-28763200D01*
X6799938Y-28721991D01*
X6757187Y-28697308D01*
X6693539Y-28680254D01*
X6629892Y-28663200D01*
X6498108Y-28663200D01*
X6370812Y-28697308D01*
X6256686Y-28763200D01*
X6256683Y-28763202D01*
X6163502Y-28856383D01*
X6163500Y-28856386D01*
X6097608Y-28970512D01*
X6063500Y-29097808D01*
X300500Y-29097808D01*
X300500Y-26706408D01*
X12525000Y-26706408D01*
X12525000Y-26838192D01*
X12529341Y-26854392D01*
X12559108Y-26965487D01*
X12592054Y-27022550D01*
X12625000Y-27079614D01*
X12718186Y-27172800D01*
X12832314Y-27238692D01*
X12959608Y-27272800D01*
X12959610Y-27272800D01*
X13091390Y-27272800D01*
X13091392Y-27272800D01*
X13218686Y-27238692D01*
X13332814Y-27172800D01*
X13426000Y-27079614D01*
X13491892Y-26965486D01*
X13526000Y-26838192D01*
X13526000Y-26706408D01*
X13522034Y-26691608D01*
X14300000Y-26691608D01*
X14300000Y-26823392D01*
X14303966Y-26838192D01*
X14334108Y-26950687D01*
X14342653Y-26965487D01*
X14400000Y-27064814D01*
X14493186Y-27158000D01*
X14607314Y-27223892D01*
X14734608Y-27258000D01*
X14734610Y-27258000D01*
X14866390Y-27258000D01*
X14866392Y-27258000D01*
X14993686Y-27223892D01*
X15107814Y-27158000D01*
X15201000Y-27064814D01*
X15266892Y-26950686D01*
X15301000Y-26823392D01*
X15301000Y-26722608D01*
X27418800Y-26722608D01*
X27418800Y-26854391D01*
X27452908Y-26981687D01*
X27481662Y-27031490D01*
X27518800Y-27095814D01*
X27611986Y-27189000D01*
X27726114Y-27254892D01*
X27853408Y-27289000D01*
X27853410Y-27289000D01*
X27985190Y-27289000D01*
X27985192Y-27289000D01*
X28112486Y-27254892D01*
X28226614Y-27189000D01*
X28319800Y-27095814D01*
X28385692Y-26981686D01*
X28419800Y-26854392D01*
X28419800Y-26818208D01*
X33699600Y-26818208D01*
X33699600Y-26949991D01*
X33733708Y-27077287D01*
X33744405Y-27095814D01*
X33799600Y-27191414D01*
X33892786Y-27284600D01*
X34006914Y-27350492D01*
X34134208Y-27384600D01*
X34134210Y-27384600D01*
X34265990Y-27384600D01*
X34265992Y-27384600D01*
X34393286Y-27350492D01*
X34507414Y-27284600D01*
X34600600Y-27191414D01*
X34666492Y-27077286D01*
X34700600Y-26949992D01*
X34700600Y-26899708D01*
X42375900Y-26899708D01*
X42375900Y-27031491D01*
X42410008Y-27158787D01*
X42427452Y-27189000D01*
X42475900Y-27272914D01*
X42569086Y-27366100D01*
X42683214Y-27431992D01*
X42810508Y-27466100D01*
X42810510Y-27466100D01*
X42942290Y-27466100D01*
X42942292Y-27466100D01*
X43069586Y-27431992D01*
X43183714Y-27366100D01*
X43276900Y-27272914D01*
X43342792Y-27158786D01*
X43376900Y-27031492D01*
X43376900Y-26899708D01*
X43342792Y-26772414D01*
X43276900Y-26658286D01*
X43183714Y-26565100D01*
X43112203Y-26523813D01*
X43069587Y-26499208D01*
X43002315Y-26481183D01*
X42942292Y-26465100D01*
X42810508Y-26465100D01*
X42683212Y-26499208D01*
X42569086Y-26565100D01*
X42569083Y-26565102D01*
X42475902Y-26658283D01*
X42475900Y-26658286D01*
X42410008Y-26772412D01*
X42375900Y-26899708D01*
X34700600Y-26899708D01*
X34700600Y-26818208D01*
X34666492Y-26690914D01*
X34661860Y-26682892D01*
X34647652Y-26658283D01*
X34600600Y-26576786D01*
X34507414Y-26483600D01*
X34449534Y-26450183D01*
X34393287Y-26417708D01*
X34329639Y-26400654D01*
X34265992Y-26383600D01*
X34134208Y-26383600D01*
X34006912Y-26417708D01*
X33892786Y-26483600D01*
X33892783Y-26483602D01*
X33799602Y-26576783D01*
X33799600Y-26576786D01*
X33733708Y-26690912D01*
X33699600Y-26818208D01*
X28419800Y-26818208D01*
X28419800Y-26722608D01*
X28385692Y-26595314D01*
X28319800Y-26481186D01*
X28226614Y-26388000D01*
X28169550Y-26355054D01*
X28112487Y-26322108D01*
X27996791Y-26291108D01*
X27985192Y-26288000D01*
X27853408Y-26288000D01*
X27726112Y-26322108D01*
X27611986Y-26388000D01*
X27611983Y-26388002D01*
X27518802Y-26481183D01*
X27518800Y-26481186D01*
X27452908Y-26595312D01*
X27418800Y-26722608D01*
X15301000Y-26722608D01*
X15301000Y-26691608D01*
X15266892Y-26564314D01*
X15201000Y-26450186D01*
X15107814Y-26357000D01*
X15047379Y-26322108D01*
X14993687Y-26291108D01*
X14955846Y-26280969D01*
X14866392Y-26257000D01*
X14734608Y-26257000D01*
X14607312Y-26291108D01*
X14493186Y-26357000D01*
X14493183Y-26357002D01*
X14400002Y-26450183D01*
X14400000Y-26450186D01*
X14334108Y-26564312D01*
X14302336Y-26682891D01*
X14300000Y-26691608D01*
X13522034Y-26691608D01*
X13491892Y-26579114D01*
X13426000Y-26464986D01*
X13332814Y-26371800D01*
X13275750Y-26338854D01*
X13218687Y-26305908D01*
X13130922Y-26282392D01*
X13091392Y-26271800D01*
X12959608Y-26271800D01*
X12832312Y-26305908D01*
X12718186Y-26371800D01*
X12718183Y-26371802D01*
X12625002Y-26464983D01*
X12625000Y-26464986D01*
X12559108Y-26579112D01*
X12537895Y-26658283D01*
X12525000Y-26706408D01*
X300500Y-26706408D01*
X300500Y-26150608D01*
X31066800Y-26150608D01*
X31066800Y-26282392D01*
X31073101Y-26305908D01*
X31100908Y-26409687D01*
X31124289Y-26450183D01*
X31166800Y-26523814D01*
X31259986Y-26617000D01*
X31374114Y-26682892D01*
X31501408Y-26717000D01*
X31501410Y-26717000D01*
X31633190Y-26717000D01*
X31633192Y-26717000D01*
X31760486Y-26682892D01*
X31874614Y-26617000D01*
X31967800Y-26523814D01*
X32033692Y-26409686D01*
X32067800Y-26282392D01*
X32067800Y-26150608D01*
X32033692Y-26023314D01*
X31967800Y-25909186D01*
X31874614Y-25816000D01*
X31789375Y-25766787D01*
X31760487Y-25750108D01*
X31696839Y-25733054D01*
X31633192Y-25716000D01*
X31501408Y-25716000D01*
X31374112Y-25750108D01*
X31259986Y-25816000D01*
X31259983Y-25816002D01*
X31166802Y-25909183D01*
X31166800Y-25909186D01*
X31100908Y-26023312D01*
X31081405Y-26096100D01*
X31066800Y-26150608D01*
X300500Y-26150608D01*
X300500Y-25423308D01*
X33456100Y-25423308D01*
X33456100Y-25555092D01*
X33457446Y-25560114D01*
X33490208Y-25682387D01*
X33509615Y-25716000D01*
X33556100Y-25796514D01*
X33649286Y-25889700D01*
X33763414Y-25955592D01*
X33890708Y-25989700D01*
X33890710Y-25989700D01*
X34022490Y-25989700D01*
X34022492Y-25989700D01*
X34149786Y-25955592D01*
X34263914Y-25889700D01*
X34357100Y-25796514D01*
X34422992Y-25682386D01*
X34457100Y-25555092D01*
X34457100Y-25423308D01*
X34422992Y-25296014D01*
X34359999Y-25186908D01*
X38274700Y-25186908D01*
X38274700Y-25318692D01*
X38286333Y-25362108D01*
X38308808Y-25445987D01*
X38336465Y-25493890D01*
X38374700Y-25560114D01*
X38467886Y-25653300D01*
X38582014Y-25719192D01*
X38709308Y-25753300D01*
X38709310Y-25753300D01*
X38841090Y-25753300D01*
X38841092Y-25753300D01*
X38968386Y-25719192D01*
X39082514Y-25653300D01*
X39175700Y-25560114D01*
X39241592Y-25445986D01*
X39264067Y-25362108D01*
X42432300Y-25362108D01*
X42432300Y-25493891D01*
X42466408Y-25621187D01*
X42489678Y-25661491D01*
X42532300Y-25735314D01*
X42625486Y-25828500D01*
X42716273Y-25880916D01*
X42731485Y-25889699D01*
X42739614Y-25894392D01*
X42866908Y-25928500D01*
X42866910Y-25928500D01*
X42998690Y-25928500D01*
X42998692Y-25928500D01*
X43125986Y-25894392D01*
X43240114Y-25828500D01*
X43333300Y-25735314D01*
X43399192Y-25621186D01*
X43423703Y-25529708D01*
X44852500Y-25529708D01*
X44852500Y-25661492D01*
X44858099Y-25682387D01*
X44886608Y-25788787D01*
X44902320Y-25816000D01*
X44952500Y-25902914D01*
X45045686Y-25996100D01*
X45159814Y-26061992D01*
X45287108Y-26096100D01*
X45287110Y-26096100D01*
X45418890Y-26096100D01*
X45418892Y-26096100D01*
X45546186Y-26061992D01*
X45660314Y-25996100D01*
X45753500Y-25902914D01*
X45819392Y-25788786D01*
X45853500Y-25661492D01*
X45853500Y-25529708D01*
X45819392Y-25402414D01*
X45753500Y-25288286D01*
X45660314Y-25195100D01*
X45594183Y-25156919D01*
X45546187Y-25129208D01*
X45441732Y-25101220D01*
X45418892Y-25095100D01*
X45287108Y-25095100D01*
X45159812Y-25129208D01*
X45045686Y-25195100D01*
X45045683Y-25195102D01*
X44952502Y-25288283D01*
X44952500Y-25288286D01*
X44886608Y-25402412D01*
X44864127Y-25486314D01*
X44852500Y-25529708D01*
X43423703Y-25529708D01*
X43433300Y-25493892D01*
X43433300Y-25362108D01*
X43399192Y-25234814D01*
X43333300Y-25120686D01*
X43240114Y-25027500D01*
X43183050Y-24994554D01*
X43125987Y-24961608D01*
X43062339Y-24944554D01*
X42998692Y-24927500D01*
X42866908Y-24927500D01*
X42739612Y-24961608D01*
X42625486Y-25027500D01*
X42625483Y-25027502D01*
X42532302Y-25120683D01*
X42532300Y-25120686D01*
X42466408Y-25234812D01*
X42432300Y-25362108D01*
X39264067Y-25362108D01*
X39275700Y-25318692D01*
X39275700Y-25186908D01*
X39241592Y-25059614D01*
X39175700Y-24945486D01*
X39082514Y-24852300D01*
X39025450Y-24819354D01*
X38968387Y-24786408D01*
X38871665Y-24760492D01*
X38841092Y-24752300D01*
X38709308Y-24752300D01*
X38582012Y-24786408D01*
X38467886Y-24852300D01*
X38467883Y-24852302D01*
X38374702Y-24945483D01*
X38374700Y-24945486D01*
X38308808Y-25059612D01*
X38286849Y-25141568D01*
X38274700Y-25186908D01*
X34359999Y-25186908D01*
X34357100Y-25181886D01*
X34263914Y-25088700D01*
X34206850Y-25055754D01*
X34149787Y-25022808D01*
X34086139Y-25005754D01*
X34022492Y-24988700D01*
X33890708Y-24988700D01*
X33763412Y-25022808D01*
X33649286Y-25088700D01*
X33649283Y-25088702D01*
X33556102Y-25181883D01*
X33556100Y-25181886D01*
X33490208Y-25296012D01*
X33461910Y-25401624D01*
X33456100Y-25423308D01*
X300500Y-25423308D01*
X300500Y-23657108D01*
X5906300Y-23657108D01*
X5906300Y-23788892D01*
X5916482Y-23826891D01*
X5940408Y-23916187D01*
X5971756Y-23970483D01*
X6006300Y-24030314D01*
X6099486Y-24123500D01*
X6213614Y-24189392D01*
X6340908Y-24223500D01*
X6340910Y-24223500D01*
X6472690Y-24223500D01*
X6472692Y-24223500D01*
X6599986Y-24189392D01*
X6714114Y-24123500D01*
X6807300Y-24030314D01*
X6812320Y-24021619D01*
X6862884Y-23973404D01*
X6931490Y-23960179D01*
X6996356Y-23986145D01*
X7032570Y-24036998D01*
X7034300Y-24036282D01*
X7037407Y-24043785D01*
X7054159Y-24072799D01*
X7103300Y-24157914D01*
X7196486Y-24251100D01*
X7310614Y-24316992D01*
X7437908Y-24351100D01*
X7437910Y-24351100D01*
X7569690Y-24351100D01*
X7569692Y-24351100D01*
X7696986Y-24316992D01*
X7811114Y-24251100D01*
X7904300Y-24157914D01*
X7970192Y-24043786D01*
X8004300Y-23916492D01*
X8004300Y-23784708D01*
X8000013Y-23768708D01*
X10829300Y-23768708D01*
X10829300Y-23900492D01*
X10833587Y-23916490D01*
X10863408Y-24027787D01*
X10884137Y-24063690D01*
X10929300Y-24141914D01*
X11022486Y-24235100D01*
X11136614Y-24300992D01*
X11263908Y-24335100D01*
X11263910Y-24335100D01*
X11395690Y-24335100D01*
X11395692Y-24335100D01*
X11522986Y-24300992D01*
X11637114Y-24235100D01*
X11660306Y-24211908D01*
X13151000Y-24211908D01*
X13151000Y-24343692D01*
X13165072Y-24396210D01*
X13185108Y-24470987D01*
X13201012Y-24498533D01*
X13251000Y-24585114D01*
X13344186Y-24678300D01*
X13458314Y-24744192D01*
X13585608Y-24778300D01*
X13585610Y-24778300D01*
X13717390Y-24778300D01*
X13717392Y-24778300D01*
X13844686Y-24744192D01*
X13958814Y-24678300D01*
X14052000Y-24585114D01*
X14117892Y-24470986D01*
X14152000Y-24343692D01*
X14152000Y-24228208D01*
X14883900Y-24228208D01*
X14883900Y-24359992D01*
X14900954Y-24423639D01*
X14918008Y-24487287D01*
X14941509Y-24527991D01*
X14983900Y-24601414D01*
X15077086Y-24694600D01*
X15191214Y-24760492D01*
X15318508Y-24794600D01*
X15318510Y-24794600D01*
X15450290Y-24794600D01*
X15450292Y-24794600D01*
X15577586Y-24760492D01*
X15691714Y-24694600D01*
X15784900Y-24601414D01*
X15850792Y-24487286D01*
X15884900Y-24359992D01*
X15884900Y-24228208D01*
X15883587Y-24223308D01*
X16643100Y-24223308D01*
X16643100Y-24355092D01*
X16660154Y-24418739D01*
X16677208Y-24482387D01*
X16703538Y-24527991D01*
X16743100Y-24596514D01*
X16836286Y-24689700D01*
X16950414Y-24755592D01*
X17077708Y-24789700D01*
X17077710Y-24789700D01*
X17209490Y-24789700D01*
X17209492Y-24789700D01*
X17336786Y-24755592D01*
X17450914Y-24689700D01*
X17544100Y-24596514D01*
X17609992Y-24482386D01*
X17644100Y-24355092D01*
X17644100Y-24230108D01*
X19026800Y-24230108D01*
X19026800Y-24361892D01*
X19043854Y-24425539D01*
X19060908Y-24489187D01*
X19083312Y-24527991D01*
X19126800Y-24603314D01*
X19219986Y-24696500D01*
X19334114Y-24762392D01*
X19461408Y-24796500D01*
X19461410Y-24796500D01*
X19593190Y-24796500D01*
X19593192Y-24796500D01*
X19720486Y-24762392D01*
X19834614Y-24696500D01*
X19927800Y-24603314D01*
X19993692Y-24489186D01*
X20027800Y-24361892D01*
X20027800Y-24230108D01*
X19993692Y-24102814D01*
X19988146Y-24093208D01*
X24476200Y-24093208D01*
X24476200Y-24224992D01*
X24479542Y-24237465D01*
X24510308Y-24352287D01*
X24543254Y-24409350D01*
X24576200Y-24466414D01*
X24669386Y-24559600D01*
X24783514Y-24625492D01*
X24910808Y-24659600D01*
X24910810Y-24659600D01*
X25042590Y-24659600D01*
X25042592Y-24659600D01*
X25169886Y-24625492D01*
X25284014Y-24559600D01*
X25377200Y-24466414D01*
X25417734Y-24396208D01*
X31865800Y-24396208D01*
X31865800Y-24527992D01*
X31874269Y-24559599D01*
X31899908Y-24655287D01*
X31914920Y-24681288D01*
X31965800Y-24769414D01*
X32058986Y-24862600D01*
X32173114Y-24928492D01*
X32300408Y-24962600D01*
X32300410Y-24962600D01*
X32432190Y-24962600D01*
X32432192Y-24962600D01*
X32559486Y-24928492D01*
X32673614Y-24862600D01*
X32766800Y-24769414D01*
X32832692Y-24655286D01*
X32866800Y-24527992D01*
X32866800Y-24396208D01*
X32832692Y-24268914D01*
X32766800Y-24154786D01*
X32696322Y-24084308D01*
X46961100Y-24084308D01*
X46961100Y-24216092D01*
X46978154Y-24279739D01*
X46995208Y-24343387D01*
X47025705Y-24396208D01*
X47061100Y-24457514D01*
X47154286Y-24550700D01*
X47268414Y-24616592D01*
X47395708Y-24650700D01*
X47395710Y-24650700D01*
X47527490Y-24650700D01*
X47527492Y-24650700D01*
X47654786Y-24616592D01*
X47768914Y-24550700D01*
X47862100Y-24457514D01*
X47927992Y-24343386D01*
X47962100Y-24216092D01*
X47962100Y-24145332D01*
X47981785Y-24078293D01*
X48034589Y-24032538D01*
X48103747Y-24022594D01*
X48167303Y-24051619D01*
X48178676Y-24063690D01*
X48183299Y-24068313D01*
X48183300Y-24068314D01*
X48276486Y-24161500D01*
X48371038Y-24216090D01*
X48390610Y-24227390D01*
X48390614Y-24227392D01*
X48508515Y-24258983D01*
X48568176Y-24295348D01*
X48598705Y-24358195D01*
X48590410Y-24427571D01*
X48545925Y-24481448D01*
X48508517Y-24498532D01*
X48470914Y-24508608D01*
X48470912Y-24508608D01*
X48470912Y-24508609D01*
X48356786Y-24574500D01*
X48356783Y-24574502D01*
X48263602Y-24667683D01*
X48263600Y-24667686D01*
X48197708Y-24781812D01*
X48163600Y-24909108D01*
X48163600Y-25034181D01*
X48143915Y-25101220D01*
X48091111Y-25146975D01*
X48021953Y-25156919D01*
X47977600Y-25141568D01*
X47918089Y-25107209D01*
X47918086Y-25107208D01*
X47790792Y-25073100D01*
X47659008Y-25073100D01*
X47531712Y-25107208D01*
X47417586Y-25173100D01*
X47417583Y-25173102D01*
X47324402Y-25266283D01*
X47324400Y-25266286D01*
X47258508Y-25380412D01*
X47224400Y-25507708D01*
X47224400Y-25639491D01*
X47258508Y-25766787D01*
X47286922Y-25816000D01*
X47324400Y-25880914D01*
X47417586Y-25974100D01*
X47531714Y-26039992D01*
X47659008Y-26074100D01*
X47659010Y-26074100D01*
X47790790Y-26074100D01*
X47790792Y-26074100D01*
X47918086Y-26039992D01*
X48032214Y-25974100D01*
X48125400Y-25880914D01*
X48191292Y-25766786D01*
X48225400Y-25639492D01*
X48225400Y-25514418D01*
X48245085Y-25447379D01*
X48297889Y-25401624D01*
X48367047Y-25391680D01*
X48411401Y-25407032D01*
X48470908Y-25441389D01*
X48470909Y-25441389D01*
X48470914Y-25441392D01*
X48598208Y-25475500D01*
X48598210Y-25475500D01*
X48729990Y-25475500D01*
X48729992Y-25475500D01*
X48857286Y-25441392D01*
X48971414Y-25375500D01*
X49064600Y-25282314D01*
X49130492Y-25168186D01*
X49145250Y-25113108D01*
X50897900Y-25113108D01*
X50897900Y-25244892D01*
X50909527Y-25288286D01*
X50932008Y-25372187D01*
X50964954Y-25429250D01*
X50997900Y-25486314D01*
X51091086Y-25579500D01*
X51205214Y-25645392D01*
X51332508Y-25679500D01*
X51332510Y-25679500D01*
X51464290Y-25679500D01*
X51464292Y-25679500D01*
X51591586Y-25645392D01*
X51705714Y-25579500D01*
X51798900Y-25486314D01*
X51864792Y-25372186D01*
X51890348Y-25276805D01*
X51926713Y-25217146D01*
X51989560Y-25186617D01*
X52010123Y-25184900D01*
X52041090Y-25184900D01*
X52041092Y-25184900D01*
X52168386Y-25150792D01*
X52282514Y-25084900D01*
X52375700Y-24991714D01*
X52441592Y-24877586D01*
X52475700Y-24750292D01*
X52475700Y-24618508D01*
X52441592Y-24491214D01*
X52375700Y-24377086D01*
X52282514Y-24283900D01*
X52225450Y-24250954D01*
X52168387Y-24218008D01*
X52104739Y-24200954D01*
X52041092Y-24183900D01*
X51909308Y-24183900D01*
X51782012Y-24218008D01*
X51667886Y-24283900D01*
X51667883Y-24283902D01*
X51574702Y-24377083D01*
X51574700Y-24377086D01*
X51508808Y-24491212D01*
X51504147Y-24508608D01*
X51483648Y-24585116D01*
X51483252Y-24586593D01*
X51446887Y-24646254D01*
X51384040Y-24676783D01*
X51363477Y-24678500D01*
X51332508Y-24678500D01*
X51205212Y-24712608D01*
X51091086Y-24778500D01*
X51091083Y-24778502D01*
X50997902Y-24871683D01*
X50997900Y-24871686D01*
X50932008Y-24985812D01*
X50902725Y-25095100D01*
X50897900Y-25113108D01*
X49145250Y-25113108D01*
X49164600Y-25040892D01*
X49164600Y-24909108D01*
X49130492Y-24781814D01*
X49064600Y-24667686D01*
X48971414Y-24574500D01*
X48857286Y-24508608D01*
X48759427Y-24482387D01*
X48739383Y-24477016D01*
X48679723Y-24440650D01*
X48649194Y-24377803D01*
X48657489Y-24308428D01*
X48701975Y-24254550D01*
X48739376Y-24237469D01*
X48776986Y-24227392D01*
X48891114Y-24161500D01*
X48984300Y-24068314D01*
X49050192Y-23954186D01*
X49084300Y-23826892D01*
X49084300Y-23695108D01*
X49050192Y-23567814D01*
X48984300Y-23453686D01*
X48891114Y-23360500D01*
X48825296Y-23322500D01*
X48776987Y-23294608D01*
X48695223Y-23272700D01*
X48649692Y-23260500D01*
X48517908Y-23260500D01*
X48390612Y-23294608D01*
X48276486Y-23360500D01*
X48276483Y-23360502D01*
X48183302Y-23453683D01*
X48183300Y-23453686D01*
X48117408Y-23567812D01*
X48083300Y-23695108D01*
X48083300Y-23765867D01*
X48063615Y-23832906D01*
X48010811Y-23878661D01*
X47941653Y-23888605D01*
X47878097Y-23859580D01*
X47866723Y-23847509D01*
X47768916Y-23749702D01*
X47768914Y-23749700D01*
X47674362Y-23695110D01*
X47654787Y-23683808D01*
X47591139Y-23666754D01*
X47527492Y-23649700D01*
X47395708Y-23649700D01*
X47268412Y-23683808D01*
X47154286Y-23749700D01*
X47154283Y-23749702D01*
X47061102Y-23842883D01*
X47061100Y-23842886D01*
X46995208Y-23957012D01*
X46964183Y-24072801D01*
X46961100Y-24084308D01*
X32696322Y-24084308D01*
X32673614Y-24061600D01*
X32604369Y-24021621D01*
X32559487Y-23995708D01*
X32495839Y-23978654D01*
X32432192Y-23961600D01*
X32300408Y-23961600D01*
X32173112Y-23995708D01*
X32058986Y-24061600D01*
X32058983Y-24061602D01*
X31965802Y-24154783D01*
X31965800Y-24154786D01*
X31899908Y-24268912D01*
X31865800Y-24396208D01*
X25417734Y-24396208D01*
X25443092Y-24352286D01*
X25477200Y-24224992D01*
X25477200Y-24093208D01*
X25443092Y-23965914D01*
X25377200Y-23851786D01*
X25284014Y-23758600D01*
X25226950Y-23725654D01*
X25169887Y-23692708D01*
X25106239Y-23675654D01*
X25042592Y-23658600D01*
X24910808Y-23658600D01*
X24783512Y-23692708D01*
X24669386Y-23758600D01*
X24669383Y-23758602D01*
X24576202Y-23851783D01*
X24576200Y-23851786D01*
X24510308Y-23965912D01*
X24481668Y-24072800D01*
X24476200Y-24093208D01*
X19988146Y-24093208D01*
X19927800Y-23988686D01*
X19834614Y-23895500D01*
X19772399Y-23859580D01*
X19720487Y-23829608D01*
X19652562Y-23811408D01*
X19593192Y-23795500D01*
X19461408Y-23795500D01*
X19334112Y-23829608D01*
X19219986Y-23895500D01*
X19219983Y-23895502D01*
X19126802Y-23988683D01*
X19126800Y-23988686D01*
X19060908Y-24102812D01*
X19028571Y-24223499D01*
X19026800Y-24230108D01*
X17644100Y-24230108D01*
X17644100Y-24223308D01*
X17609992Y-24096014D01*
X17544100Y-23981886D01*
X17450914Y-23888700D01*
X17386972Y-23851783D01*
X17336787Y-23822808D01*
X17227779Y-23793600D01*
X17209492Y-23788700D01*
X17077708Y-23788700D01*
X16950412Y-23822808D01*
X16836286Y-23888700D01*
X16836283Y-23888702D01*
X16743102Y-23981883D01*
X16743100Y-23981886D01*
X16677208Y-24096012D01*
X16644520Y-24218008D01*
X16643100Y-24223308D01*
X15883587Y-24223308D01*
X15850792Y-24100914D01*
X15784900Y-23986786D01*
X15691714Y-23893600D01*
X15619285Y-23851783D01*
X15577587Y-23827708D01*
X15513939Y-23810654D01*
X15450292Y-23793600D01*
X15318508Y-23793600D01*
X15191212Y-23827708D01*
X15077086Y-23893600D01*
X15077083Y-23893602D01*
X14983902Y-23986783D01*
X14983900Y-23986786D01*
X14918008Y-24100912D01*
X14888267Y-24211910D01*
X14883900Y-24228208D01*
X14152000Y-24228208D01*
X14152000Y-24211908D01*
X14117892Y-24084614D01*
X14052000Y-23970486D01*
X13958814Y-23877300D01*
X13881922Y-23832906D01*
X13844687Y-23811408D01*
X13760654Y-23788892D01*
X13717392Y-23777300D01*
X13585608Y-23777300D01*
X13458312Y-23811408D01*
X13344186Y-23877300D01*
X13344183Y-23877302D01*
X13251002Y-23970483D01*
X13251000Y-23970486D01*
X13185108Y-24084612D01*
X13161479Y-24172799D01*
X13151000Y-24211908D01*
X11660306Y-24211908D01*
X11730300Y-24141914D01*
X11796192Y-24027786D01*
X11830300Y-23900492D01*
X11830300Y-23768708D01*
X11796192Y-23641414D01*
X11775981Y-23606408D01*
X17733200Y-23606408D01*
X17733200Y-23738192D01*
X17750254Y-23801839D01*
X17767308Y-23865487D01*
X17787518Y-23900491D01*
X17833200Y-23979614D01*
X17926386Y-24072800D01*
X18040514Y-24138692D01*
X18167808Y-24172800D01*
X18167810Y-24172800D01*
X18299590Y-24172800D01*
X18299592Y-24172800D01*
X18426886Y-24138692D01*
X18541014Y-24072800D01*
X18634200Y-23979614D01*
X18700092Y-23865486D01*
X18734200Y-23738192D01*
X18734200Y-23606408D01*
X18700092Y-23479114D01*
X18634200Y-23364986D01*
X18541014Y-23271800D01*
X18483494Y-23238591D01*
X18426887Y-23205908D01*
X18363239Y-23188854D01*
X18299592Y-23171800D01*
X18167808Y-23171800D01*
X18040512Y-23205908D01*
X17926386Y-23271800D01*
X17926383Y-23271802D01*
X17833202Y-23364983D01*
X17833200Y-23364986D01*
X17767308Y-23479112D01*
X17747782Y-23551986D01*
X17733200Y-23606408D01*
X11775981Y-23606408D01*
X11730300Y-23527286D01*
X11637114Y-23434100D01*
X11550699Y-23384208D01*
X11522987Y-23368208D01*
X11455405Y-23350100D01*
X11395692Y-23334100D01*
X11263908Y-23334100D01*
X11136612Y-23368208D01*
X11022486Y-23434100D01*
X11022483Y-23434102D01*
X10929302Y-23527283D01*
X10929300Y-23527286D01*
X10863408Y-23641412D01*
X10849664Y-23692708D01*
X10829300Y-23768708D01*
X8000013Y-23768708D01*
X7970192Y-23657414D01*
X7904300Y-23543286D01*
X7811114Y-23450100D01*
X7751502Y-23415683D01*
X7696987Y-23384208D01*
X7608513Y-23360502D01*
X7569692Y-23350100D01*
X7437908Y-23350100D01*
X7310612Y-23384208D01*
X7196486Y-23450100D01*
X7196483Y-23450102D01*
X7103302Y-23543283D01*
X7103295Y-23543292D01*
X7098276Y-23551986D01*
X7047707Y-23600199D01*
X6979099Y-23613419D01*
X6914236Y-23587448D01*
X6878031Y-23536600D01*
X6876300Y-23537318D01*
X6873192Y-23529814D01*
X6829239Y-23453686D01*
X6807300Y-23415686D01*
X6714114Y-23322500D01*
X6657050Y-23289554D01*
X6599987Y-23256608D01*
X6532745Y-23238591D01*
X6472692Y-23222500D01*
X6340908Y-23222500D01*
X6213612Y-23256608D01*
X6099486Y-23322500D01*
X6099483Y-23322502D01*
X6006302Y-23415683D01*
X6006300Y-23415686D01*
X5940408Y-23529812D01*
X5919885Y-23606408D01*
X5906300Y-23657108D01*
X300500Y-23657108D01*
X300500Y-22115608D01*
X12872500Y-22115608D01*
X12872500Y-22247392D01*
X12872880Y-22248810D01*
X12906608Y-22374687D01*
X12939554Y-22431750D01*
X12972500Y-22488814D01*
X13065686Y-22582000D01*
X13179814Y-22647892D01*
X13307108Y-22682000D01*
X13307110Y-22682000D01*
X13438890Y-22682000D01*
X13438892Y-22682000D01*
X13566186Y-22647892D01*
X13680314Y-22582000D01*
X13773500Y-22488814D01*
X13839392Y-22374686D01*
X13869932Y-22260708D01*
X17281800Y-22260708D01*
X17281800Y-22392491D01*
X17315908Y-22519787D01*
X17337323Y-22556878D01*
X17381800Y-22633914D01*
X17474986Y-22727100D01*
X17589114Y-22792992D01*
X17716408Y-22827100D01*
X17716410Y-22827100D01*
X17848190Y-22827100D01*
X17848192Y-22827100D01*
X17975486Y-22792992D01*
X18089614Y-22727100D01*
X18182800Y-22633914D01*
X18186787Y-22627008D01*
X19044800Y-22627008D01*
X19044800Y-22758791D01*
X19078908Y-22886087D01*
X19100682Y-22923800D01*
X19144800Y-23000214D01*
X19237986Y-23093400D01*
X19352114Y-23159292D01*
X19479408Y-23193400D01*
X19479410Y-23193400D01*
X19611190Y-23193400D01*
X19611192Y-23193400D01*
X19738486Y-23159292D01*
X19852614Y-23093400D01*
X19945800Y-23000214D01*
X20011692Y-22886086D01*
X20045800Y-22758792D01*
X20045800Y-22627008D01*
X29494000Y-22627008D01*
X29494000Y-22758791D01*
X29528108Y-22886087D01*
X29549882Y-22923800D01*
X29594000Y-23000214D01*
X29687186Y-23093400D01*
X29801314Y-23159292D01*
X29928608Y-23193400D01*
X29928610Y-23193400D01*
X30060390Y-23193400D01*
X30060392Y-23193400D01*
X30187686Y-23159292D01*
X30301814Y-23093400D01*
X30395000Y-23000214D01*
X30460892Y-22886086D01*
X30495000Y-22758792D01*
X30495000Y-22706308D01*
X45203100Y-22706308D01*
X45203100Y-22838091D01*
X45237208Y-22965387D01*
X45251241Y-22989692D01*
X45303100Y-23079514D01*
X45396286Y-23172700D01*
X45510414Y-23238592D01*
X45637708Y-23272700D01*
X45637710Y-23272700D01*
X45769490Y-23272700D01*
X45769492Y-23272700D01*
X45896786Y-23238592D01*
X46010914Y-23172700D01*
X46104100Y-23079514D01*
X46169992Y-22965386D01*
X46199488Y-22855300D01*
X46235851Y-22795644D01*
X46298698Y-22765114D01*
X46351350Y-22767621D01*
X46395308Y-22779400D01*
X46395311Y-22779400D01*
X46527090Y-22779400D01*
X46527092Y-22779400D01*
X46654386Y-22745292D01*
X46768514Y-22679400D01*
X46861700Y-22586214D01*
X46927592Y-22472086D01*
X46931525Y-22457408D01*
X50595900Y-22457408D01*
X50595900Y-22589191D01*
X50630008Y-22716487D01*
X50646639Y-22745292D01*
X50695900Y-22830614D01*
X50789086Y-22923800D01*
X50903214Y-22989692D01*
X51030508Y-23023800D01*
X51030510Y-23023800D01*
X51162290Y-23023800D01*
X51162292Y-23023800D01*
X51289586Y-22989692D01*
X51403714Y-22923800D01*
X51496900Y-22830614D01*
X51562792Y-22716486D01*
X51596900Y-22589192D01*
X51596900Y-22457408D01*
X51562792Y-22330114D01*
X51515850Y-22248808D01*
X53414100Y-22248808D01*
X53414100Y-22380592D01*
X53417289Y-22392492D01*
X53448208Y-22507887D01*
X53455080Y-22519789D01*
X53514100Y-22622014D01*
X53607286Y-22715200D01*
X53698083Y-22767622D01*
X53718481Y-22779399D01*
X53721414Y-22781092D01*
X53848708Y-22815200D01*
X53848710Y-22815200D01*
X53980490Y-22815200D01*
X53980492Y-22815200D01*
X54107786Y-22781092D01*
X54221914Y-22715200D01*
X54315100Y-22622014D01*
X54380992Y-22507886D01*
X54415100Y-22380592D01*
X54415100Y-22248808D01*
X54380992Y-22121514D01*
X54315100Y-22007386D01*
X54221914Y-21914200D01*
X54152603Y-21874183D01*
X54107787Y-21848308D01*
X54024904Y-21826100D01*
X53980492Y-21814200D01*
X53848708Y-21814200D01*
X53721412Y-21848308D01*
X53607286Y-21914200D01*
X53607283Y-21914202D01*
X53514102Y-22007383D01*
X53514100Y-22007386D01*
X53448208Y-22121512D01*
X53420075Y-22226508D01*
X53414100Y-22248808D01*
X51515850Y-22248808D01*
X51496900Y-22215986D01*
X51403714Y-22122800D01*
X51339476Y-22085712D01*
X51289587Y-22056908D01*
X51225939Y-22039854D01*
X51162292Y-22022800D01*
X51030508Y-22022800D01*
X50903212Y-22056908D01*
X50789086Y-22122800D01*
X50789083Y-22122802D01*
X50695902Y-22215983D01*
X50695900Y-22215986D01*
X50630008Y-22330112D01*
X50595900Y-22457408D01*
X46931525Y-22457408D01*
X46961700Y-22344792D01*
X46961700Y-22213008D01*
X46927592Y-22085714D01*
X46861700Y-21971586D01*
X46768514Y-21878400D01*
X46711450Y-21845454D01*
X46654387Y-21812508D01*
X46590739Y-21795454D01*
X46527092Y-21778400D01*
X46395308Y-21778400D01*
X46268012Y-21812508D01*
X46153886Y-21878400D01*
X46153883Y-21878402D01*
X46060702Y-21971583D01*
X46060700Y-21971586D01*
X46031132Y-22022800D01*
X45994808Y-22085714D01*
X45982027Y-22133414D01*
X45965312Y-22195796D01*
X45928947Y-22255456D01*
X45866100Y-22285985D01*
X45813444Y-22283477D01*
X45769492Y-22271700D01*
X45637708Y-22271700D01*
X45510412Y-22305808D01*
X45396286Y-22371700D01*
X45396283Y-22371702D01*
X45303102Y-22464883D01*
X45303100Y-22464886D01*
X45237208Y-22579012D01*
X45203100Y-22706308D01*
X30495000Y-22706308D01*
X30495000Y-22627008D01*
X30460892Y-22499714D01*
X30395000Y-22385586D01*
X30301814Y-22292400D01*
X30223858Y-22247392D01*
X30187687Y-22226508D01*
X30124039Y-22209454D01*
X30060392Y-22192400D01*
X29928608Y-22192400D01*
X29801312Y-22226508D01*
X29687186Y-22292400D01*
X29687183Y-22292402D01*
X29594002Y-22385583D01*
X29594000Y-22385586D01*
X29528108Y-22499712D01*
X29494000Y-22627008D01*
X20045800Y-22627008D01*
X20011692Y-22499714D01*
X19945800Y-22385586D01*
X19852614Y-22292400D01*
X19774658Y-22247392D01*
X19738487Y-22226508D01*
X19674839Y-22209454D01*
X19611192Y-22192400D01*
X19479408Y-22192400D01*
X19352112Y-22226508D01*
X19237986Y-22292400D01*
X19237983Y-22292402D01*
X19144802Y-22385583D01*
X19144800Y-22385586D01*
X19078908Y-22499712D01*
X19044800Y-22627008D01*
X18186787Y-22627008D01*
X18248692Y-22519786D01*
X18282800Y-22392492D01*
X18282800Y-22260708D01*
X18248692Y-22133414D01*
X18182800Y-22019286D01*
X18089614Y-21926100D01*
X18006999Y-21878402D01*
X17975487Y-21860208D01*
X17911839Y-21843154D01*
X17848192Y-21826100D01*
X17716408Y-21826100D01*
X17589112Y-21860208D01*
X17474986Y-21926100D01*
X17474983Y-21926102D01*
X17381802Y-22019283D01*
X17381800Y-22019286D01*
X17315908Y-22133412D01*
X17281800Y-22260708D01*
X13869932Y-22260708D01*
X13873500Y-22247392D01*
X13873500Y-22115608D01*
X13839392Y-21988314D01*
X13773500Y-21874186D01*
X13680314Y-21781000D01*
X13623250Y-21748054D01*
X13566187Y-21715108D01*
X13502539Y-21698054D01*
X13438892Y-21681000D01*
X13307108Y-21681000D01*
X13179812Y-21715108D01*
X13065686Y-21781000D01*
X13065683Y-21781002D01*
X12972502Y-21874183D01*
X12972500Y-21874186D01*
X12906608Y-21988312D01*
X12880510Y-22085714D01*
X12872500Y-22115608D01*
X300500Y-22115608D01*
X300500Y-21047808D01*
X14992700Y-21047808D01*
X14992700Y-21179591D01*
X15026808Y-21306887D01*
X15036629Y-21323897D01*
X15092700Y-21421014D01*
X15185886Y-21514200D01*
X15300014Y-21580092D01*
X15427308Y-21614200D01*
X15427310Y-21614200D01*
X15559090Y-21614200D01*
X15559092Y-21614200D01*
X15686386Y-21580092D01*
X15800514Y-21514200D01*
X15893700Y-21421014D01*
X15959592Y-21306886D01*
X15993700Y-21179592D01*
X15993700Y-21047808D01*
X15978213Y-20990008D01*
X40560400Y-20990008D01*
X40560400Y-21121791D01*
X40594508Y-21249087D01*
X40627454Y-21306150D01*
X40660400Y-21363214D01*
X40753586Y-21456400D01*
X40867714Y-21522292D01*
X40995008Y-21556400D01*
X40995010Y-21556400D01*
X41126790Y-21556400D01*
X41126792Y-21556400D01*
X41254086Y-21522292D01*
X41368214Y-21456400D01*
X41461400Y-21363214D01*
X41527292Y-21249086D01*
X41561400Y-21121792D01*
X41561400Y-20990008D01*
X41527292Y-20862714D01*
X41524287Y-20857510D01*
X41524286Y-20857508D01*
X46842200Y-20857508D01*
X46842200Y-20989292D01*
X46857879Y-21047808D01*
X46876308Y-21116587D01*
X46909254Y-21173650D01*
X46942200Y-21230714D01*
X47035386Y-21323900D01*
X47149514Y-21389792D01*
X47276808Y-21423900D01*
X47276810Y-21423900D01*
X47408590Y-21423900D01*
X47408592Y-21423900D01*
X47535886Y-21389792D01*
X47650014Y-21323900D01*
X47743200Y-21230714D01*
X47809092Y-21116586D01*
X47843200Y-20989292D01*
X47843200Y-20857508D01*
X47809092Y-20730214D01*
X47743200Y-20616086D01*
X47650014Y-20522900D01*
X47572058Y-20477892D01*
X47535887Y-20457008D01*
X47472239Y-20439954D01*
X47408592Y-20422900D01*
X47276808Y-20422900D01*
X47149512Y-20457008D01*
X47035386Y-20522900D01*
X47035383Y-20522902D01*
X46942202Y-20616083D01*
X46942200Y-20616086D01*
X46876308Y-20730212D01*
X46846757Y-20840500D01*
X46842200Y-20857508D01*
X41524286Y-20857508D01*
X41492815Y-20802999D01*
X41461400Y-20748586D01*
X41368214Y-20655400D01*
X41311150Y-20622454D01*
X41254087Y-20589508D01*
X41190439Y-20572454D01*
X41126792Y-20555400D01*
X40995008Y-20555400D01*
X40867712Y-20589508D01*
X40753586Y-20655400D01*
X40753583Y-20655402D01*
X40660402Y-20748583D01*
X40660400Y-20748586D01*
X40594508Y-20862712D01*
X40560400Y-20990008D01*
X15978213Y-20990008D01*
X15959592Y-20920514D01*
X15893700Y-20806386D01*
X15800514Y-20713200D01*
X15743450Y-20680254D01*
X15686387Y-20647308D01*
X15622739Y-20630254D01*
X15559092Y-20613200D01*
X15427308Y-20613200D01*
X15300012Y-20647308D01*
X15185886Y-20713200D01*
X15185883Y-20713202D01*
X15092702Y-20806383D01*
X15092700Y-20806386D01*
X15026808Y-20920512D01*
X14992700Y-21047808D01*
X300500Y-21047808D01*
X300500Y-20374108D01*
X9872000Y-20374108D01*
X9872000Y-20505892D01*
X9876638Y-20523200D01*
X9906108Y-20633187D01*
X9914261Y-20647308D01*
X9972000Y-20747314D01*
X10065186Y-20840500D01*
X10179314Y-20906392D01*
X10306608Y-20940500D01*
X10306610Y-20940500D01*
X10438390Y-20940500D01*
X10438392Y-20940500D01*
X10565686Y-20906392D01*
X10679814Y-20840500D01*
X10773000Y-20747314D01*
X10838892Y-20633186D01*
X10873000Y-20505892D01*
X10873000Y-20374108D01*
X10838892Y-20246814D01*
X10773000Y-20132686D01*
X10697122Y-20056808D01*
X26877300Y-20056808D01*
X26877300Y-20188592D01*
X26881613Y-20204687D01*
X26911408Y-20315887D01*
X26941721Y-20368390D01*
X26977300Y-20430014D01*
X27070486Y-20523200D01*
X27184614Y-20589092D01*
X27311908Y-20623200D01*
X27311910Y-20623200D01*
X27443690Y-20623200D01*
X27443692Y-20623200D01*
X27570986Y-20589092D01*
X27685114Y-20523200D01*
X27778300Y-20430014D01*
X27844192Y-20315886D01*
X27878300Y-20188592D01*
X27878300Y-20056808D01*
X27844192Y-19929514D01*
X27778300Y-19815386D01*
X27690922Y-19728008D01*
X41304800Y-19728008D01*
X41304800Y-19859792D01*
X41316110Y-19902002D01*
X41338908Y-19987087D01*
X41343586Y-19995189D01*
X41404800Y-20101214D01*
X41497986Y-20194400D01*
X41612114Y-20260292D01*
X41739408Y-20294400D01*
X41739410Y-20294400D01*
X41871190Y-20294400D01*
X41871192Y-20294400D01*
X41998486Y-20260292D01*
X42039508Y-20236608D01*
X44360100Y-20236608D01*
X44360100Y-20368391D01*
X44394208Y-20495687D01*
X44410093Y-20523200D01*
X44460100Y-20609814D01*
X44553286Y-20703000D01*
X44667414Y-20768892D01*
X44794708Y-20803000D01*
X44794710Y-20803000D01*
X44926490Y-20803000D01*
X44926492Y-20803000D01*
X45053786Y-20768892D01*
X45167914Y-20703000D01*
X45261100Y-20609814D01*
X45326992Y-20495686D01*
X45361100Y-20368392D01*
X45361100Y-20236608D01*
X45326992Y-20109314D01*
X45322315Y-20101214D01*
X45263580Y-19999481D01*
X45261102Y-19995189D01*
X45261097Y-19995183D01*
X45211522Y-19945608D01*
X53109900Y-19945608D01*
X53109900Y-20077392D01*
X53124715Y-20132683D01*
X53144008Y-20204687D01*
X53168331Y-20246814D01*
X53209900Y-20318814D01*
X53303086Y-20412000D01*
X53417214Y-20477892D01*
X53544508Y-20512000D01*
X53544510Y-20512000D01*
X53676290Y-20512000D01*
X53676292Y-20512000D01*
X53803586Y-20477892D01*
X53917714Y-20412000D01*
X54010900Y-20318814D01*
X54076792Y-20204686D01*
X54110900Y-20077392D01*
X54110900Y-19945608D01*
X54076792Y-19818314D01*
X54010900Y-19704186D01*
X53917714Y-19611000D01*
X53847566Y-19570500D01*
X53803587Y-19545108D01*
X53739939Y-19528054D01*
X53676292Y-19511000D01*
X53544508Y-19511000D01*
X53417212Y-19545108D01*
X53303086Y-19611000D01*
X53303083Y-19611002D01*
X53209902Y-19704183D01*
X53209900Y-19704186D01*
X53144008Y-19818312D01*
X53121584Y-19902002D01*
X53109900Y-19945608D01*
X45211522Y-19945608D01*
X45167916Y-19902002D01*
X45167914Y-19902000D01*
X45094806Y-19859791D01*
X45053787Y-19836108D01*
X44987370Y-19818312D01*
X44926492Y-19802000D01*
X44794708Y-19802000D01*
X44667412Y-19836108D01*
X44553286Y-19902000D01*
X44553283Y-19902002D01*
X44460102Y-19995183D01*
X44460100Y-19995186D01*
X44394208Y-20109312D01*
X44360100Y-20236608D01*
X42039508Y-20236608D01*
X42112614Y-20194400D01*
X42205800Y-20101214D01*
X42271692Y-19987086D01*
X42305800Y-19859792D01*
X42305800Y-19728008D01*
X42271692Y-19600714D01*
X42205800Y-19486586D01*
X42112614Y-19393400D01*
X42040260Y-19351626D01*
X41998487Y-19327508D01*
X41934839Y-19310454D01*
X41884657Y-19297008D01*
X43471400Y-19297008D01*
X43471400Y-19428791D01*
X43505508Y-19556087D01*
X43513828Y-19570497D01*
X43571400Y-19670214D01*
X43664586Y-19763400D01*
X43778714Y-19829292D01*
X43906008Y-19863400D01*
X43906010Y-19863400D01*
X44037790Y-19863400D01*
X44037792Y-19863400D01*
X44165086Y-19829292D01*
X44279214Y-19763400D01*
X44372400Y-19670214D01*
X44438292Y-19556086D01*
X44472400Y-19428792D01*
X44472400Y-19297008D01*
X44438292Y-19169714D01*
X44372400Y-19055586D01*
X44279214Y-18962400D01*
X44222150Y-18929454D01*
X44165087Y-18896508D01*
X44101439Y-18879454D01*
X44037792Y-18862400D01*
X43906008Y-18862400D01*
X43778712Y-18896508D01*
X43664586Y-18962400D01*
X43664583Y-18962402D01*
X43571402Y-19055583D01*
X43571400Y-19055586D01*
X43505508Y-19169712D01*
X43471400Y-19297008D01*
X41884657Y-19297008D01*
X41871192Y-19293400D01*
X41739408Y-19293400D01*
X41612112Y-19327508D01*
X41497986Y-19393400D01*
X41497983Y-19393402D01*
X41404802Y-19486583D01*
X41404800Y-19486586D01*
X41338908Y-19600712D01*
X41320285Y-19670216D01*
X41304800Y-19728008D01*
X27690922Y-19728008D01*
X27685114Y-19722200D01*
X27628050Y-19689254D01*
X27570987Y-19656308D01*
X27496654Y-19636391D01*
X27443692Y-19622200D01*
X27311908Y-19622200D01*
X27184612Y-19656308D01*
X27070486Y-19722200D01*
X27070483Y-19722202D01*
X26977302Y-19815383D01*
X26977300Y-19815386D01*
X26911408Y-19929512D01*
X26881938Y-20039500D01*
X26877300Y-20056808D01*
X10697122Y-20056808D01*
X10679814Y-20039500D01*
X10610499Y-19999481D01*
X10565687Y-19973608D01*
X10502039Y-19956554D01*
X10438392Y-19939500D01*
X10306608Y-19939500D01*
X10179312Y-19973608D01*
X10065186Y-20039500D01*
X10065183Y-20039502D01*
X9972002Y-20132683D01*
X9972000Y-20132686D01*
X9906108Y-20246812D01*
X9893357Y-20294400D01*
X9872000Y-20374108D01*
X300500Y-20374108D01*
X300500Y-19104108D01*
X3977500Y-19104108D01*
X3977500Y-19235891D01*
X4011608Y-19363187D01*
X4029053Y-19393402D01*
X4077500Y-19477314D01*
X4170686Y-19570500D01*
X4284814Y-19636392D01*
X4412108Y-19670500D01*
X4412110Y-19670500D01*
X4543890Y-19670500D01*
X4543892Y-19670500D01*
X4671186Y-19636392D01*
X4785314Y-19570500D01*
X4878500Y-19477314D01*
X4944392Y-19363186D01*
X4978500Y-19235892D01*
X4978500Y-19104108D01*
X4944392Y-18976814D01*
X4878500Y-18862686D01*
X4785314Y-18769500D01*
X4702162Y-18721492D01*
X4671187Y-18703608D01*
X4607539Y-18686554D01*
X4543892Y-18669500D01*
X4412108Y-18669500D01*
X4284812Y-18703608D01*
X4170686Y-18769500D01*
X4170683Y-18769502D01*
X4077502Y-18862683D01*
X4077500Y-18862686D01*
X4011608Y-18976812D01*
X3977500Y-19104108D01*
X300500Y-19104108D01*
X300500Y-18240108D01*
X8600600Y-18240108D01*
X8600600Y-18371892D01*
X8617271Y-18434108D01*
X8634708Y-18499187D01*
X8667654Y-18556250D01*
X8700600Y-18613314D01*
X8793786Y-18706500D01*
X8907914Y-18772392D01*
X9035208Y-18806500D01*
X9035210Y-18806500D01*
X9166990Y-18806500D01*
X9166992Y-18806500D01*
X9294286Y-18772392D01*
X9408414Y-18706500D01*
X9501600Y-18613314D01*
X9567492Y-18499186D01*
X9572256Y-18481408D01*
X37629300Y-18481408D01*
X37629300Y-18613192D01*
X37629333Y-18613314D01*
X37663408Y-18740487D01*
X37680159Y-18769500D01*
X37729300Y-18854614D01*
X37822486Y-18947800D01*
X37936614Y-19013692D01*
X38063908Y-19047800D01*
X38063910Y-19047800D01*
X38195690Y-19047800D01*
X38195692Y-19047800D01*
X38322986Y-19013692D01*
X38437114Y-18947800D01*
X38530300Y-18854614D01*
X38596192Y-18740486D01*
X38630300Y-18613192D01*
X38630300Y-18589708D01*
X55311000Y-18589708D01*
X55311000Y-18721492D01*
X55328054Y-18785139D01*
X55345108Y-18848787D01*
X55352968Y-18862400D01*
X55411000Y-18962914D01*
X55504186Y-19056100D01*
X55618314Y-19121992D01*
X55745608Y-19156100D01*
X55745610Y-19156100D01*
X55877390Y-19156100D01*
X55877392Y-19156100D01*
X56004686Y-19121992D01*
X56118814Y-19056100D01*
X56212000Y-18962914D01*
X56277892Y-18848786D01*
X56312000Y-18721492D01*
X56312000Y-18589708D01*
X56277892Y-18462414D01*
X56261549Y-18434108D01*
X63539900Y-18434108D01*
X63539900Y-18565892D01*
X63546282Y-18589710D01*
X63574008Y-18693187D01*
X63601317Y-18740486D01*
X63639900Y-18807314D01*
X63733086Y-18900500D01*
X63847214Y-18966392D01*
X63974508Y-19000500D01*
X63974510Y-19000500D01*
X64106290Y-19000500D01*
X64106292Y-19000500D01*
X64233586Y-18966392D01*
X64347714Y-18900500D01*
X64440900Y-18807314D01*
X64506792Y-18693186D01*
X64540900Y-18565892D01*
X64540900Y-18434108D01*
X64506792Y-18306814D01*
X64440900Y-18192686D01*
X64347714Y-18099500D01*
X64290650Y-18066554D01*
X64233587Y-18033608D01*
X64169939Y-18016554D01*
X64106292Y-17999500D01*
X63974508Y-17999500D01*
X63847212Y-18033608D01*
X63733086Y-18099500D01*
X63733083Y-18099502D01*
X63639902Y-18192683D01*
X63639900Y-18192686D01*
X63574008Y-18306812D01*
X63548905Y-18400499D01*
X63539900Y-18434108D01*
X56261549Y-18434108D01*
X56212000Y-18348286D01*
X56118814Y-18255100D01*
X56036050Y-18207316D01*
X56004687Y-18189208D01*
X55941039Y-18172154D01*
X55877392Y-18155100D01*
X55745608Y-18155100D01*
X55618312Y-18189208D01*
X55504186Y-18255100D01*
X55504183Y-18255102D01*
X55411002Y-18348283D01*
X55411000Y-18348286D01*
X55345108Y-18462412D01*
X55317382Y-18565890D01*
X55311000Y-18589708D01*
X38630300Y-18589708D01*
X38630300Y-18481408D01*
X38596192Y-18354114D01*
X38592825Y-18348283D01*
X38568882Y-18306812D01*
X38530300Y-18239986D01*
X38437114Y-18146800D01*
X38355192Y-18099502D01*
X38322987Y-18080908D01*
X38259339Y-18063854D01*
X38195692Y-18046800D01*
X38063908Y-18046800D01*
X37936612Y-18080908D01*
X37822486Y-18146800D01*
X37822483Y-18146802D01*
X37729302Y-18239983D01*
X37729300Y-18239986D01*
X37663408Y-18354112D01*
X37658644Y-18371892D01*
X37629300Y-18481408D01*
X9572256Y-18481408D01*
X9601600Y-18371892D01*
X9601600Y-18240108D01*
X9567492Y-18112814D01*
X9501600Y-17998686D01*
X9408414Y-17905500D01*
X9351350Y-17872554D01*
X9294287Y-17839608D01*
X9273760Y-17834108D01*
X19027600Y-17834108D01*
X19027600Y-17965891D01*
X19061708Y-18093187D01*
X19073039Y-18112812D01*
X19127600Y-18207314D01*
X19220786Y-18300500D01*
X19313648Y-18354114D01*
X19334910Y-18366390D01*
X19334914Y-18366392D01*
X19462208Y-18400500D01*
X19462210Y-18400500D01*
X19593990Y-18400500D01*
X19593992Y-18400500D01*
X19721286Y-18366392D01*
X19721443Y-18366301D01*
X19722146Y-18365896D01*
X19722149Y-18365894D01*
X19742552Y-18354114D01*
X19835414Y-18300500D01*
X19928600Y-18207314D01*
X19994492Y-18093186D01*
X20028600Y-17965892D01*
X20028600Y-17834108D01*
X19994492Y-17706814D01*
X19928600Y-17592686D01*
X19860395Y-17524481D01*
X19826910Y-17463158D01*
X19831894Y-17393466D01*
X19860395Y-17349119D01*
X19903306Y-17306208D01*
X19947600Y-17261914D01*
X19979935Y-17205908D01*
X37325700Y-17205908D01*
X37325700Y-17337692D01*
X37332105Y-17361597D01*
X37359808Y-17464987D01*
X37392754Y-17522050D01*
X37425700Y-17579114D01*
X37518886Y-17672300D01*
X37633014Y-17738192D01*
X37760308Y-17772300D01*
X37760310Y-17772300D01*
X37892090Y-17772300D01*
X37892092Y-17772300D01*
X38019386Y-17738192D01*
X38133514Y-17672300D01*
X38226700Y-17579114D01*
X38292592Y-17464986D01*
X38326700Y-17337692D01*
X38326700Y-17205908D01*
X38292592Y-17078614D01*
X38276827Y-17051308D01*
X38931100Y-17051308D01*
X38931100Y-17183092D01*
X38937214Y-17205910D01*
X38965208Y-17310387D01*
X38991024Y-17355100D01*
X39031100Y-17424514D01*
X39124286Y-17517700D01*
X39238414Y-17583592D01*
X39365708Y-17617700D01*
X39365710Y-17617700D01*
X39497490Y-17617700D01*
X39497492Y-17617700D01*
X39624786Y-17583592D01*
X39738914Y-17517700D01*
X39832100Y-17424514D01*
X39897992Y-17310386D01*
X39932100Y-17183092D01*
X39932100Y-17051308D01*
X39897992Y-16924014D01*
X39881361Y-16895208D01*
X43362900Y-16895208D01*
X43362900Y-17026992D01*
X43369416Y-17051310D01*
X43397008Y-17154287D01*
X43426812Y-17205908D01*
X43462900Y-17268414D01*
X43556086Y-17361600D01*
X43654921Y-17418663D01*
X43665471Y-17424754D01*
X43670214Y-17427492D01*
X43797508Y-17461600D01*
X43797510Y-17461600D01*
X43929290Y-17461600D01*
X43929292Y-17461600D01*
X44056586Y-17427492D01*
X44170714Y-17361600D01*
X44226106Y-17306208D01*
X53433100Y-17306208D01*
X53433100Y-17437992D01*
X53439426Y-17461600D01*
X53467208Y-17565287D01*
X53483027Y-17592686D01*
X53533100Y-17679414D01*
X53626286Y-17772600D01*
X53740414Y-17838492D01*
X53867708Y-17872600D01*
X53867710Y-17872600D01*
X53999490Y-17872600D01*
X53999492Y-17872600D01*
X54126786Y-17838492D01*
X54240914Y-17772600D01*
X54334100Y-17679414D01*
X54399992Y-17565286D01*
X54434100Y-17437992D01*
X54434100Y-17306208D01*
X54399992Y-17178914D01*
X54334100Y-17064786D01*
X54240914Y-16971600D01*
X54158493Y-16924014D01*
X54126787Y-16905708D01*
X54063139Y-16888654D01*
X53999492Y-16871600D01*
X53867708Y-16871600D01*
X53740412Y-16905708D01*
X53626286Y-16971600D01*
X53626283Y-16971602D01*
X53533102Y-17064783D01*
X53533100Y-17064786D01*
X53467208Y-17178912D01*
X53443227Y-17268413D01*
X53433100Y-17306208D01*
X44226106Y-17306208D01*
X44263900Y-17268414D01*
X44273871Y-17251142D01*
X44282569Y-17236080D01*
X44329790Y-17154289D01*
X44329792Y-17154286D01*
X44363900Y-17026992D01*
X44363900Y-16895208D01*
X44329792Y-16767914D01*
X44329791Y-16767912D01*
X44329791Y-16767911D01*
X44302018Y-16719808D01*
X62131000Y-16719808D01*
X62131000Y-16851591D01*
X62165108Y-16978887D01*
X62192882Y-17026992D01*
X62231000Y-17093014D01*
X62324186Y-17186200D01*
X62438314Y-17252092D01*
X62565608Y-17286200D01*
X62565610Y-17286200D01*
X62697390Y-17286200D01*
X62697392Y-17286200D01*
X62824686Y-17252092D01*
X62938814Y-17186200D01*
X63032000Y-17093014D01*
X63097892Y-16978886D01*
X63132000Y-16851592D01*
X63132000Y-16719808D01*
X63097892Y-16592514D01*
X63032000Y-16478386D01*
X62938814Y-16385200D01*
X62881750Y-16352254D01*
X62824687Y-16319308D01*
X62761039Y-16302254D01*
X62697392Y-16285200D01*
X62565608Y-16285200D01*
X62438312Y-16319308D01*
X62324186Y-16385200D01*
X62324183Y-16385202D01*
X62231002Y-16478383D01*
X62231000Y-16478386D01*
X62165108Y-16592512D01*
X62131000Y-16719808D01*
X44302018Y-16719808D01*
X44288209Y-16695890D01*
X44263900Y-16653786D01*
X44170714Y-16560600D01*
X44113650Y-16527654D01*
X44056587Y-16494708D01*
X43992939Y-16477654D01*
X43929292Y-16460600D01*
X43797508Y-16460600D01*
X43670212Y-16494708D01*
X43556086Y-16560600D01*
X43556083Y-16560602D01*
X43462902Y-16653783D01*
X43462900Y-16653786D01*
X43397008Y-16767912D01*
X43369226Y-16871600D01*
X43362900Y-16895208D01*
X39881361Y-16895208D01*
X39832100Y-16809886D01*
X39738914Y-16716700D01*
X39681850Y-16683754D01*
X39624787Y-16650808D01*
X39548248Y-16630300D01*
X39497492Y-16616700D01*
X39365708Y-16616700D01*
X39238412Y-16650808D01*
X39124286Y-16716700D01*
X39124283Y-16716702D01*
X39031102Y-16809883D01*
X39031100Y-16809886D01*
X38965208Y-16924012D01*
X38939357Y-17020491D01*
X38931100Y-17051308D01*
X38276827Y-17051308D01*
X38226700Y-16964486D01*
X38133514Y-16871300D01*
X38076450Y-16838354D01*
X38019387Y-16805408D01*
X37955739Y-16788354D01*
X37892092Y-16771300D01*
X37760308Y-16771300D01*
X37633012Y-16805408D01*
X37518886Y-16871300D01*
X37518883Y-16871302D01*
X37425702Y-16964483D01*
X37425700Y-16964486D01*
X37359808Y-17078612D01*
X37339531Y-17154288D01*
X37325700Y-17205908D01*
X19979935Y-17205908D01*
X20013492Y-17147786D01*
X20047600Y-17020492D01*
X20047600Y-16888708D01*
X20013492Y-16761414D01*
X19947600Y-16647286D01*
X19854414Y-16554100D01*
X19797350Y-16521154D01*
X19740287Y-16488208D01*
X19676639Y-16471154D01*
X19612992Y-16454100D01*
X19481208Y-16454100D01*
X19353912Y-16488208D01*
X19239786Y-16554100D01*
X19239783Y-16554102D01*
X19146602Y-16647283D01*
X19146600Y-16647286D01*
X19080708Y-16761412D01*
X19056545Y-16851591D01*
X19046600Y-16888708D01*
X19046600Y-17020492D01*
X19062173Y-17078612D01*
X19080708Y-17147787D01*
X19102886Y-17186199D01*
X19146600Y-17261914D01*
X19146602Y-17261916D01*
X19214805Y-17330119D01*
X19248290Y-17391442D01*
X19243306Y-17461134D01*
X19214805Y-17505481D01*
X19127602Y-17592683D01*
X19127600Y-17592686D01*
X19061708Y-17706812D01*
X19027600Y-17834108D01*
X9273760Y-17834108D01*
X9230639Y-17822554D01*
X9166992Y-17805500D01*
X9035208Y-17805500D01*
X8907912Y-17839608D01*
X8793786Y-17905500D01*
X8793783Y-17905502D01*
X8700602Y-17998683D01*
X8700600Y-17998686D01*
X8634708Y-18112812D01*
X8600633Y-18239983D01*
X8600600Y-18240108D01*
X300500Y-18240108D01*
X300500Y-16564108D01*
X6141000Y-16564108D01*
X6141000Y-16695892D01*
X6146576Y-16716702D01*
X6175108Y-16823187D01*
X6191508Y-16851592D01*
X6241000Y-16937314D01*
X6334186Y-17030500D01*
X6417518Y-17078612D01*
X6442466Y-17093016D01*
X6448314Y-17096392D01*
X6575608Y-17130500D01*
X6575610Y-17130500D01*
X6707390Y-17130500D01*
X6707392Y-17130500D01*
X6834686Y-17096392D01*
X6948814Y-17030500D01*
X7042000Y-16937314D01*
X7107892Y-16823186D01*
X7142000Y-16695892D01*
X7142000Y-16564108D01*
X7107892Y-16436814D01*
X7042000Y-16322686D01*
X6948814Y-16229500D01*
X6890254Y-16195690D01*
X6834687Y-16163608D01*
X6738428Y-16137816D01*
X6707392Y-16129500D01*
X6575608Y-16129500D01*
X6448312Y-16163608D01*
X6334186Y-16229500D01*
X6334183Y-16229502D01*
X6241002Y-16322683D01*
X6241000Y-16322686D01*
X6175108Y-16436812D01*
X6150059Y-16530299D01*
X6141000Y-16564108D01*
X300500Y-16564108D01*
X300500Y-16063908D01*
X40398400Y-16063908D01*
X40398400Y-16195692D01*
X40407861Y-16231000D01*
X40432508Y-16322987D01*
X40465454Y-16380050D01*
X40498400Y-16437114D01*
X40591586Y-16530300D01*
X40690421Y-16587363D01*
X40699343Y-16592514D01*
X40705714Y-16596192D01*
X40833008Y-16630300D01*
X40833010Y-16630300D01*
X40964790Y-16630300D01*
X40964792Y-16630300D01*
X41092086Y-16596192D01*
X41206214Y-16530300D01*
X41299400Y-16437114D01*
X41365292Y-16322986D01*
X41399400Y-16195692D01*
X41399400Y-16063908D01*
X41365292Y-15936614D01*
X41321347Y-15860500D01*
X41299403Y-15822491D01*
X41299402Y-15822490D01*
X41299400Y-15822486D01*
X41241522Y-15764608D01*
X51906100Y-15764608D01*
X51906100Y-15896391D01*
X51940208Y-16023687D01*
X51963430Y-16063908D01*
X52006100Y-16137814D01*
X52099286Y-16231000D01*
X52213414Y-16296892D01*
X52340708Y-16331000D01*
X52340710Y-16331000D01*
X52472490Y-16331000D01*
X52472492Y-16331000D01*
X52599786Y-16296892D01*
X52713914Y-16231000D01*
X52807100Y-16137814D01*
X52872992Y-16023686D01*
X52907100Y-15896392D01*
X52907100Y-15764608D01*
X52872992Y-15637314D01*
X52807100Y-15523186D01*
X52713914Y-15430000D01*
X52633144Y-15383367D01*
X52633143Y-15383366D01*
X52599788Y-15364109D01*
X52599787Y-15364108D01*
X52599786Y-15364108D01*
X52472492Y-15330000D01*
X52340708Y-15330000D01*
X52213412Y-15364108D01*
X52099286Y-15430000D01*
X52099283Y-15430002D01*
X52006102Y-15523183D01*
X52006100Y-15523186D01*
X51940208Y-15637312D01*
X51906100Y-15764608D01*
X41241522Y-15764608D01*
X41206214Y-15729300D01*
X41149150Y-15696354D01*
X41092087Y-15663408D01*
X41028439Y-15646354D01*
X40964792Y-15629300D01*
X40833008Y-15629300D01*
X40705712Y-15663408D01*
X40591586Y-15729300D01*
X40591583Y-15729302D01*
X40498402Y-15822483D01*
X40498400Y-15822486D01*
X40432508Y-15936612D01*
X40409177Y-16023686D01*
X40398400Y-16063908D01*
X300500Y-16063908D01*
X300500Y-15294108D01*
X5678100Y-15294108D01*
X5678100Y-15425892D01*
X5695154Y-15489539D01*
X5712208Y-15553187D01*
X5745154Y-15610250D01*
X5778100Y-15667314D01*
X5871286Y-15760500D01*
X5968092Y-15816391D01*
X5978648Y-15822486D01*
X5985414Y-15826392D01*
X6112708Y-15860500D01*
X6112710Y-15860500D01*
X6244490Y-15860500D01*
X6244492Y-15860500D01*
X6371786Y-15826392D01*
X6485914Y-15760500D01*
X6579100Y-15667314D01*
X6644992Y-15553186D01*
X6679100Y-15425892D01*
X6679100Y-15294108D01*
X19021900Y-15294108D01*
X19021900Y-15425892D01*
X19038954Y-15489539D01*
X19056008Y-15553187D01*
X19088954Y-15610250D01*
X19121900Y-15667314D01*
X19215086Y-15760500D01*
X19311892Y-15816391D01*
X19322448Y-15822486D01*
X19329214Y-15826392D01*
X19456508Y-15860500D01*
X19456510Y-15860500D01*
X19588290Y-15860500D01*
X19588292Y-15860500D01*
X19715586Y-15826392D01*
X19829714Y-15760500D01*
X19922900Y-15667314D01*
X19988792Y-15553186D01*
X20022900Y-15425892D01*
X20022900Y-15294108D01*
X19988792Y-15166814D01*
X19983018Y-15156814D01*
X19975397Y-15143613D01*
X19922900Y-15052686D01*
X19829714Y-14959500D01*
X19745270Y-14910746D01*
X19715587Y-14893608D01*
X19693350Y-14887649D01*
X19588292Y-14859500D01*
X19456508Y-14859500D01*
X19329212Y-14893608D01*
X19215086Y-14959500D01*
X19215083Y-14959502D01*
X19121902Y-15052683D01*
X19121900Y-15052686D01*
X19056008Y-15166812D01*
X19030101Y-15263500D01*
X19021900Y-15294108D01*
X6679100Y-15294108D01*
X6644992Y-15166814D01*
X6639218Y-15156814D01*
X6631597Y-15143613D01*
X6579100Y-15052686D01*
X6485914Y-14959500D01*
X6401470Y-14910746D01*
X6371787Y-14893608D01*
X6308139Y-14876554D01*
X6244492Y-14859500D01*
X6112708Y-14859500D01*
X5985412Y-14893608D01*
X5871286Y-14959500D01*
X5871283Y-14959502D01*
X5778102Y-15052683D01*
X5778100Y-15052686D01*
X5712208Y-15166812D01*
X5686301Y-15263500D01*
X5678100Y-15294108D01*
X300500Y-15294108D01*
X300500Y-14770408D01*
X35241600Y-14770408D01*
X35241600Y-14902192D01*
X35256956Y-14959502D01*
X35275708Y-15029487D01*
X35291123Y-15056186D01*
X35341600Y-15143614D01*
X35434786Y-15236800D01*
X35548914Y-15302692D01*
X35676208Y-15336800D01*
X35676210Y-15336800D01*
X35807990Y-15336800D01*
X35807992Y-15336800D01*
X35935286Y-15302692D01*
X36049414Y-15236800D01*
X36142600Y-15143614D01*
X36208492Y-15029486D01*
X36224322Y-14970405D01*
X36260687Y-14910746D01*
X36323534Y-14880217D01*
X36344097Y-14878500D01*
X36397049Y-14878500D01*
X36464088Y-14898185D01*
X36509843Y-14950989D01*
X36516824Y-14970407D01*
X36539808Y-15056187D01*
X36572754Y-15113250D01*
X36605700Y-15170314D01*
X36698886Y-15263500D01*
X36813014Y-15329392D01*
X36940308Y-15363500D01*
X36940310Y-15363500D01*
X37072090Y-15363500D01*
X37072092Y-15363500D01*
X37199386Y-15329392D01*
X37277820Y-15284108D01*
X61552600Y-15284108D01*
X61552600Y-15415892D01*
X61556380Y-15430000D01*
X61586708Y-15543187D01*
X61592482Y-15553187D01*
X61652600Y-15657314D01*
X61745786Y-15750500D01*
X61859914Y-15816392D01*
X61987208Y-15850500D01*
X61987210Y-15850500D01*
X62118990Y-15850500D01*
X62118992Y-15850500D01*
X62246286Y-15816392D01*
X62360414Y-15750500D01*
X62453600Y-15657314D01*
X62519492Y-15543186D01*
X62553600Y-15415892D01*
X62553600Y-15284108D01*
X62519492Y-15156814D01*
X62453600Y-15042686D01*
X62373837Y-14962923D01*
X62340352Y-14901600D01*
X62345336Y-14831908D01*
X62382486Y-14781666D01*
X62382067Y-14781247D01*
X62384865Y-14778448D01*
X62386040Y-14776860D01*
X62387803Y-14775505D01*
X62387814Y-14775500D01*
X62481000Y-14682314D01*
X62546892Y-14568186D01*
X62581000Y-14440892D01*
X62581000Y-14309108D01*
X62546892Y-14181814D01*
X62481000Y-14067686D01*
X62387814Y-13974500D01*
X62330750Y-13941554D01*
X62273687Y-13908608D01*
X62210039Y-13891554D01*
X62146392Y-13874500D01*
X62014608Y-13874500D01*
X61887312Y-13908608D01*
X61773186Y-13974500D01*
X61773183Y-13974502D01*
X61680002Y-14067683D01*
X61680000Y-14067686D01*
X61614108Y-14181812D01*
X61613304Y-14184814D01*
X61580000Y-14309108D01*
X61580000Y-14440892D01*
X61593292Y-14490499D01*
X61614108Y-14568187D01*
X61626990Y-14590499D01*
X61680000Y-14682314D01*
X61680002Y-14682316D01*
X61759762Y-14762076D01*
X61793247Y-14823399D01*
X61788263Y-14893091D01*
X61751115Y-14943335D01*
X61751533Y-14943753D01*
X61748749Y-14946536D01*
X61747572Y-14948129D01*
X61745787Y-14949498D01*
X61652602Y-15042683D01*
X61652600Y-15042686D01*
X61586708Y-15156812D01*
X61583090Y-15170316D01*
X61552600Y-15284108D01*
X37277820Y-15284108D01*
X37313514Y-15263500D01*
X37406700Y-15170314D01*
X37472592Y-15056186D01*
X37506700Y-14928892D01*
X37506700Y-14797108D01*
X37472592Y-14669814D01*
X37406700Y-14555686D01*
X37313514Y-14462500D01*
X37256450Y-14429554D01*
X37199387Y-14396608D01*
X37099739Y-14369908D01*
X37072092Y-14362500D01*
X36984151Y-14362500D01*
X36917112Y-14342815D01*
X36871357Y-14290011D01*
X36864376Y-14270593D01*
X36841391Y-14184812D01*
X36824693Y-14155890D01*
X36775500Y-14070686D01*
X36682314Y-13977500D01*
X36625250Y-13944554D01*
X36568187Y-13911608D01*
X36504539Y-13894554D01*
X36440892Y-13877500D01*
X36309108Y-13877500D01*
X36181812Y-13911608D01*
X36067686Y-13977500D01*
X36067683Y-13977502D01*
X35974502Y-14070683D01*
X35974500Y-14070686D01*
X35908609Y-14184812D01*
X35892778Y-14243894D01*
X35856413Y-14303554D01*
X35793566Y-14334083D01*
X35773003Y-14335800D01*
X35676208Y-14335800D01*
X35548912Y-14369908D01*
X35434786Y-14435800D01*
X35434783Y-14435802D01*
X35341602Y-14528983D01*
X35341600Y-14528986D01*
X35275708Y-14643112D01*
X35241600Y-14770408D01*
X300500Y-14770408D01*
X300500Y-14024108D01*
X3961800Y-14024108D01*
X3961800Y-14155891D01*
X3995908Y-14283187D01*
X4010874Y-14309108D01*
X4061800Y-14397314D01*
X4154986Y-14490500D01*
X4269114Y-14556392D01*
X4396408Y-14590500D01*
X4396410Y-14590500D01*
X4528190Y-14590500D01*
X4528192Y-14590500D01*
X4655486Y-14556392D01*
X4769614Y-14490500D01*
X4862800Y-14397314D01*
X4928692Y-14283186D01*
X4962800Y-14155892D01*
X4962800Y-14024108D01*
X19047300Y-14024108D01*
X19047300Y-14155891D01*
X19081408Y-14283187D01*
X19096374Y-14309108D01*
X19147300Y-14397314D01*
X19240486Y-14490500D01*
X19354614Y-14556392D01*
X19481908Y-14590500D01*
X19481910Y-14590500D01*
X19613690Y-14590500D01*
X19613692Y-14590500D01*
X19740986Y-14556392D01*
X19855114Y-14490500D01*
X19948300Y-14397314D01*
X20014192Y-14283186D01*
X20048300Y-14155892D01*
X20048300Y-14024108D01*
X20014192Y-13896814D01*
X19948300Y-13782686D01*
X19855114Y-13689500D01*
X19798050Y-13656554D01*
X19740987Y-13623608D01*
X19677339Y-13606554D01*
X19613692Y-13589500D01*
X19481908Y-13589500D01*
X19354612Y-13623608D01*
X19240486Y-13689500D01*
X19240483Y-13689502D01*
X19147302Y-13782683D01*
X19147300Y-13782686D01*
X19081408Y-13896812D01*
X19047300Y-14024108D01*
X4962800Y-14024108D01*
X4928692Y-13896814D01*
X4862800Y-13782686D01*
X4769614Y-13689500D01*
X4712550Y-13656554D01*
X4655487Y-13623608D01*
X4591839Y-13606554D01*
X4528192Y-13589500D01*
X4396408Y-13589500D01*
X4269112Y-13623608D01*
X4154986Y-13689500D01*
X4154983Y-13689502D01*
X4061802Y-13782683D01*
X4061800Y-13782686D01*
X3995908Y-13896812D01*
X3961800Y-14024108D01*
X300500Y-14024108D01*
X300500Y-13572008D01*
X44282900Y-13572008D01*
X44282900Y-13703791D01*
X44317008Y-13831087D01*
X44342073Y-13874500D01*
X44382900Y-13945214D01*
X44476086Y-14038400D01*
X44590214Y-14104292D01*
X44717508Y-14138400D01*
X44717510Y-14138400D01*
X44849290Y-14138400D01*
X44849292Y-14138400D01*
X44976586Y-14104292D01*
X45090714Y-14038400D01*
X45183900Y-13945214D01*
X45249792Y-13831086D01*
X45283900Y-13703792D01*
X45283900Y-13572008D01*
X45249792Y-13444714D01*
X45183900Y-13330586D01*
X45090714Y-13237400D01*
X45033650Y-13204454D01*
X44976587Y-13171508D01*
X44912939Y-13154454D01*
X44849292Y-13137400D01*
X44717508Y-13137400D01*
X44590212Y-13171508D01*
X44476086Y-13237400D01*
X44476083Y-13237402D01*
X44382902Y-13330583D01*
X44382900Y-13330586D01*
X44317008Y-13444712D01*
X44282900Y-13572008D01*
X300500Y-13572008D01*
X300500Y-12754108D01*
X6173200Y-12754108D01*
X6173200Y-12885891D01*
X6207308Y-13013187D01*
X6240254Y-13070250D01*
X6273200Y-13127314D01*
X6366386Y-13220500D01*
X6480514Y-13286392D01*
X6607808Y-13320500D01*
X6607810Y-13320500D01*
X6739590Y-13320500D01*
X6739592Y-13320500D01*
X6866886Y-13286392D01*
X6981014Y-13220500D01*
X7074200Y-13127314D01*
X7140092Y-13013186D01*
X7174200Y-12885892D01*
X7174200Y-12754108D01*
X7140092Y-12626814D01*
X7074200Y-12512686D01*
X6981014Y-12419500D01*
X6923950Y-12386554D01*
X6866887Y-12353608D01*
X6803239Y-12336554D01*
X6739592Y-12319500D01*
X6607808Y-12319500D01*
X6480512Y-12353608D01*
X6366386Y-12419500D01*
X6366383Y-12419502D01*
X6273202Y-12512683D01*
X6273200Y-12512686D01*
X6207308Y-12626812D01*
X6173200Y-12754108D01*
X300500Y-12754108D01*
X300500Y-12174908D01*
X8521000Y-12174908D01*
X8521000Y-12306691D01*
X8555108Y-12433987D01*
X8588054Y-12491050D01*
X8621000Y-12548114D01*
X8714186Y-12641300D01*
X8828314Y-12707192D01*
X8955608Y-12741300D01*
X8955610Y-12741300D01*
X9087390Y-12741300D01*
X9087392Y-12741300D01*
X9089975Y-12740608D01*
X9752100Y-12740608D01*
X9752100Y-12872391D01*
X9786208Y-12999687D01*
X9819154Y-13056750D01*
X9852100Y-13113814D01*
X9945286Y-13207000D01*
X10059414Y-13272892D01*
X10186708Y-13307000D01*
X10186710Y-13307000D01*
X10318490Y-13307000D01*
X10318492Y-13307000D01*
X10445786Y-13272892D01*
X10559914Y-13207000D01*
X10653100Y-13113814D01*
X10718992Y-12999686D01*
X10731553Y-12952808D01*
X27675900Y-12952808D01*
X27675900Y-13084592D01*
X27687347Y-13127313D01*
X27710008Y-13211887D01*
X27742954Y-13268950D01*
X27775900Y-13326014D01*
X27869086Y-13419200D01*
X27933683Y-13456495D01*
X27983210Y-13485090D01*
X27983214Y-13485092D01*
X28110508Y-13519200D01*
X28110510Y-13519200D01*
X28242290Y-13519200D01*
X28242292Y-13519200D01*
X28369586Y-13485092D01*
X28483714Y-13419200D01*
X28576900Y-13326014D01*
X28642792Y-13211886D01*
X28676900Y-13084592D01*
X28676900Y-12952808D01*
X28642792Y-12825514D01*
X28576900Y-12711386D01*
X28483714Y-12618200D01*
X28426650Y-12585254D01*
X28369587Y-12552308D01*
X28305939Y-12535254D01*
X28242292Y-12518200D01*
X28110508Y-12518200D01*
X27983212Y-12552308D01*
X27869086Y-12618200D01*
X27869083Y-12618202D01*
X27775902Y-12711383D01*
X27775900Y-12711386D01*
X27710008Y-12825512D01*
X27697448Y-12872389D01*
X27675900Y-12952808D01*
X10731553Y-12952808D01*
X10753100Y-12872392D01*
X10753100Y-12740608D01*
X10718992Y-12613314D01*
X10653100Y-12499186D01*
X10559914Y-12406000D01*
X10469169Y-12353608D01*
X10445787Y-12340108D01*
X10368875Y-12319500D01*
X10318492Y-12306000D01*
X10186708Y-12306000D01*
X10059412Y-12340108D01*
X9945286Y-12406000D01*
X9945283Y-12406002D01*
X9852102Y-12499183D01*
X9852100Y-12499186D01*
X9786208Y-12613312D01*
X9752100Y-12740608D01*
X9089975Y-12740608D01*
X9214686Y-12707192D01*
X9328814Y-12641300D01*
X9422000Y-12548114D01*
X9487892Y-12433986D01*
X9522000Y-12306692D01*
X9522000Y-12174908D01*
X9487892Y-12047614D01*
X9484357Y-12041492D01*
X9469865Y-12016391D01*
X9422000Y-11933486D01*
X9328814Y-11840300D01*
X9246715Y-11792900D01*
X9214687Y-11774408D01*
X9142216Y-11754990D01*
X9087392Y-11740300D01*
X8955608Y-11740300D01*
X8828312Y-11774408D01*
X8714186Y-11840300D01*
X8714183Y-11840302D01*
X8621002Y-11933483D01*
X8621000Y-11933486D01*
X8555108Y-12047612D01*
X8521000Y-12174908D01*
X300500Y-12174908D01*
X300500Y-11484108D01*
X3971100Y-11484108D01*
X3971100Y-11615892D01*
X3986861Y-11674713D01*
X4005208Y-11743187D01*
X4019700Y-11768287D01*
X4071100Y-11857314D01*
X4164286Y-11950500D01*
X4278414Y-12016392D01*
X4405708Y-12050500D01*
X4405710Y-12050500D01*
X4537490Y-12050500D01*
X4537492Y-12050500D01*
X4664786Y-12016392D01*
X4778914Y-11950500D01*
X4872100Y-11857314D01*
X4937992Y-11743186D01*
X4970140Y-11623208D01*
X21805000Y-11623208D01*
X21805000Y-11754992D01*
X21815157Y-11792899D01*
X21839108Y-11882287D01*
X21868667Y-11933483D01*
X21905000Y-11996414D01*
X21998186Y-12089600D01*
X22112314Y-12155492D01*
X22239608Y-12189600D01*
X22239610Y-12189600D01*
X22371390Y-12189600D01*
X22371392Y-12189600D01*
X22498686Y-12155492D01*
X22612814Y-12089600D01*
X22706000Y-11996414D01*
X22771892Y-11882286D01*
X22806000Y-11754992D01*
X22806000Y-11623208D01*
X22771892Y-11495914D01*
X22706000Y-11381786D01*
X22625722Y-11301508D01*
X25120600Y-11301508D01*
X25120600Y-11433291D01*
X25154708Y-11560587D01*
X25177300Y-11599716D01*
X25220600Y-11674714D01*
X25313786Y-11767900D01*
X25427914Y-11833792D01*
X25555208Y-11867900D01*
X25555210Y-11867900D01*
X25686990Y-11867900D01*
X25686992Y-11867900D01*
X25814286Y-11833792D01*
X25928414Y-11767900D01*
X26021600Y-11674714D01*
X26087492Y-11560586D01*
X26101259Y-11509208D01*
X29042000Y-11509208D01*
X29042000Y-11640992D01*
X29051036Y-11674714D01*
X29076108Y-11768287D01*
X29090318Y-11792899D01*
X29142000Y-11882414D01*
X29235186Y-11975600D01*
X29349314Y-12041492D01*
X29476608Y-12075600D01*
X29476610Y-12075600D01*
X29608390Y-12075600D01*
X29608392Y-12075600D01*
X29735686Y-12041492D01*
X29849814Y-11975600D01*
X29943000Y-11882414D01*
X30008892Y-11768286D01*
X30043000Y-11640992D01*
X30043000Y-11509208D01*
X30008892Y-11381914D01*
X30008816Y-11381783D01*
X29994399Y-11356812D01*
X29943000Y-11267786D01*
X29849814Y-11174600D01*
X29757718Y-11121428D01*
X29735687Y-11108708D01*
X29672039Y-11091654D01*
X29608392Y-11074600D01*
X29476608Y-11074600D01*
X29349312Y-11108708D01*
X29235186Y-11174600D01*
X29235183Y-11174602D01*
X29142002Y-11267783D01*
X29142000Y-11267786D01*
X29076108Y-11381912D01*
X29062341Y-11433292D01*
X29042000Y-11509208D01*
X26101259Y-11509208D01*
X26121600Y-11433292D01*
X26121600Y-11301508D01*
X26087492Y-11174214D01*
X26021600Y-11060086D01*
X25968697Y-11007183D01*
X25935212Y-10945860D01*
X25940196Y-10876168D01*
X25982068Y-10820235D01*
X26047532Y-10795818D01*
X26088464Y-10799726D01*
X26163008Y-10819700D01*
X26163011Y-10819700D01*
X26294790Y-10819700D01*
X26294792Y-10819700D01*
X26422086Y-10785592D01*
X26536214Y-10719700D01*
X26629400Y-10626514D01*
X26695292Y-10512386D01*
X26729400Y-10385092D01*
X26729400Y-10253308D01*
X26695292Y-10126014D01*
X26687898Y-10113208D01*
X35554500Y-10113208D01*
X35554500Y-10244991D01*
X35588608Y-10372287D01*
X35621554Y-10429350D01*
X35654500Y-10486414D01*
X35747686Y-10579600D01*
X35861814Y-10645492D01*
X35989108Y-10679600D01*
X35989110Y-10679600D01*
X36120890Y-10679600D01*
X36120892Y-10679600D01*
X36248186Y-10645492D01*
X36362314Y-10579600D01*
X36455500Y-10486414D01*
X36471265Y-10459108D01*
X56512700Y-10459108D01*
X56512700Y-10590892D01*
X56520606Y-10620397D01*
X56546808Y-10718187D01*
X56548086Y-10720400D01*
X56612700Y-10832314D01*
X56705886Y-10925500D01*
X56804721Y-10982563D01*
X56809086Y-10985083D01*
X56820014Y-10991392D01*
X56947308Y-11025500D01*
X56947310Y-11025500D01*
X57079088Y-11025500D01*
X57079092Y-11025500D01*
X57113146Y-11016375D01*
X57182992Y-11018038D01*
X57240855Y-11057200D01*
X57268360Y-11121428D01*
X57265012Y-11168242D01*
X57249400Y-11226508D01*
X57249400Y-11358292D01*
X57266454Y-11421939D01*
X57283508Y-11485587D01*
X57297146Y-11509208D01*
X57349400Y-11599714D01*
X57442586Y-11692900D01*
X57556714Y-11758792D01*
X57684008Y-11792900D01*
X57684010Y-11792900D01*
X57815790Y-11792900D01*
X57815792Y-11792900D01*
X57943086Y-11758792D01*
X58057214Y-11692900D01*
X58150400Y-11599714D01*
X58216292Y-11485586D01*
X58250400Y-11358292D01*
X58250400Y-11226508D01*
X58216292Y-11099214D01*
X58150400Y-10985086D01*
X58057214Y-10891900D01*
X58000150Y-10858954D01*
X57943087Y-10826008D01*
X57879439Y-10808954D01*
X57815792Y-10791900D01*
X57684008Y-10791900D01*
X57684003Y-10791900D01*
X57649953Y-10801024D01*
X57580103Y-10799360D01*
X57522242Y-10760197D01*
X57494739Y-10695968D01*
X57498087Y-10649158D01*
X57513700Y-10590892D01*
X57513700Y-10459108D01*
X57479592Y-10331814D01*
X57413700Y-10217686D01*
X57320514Y-10124500D01*
X57263450Y-10091554D01*
X57206387Y-10058608D01*
X57131330Y-10038497D01*
X57079092Y-10024500D01*
X56947308Y-10024500D01*
X56820012Y-10058608D01*
X56705886Y-10124500D01*
X56705883Y-10124502D01*
X56612702Y-10217683D01*
X56612700Y-10217686D01*
X56546808Y-10331812D01*
X56525031Y-10413086D01*
X56512700Y-10459108D01*
X36471265Y-10459108D01*
X36521392Y-10372286D01*
X36555500Y-10244992D01*
X36555500Y-10113208D01*
X36521392Y-9985914D01*
X36455500Y-9871786D01*
X36362314Y-9778600D01*
X36305250Y-9745654D01*
X36248187Y-9712708D01*
X36184539Y-9695654D01*
X36120892Y-9678600D01*
X35989108Y-9678600D01*
X35861812Y-9712708D01*
X35747686Y-9778600D01*
X35747683Y-9778602D01*
X35654502Y-9871783D01*
X35654500Y-9871786D01*
X35588608Y-9985912D01*
X35554500Y-10113208D01*
X26687898Y-10113208D01*
X26629400Y-10011886D01*
X26536214Y-9918700D01*
X26454952Y-9871783D01*
X26422087Y-9852808D01*
X26358439Y-9835754D01*
X26294792Y-9818700D01*
X26163008Y-9818700D01*
X26035712Y-9852808D01*
X25921586Y-9918700D01*
X25921583Y-9918702D01*
X25828402Y-10011883D01*
X25828400Y-10011886D01*
X25762508Y-10126012D01*
X25728400Y-10253308D01*
X25728400Y-10385091D01*
X25762508Y-10512387D01*
X25771068Y-10527213D01*
X25828400Y-10626514D01*
X25828402Y-10626516D01*
X25881302Y-10679416D01*
X25914787Y-10740739D01*
X25909803Y-10810431D01*
X25867931Y-10866364D01*
X25802467Y-10890781D01*
X25761529Y-10886872D01*
X25686992Y-10866900D01*
X25555208Y-10866900D01*
X25427912Y-10901008D01*
X25313786Y-10966900D01*
X25313783Y-10966902D01*
X25220602Y-11060083D01*
X25220600Y-11060086D01*
X25154708Y-11174212D01*
X25120600Y-11301508D01*
X22625722Y-11301508D01*
X22612814Y-11288600D01*
X22533284Y-11242683D01*
X22498687Y-11222708D01*
X22435039Y-11205654D01*
X22371392Y-11188600D01*
X22239608Y-11188600D01*
X22112312Y-11222708D01*
X21998186Y-11288600D01*
X21998183Y-11288602D01*
X21905002Y-11381783D01*
X21905000Y-11381786D01*
X21839108Y-11495912D01*
X21835545Y-11509210D01*
X21805000Y-11623208D01*
X4970140Y-11623208D01*
X4972100Y-11615892D01*
X4972100Y-11484108D01*
X4937992Y-11356814D01*
X4872100Y-11242686D01*
X4778914Y-11149500D01*
X4721850Y-11116554D01*
X4664787Y-11083608D01*
X4601139Y-11066554D01*
X4537492Y-11049500D01*
X4405708Y-11049500D01*
X4278412Y-11083608D01*
X4164286Y-11149500D01*
X4164283Y-11149502D01*
X4071102Y-11242683D01*
X4071100Y-11242686D01*
X4005208Y-11356812D01*
X3984716Y-11433291D01*
X3971100Y-11484108D01*
X300500Y-11484108D01*
X300500Y-10154008D01*
X24000400Y-10154008D01*
X24000400Y-10285792D01*
X24017454Y-10349439D01*
X24034508Y-10413087D01*
X24061079Y-10459108D01*
X24100400Y-10527214D01*
X24193586Y-10620400D01*
X24307714Y-10686292D01*
X24435008Y-10720400D01*
X24435010Y-10720400D01*
X24566790Y-10720400D01*
X24566792Y-10720400D01*
X24694086Y-10686292D01*
X24808214Y-10620400D01*
X24901400Y-10527214D01*
X24967292Y-10413086D01*
X25001400Y-10285792D01*
X25001400Y-10154008D01*
X24967292Y-10026714D01*
X24901400Y-9912586D01*
X24808214Y-9819400D01*
X24737547Y-9778600D01*
X24694087Y-9753508D01*
X24630439Y-9736454D01*
X24566792Y-9719400D01*
X24435008Y-9719400D01*
X24307712Y-9753508D01*
X24193586Y-9819400D01*
X24193583Y-9819402D01*
X24100402Y-9912583D01*
X24100400Y-9912586D01*
X24034508Y-10026712D01*
X24008306Y-10124502D01*
X24000400Y-10154008D01*
X300500Y-10154008D01*
X300500Y-9570208D01*
X8381500Y-9570208D01*
X8381500Y-9701992D01*
X8395304Y-9753508D01*
X8415608Y-9829287D01*
X8429188Y-9852808D01*
X8481500Y-9943414D01*
X8574686Y-10036600D01*
X8673521Y-10093663D01*
X8688810Y-10102490D01*
X8688814Y-10102492D01*
X8816108Y-10136600D01*
X8816110Y-10136600D01*
X8947890Y-10136600D01*
X8947892Y-10136600D01*
X9075186Y-10102492D01*
X9189314Y-10036600D01*
X9282500Y-9943414D01*
X9348392Y-9829286D01*
X9382500Y-9701992D01*
X9382500Y-9570208D01*
X9348392Y-9442914D01*
X9282500Y-9328786D01*
X9189314Y-9235600D01*
X9110679Y-9190200D01*
X9075187Y-9169708D01*
X9011539Y-9152654D01*
X8947892Y-9135600D01*
X8816108Y-9135600D01*
X8688812Y-9169708D01*
X8574686Y-9235600D01*
X8574683Y-9235602D01*
X8481502Y-9328783D01*
X8481500Y-9328786D01*
X8415608Y-9442912D01*
X8381500Y-9570208D01*
X300500Y-9570208D01*
X300500Y-8944108D01*
X19033800Y-8944108D01*
X19033800Y-9075891D01*
X19067908Y-9203187D01*
X19086853Y-9236000D01*
X19133800Y-9317314D01*
X19226986Y-9410500D01*
X19341114Y-9476392D01*
X19468408Y-9510500D01*
X19468410Y-9510500D01*
X19600190Y-9510500D01*
X19600192Y-9510500D01*
X19727486Y-9476392D01*
X19841614Y-9410500D01*
X19934800Y-9317314D01*
X20000692Y-9203186D01*
X20034800Y-9075892D01*
X20034800Y-8944108D01*
X20000692Y-8816814D01*
X19985615Y-8790700D01*
X19978100Y-8777683D01*
X19978099Y-8777682D01*
X19973439Y-8769610D01*
X19946995Y-8723808D01*
X30707700Y-8723808D01*
X30707700Y-8855591D01*
X30741808Y-8982887D01*
X30768251Y-9028686D01*
X30807700Y-9097014D01*
X30900886Y-9190200D01*
X31015014Y-9256092D01*
X31142308Y-9290200D01*
X31142310Y-9290200D01*
X31274090Y-9290200D01*
X31274092Y-9290200D01*
X31401386Y-9256092D01*
X31515514Y-9190200D01*
X31608700Y-9097014D01*
X31674592Y-8982886D01*
X31708700Y-8855592D01*
X31708700Y-8723808D01*
X31674592Y-8596514D01*
X31608700Y-8482386D01*
X31515514Y-8389200D01*
X31444154Y-8348000D01*
X31401387Y-8323308D01*
X31366245Y-8313892D01*
X31274092Y-8289200D01*
X31142308Y-8289200D01*
X31015012Y-8323308D01*
X30900886Y-8389200D01*
X30900883Y-8389202D01*
X30807702Y-8482383D01*
X30807700Y-8482386D01*
X30741808Y-8596512D01*
X30707700Y-8723808D01*
X19946995Y-8723808D01*
X19934800Y-8702686D01*
X19841614Y-8609500D01*
X19771494Y-8569016D01*
X19727487Y-8543608D01*
X19663839Y-8526554D01*
X19600192Y-8509500D01*
X19468408Y-8509500D01*
X19341112Y-8543608D01*
X19226986Y-8609500D01*
X19226983Y-8609502D01*
X19133802Y-8702683D01*
X19133800Y-8702686D01*
X19067908Y-8816812D01*
X19033800Y-8944108D01*
X300500Y-8944108D01*
X300500Y-7684108D01*
X23931100Y-7684108D01*
X23931100Y-7815891D01*
X23965208Y-7943187D01*
X23975270Y-7960614D01*
X24031100Y-8057314D01*
X24124286Y-8150500D01*
X24238414Y-8216392D01*
X24365708Y-8250500D01*
X24365710Y-8250500D01*
X24497490Y-8250500D01*
X24497492Y-8250500D01*
X24624786Y-8216392D01*
X24660438Y-8195808D01*
X32327200Y-8195808D01*
X32327200Y-8327591D01*
X32361308Y-8454887D01*
X32362004Y-8456092D01*
X32427200Y-8569014D01*
X32520386Y-8662200D01*
X32634514Y-8728092D01*
X32761808Y-8762200D01*
X32761810Y-8762200D01*
X32893590Y-8762200D01*
X32893592Y-8762200D01*
X33020886Y-8728092D01*
X33135014Y-8662200D01*
X33228200Y-8569014D01*
X33294092Y-8454886D01*
X33328200Y-8327592D01*
X33328200Y-8324308D01*
X36400500Y-8324308D01*
X36400500Y-8456092D01*
X36417554Y-8519739D01*
X36434608Y-8583387D01*
X36442186Y-8596512D01*
X36500500Y-8697514D01*
X36593686Y-8790700D01*
X36707814Y-8856592D01*
X36835108Y-8890700D01*
X36835110Y-8890700D01*
X36966890Y-8890700D01*
X36966892Y-8890700D01*
X37094186Y-8856592D01*
X37208314Y-8790700D01*
X37229406Y-8769608D01*
X39542800Y-8769608D01*
X39542800Y-8901391D01*
X39576908Y-9028687D01*
X39602847Y-9073613D01*
X39642800Y-9142814D01*
X39735986Y-9236000D01*
X39850114Y-9301892D01*
X39977408Y-9336000D01*
X39977410Y-9336000D01*
X40109190Y-9336000D01*
X40109192Y-9336000D01*
X40236486Y-9301892D01*
X40350614Y-9236000D01*
X40443800Y-9142814D01*
X40509692Y-9028686D01*
X40543800Y-8901392D01*
X40543800Y-8769608D01*
X40525258Y-8700408D01*
X44384700Y-8700408D01*
X44384700Y-8832192D01*
X44390970Y-8855591D01*
X44418808Y-8959487D01*
X44451754Y-9016550D01*
X44484700Y-9073614D01*
X44577886Y-9166800D01*
X44692014Y-9232692D01*
X44819308Y-9266800D01*
X44819310Y-9266800D01*
X44951090Y-9266800D01*
X44951092Y-9266800D01*
X45078386Y-9232692D01*
X45192514Y-9166800D01*
X45285700Y-9073614D01*
X45351592Y-8959486D01*
X45385700Y-8832192D01*
X45385700Y-8700408D01*
X45351592Y-8573114D01*
X45285700Y-8458986D01*
X45192514Y-8365800D01*
X45126333Y-8327590D01*
X45078387Y-8299908D01*
X45014739Y-8282854D01*
X44951092Y-8265800D01*
X44819308Y-8265800D01*
X44692012Y-8299908D01*
X44577886Y-8365800D01*
X44577883Y-8365802D01*
X44484702Y-8458983D01*
X44484700Y-8458986D01*
X44418808Y-8573112D01*
X44394938Y-8662199D01*
X44384700Y-8700408D01*
X40525258Y-8700408D01*
X40509692Y-8642314D01*
X40443800Y-8528186D01*
X40396840Y-8481226D01*
X40363355Y-8419903D01*
X40368339Y-8350211D01*
X40410211Y-8294278D01*
X40422505Y-8286167D01*
X40488614Y-8248000D01*
X40581800Y-8154814D01*
X40647692Y-8040686D01*
X40681800Y-7913392D01*
X40681800Y-7781608D01*
X40647692Y-7654314D01*
X40581800Y-7540186D01*
X40488614Y-7447000D01*
X40431550Y-7414054D01*
X40374487Y-7381108D01*
X40310839Y-7364054D01*
X40247192Y-7347000D01*
X40115408Y-7347000D01*
X39988112Y-7381108D01*
X39873986Y-7447000D01*
X39873983Y-7447002D01*
X39780802Y-7540183D01*
X39780800Y-7540186D01*
X39714908Y-7654312D01*
X39697524Y-7719191D01*
X39680800Y-7781608D01*
X39680800Y-7913392D01*
X39691783Y-7954383D01*
X39714908Y-8040687D01*
X39739272Y-8082886D01*
X39780800Y-8154814D01*
X39780802Y-8154816D01*
X39827759Y-8201773D01*
X39861244Y-8263096D01*
X39856260Y-8332788D01*
X39814388Y-8388721D01*
X39802079Y-8396841D01*
X39735986Y-8435000D01*
X39735983Y-8435002D01*
X39642802Y-8528183D01*
X39642800Y-8528186D01*
X39576908Y-8642312D01*
X39542800Y-8769608D01*
X37229406Y-8769608D01*
X37301500Y-8697514D01*
X37367392Y-8583386D01*
X37401500Y-8456092D01*
X37401500Y-8324308D01*
X37367392Y-8197014D01*
X37301500Y-8082886D01*
X37208314Y-7989700D01*
X37147143Y-7954383D01*
X37094187Y-7923808D01*
X37030539Y-7906754D01*
X36966892Y-7889700D01*
X36835108Y-7889700D01*
X36707812Y-7923808D01*
X36593686Y-7989700D01*
X36593683Y-7989702D01*
X36500502Y-8082883D01*
X36500500Y-8082886D01*
X36434608Y-8197012D01*
X36416177Y-8265800D01*
X36400500Y-8324308D01*
X33328200Y-8324308D01*
X33328200Y-8195808D01*
X33294092Y-8068514D01*
X33228200Y-7954386D01*
X33135014Y-7861200D01*
X33077950Y-7828254D01*
X33020887Y-7795308D01*
X32957239Y-7778254D01*
X32893592Y-7761200D01*
X32761808Y-7761200D01*
X32634512Y-7795308D01*
X32520386Y-7861200D01*
X32520383Y-7861202D01*
X32427202Y-7954383D01*
X32427200Y-7954386D01*
X32361308Y-8068512D01*
X32327200Y-8195808D01*
X24660438Y-8195808D01*
X24738914Y-8150500D01*
X24832100Y-8057314D01*
X24897992Y-7943186D01*
X24932100Y-7815892D01*
X24932100Y-7684108D01*
X24897992Y-7556814D01*
X24832100Y-7442686D01*
X24738914Y-7349500D01*
X24681850Y-7316554D01*
X24624787Y-7283608D01*
X24509815Y-7252802D01*
X24497492Y-7249500D01*
X24365708Y-7249500D01*
X24238412Y-7283608D01*
X24124286Y-7349500D01*
X24124283Y-7349502D01*
X24031102Y-7442683D01*
X24031100Y-7442686D01*
X23965208Y-7556812D01*
X23931100Y-7684108D01*
X300500Y-7684108D01*
X300500Y-6962808D01*
X42354300Y-6962808D01*
X42354300Y-7094591D01*
X42388408Y-7221887D01*
X42421354Y-7278950D01*
X42454300Y-7336014D01*
X42547486Y-7429200D01*
X42661614Y-7495092D01*
X42788908Y-7529200D01*
X42788910Y-7529200D01*
X42920690Y-7529200D01*
X42920692Y-7529200D01*
X43047986Y-7495092D01*
X43162114Y-7429200D01*
X43225276Y-7366037D01*
X43286595Y-7332555D01*
X43356287Y-7337539D01*
X43412221Y-7379410D01*
X43420340Y-7391720D01*
X43459829Y-7460114D01*
X43487600Y-7508214D01*
X43580786Y-7601400D01*
X43694914Y-7667292D01*
X43822208Y-7701400D01*
X43822210Y-7701400D01*
X43953990Y-7701400D01*
X43953992Y-7701400D01*
X44081286Y-7667292D01*
X44195414Y-7601400D01*
X44209406Y-7587408D01*
X58804300Y-7587408D01*
X58804300Y-7719191D01*
X58838408Y-7846487D01*
X58846903Y-7861200D01*
X58904300Y-7960614D01*
X58997486Y-8053800D01*
X59111614Y-8119692D01*
X59238908Y-8153800D01*
X59238910Y-8153800D01*
X59370690Y-8153800D01*
X59370692Y-8153800D01*
X59497986Y-8119692D01*
X59612114Y-8053800D01*
X59705300Y-7960614D01*
X59771192Y-7846486D01*
X59805300Y-7719192D01*
X59805300Y-7587408D01*
X59771192Y-7460114D01*
X59705300Y-7345986D01*
X59612114Y-7252800D01*
X59555050Y-7219854D01*
X59497987Y-7186908D01*
X59434339Y-7169854D01*
X59370692Y-7152800D01*
X59238908Y-7152800D01*
X59111612Y-7186908D01*
X58997486Y-7252800D01*
X58997483Y-7252802D01*
X58904302Y-7345983D01*
X58904300Y-7345986D01*
X58838408Y-7460112D01*
X58804300Y-7587408D01*
X44209406Y-7587408D01*
X44288600Y-7508214D01*
X44354492Y-7394086D01*
X44388600Y-7266792D01*
X44388600Y-7135008D01*
X44354492Y-7007714D01*
X44288600Y-6893586D01*
X44195414Y-6800400D01*
X44138350Y-6767454D01*
X44081287Y-6734508D01*
X44017639Y-6717454D01*
X43953992Y-6700400D01*
X43822208Y-6700400D01*
X43694912Y-6734508D01*
X43580786Y-6800400D01*
X43517626Y-6863560D01*
X43456302Y-6897044D01*
X43386611Y-6892059D01*
X43330677Y-6850188D01*
X43322558Y-6837879D01*
X43298327Y-6795911D01*
X43255300Y-6721386D01*
X43162114Y-6628200D01*
X43105050Y-6595254D01*
X43047987Y-6562308D01*
X42984339Y-6545254D01*
X42920692Y-6528200D01*
X42788908Y-6528200D01*
X42661612Y-6562308D01*
X42547486Y-6628200D01*
X42547483Y-6628202D01*
X42454302Y-6721383D01*
X42454300Y-6721386D01*
X42388408Y-6835512D01*
X42354300Y-6962808D01*
X300500Y-6962808D01*
X300500Y-6374000D01*
X320185Y-6306961D01*
X372989Y-6261206D01*
X424500Y-6250000D01*
X36000000Y-6250000D01*
X36000000Y-4326408D01*
X41624500Y-4326408D01*
X41624500Y-4458191D01*
X41658608Y-4585487D01*
X41691554Y-4642550D01*
X41724500Y-4699614D01*
X41817686Y-4792800D01*
X41931814Y-4858692D01*
X42059108Y-4892800D01*
X42059110Y-4892800D01*
X42190890Y-4892800D01*
X42190892Y-4892800D01*
X42318186Y-4858692D01*
X42432314Y-4792800D01*
X42525500Y-4699614D01*
X42591392Y-4585486D01*
X42625500Y-4458192D01*
X42625500Y-4326408D01*
X42621079Y-4309908D01*
X46936800Y-4309908D01*
X46936800Y-4441692D01*
X46937631Y-4444792D01*
X46970908Y-4568987D01*
X47003854Y-4626050D01*
X47036800Y-4683114D01*
X47129986Y-4776300D01*
X47244114Y-4842192D01*
X47371408Y-4876300D01*
X47371410Y-4876300D01*
X47503190Y-4876300D01*
X47503192Y-4876300D01*
X47630486Y-4842192D01*
X47744614Y-4776300D01*
X47837800Y-4683114D01*
X47903692Y-4568986D01*
X47937800Y-4441692D01*
X47937800Y-4385508D01*
X56897300Y-4385508D01*
X56897300Y-4517291D01*
X56931408Y-4644587D01*
X56963180Y-4699616D01*
X56997300Y-4758714D01*
X57090486Y-4851900D01*
X57204614Y-4917792D01*
X57331908Y-4951900D01*
X57331910Y-4951900D01*
X57463690Y-4951900D01*
X57463692Y-4951900D01*
X57590986Y-4917792D01*
X57705114Y-4851900D01*
X57798300Y-4758714D01*
X57864192Y-4644586D01*
X57898300Y-4517292D01*
X57898300Y-4385508D01*
X57878874Y-4313008D01*
X59215300Y-4313008D01*
X59215300Y-4444792D01*
X59232354Y-4508439D01*
X59249408Y-4572087D01*
X59257145Y-4585487D01*
X59315300Y-4686214D01*
X59408486Y-4779400D01*
X59471907Y-4816016D01*
X59517244Y-4842192D01*
X59522614Y-4845292D01*
X59649908Y-4879400D01*
X59649910Y-4879400D01*
X59781690Y-4879400D01*
X59781692Y-4879400D01*
X59908986Y-4845292D01*
X60023114Y-4779400D01*
X60116300Y-4686214D01*
X60182192Y-4572086D01*
X60216300Y-4444792D01*
X60216300Y-4442808D01*
X64158300Y-4442808D01*
X64158300Y-4574592D01*
X64175354Y-4638239D01*
X64192408Y-4701887D01*
X64225217Y-4758713D01*
X64258300Y-4816014D01*
X64351486Y-4909200D01*
X64465614Y-4975092D01*
X64592908Y-5009200D01*
X64592910Y-5009200D01*
X64724690Y-5009200D01*
X64724692Y-5009200D01*
X64851986Y-4975092D01*
X64966114Y-4909200D01*
X65059300Y-4816014D01*
X65125192Y-4701886D01*
X65159300Y-4574592D01*
X65159300Y-4442808D01*
X65125192Y-4315514D01*
X65059300Y-4201386D01*
X64966114Y-4108200D01*
X64902692Y-4071583D01*
X64851987Y-4042308D01*
X64788339Y-4025254D01*
X64724692Y-4008200D01*
X64592908Y-4008200D01*
X64465612Y-4042308D01*
X64351486Y-4108200D01*
X64351483Y-4108202D01*
X64258302Y-4201383D01*
X64258300Y-4201386D01*
X64192408Y-4315512D01*
X64173653Y-4385508D01*
X64158300Y-4442808D01*
X60216300Y-4442808D01*
X60216300Y-4313008D01*
X60182192Y-4185714D01*
X60116300Y-4071586D01*
X60023114Y-3978400D01*
X59966050Y-3945454D01*
X59908987Y-3912508D01*
X59831702Y-3891800D01*
X59781692Y-3878400D01*
X59649908Y-3878400D01*
X59522612Y-3912508D01*
X59408486Y-3978400D01*
X59408483Y-3978402D01*
X59315302Y-4071583D01*
X59315300Y-4071586D01*
X59249408Y-4185712D01*
X59240299Y-4219709D01*
X59215300Y-4313008D01*
X57878874Y-4313008D01*
X57864192Y-4258214D01*
X57798300Y-4144086D01*
X57705114Y-4050900D01*
X57602754Y-3991802D01*
X57590987Y-3985008D01*
X57527339Y-3967954D01*
X57463692Y-3950900D01*
X57331908Y-3950900D01*
X57204612Y-3985008D01*
X57090486Y-4050900D01*
X57090483Y-4050902D01*
X56997302Y-4144083D01*
X56997300Y-4144086D01*
X56931408Y-4258212D01*
X56897300Y-4385508D01*
X47937800Y-4385508D01*
X47937800Y-4309908D01*
X47903692Y-4182614D01*
X47837800Y-4068486D01*
X47744614Y-3975300D01*
X47659065Y-3925908D01*
X47630487Y-3909408D01*
X47514761Y-3878400D01*
X47503192Y-3875300D01*
X47371408Y-3875300D01*
X47244112Y-3909408D01*
X47129986Y-3975300D01*
X47129983Y-3975302D01*
X47036802Y-4068483D01*
X47036800Y-4068486D01*
X46970908Y-4182612D01*
X46952718Y-4250500D01*
X46936800Y-4309908D01*
X42621079Y-4309908D01*
X42591392Y-4199114D01*
X42583655Y-4185714D01*
X42559621Y-4144086D01*
X42525500Y-4084986D01*
X42432314Y-3991800D01*
X42366540Y-3953825D01*
X42318187Y-3925908D01*
X42254539Y-3908854D01*
X42190892Y-3891800D01*
X42059108Y-3891800D01*
X41931812Y-3925908D01*
X41817686Y-3991800D01*
X41817683Y-3991802D01*
X41724502Y-4084983D01*
X41724500Y-4084986D01*
X41658608Y-4199112D01*
X41624500Y-4326408D01*
X36000000Y-4326408D01*
X36000000Y-3043908D01*
X40353700Y-3043908D01*
X40353700Y-3175691D01*
X40387808Y-3302987D01*
X40420754Y-3360050D01*
X40453700Y-3417114D01*
X40546886Y-3510300D01*
X40661014Y-3576192D01*
X40788308Y-3610300D01*
X40788310Y-3610300D01*
X40920090Y-3610300D01*
X40920092Y-3610300D01*
X41047386Y-3576192D01*
X41161514Y-3510300D01*
X41254700Y-3417114D01*
X41320592Y-3302986D01*
X41354700Y-3175692D01*
X41354700Y-3043908D01*
X41320592Y-2916614D01*
X41311910Y-2901577D01*
X70749500Y-2901577D01*
X70749500Y-3098422D01*
X70780290Y-3292826D01*
X70841117Y-3480029D01*
X70890115Y-3576192D01*
X70930476Y-3655405D01*
X71046172Y-3814646D01*
X71185354Y-3953828D01*
X71344595Y-4069524D01*
X71420501Y-4108200D01*
X71519970Y-4158882D01*
X71519972Y-4158882D01*
X71519975Y-4158884D01*
X71593002Y-4182612D01*
X71707173Y-4219709D01*
X71901578Y-4250500D01*
X71901583Y-4250500D01*
X72098422Y-4250500D01*
X72292826Y-4219709D01*
X72480025Y-4158884D01*
X72655405Y-4069524D01*
X72814646Y-3953828D01*
X72953828Y-3814646D01*
X73069524Y-3655405D01*
X73158884Y-3480025D01*
X73219709Y-3292826D01*
X73238261Y-3175692D01*
X73250500Y-3098422D01*
X73250500Y-2901577D01*
X73219709Y-2707173D01*
X73158882Y-2519970D01*
X73069523Y-2344594D01*
X72953828Y-2185354D01*
X72814646Y-2046172D01*
X72655405Y-1930476D01*
X72480029Y-1841117D01*
X72292826Y-1780290D01*
X72098422Y-1749500D01*
X72098417Y-1749500D01*
X71901583Y-1749500D01*
X71901578Y-1749500D01*
X71707173Y-1780290D01*
X71519970Y-1841117D01*
X71344594Y-1930476D01*
X71253741Y-1996485D01*
X71185354Y-2046172D01*
X71185352Y-2046174D01*
X71185351Y-2046174D01*
X71046174Y-2185351D01*
X71046174Y-2185352D01*
X71046172Y-2185354D01*
X70996485Y-2253741D01*
X70930476Y-2344594D01*
X70841117Y-2519970D01*
X70780290Y-2707173D01*
X70749500Y-2901577D01*
X41311910Y-2901577D01*
X41254700Y-2802486D01*
X41161514Y-2709300D01*
X41104450Y-2676354D01*
X41047387Y-2643408D01*
X40983739Y-2626354D01*
X40920092Y-2609300D01*
X40788308Y-2609300D01*
X40661012Y-2643408D01*
X40546886Y-2709300D01*
X40546883Y-2709302D01*
X40453702Y-2802483D01*
X40453700Y-2802486D01*
X40387808Y-2916612D01*
X40353700Y-3043908D01*
X36000000Y-3043908D01*
X36000000Y-424500D01*
X36019685Y-357461D01*
X36072489Y-311706D01*
X36124000Y-300500D01*
X74575500Y-300500D01*
X74642539Y-320185D01*
G37*
%TD.AperFunction*%
%TD*%
M02*
