%TF.GenerationSoftware,KiCad,Pcbnew,10.0.6*%
%TF.CreationDate,2026-09-26T20:37:58+06:00*%
%TF.ProjectId,afo_revb_main,61666f5f-7265-4766-925f-6d61696e2e6b,rev?*%
%TF.SameCoordinates,Original*%
%TF.FileFunction,Legend,Top*%
%TF.FilePolarity,Positive*%
%FSLAX46Y46*%
G04 Gerber Fmt 4.6, Leading zero omitted, Abs format (unit mm)*
G04 Created by KiCad (PCBNEW 10.0.6) date 2026-09-26 20:37:58*
%MOMM*%
%LPD*%
G01*
G04 APERTURE LIST*
%ADD10C,0.120000*%
G04 APERTURE END LIST*
%TO.C,R10*%
D10*
X33727500Y-29237258D02*
X33727500Y-28762742D01*
X34772500Y-29237258D02*
X34772500Y-28762742D01*
%TO.C,R102*%
X54762742Y-9727500D02*
X55237258Y-9727500D01*
X54762742Y-10772500D02*
X55237258Y-10772500D01*
%TO.C,R62*%
X43012742Y-8977500D02*
X43487258Y-8977500D01*
X43012742Y-10022500D02*
X43487258Y-10022500D01*
%TO.C,R53*%
X23262742Y-7977500D02*
X23737258Y-7977500D01*
X23262742Y-9022500D02*
X23737258Y-9022500D01*
%TO.C,J2*%
X29025000Y-32115000D02*
X29025000Y-35725000D01*
X29025000Y-37425000D02*
X29025000Y-42125000D01*
X29025000Y-43425000D02*
X29025000Y-45225000D01*
X29475000Y-32115000D02*
X29025000Y-32115000D01*
X30055000Y-48385000D02*
X29855000Y-48185000D01*
X30055000Y-48385000D02*
X31915000Y-48385000D01*
X31915000Y-48385000D02*
X32125000Y-48185000D01*
X32125000Y-48035000D02*
X32125000Y-48185000D01*
X32125000Y-48035000D02*
X38495000Y-48035000D01*
X39005000Y-48385000D02*
X38495000Y-48035000D01*
X41075000Y-32115000D02*
X42995000Y-32115000D01*
X41315000Y-48385000D02*
X39005000Y-48385000D01*
X41315000Y-48385000D02*
X41515000Y-48185000D01*
X41515000Y-48185000D02*
X41775000Y-48185000D01*
X42995000Y-32115000D02*
X42995000Y-46125000D01*
%TO.C,C44*%
X31109420Y-7240000D02*
X31390580Y-7240000D01*
X31109420Y-8260000D02*
X31390580Y-8260000D01*
%TO.C,R104*%
X44512742Y-15477500D02*
X44987258Y-15477500D01*
X44512742Y-16522500D02*
X44987258Y-16522500D01*
%TO.C,J10*%
X31515000Y-14260000D02*
X31515000Y-15860000D01*
X31515000Y-15860000D02*
X33315000Y-15860000D01*
X32785000Y-11390000D02*
X41215000Y-11390000D01*
X33315000Y-15860000D02*
X33315000Y-16800000D01*
X42485000Y-14260000D02*
X42485000Y-15860000D01*
X42485000Y-15860000D02*
X40685000Y-15860000D01*
%TO.C,J7*%
X66640000Y-33260000D02*
X66640000Y-34860000D01*
X66640000Y-34860000D02*
X68440000Y-34860000D01*
X67910000Y-30390000D02*
X72590000Y-30390000D01*
X68440000Y-34860000D02*
X68440000Y-35800000D01*
X73860000Y-33260000D02*
X73860000Y-34860000D01*
X73860000Y-34860000D02*
X72060000Y-34860000D01*
%TO.C,C102*%
X46740000Y-15640580D02*
X46740000Y-15359420D01*
X47760000Y-15640580D02*
X47760000Y-15359420D01*
%TO.C,U7*%
X48090000Y-42440000D02*
X49910000Y-42440000D01*
X48090000Y-42490000D02*
X48090000Y-42440000D01*
X48090000Y-45560000D02*
X48090000Y-45510000D01*
X49910000Y-42440000D02*
X49910000Y-42490000D01*
X49910000Y-43610000D02*
X49910000Y-44390000D01*
X49910000Y-45510000D02*
X49910000Y-45560000D01*
X49910000Y-45560000D02*
X48090000Y-45560000D01*
X47550000Y-42490000D02*
X47310000Y-42160000D01*
X47790000Y-42160000D01*
X47550000Y-42490000D01*
G36*
X47550000Y-42490000D02*
G01*
X47310000Y-42160000D01*
X47790000Y-42160000D01*
X47550000Y-42490000D01*
G37*
%TO.C,J3*%
X37265000Y-4010000D02*
X37265000Y-5610000D01*
X37265000Y-5610000D02*
X39065000Y-5610000D01*
X38535000Y-1140000D02*
X49465000Y-1140000D01*
X39065000Y-5610000D02*
X39065000Y-6550000D01*
X50735000Y-4010000D02*
X50735000Y-5610000D01*
X50735000Y-5610000D02*
X48935000Y-5610000D01*
%TO.C,C31*%
X64109420Y-45240000D02*
X64390580Y-45240000D01*
X64109420Y-46260000D02*
X64390580Y-46260000D01*
%TO.C,R24*%
X23762742Y-40477500D02*
X24237258Y-40477500D01*
X23762742Y-41522500D02*
X24237258Y-41522500D01*
%TO.C,R101*%
X71512742Y-7977500D02*
X71987258Y-7977500D01*
X71512742Y-9022500D02*
X71987258Y-9022500D01*
%TO.C,C120*%
X63740000Y-28140580D02*
X63740000Y-27859420D01*
X64760000Y-28140580D02*
X64760000Y-27859420D01*
%TO.C,R134*%
X45512742Y-40727500D02*
X45987258Y-40727500D01*
X45512742Y-41772500D02*
X45987258Y-41772500D01*
%TO.C,R12*%
X37227500Y-29237258D02*
X37227500Y-28762742D01*
X38272500Y-29237258D02*
X38272500Y-28762742D01*
%TO.C,D1*%
X2840000Y-37190000D02*
X4660000Y-37190000D01*
X2840000Y-37240000D02*
X2840000Y-37190000D01*
X2840000Y-40310000D02*
X2840000Y-40260000D01*
X4660000Y-37190000D02*
X4660000Y-37240000D01*
X4660000Y-40260000D02*
X4660000Y-40310000D01*
X4660000Y-40310000D02*
X2840000Y-40310000D01*
X2300000Y-37240000D02*
X2060000Y-36910000D01*
X2540000Y-36910000D01*
X2300000Y-37240000D01*
G36*
X2300000Y-37240000D02*
G01*
X2060000Y-36910000D01*
X2540000Y-36910000D01*
X2300000Y-37240000D01*
G37*
%TO.C,C211*%
X29859420Y-26490000D02*
X30140580Y-26490000D01*
X29859420Y-27510000D02*
X30140580Y-27510000D01*
%TO.C,R54*%
X28262742Y-28227500D02*
X28737258Y-28227500D01*
X28262742Y-29272500D02*
X28737258Y-29272500D01*
%TO.C,R11*%
X35477500Y-29237258D02*
X35477500Y-28762742D01*
X36522500Y-29237258D02*
X36522500Y-28762742D01*
%TO.C,R13*%
X38977500Y-27237258D02*
X38977500Y-26762742D01*
X40022500Y-27237258D02*
X40022500Y-26762742D01*
%TO.C,U4*%
X55690000Y-31140000D02*
X60310000Y-31140000D01*
X55690000Y-31340000D02*
X55690000Y-31140000D01*
X55690000Y-36360000D02*
X55690000Y-36160000D01*
X60310000Y-31140000D02*
X60310000Y-31340000D01*
X60310000Y-36160000D02*
X60310000Y-36360000D01*
X60310000Y-36360000D02*
X55690000Y-36360000D01*
X55050000Y-31340000D02*
X54710000Y-30870000D01*
X55390000Y-30870000D01*
X55050000Y-31340000D01*
G36*
X55050000Y-31340000D02*
G01*
X54710000Y-30870000D01*
X55390000Y-30870000D01*
X55050000Y-31340000D01*
G37*
%TO.C,R30*%
X27762742Y-7727500D02*
X28237258Y-7727500D01*
X27762742Y-8772500D02*
X28237258Y-8772500D01*
%TO.C,SW3*%
X23500000Y-22000000D02*
X23500000Y-24000000D01*
X24550000Y-20700000D02*
X25000000Y-20250000D01*
X24550000Y-25300000D02*
X25000000Y-25750000D01*
X25000000Y-20250000D02*
X27500000Y-20250000D01*
X25000000Y-25750000D02*
X27500000Y-25750000D01*
X27950000Y-20700000D02*
X27500000Y-20250000D01*
X27950000Y-25300000D02*
X27500000Y-25750000D01*
X29000000Y-22000000D02*
X29000000Y-24000000D01*
%TO.C,C206*%
X58359420Y-23990000D02*
X58640580Y-23990000D01*
X58359420Y-25010000D02*
X58640580Y-25010000D01*
%TO.C,C203*%
X60738748Y-27765000D02*
X61261252Y-27765000D01*
X60738748Y-29235000D02*
X61261252Y-29235000D01*
%TO.C,C41*%
X7738748Y-33515000D02*
X8261252Y-33515000D01*
X7738748Y-34985000D02*
X8261252Y-34985000D01*
%TO.C,Q2*%
X16240000Y-39190000D02*
X17760000Y-39190000D01*
X16240000Y-39240000D02*
X16240000Y-39190000D01*
X16240000Y-41140000D02*
X16240000Y-40360000D01*
X16240000Y-42310000D02*
X16240000Y-42260000D01*
X17760000Y-39190000D02*
X17760000Y-40190000D01*
X17760000Y-41310000D02*
X17760000Y-42310000D01*
X17760000Y-42310000D02*
X16240000Y-42310000D01*
X15700000Y-40370000D02*
X15940000Y-40700000D01*
X15460000Y-40700000D01*
X15700000Y-40370000D01*
G36*
X15940000Y-40700000D02*
G01*
X15460000Y-40700000D01*
X15700000Y-40370000D01*
X15940000Y-40700000D01*
G37*
%TO.C,R20*%
X8012742Y-37977500D02*
X8487258Y-37977500D01*
X8012742Y-39022500D02*
X8487258Y-39022500D01*
%TO.C,U5*%
X59090000Y-43440000D02*
X60910000Y-43440000D01*
X59090000Y-43490000D02*
X59090000Y-43440000D01*
X59090000Y-46560000D02*
X59090000Y-46510000D01*
X60910000Y-43440000D02*
X60910000Y-43490000D01*
X60910000Y-44610000D02*
X60910000Y-45390000D01*
X60910000Y-46510000D02*
X60910000Y-46560000D01*
X60910000Y-46560000D02*
X59090000Y-46560000D01*
X58550000Y-43490000D02*
X58310000Y-43160000D01*
X58790000Y-43160000D01*
X58550000Y-43490000D01*
G36*
X58550000Y-43490000D02*
G01*
X58310000Y-43160000D01*
X58790000Y-43160000D01*
X58550000Y-43490000D01*
G37*
%TO.C,J4*%
X54265000Y-4010000D02*
X54265000Y-5610000D01*
X54265000Y-5610000D02*
X56065000Y-5610000D01*
X55535000Y-1140000D02*
X66465000Y-1140000D01*
X56065000Y-5610000D02*
X56065000Y-6550000D01*
X67735000Y-4010000D02*
X67735000Y-5610000D01*
X67735000Y-5610000D02*
X65935000Y-5610000D01*
%TO.C,C100*%
X60240000Y-9890580D02*
X60240000Y-9609420D01*
X61260000Y-9890580D02*
X61260000Y-9609420D01*
%TO.C,C130*%
X54990000Y-38390580D02*
X54990000Y-38109420D01*
X56010000Y-38390580D02*
X56010000Y-38109420D01*
%TO.C,R15*%
X20512742Y-38727500D02*
X20987258Y-38727500D01*
X20512742Y-39772500D02*
X20987258Y-39772500D01*
%TO.C,U3*%
X55690000Y-11640000D02*
X60310000Y-11640000D01*
X55690000Y-11840000D02*
X55690000Y-11640000D01*
X55690000Y-16860000D02*
X55690000Y-16660000D01*
X60310000Y-11640000D02*
X60310000Y-11840000D01*
X60310000Y-16660000D02*
X60310000Y-16860000D01*
X60310000Y-16860000D02*
X55690000Y-16860000D01*
X55050000Y-11840000D02*
X54710000Y-11370000D01*
X55390000Y-11370000D01*
X55050000Y-11840000D01*
G36*
X55050000Y-11840000D02*
G01*
X54710000Y-11370000D01*
X55390000Y-11370000D01*
X55050000Y-11840000D01*
G37*
%TO.C,U8*%
X32000000Y-22890000D02*
X34000000Y-22890000D01*
X32000000Y-25110000D02*
X34000000Y-25110000D01*
X31440000Y-22990000D02*
X31160000Y-22990000D01*
X31440000Y-22710000D01*
X31440000Y-22990000D01*
G36*
X31440000Y-22990000D02*
G01*
X31160000Y-22990000D01*
X31440000Y-22710000D01*
X31440000Y-22990000D01*
G37*
%TO.C,C3*%
X24109420Y-9740000D02*
X24390580Y-9740000D01*
X24109420Y-10760000D02*
X24390580Y-10760000D01*
%TO.C,C131*%
X52240000Y-43640580D02*
X52240000Y-43359420D01*
X53260000Y-43640580D02*
X53260000Y-43359420D01*
%TO.C,C204*%
X49109420Y-31490000D02*
X49390580Y-31490000D01*
X49109420Y-32510000D02*
X49390580Y-32510000D01*
%TO.C,L1*%
X10740000Y-28740000D02*
X15260000Y-28740000D01*
X10740000Y-33260000D02*
X10740000Y-28740000D01*
X15260000Y-28740000D02*
X15260000Y-33260000D01*
X15260000Y-33260000D02*
X10740000Y-33260000D01*
%TO.C,C121*%
X62490000Y-31390580D02*
X62490000Y-31109420D01*
X63510000Y-31390580D02*
X63510000Y-31109420D01*
%TO.C,C46*%
X51859420Y-46240000D02*
X52140580Y-46240000D01*
X51859420Y-47260000D02*
X52140580Y-47260000D01*
%TO.C,C210*%
X32109420Y-21240000D02*
X32390580Y-21240000D01*
X32109420Y-22260000D02*
X32390580Y-22260000D01*
%TO.C,C101*%
X58490000Y-9890580D02*
X58490000Y-9609420D01*
X59510000Y-9890580D02*
X59510000Y-9609420D01*
%TO.C,D10*%
X62990000Y-7940000D02*
X64510000Y-7940000D01*
X62990000Y-7990000D02*
X62990000Y-7940000D01*
X62990000Y-9890000D02*
X62990000Y-9110000D01*
X62990000Y-11060000D02*
X62990000Y-11010000D01*
X64510000Y-7940000D02*
X64510000Y-8940000D01*
X64510000Y-10060000D02*
X64510000Y-11060000D01*
X64510000Y-11060000D02*
X62990000Y-11060000D01*
X62450000Y-9120000D02*
X62690000Y-9450000D01*
X62210000Y-9450000D01*
X62450000Y-9120000D01*
G36*
X62690000Y-9450000D02*
G01*
X62210000Y-9450000D01*
X62450000Y-9120000D01*
X62690000Y-9450000D01*
G37*
%TO.C,D13*%
X54990000Y-40690000D02*
X56510000Y-40690000D01*
X54990000Y-40740000D02*
X54990000Y-40690000D01*
X54990000Y-42640000D02*
X54990000Y-41860000D01*
X54990000Y-43810000D02*
X54990000Y-43760000D01*
X56510000Y-40690000D02*
X56510000Y-41690000D01*
X56510000Y-42810000D02*
X56510000Y-43810000D01*
X56510000Y-43810000D02*
X54990000Y-43810000D01*
X54450000Y-41870000D02*
X54690000Y-42200000D01*
X54210000Y-42200000D01*
X54450000Y-41870000D01*
G36*
X54690000Y-42200000D02*
G01*
X54210000Y-42200000D01*
X54450000Y-41870000D01*
X54690000Y-42200000D01*
G37*
%TO.C,C45*%
X48859420Y-40740000D02*
X49140580Y-40740000D01*
X48859420Y-41760000D02*
X49140580Y-41760000D01*
%TO.C,C212*%
X36359420Y-23490000D02*
X36640580Y-23490000D01*
X36359420Y-24510000D02*
X36640580Y-24510000D01*
%TO.C,R121*%
X70762742Y-27977500D02*
X71237258Y-27977500D01*
X70762742Y-29022500D02*
X71237258Y-29022500D01*
%TO.C,C34*%
X48359420Y-35740000D02*
X48640580Y-35740000D01*
X48359420Y-36760000D02*
X48640580Y-36760000D01*
%TO.C,C43*%
X4359420Y-30490000D02*
X4640580Y-30490000D01*
X4359420Y-31510000D02*
X4640580Y-31510000D01*
%TO.C,R61*%
X38012742Y-7727500D02*
X38487258Y-7727500D01*
X38012742Y-8772500D02*
X38487258Y-8772500D01*
%TO.C,D11*%
X62990000Y-20440000D02*
X64510000Y-20440000D01*
X62990000Y-20490000D02*
X62990000Y-20440000D01*
X62990000Y-22390000D02*
X62990000Y-21610000D01*
X62990000Y-23560000D02*
X62990000Y-23510000D01*
X64510000Y-20440000D02*
X64510000Y-21440000D01*
X64510000Y-22560000D02*
X64510000Y-23560000D01*
X64510000Y-23560000D02*
X62990000Y-23560000D01*
X62450000Y-21620000D02*
X62690000Y-21950000D01*
X62210000Y-21950000D01*
X62450000Y-21620000D01*
G36*
X62690000Y-21950000D02*
G01*
X62210000Y-21950000D01*
X62450000Y-21620000D01*
X62690000Y-21950000D01*
G37*
%TO.C,R130*%
X62727500Y-34737258D02*
X62727500Y-34262742D01*
X63772500Y-34737258D02*
X63772500Y-34262742D01*
%TO.C,C40*%
X7738748Y-27015000D02*
X8261252Y-27015000D01*
X7738748Y-28485000D02*
X8261252Y-28485000D01*
%TO.C,R1*%
X23762742Y-11477500D02*
X24237258Y-11477500D01*
X23762742Y-12522500D02*
X24237258Y-12522500D01*
%TO.C,R114*%
X45762742Y-31227500D02*
X46237258Y-31227500D01*
X45762742Y-32272500D02*
X46237258Y-32272500D01*
%TO.C,R14*%
X41227500Y-27237258D02*
X41227500Y-26762742D01*
X42272500Y-27237258D02*
X42272500Y-26762742D01*
%TO.C,R25*%
X35262742Y-21227500D02*
X35737258Y-21227500D01*
X35262742Y-22272500D02*
X35737258Y-22272500D01*
%TO.C,R132*%
X52762742Y-38477500D02*
X53237258Y-38477500D01*
X52762742Y-39522500D02*
X53237258Y-39522500D01*
%TO.C,C32*%
X63609420Y-36490000D02*
X63890580Y-36490000D01*
X63609420Y-37510000D02*
X63890580Y-37510000D01*
%TO.C,R112*%
X61512742Y-24227500D02*
X61987258Y-24227500D01*
X61512742Y-25272500D02*
X61987258Y-25272500D01*
%TO.C,R131*%
X70762742Y-37977500D02*
X71237258Y-37977500D01*
X70762742Y-39022500D02*
X71237258Y-39022500D01*
%TO.C,C205*%
X58359420Y-25990000D02*
X58640580Y-25990000D01*
X58359420Y-27010000D02*
X58640580Y-27010000D01*
%TO.C,R31*%
X31512742Y-8977500D02*
X31987258Y-8977500D01*
X31512742Y-10022500D02*
X31987258Y-10022500D01*
%TO.C,SW4*%
X20750000Y-44000000D02*
X20750000Y-46000000D01*
X21800000Y-42700000D02*
X22250000Y-42250000D01*
X21800000Y-47300000D02*
X22250000Y-47750000D01*
X22250000Y-42250000D02*
X24750000Y-42250000D01*
X22250000Y-47750000D02*
X24750000Y-47750000D01*
X25200000Y-42700000D02*
X24750000Y-42250000D01*
X25200000Y-47300000D02*
X24750000Y-47750000D01*
X26250000Y-44000000D02*
X26250000Y-46000000D01*
%TO.C,J1*%
X1330000Y-45400000D02*
X1330000Y-43700000D01*
X10670000Y-45400000D02*
X10670000Y-43700000D01*
%TO.C,C11*%
X40988748Y-29015000D02*
X41511252Y-29015000D01*
X40988748Y-30485000D02*
X41511252Y-30485000D01*
%TO.C,R52*%
X26512742Y-26477500D02*
X26987258Y-26477500D01*
X26512742Y-27522500D02*
X26987258Y-27522500D01*
%TO.C,C201*%
X61609420Y-25990000D02*
X61890580Y-25990000D01*
X61609420Y-27010000D02*
X61890580Y-27010000D01*
%TO.C,SW1*%
X16150000Y-32100000D02*
X17350000Y-32100000D01*
X16150000Y-34400000D02*
X16150000Y-32100000D01*
X19850000Y-32100000D02*
X19150000Y-32100000D01*
X22350000Y-32100000D02*
X21650000Y-32100000D01*
X24150000Y-32100000D02*
X25350000Y-32100000D01*
X25350000Y-32100000D02*
X25350000Y-34400000D01*
%TO.C,R21*%
X13012742Y-40977500D02*
X13487258Y-40977500D01*
X13012742Y-42022500D02*
X13487258Y-42022500D01*
%TO.C,C2*%
X3988748Y-27265000D02*
X4511252Y-27265000D01*
X3988748Y-28735000D02*
X4511252Y-28735000D01*
%TO.C,C10*%
X36859420Y-25990000D02*
X37140580Y-25990000D01*
X36859420Y-27010000D02*
X37140580Y-27010000D01*
%TO.C,SW2*%
X23500000Y-15000000D02*
X23500000Y-17000000D01*
X24550000Y-13700000D02*
X25000000Y-13250000D01*
X24550000Y-18300000D02*
X25000000Y-18750000D01*
X25000000Y-13250000D02*
X27500000Y-13250000D01*
X25000000Y-18750000D02*
X27500000Y-18750000D01*
X27950000Y-13700000D02*
X27500000Y-13250000D01*
X27950000Y-18300000D02*
X27500000Y-18750000D01*
X29000000Y-15000000D02*
X29000000Y-17000000D01*
%TO.C,C42*%
X7738748Y-35765000D02*
X8261252Y-35765000D01*
X7738748Y-37235000D02*
X8261252Y-37235000D01*
%TO.C,C1*%
X11359420Y-39240000D02*
X11640580Y-39240000D01*
X11359420Y-40260000D02*
X11640580Y-40260000D01*
%TO.C,R60*%
X34262742Y-7227500D02*
X34737258Y-7227500D01*
X34262742Y-8272500D02*
X34737258Y-8272500D01*
%TO.C,R23*%
X23762742Y-38727500D02*
X24237258Y-38727500D01*
X23762742Y-39772500D02*
X24237258Y-39772500D01*
%TO.C,R120*%
X64477500Y-31987258D02*
X64477500Y-31512742D01*
X65522500Y-31987258D02*
X65522500Y-31512742D01*
%TO.C,D21*%
X34015000Y-17765000D02*
X34015000Y-19235000D01*
X34015000Y-19235000D02*
X36300000Y-19235000D01*
X36300000Y-17765000D02*
X34015000Y-17765000D01*
%TO.C,D20*%
X33515000Y-8765000D02*
X33515000Y-10235000D01*
X33515000Y-10235000D02*
X35800000Y-10235000D01*
X35800000Y-8765000D02*
X33515000Y-8765000D01*
%TO.C,R3*%
X33012742Y-25727500D02*
X33487258Y-25727500D01*
X33012742Y-26772500D02*
X33487258Y-26772500D01*
%TO.C,C110*%
X62490000Y-15890580D02*
X62490000Y-15609420D01*
X63510000Y-15890580D02*
X63510000Y-15609420D01*
%TO.C,U2*%
X44890000Y-18890000D02*
X45840000Y-18890000D01*
X44890000Y-19840000D02*
X44890000Y-18890000D01*
X44890000Y-29110000D02*
X44890000Y-28160000D01*
X45840000Y-29110000D02*
X44890000Y-29110000D01*
X54160000Y-18890000D02*
X55110000Y-18890000D01*
X55110000Y-18890000D02*
X55110000Y-19840000D01*
X55110000Y-28160000D02*
X55110000Y-29110000D01*
X55110000Y-29110000D02*
X54160000Y-29110000D01*
X44250000Y-19840000D02*
X43910000Y-19370000D01*
X44590000Y-19370000D01*
X44250000Y-19840000D01*
G36*
X44250000Y-19840000D02*
G01*
X43910000Y-19370000D01*
X44590000Y-19370000D01*
X44250000Y-19840000D01*
G37*
%TO.C,R50*%
X4262742Y-33477500D02*
X4737258Y-33477500D01*
X4262742Y-34522500D02*
X4737258Y-34522500D01*
%TO.C,R110*%
X64477500Y-18737258D02*
X64477500Y-18262742D01*
X65522500Y-18737258D02*
X65522500Y-18262742D01*
%TO.C,J5*%
X66640000Y-13260000D02*
X66640000Y-14860000D01*
X66640000Y-14860000D02*
X68440000Y-14860000D01*
X67910000Y-10390000D02*
X72590000Y-10390000D01*
X68440000Y-14860000D02*
X68440000Y-15800000D01*
X73860000Y-13260000D02*
X73860000Y-14860000D01*
X73860000Y-14860000D02*
X72060000Y-14860000D01*
%TO.C,R41*%
X55762742Y-46227500D02*
X56237258Y-46227500D01*
X55762742Y-47272500D02*
X56237258Y-47272500D01*
%TO.C,R100*%
X68727500Y-7987258D02*
X68727500Y-7512742D01*
X69772500Y-7987258D02*
X69772500Y-7512742D01*
%TO.C,R111*%
X70762742Y-17977500D02*
X71237258Y-17977500D01*
X70762742Y-19022500D02*
X71237258Y-19022500D01*
%TO.C,R40*%
X55762742Y-44477500D02*
X56237258Y-44477500D01*
X55762742Y-45522500D02*
X56237258Y-45522500D01*
%TO.C,R122*%
X66512742Y-26977500D02*
X66987258Y-26977500D01*
X66512742Y-28022500D02*
X66987258Y-28022500D01*
%TO.C,R26*%
X38512742Y-21727500D02*
X38987258Y-21727500D01*
X38512742Y-22772500D02*
X38987258Y-22772500D01*
%TO.C,C33*%
X61609420Y-17740000D02*
X61890580Y-17740000D01*
X61609420Y-18760000D02*
X61890580Y-18760000D01*
%TO.C,D12*%
X57740000Y-36940000D02*
X59260000Y-36940000D01*
X57740000Y-36990000D02*
X57740000Y-36940000D01*
X57740000Y-38890000D02*
X57740000Y-38110000D01*
X57740000Y-40060000D02*
X57740000Y-40010000D01*
X59260000Y-36940000D02*
X59260000Y-37940000D01*
X59260000Y-39060000D02*
X59260000Y-40060000D01*
X59260000Y-40060000D02*
X57740000Y-40060000D01*
X57200000Y-38120000D02*
X57440000Y-38450000D01*
X56960000Y-38450000D01*
X57200000Y-38120000D01*
G36*
X57440000Y-38450000D02*
G01*
X56960000Y-38450000D01*
X57200000Y-38120000D01*
X57440000Y-38450000D01*
G37*
%TO.C,R2*%
X11762742Y-26977500D02*
X12237258Y-26977500D01*
X11762742Y-28022500D02*
X12237258Y-28022500D01*
%TO.C,J6*%
X66640000Y-23260000D02*
X66640000Y-24860000D01*
X66640000Y-24860000D02*
X68440000Y-24860000D01*
X67910000Y-20390000D02*
X72590000Y-20390000D01*
X68440000Y-24860000D02*
X68440000Y-25800000D01*
X73860000Y-23260000D02*
X73860000Y-24860000D01*
X73860000Y-24860000D02*
X72060000Y-24860000D01*
%TO.C,C207*%
X58488748Y-21765000D02*
X59011252Y-21765000D01*
X58488748Y-23235000D02*
X59011252Y-23235000D01*
%TO.C,C122*%
X44490000Y-38640580D02*
X44490000Y-38359420D01*
X45510000Y-38640580D02*
X45510000Y-38359420D01*
%TO.C,Q1*%
X27240000Y-9440000D02*
X28760000Y-9440000D01*
X27240000Y-9490000D02*
X27240000Y-9440000D01*
X27240000Y-11390000D02*
X27240000Y-10610000D01*
X27240000Y-12560000D02*
X27240000Y-12510000D01*
X28760000Y-9440000D02*
X28760000Y-10440000D01*
X28760000Y-11560000D02*
X28760000Y-12560000D01*
X28760000Y-12560000D02*
X27240000Y-12560000D01*
X26700000Y-10620000D02*
X26940000Y-10950000D01*
X26460000Y-10950000D01*
X26700000Y-10620000D01*
G36*
X26940000Y-10950000D02*
G01*
X26460000Y-10950000D01*
X26700000Y-10620000D01*
X26940000Y-10950000D01*
G37*
%TO.C,R51*%
X4262742Y-35477500D02*
X4737258Y-35477500D01*
X4262742Y-36522500D02*
X4737258Y-36522500D01*
%TO.C,C111*%
X57740000Y-29140580D02*
X57740000Y-28859420D01*
X58760000Y-29140580D02*
X58760000Y-28859420D01*
%TO.C,J9*%
X12265000Y-46260000D02*
X12265000Y-47860000D01*
X12265000Y-47860000D02*
X14065000Y-47860000D01*
X13535000Y-43390000D02*
X16965000Y-43390000D01*
X14065000Y-47860000D02*
X14065000Y-48800000D01*
X18235000Y-46260000D02*
X18235000Y-47860000D01*
X18235000Y-47860000D02*
X16435000Y-47860000D01*
%TO.C,R22*%
X20512742Y-40477500D02*
X20987258Y-40477500D01*
X20512742Y-41522500D02*
X20987258Y-41522500D01*
%TO.C,C30*%
X59859420Y-47240000D02*
X60140580Y-47240000D01*
X59859420Y-48260000D02*
X60140580Y-48260000D01*
%TO.C,R124*%
X45512742Y-33477500D02*
X45987258Y-33477500D01*
X45512742Y-34522500D02*
X45987258Y-34522500D01*
%TO.C,C208*%
X58488748Y-19515000D02*
X59011252Y-19515000D01*
X58488748Y-20985000D02*
X59011252Y-20985000D01*
%TO.C,R33*%
X44512742Y-12477500D02*
X44987258Y-12477500D01*
X44512742Y-13522500D02*
X44987258Y-13522500D01*
%TO.C,J8*%
X66640000Y-43260000D02*
X66640000Y-44860000D01*
X66640000Y-44860000D02*
X68440000Y-44860000D01*
X67910000Y-40390000D02*
X72590000Y-40390000D01*
X68440000Y-44860000D02*
X68440000Y-45800000D01*
X73860000Y-43260000D02*
X73860000Y-44860000D01*
X73860000Y-44860000D02*
X72060000Y-44860000D01*
%TO.C,C132*%
X44490000Y-44140580D02*
X44490000Y-43859420D01*
X45510000Y-44140580D02*
X45510000Y-43859420D01*
%TO.C,U1*%
X2800000Y-100000D02*
X2800000Y-6300000D01*
X2800000Y-100000D02*
X21200000Y-100000D01*
X2800000Y-24950000D02*
X2800000Y-25950000D01*
X2800000Y-25950000D02*
X4300000Y-25950000D01*
X21200000Y-100000D02*
X21200000Y-6300000D01*
X21200000Y-25950000D02*
X19700000Y-25950000D01*
X21200000Y-25950000D02*
X21200000Y-24950000D01*
X2800000Y-6975000D02*
X2300000Y-6975000D01*
X2800000Y-6475000D01*
X2800000Y-6975000D01*
G36*
X2800000Y-6975000D02*
G01*
X2300000Y-6975000D01*
X2800000Y-6475000D01*
X2800000Y-6975000D01*
G37*
%TO.C,C12*%
X32109420Y-19490000D02*
X32390580Y-19490000D01*
X32109420Y-20510000D02*
X32390580Y-20510000D01*
%TO.C,C202*%
X58359420Y-17740000D02*
X58640580Y-17740000D01*
X58359420Y-18760000D02*
X58640580Y-18760000D01*
%TO.C,U6*%
X6400000Y-30250000D02*
G75*
G02*
X6200000Y-30250000I-100000J0D01*
G01*
X6200000Y-30250000D02*
G75*
G02*
X6400000Y-30250000I100000J0D01*
G01*
%TO.C,R42*%
X63762742Y-43477500D02*
X64237258Y-43477500D01*
X63762742Y-44522500D02*
X64237258Y-44522500D01*
%TO.C,C200*%
X41359420Y-19740000D02*
X41640580Y-19740000D01*
X41359420Y-20760000D02*
X41640580Y-20760000D01*
%TO.C,C112*%
X41740000Y-22890580D02*
X41740000Y-22609420D01*
X42760000Y-22890580D02*
X42760000Y-22609420D01*
%TO.C,D22*%
X43265000Y-10515000D02*
X43265000Y-11985000D01*
X43265000Y-11985000D02*
X45550000Y-11985000D01*
X45550000Y-10515000D02*
X43265000Y-10515000D01*
%TD*%
M02*
