M48
; DRILL file KiCad 10.0.6 date 2026-09-27T12:06:45
; FORMAT={-:-/ absolute / metric / decimal}
; #@! TF.CreationDate,2026-09-27T12:06:45+06:00
; #@! TF.GenerationSoftware,Kicad,Pcbnew,10.0.6
; #@! TF.FileFunction,MixedPlating,1,4
FMAT,2
METRIC
; #@! TA.AperFunction,Plated,PTH,ComponentDrill
T1C0.200
; #@! TA.AperFunction,Plated,PTH,ViaDrill
T2C0.300
; #@! TA.AperFunction,Plated,PTH,ComponentDrill
T3C0.600
; #@! TA.AperFunction,NonPlated,NPTH,ComponentDrill
T4C0.650
; #@! TA.AperFunction,NonPlated,NPTH,ComponentDrill
T5C0.900
; #@! TA.AperFunction,NonPlated,NPTH,ComponentDrill
T6C2.200
%
G90
G05
T1
X9.1Y-14.76
X9.1Y-16.16
X9.8Y-14.06
X9.8Y-15.46
X9.8Y-16.86
X10.5Y-14.76
X10.5Y-16.16
X11.2Y-14.06
X11.2Y-15.46
X11.2Y-16.86
X11.9Y-14.76
X11.9Y-16.16
T2
X1.769Y-40.479
X2.0Y-15.36
X3.425Y-36.988
X3.964Y-40.368
X4.24Y-28.866
X4.502Y-9.01
X4.502Y-22.98
X4.503Y-12.82
X4.504Y-11.777
X4.504Y-17.673
X4.504Y-18.943
X4.504Y-20.213
X4.504Y-21.483
X4.505Y-10.28
X4.507Y-13.885
X4.516Y-16.416
X4.529Y-7.554
X4.75Y-42.925
X4.77Y-43.759
X4.869Y-29.926
X5.327Y-24.236
X5.698Y-30.016
X6.669Y-37.744
X6.748Y-28.998
X7.75Y-42.897
X8.184Y-37.7
X8.4Y-40.547
X9.03Y-24.244
X9.846Y-28.646
X9.974Y-27.158
X10.349Y-23.248
X11.12Y-43.58
X11.58Y-24.233
X11.912Y-28.237
X13.289Y-47.95
X13.386Y-24.231
X13.704Y-26.902
X14.852Y-39.918
X15.173Y-26.752
X16.467Y-24.239
X16.877Y-38.985
X16.948Y-27.237
X17.535Y-23.29
X17.571Y-13.934
X17.938Y-39.937
X18.174Y-27.648
X18.248Y-29.471
X18.917Y-37.196
X19.016Y-41.567
X19.368Y-16.116
X19.482Y-24.034
X19.486Y-15.36
X19.496Y-10.37
X19.496Y-11.817
X19.497Y-9.568
X19.497Y-14.09
X19.497Y-17.9
X19.524Y-28.77
X19.925Y-38.264
X20.75Y-29.476
X20.878Y-40.057
X21.575Y-38.248
X21.741Y-27.944
X22.009Y-7.217
X22.011Y-16.061
X22.094Y-36.913
X22.17Y-43.1
X22.313Y-41.738
X22.437Y-38.512
X22.498Y-12.822
X23.44Y-38.26
X24.323Y-7.217
X24.485Y-14.1
X24.562Y-25.69
X25.328Y-7.427
X25.556Y-12.786
X25.612Y-11.232
X25.757Y-41.0
X26.489Y-12.911
X26.833Y-27.742
X27.191Y-21.1
X28.067Y-12.815
X28.168Y-36.781
X28.464Y-26.239
X28.938Y-11.822
X29.795Y-8.818
X30.157Y-12.243
X30.543Y-20.099
X30.894Y-24.248
X31.288Y-33.39
X31.935Y-31.166
X32.117Y-15.159
X32.25Y-20.923
X32.648Y-17.87
X32.687Y-27.235
X33.07Y-15.145
X33.315Y-10.24
X33.546Y-27.396
X34.158Y-33.393
X35.099Y-28.982
X35.471Y-27.261
X35.5Y-19.215
X37.237Y-18.5
X37.425Y-9.241
X37.625Y-17.308
X37.88Y-33.381
X38.21Y-25.423
X38.807Y-5.601
X38.837Y-21.512
X38.875Y-14.565
X39.075Y-9.246
X39.762Y-20.114
X40.125Y-14.596
X40.496Y-25.929
X40.697Y-25.123
X40.875Y-7.087
X41.682Y-10.243
X42.125Y-7.078
X42.25Y-25.122
X42.806Y-26.487
X43.048Y-24.786
X43.175Y-13.75
X43.375Y-4.337
X43.925Y-16.989
X44.021Y-33.905
X44.201Y-44.024
X44.625Y-4.326
X44.824Y-15.249
X44.827Y-13.749
X45.582Y-30.507
X45.616Y-40.458
X45.82Y-8.293
X46.028Y-34.959
X46.084Y-25.318
X46.2Y-32.607
X46.521Y-42.531
X46.528Y-38.061
X46.558Y-23.966
X46.595Y-6.947
X46.749Y-24.809
X47.451Y-37.725
X48.487Y-35.488
X48.688Y-34.431
X49.191Y-6.515
X50.517Y-28.39
X50.75Y-17.037
X51.75Y-17.027
X51.982Y-45.043
X52.75Y-17.044
X52.928Y-38.247
X53.75Y-17.033
X53.797Y-42.534
X53.893Y-14.284
X53.895Y-33.601
X54.346Y-23.201
X54.365Y-27.2
X54.397Y-25.799
X55.813Y-6.512
X56.38Y-15.051
X56.381Y-16.2
X56.388Y-34.251
X56.389Y-32.951
X56.688Y-40.58
X57.028Y-10.525
X57.321Y-38.362
X58.428Y-19.053
X58.5Y-25.26
X59.125Y-4.339
X59.519Y-37.049
X59.602Y-12.368
X59.608Y-14.9
X59.609Y-32.599
X59.614Y-33.579
X59.749Y-17.272
X60.219Y-25.744
X60.375Y-4.337
X60.686Y-38.5
X60.925Y-23.768
X60.987Y-17.14
X61.812Y-7.066
X62.108Y-34.4
X62.137Y-13.451
X62.877Y-7.679
X63.272Y-29.064
X63.693Y-7.603
X64.006Y-16.265
X64.854Y-25.625
X65.227Y-43.01
X65.28Y-37.755
X65.577Y-33.961
X65.993Y-18.858
X66.014Y-28.482
X66.84Y-28.235
X68.158Y-34.205
X68.175Y-24.999
X68.176Y-44.756
X68.191Y-15.453
X68.507Y-7.832
X68.534Y-30.904
X69.637Y-43.778
X69.821Y-13.59
X70.25Y-33.571
X71.088Y-29.237
X71.5Y-16.306
X71.5Y-23.595
X71.825Y-17.519
X71.825Y-37.508
X71.84Y-9.235
X72.314Y-34.95
T4
X3.11Y-42.895
X8.89Y-42.895
T5
X17.35Y-34.0
X24.15Y-34.0
T6
X12.5Y-36.25
X63.25Y-40.5
X72.0Y-3.0
T3
X1.68Y-41.845G85X1.68Y-42.945
G05
X1.68Y-46.175G85X1.68Y-46.975
G05
X10.32Y-41.845G85X10.32Y-42.945
G05
X10.32Y-46.175G85X10.32Y-46.975
G05
M30
